<svg width="393" height="297" viewBox="0 0 393 297" fill="none" xmlns="http://www.w3.org/2000/svg">
<path d="M0 0H393V257C393 279.091 375.091 297 353 297H40C17.9086 297 0 279.091 0 257V0Z" fill="#312A54"/>
<path d="M349.76 42.1309C360.243 40.9189 369.73 48.2605 370.884 58.4773C372.039 68.6941 364.417 77.8682 353.915 78.9045C343.539 79.9277 334.256 72.6165 333.116 62.5231C331.975 52.4298 339.404 43.3282 349.76 42.1309Z" fill="#FEF7A0"/>
<path d="M159.315 46C160.778 46.6985 161.581 49.8472 162.15 51.2989C163.562 51.2688 165.781 50.9696 166.959 51.8102L167 52.338C166.267 53.4943 164.951 54.2433 163.869 55.1125C164.344 56.1519 165.297 57.7374 165.196 58.876C165.144 59.4533 165.048 59.54 164.602 59.8772C162.817 60.0068 161.246 58.7367 159.818 57.8727C158.023 58.4754 156.851 59.6794 154.836 60C154.657 59.9201 154.35 59.8433 154.266 59.6738C153.659 58.4465 154.764 56.2262 155.192 55.0279C154.454 54.4258 153.632 53.9099 152.891 53.3074C152.328 52.8512 152.049 52.4746 152 51.7894C152.026 51.7667 152.051 51.7431 152.077 51.7219C153.072 50.932 155.632 51.4355 156.851 51.539C157.627 49.6752 158.449 47.8284 159.315 46Z" fill="#FEF7A0"/>
<path d="M21.4566 238.673C22.0659 236.491 22.3536 233.616 23.8901 231.925C24.2443 231.535 24.6762 231.701 25.17 231.699C26.9836 233.269 27.5688 235.802 28.3224 238.027L30.4509 238.1C32.2479 238.133 34.0873 237.951 35.5989 239.096C35.6857 240.205 35.6865 240.247 34.9933 241.106C34.0465 242.277 32.6322 243.093 31.3955 243.913C31.7586 245.192 32.4631 246.975 32.3461 248.3C32.2464 249.432 32.1415 249.477 31.2724 250.171C28.9611 250.109 26.6439 248.459 24.6437 247.359C22.9826 248.625 21.3169 250.113 19.279 250.648C16.039 248.784 19.3492 246.437 18.043 244.035C17.0765 242.258 15.2326 241.09 14.2979 239.127L15.1028 238.416C17.2955 238.09 19.2745 238.362 21.4566 238.673Z" fill="#FEF7A0"/>
<path d="M236.754 257.235C238.424 257.379 239.27 257.461 240.602 258.614C241.445 259.344 241.938 260.593 241.985 261.709C242.055 263.344 241.184 265.188 240.119 266.376C238.384 268.31 235.985 268.106 233.612 268.172L232.163 268.569C230.205 267.054 229.873 263.24 229.314 260.841C231.688 259.22 233.961 257.911 236.754 257.235Z" fill="#FEF7A0"/>
<path d="M41.1082 79.6171C41.9251 79.3116 42.7817 79.4304 43.644 79.4466C44.5025 79.9457 45.1147 80.1417 45.6027 81.0504C46.5322 82.7822 46.4329 85.1173 45.9157 86.9764C45.3631 88.9613 44.3569 90.7587 42.6061 91.7276C41.4299 91.6551 40.1744 91.6103 39.0227 91.3511C37.2977 90.9623 36.1136 88.4799 35.2188 87.0481C35.8346 85.0571 36.3303 81.7153 38.2857 80.6878C39.1784 80.218 39.9636 80.3862 41.1082 79.6171Z" fill="#6F87F5"/>
<path d="M277.242 87.5461C277.801 87.6419 278.394 87.7441 278.916 87.9794C279.966 88.4539 280.585 89.5185 280.921 90.5927C281.385 92.0752 281.07 94.2522 280.164 95.5544C279.04 97.1706 277.442 97.1789 275.68 97.6104L273.293 97.4636C272.104 96.4992 271.669 96.1096 271.277 94.5717C270.847 92.8873 271.621 90.5569 272.6 89.1674C273.769 87.5086 275.408 87.7776 277.242 87.5461Z" fill="#FEF7A0"/>
<path d="M7.88609 24.7847C9.40301 24.9887 11.3488 25.2298 12.7094 25.9811C14.0874 26.7421 14.2664 27.5689 14.6696 28.9889C14.3426 31.0753 13.2901 32.4409 12.1084 34.1136C10.368 34.1234 7.89667 34.3396 6.43411 33.2377C5.86933 32.8123 5.08482 31.7984 5.02139 31.0638C4.79865 28.4788 6.35407 26.6357 7.88609 24.7847Z" fill="#FBD2CD"/>
<path d="M65.1844 181.964C67.4805 181.626 69.9141 181.335 71.915 182.789L72.0547 183.84C71.4182 185.381 70.8738 186.905 69.7329 188.139C69.6649 188.212 69.5932 188.282 69.523 188.354L70.1527 189.678C68.6539 190.909 68.0128 191.387 66.0867 191.344C65.3157 190.66 64.8876 190.37 64.5539 189.34C63.9604 187.509 64.3787 183.682 65.1844 181.964Z" fill="#6F87F5"/>
<path d="M292.556 214.232C294.256 214.381 294.967 214.354 296.403 215.38C297.003 216.784 297.352 217.391 296.835 218.936C296.319 220.474 295.004 221.03 293.669 221.626C292.064 221.326 289.969 221.183 289.103 219.592C288.367 218.242 288.528 217.518 288.929 216.161C290.296 214.84 290.798 214.667 292.556 214.232Z" fill="#FEF7A0"/>
<path d="M373.55 143.334C374.475 143.476 375.387 143.706 376.302 143.914C377.178 144.792 377.774 145.152 377.963 146.442C378.233 148.287 376.982 149.782 375.93 151.117C374.8 151.068 373.747 150.922 372.638 150.697C371.712 149.712 371.026 149.204 371.118 147.709C371.227 145.912 372.413 144.576 373.55 143.334Z" fill="#FBD2CD"/>
<path d="M165.241 89.9064C167.426 81.409 172.889 74.1256 180.433 69.6539C188.024 65.1449 197.101 63.8536 205.648 66.0667C214.202 68.276 221.521 73.8112 225.979 81.4432C228.195 85.2217 229.061 88.2228 230.027 92.43C238.155 94.6314 246.641 97.4503 253.385 102.645C253.944 103.075 255.181 103.909 255.577 104.445C255.595 104.468 255.604 104.498 255.618 104.524C256.509 104.798 257.447 105.473 258.236 105.968C261.87 108.25 265.575 111.169 267.619 115.034C268.963 117.577 269.409 120.424 268.541 123.199C266.984 128.175 262.035 131.618 257.629 133.899C254.219 135.665 250.623 136.958 246.969 138.111C246.797 138.617 246.031 139.307 245.667 139.711C242.509 143.257 239.04 146.514 235.301 149.441C222.818 159.152 207.234 164.159 191.433 162.137C172.272 159.685 156.744 148.076 145.194 133.146C144.44 132.74 143.572 132.44 142.784 132.096C136.541 129.364 128.109 124.542 125.517 117.821C124.5 115.186 124.567 112.392 125.737 109.818C128.555 103.615 136.408 99.8707 142.42 97.6408C143.285 97.2735 144.114 96.7374 144.947 96.297C146.189 95.6491 147.461 95.0593 148.759 94.5293C152.57 93.0052 156.499 91.7926 160.507 90.9034C162.08 90.5432 163.667 90.2587 165.241 89.9064ZM175.092 88.5611C175.515 88.4868 175.952 88.4555 176.379 88.4077C176.74 86.8174 177.426 85.4029 178.816 84.4706C179.956 83.7061 181.49 83.2217 182.855 83.4971C185.384 79.7216 189.009 77.2057 193.489 76.3193C194.565 76.1065 195.628 76.0035 196.724 75.9933C196.74 75.3289 196.742 74.6758 196.871 74.0214C196.875 74.0049 196.877 73.9883 196.88 73.9717C196.256 73.4259 195.778 72.7349 195.703 71.8846C195.635 71.1208 195.921 70.3537 196.421 69.7805C196.955 69.1613 197.717 68.7842 198.533 68.7346C199.318 68.6908 200.12 68.9451 200.706 69.4749C201.287 70.001 201.605 70.8403 201.634 71.6148C201.662 72.3898 201.352 73.1207 200.816 73.6729C200.576 73.9198 200.308 74.1172 200.022 74.3072C200.179 74.9383 200.121 75.6193 200.134 76.2659C204.682 77.261 208.663 79.5554 211.226 83.5389C211.725 84.314 212.261 85.2164 212.528 86.0993C214.026 86.1521 215.565 86.9317 216.581 88.0286C217.078 88.5646 217.433 89.1865 217.692 89.8673C219.926 90.2202 222.15 90.6326 224.362 91.1039C224.928 91.2249 227.831 91.9762 228.143 91.8717C227.456 88.8117 226.452 85.9137 224.95 83.1534C220.937 75.7797 214.144 70.3176 206.084 67.984C198.066 65.6639 189.455 66.6279 182.149 70.6636C174.811 74.7227 169.397 81.5465 167.111 89.6188C169.729 89.1049 172.437 88.815 175.092 88.5611Z" fill="#658AF4"/>
<path d="M142.421 97.6408C142.406 97.6557 142.392 97.6709 142.378 97.6855C141.765 98.2975 140.877 98.715 140.187 99.2566C137.164 101.629 134.393 104.845 134.346 108.897C134.307 112.301 136.16 115.293 138.478 117.639C141.988 121.193 146.617 123.699 151.161 125.664C166.482 132.286 186.03 134.723 202.627 134.793C216.581 134.853 233.204 133.307 246.174 127.817C249.806 126.279 253.463 124.318 256.283 121.511C258.448 119.357 260.081 116.637 260.092 113.503C260.105 109.872 257.975 107.041 255.618 104.524C256.509 104.798 257.447 105.473 258.236 105.968C261.87 108.25 265.576 111.169 267.619 115.034C268.964 117.577 269.409 120.424 268.541 123.199C266.985 128.175 262.035 131.618 257.629 133.899C254.219 135.665 250.624 136.958 246.97 138.111C246.797 138.617 246.031 139.307 245.667 139.711C242.51 143.257 239.041 146.514 235.302 149.441C222.818 159.152 207.235 164.159 191.434 162.137C172.272 159.685 156.744 148.076 145.195 133.146C144.44 132.74 143.572 132.44 142.785 132.096C136.541 129.364 128.11 124.542 125.517 117.821C124.5 115.186 124.567 112.392 125.737 109.818C128.555 103.615 136.408 99.8708 142.421 97.6408Z" fill="#CDEB97"/>
<path d="M145.194 133.146C148.806 134.595 152.491 135.857 156.233 136.925C179.134 143.493 207.577 145.059 231.112 141.55C234.694 141.023 238.25 140.34 241.773 139.5C243.512 139.078 245.231 138.508 246.969 138.111C246.797 138.617 246.031 139.307 245.667 139.711C242.509 143.257 239.04 146.514 235.302 149.441C222.818 159.152 207.234 164.159 191.433 162.137C172.272 159.685 156.744 148.076 145.194 133.146Z" fill="#658AF4"/>
<path d="M186.636 149.043C186.931 149.016 187.136 149.026 187.397 149.17C187.823 149.703 187.289 150.974 187.243 151.647C187.198 152.317 187.258 153.089 187.736 153.605C187.961 153.846 188.332 154.082 188.671 154.087C190.689 154.119 189.824 150.185 190.785 149.344C190.861 149.278 190.975 149.209 191.077 149.219C191.276 149.237 191.401 149.373 191.528 149.514C191.901 149.931 191.786 150.415 191.754 150.933C191.763 152.172 191.57 153.47 190.739 154.443C190.241 155.027 189.568 155.431 188.788 155.469C188.079 155.497 187.389 155.24 186.87 154.756C186.135 154.083 185.858 153.119 185.828 152.149C185.799 151.209 185.985 149.744 186.636 149.043Z" fill="#FE5A5E"/>
<path d="M202.19 149.11C202.385 149.133 202.596 149.152 202.754 149.281C203.14 149.597 203.44 150.278 203.732 150.689C203.937 150.977 204.247 151.247 204.5 151.496C204.595 150.921 204.647 149.958 204.986 149.495C205.103 149.335 205.257 149.228 205.46 149.224C205.636 149.221 205.83 149.335 205.942 149.465C206.135 149.69 206.12 150.003 206.1 150.282C205.988 151.87 205.442 154.281 204.216 155.331C203.404 155.728 202.41 155.972 201.505 155.791C201.255 155.741 200.992 155.635 200.865 155.398C200.744 155.172 200.775 154.943 200.846 154.71C201.358 154.212 202.407 154.582 203.084 154.277C203.713 153.993 203.854 153.515 204.063 152.911C203.546 152.544 203.047 151.986 202.645 151.499C202.26 151.031 201.674 150.249 201.77 149.606C201.806 149.36 202.001 149.243 202.19 149.11Z" fill="#FE5A5E"/>
<path d="M197.378 149.378C198.236 149.212 199.734 149.184 200.54 149.515C200.816 149.628 201.04 149.788 201.159 150.065C201.14 150.153 201.136 150.194 201.07 150.262C200.512 150.838 199.105 150.623 198.375 150.585L198.342 151.961C198.839 152.001 199.627 151.99 200.04 152.308C200.198 152.431 200.201 152.542 200.224 152.729C200.144 152.985 200.038 153.121 199.849 153.31C199.322 153.371 198.823 153.293 198.304 153.211C198.296 153.857 198.402 154.99 197.999 155.513C197.875 155.674 197.661 155.785 197.458 155.792C197.313 155.796 197.182 155.747 197.081 155.641C196.845 155.394 196.786 155.001 196.78 154.673C196.765 153.92 196.947 150.436 197.098 149.82C197.142 149.639 197.254 149.511 197.378 149.378Z" fill="#FE5A5E"/>
<path d="M193.366 149.431C194.106 149.44 195.467 149.214 196.099 149.578C196.268 149.675 196.414 149.823 196.44 150.025C196.464 150.204 196.385 150.379 196.255 150.499C195.84 150.881 194.577 150.722 194.038 150.713C194.004 151.157 194.002 151.606 193.99 152.052C194.411 152.068 194.837 152.034 195.256 152.091C195.576 152.135 195.78 152.209 195.981 152.465C196.045 152.697 196.013 152.814 195.936 153.039C195.764 153.241 195.63 153.295 195.381 153.378C194.89 153.371 194.396 153.333 193.905 153.305C193.891 153.62 193.906 153.938 193.903 154.254C193.899 154.622 193.884 155.13 193.584 155.394C193.438 155.521 193.25 155.553 193.063 155.532C192.863 155.507 192.666 155.399 192.552 155.23C192.221 154.736 192.609 151.05 192.76 150.324C192.85 149.887 192.993 149.672 193.366 149.431Z" fill="#FE5A5E"/>
<path d="M196.881 73.9717C196.257 73.4259 195.779 72.735 195.704 71.8847C195.636 71.1209 195.922 70.3538 196.422 69.7805C196.956 69.1613 197.718 68.7843 198.533 68.7347C199.319 68.6908 200.121 68.9451 200.707 69.475C201.288 70.0011 201.606 70.8403 201.635 71.6149C201.663 72.3898 201.353 73.1207 200.817 73.673C200.577 73.9199 200.309 74.1173 200.023 74.3073C200.18 74.9384 200.122 75.6193 200.135 76.2659C204.683 77.261 208.664 79.5555 211.227 83.539C211.726 84.314 212.262 85.2165 212.529 86.0994C214.026 86.1521 215.565 86.9317 216.582 88.0287C217.079 88.5647 217.434 89.1866 217.693 89.8674C219.927 90.2202 222.151 90.6326 224.362 91.104C224.929 91.225 227.831 91.9762 228.144 91.8718C228.333 92.8332 228.485 93.8013 228.601 94.7742C228.737 96.2925 228.784 97.7818 228.764 99.3051C227.735 100.092 226.765 100.958 225.721 101.724C221.147 105.144 216.03 107.769 210.586 109.489C210.208 109.598 209.833 109.71 209.458 109.826C208.231 107.665 206.772 105.899 204.975 104.191C203.793 104.714 202.559 105.108 201.293 105.365C196.454 106.352 191.42 105.393 187.281 102.696C184.594 103.823 182.644 105.841 181.139 108.276C180.763 108.159 180.401 107.999 180.037 107.849C175.347 106.155 169.819 102.479 165.948 99.3425C165.775 97.3288 166.05 95.1888 166.315 93.1943C166.523 91.9904 166.789 90.7972 167.112 89.6188C169.73 89.1049 172.438 88.815 175.093 88.5612C175.515 88.4868 175.953 88.4556 176.38 88.4077C176.74 86.8174 177.427 85.4029 178.817 84.4707C179.957 83.7062 181.491 83.2217 182.856 83.4972C185.385 79.7217 189.01 77.2058 193.49 76.3193C194.566 76.1065 195.629 76.0036 196.725 75.9934C196.741 75.3289 196.743 74.6759 196.872 74.0215C196.876 74.005 196.878 73.9883 196.881 73.9717Z" fill="#A4C95F"/>
<path d="M212.529 86.0994C214.026 86.1521 215.565 86.9317 216.582 88.0286C217.079 88.5646 217.434 89.1866 217.693 89.8674C219.927 90.2202 222.151 90.6326 224.362 91.104C224.929 91.225 227.831 91.9762 228.144 91.8718C228.333 92.8332 228.485 93.8013 228.601 94.7742C228.737 96.2925 228.784 97.7817 228.764 99.3051C227.735 100.092 226.764 100.958 225.721 101.724C221.147 105.144 216.03 107.769 210.586 109.489C209.331 107.276 207.92 105.4 206.076 103.64C207.907 102.611 209.471 101.321 210.767 99.6549C211.005 99.3322 211.231 99 211.462 98.6723C211.526 98.5702 211.587 98.4673 211.647 98.3634C213.65 94.8718 213.98 91.1037 212.949 87.2522C212.826 86.8604 212.68 86.4812 212.529 86.0994Z" fill="#494268"/>
<path d="M212.528 86.0995C214.025 86.1523 215.564 86.9319 216.58 88.0288C217.078 88.5648 217.432 89.1867 217.692 89.8675C217.965 90.8146 218.055 91.6849 218.071 92.6665C217.818 94.8819 217.158 97.3672 215.328 98.8115C214.315 99.611 213.005 100.059 211.71 99.8803C211.392 99.8364 211.07 99.7538 210.766 99.655C211.004 99.3323 211.23 99.0001 211.461 98.6724C211.525 98.5704 211.586 98.4675 211.645 98.3635C213.648 94.8719 213.978 91.1038 212.948 87.2523C212.824 86.8605 212.678 86.4813 212.528 86.0995Z" fill="#838385"/>
<path d="M212.949 87.252C213.252 87.3389 213.555 87.418 213.845 87.5439C215.021 89.3306 214.892 92.1723 214.477 94.178C214.193 95.5443 213.627 97.7727 212.392 98.5953C212.082 98.8022 211.809 98.7391 211.463 98.6721C211.526 98.5701 211.588 98.4672 211.647 98.3632C213.65 94.8716 213.98 91.1035 212.949 87.252Z" fill="#BBBBBB"/>
<path d="M215.581 88.6973C215.65 88.742 215.669 88.7502 215.736 88.8154C216.6 89.6487 216.892 90.971 216.905 92.1263C216.925 94.0512 216.242 96.2922 214.88 97.6865C214.694 97.8425 214.485 97.981 214.289 98.1256C215.852 95.1903 216.238 91.9375 215.581 88.6973Z" fill="#BBBBBB"/>
<path d="M217.693 89.8672C219.927 90.2201 222.151 90.6325 224.363 91.1038C224.929 91.2248 227.832 91.976 228.144 91.8716C228.333 92.833 228.485 93.8012 228.601 94.7741C227.865 94.4328 226.949 94.278 226.158 94.0923C223.467 93.4592 220.814 93.013 218.072 92.6662C218.057 91.6846 217.966 90.8143 217.693 89.8672Z" fill="#658AF4"/>
<path d="M167.113 89.6188C169.73 89.1049 172.439 88.815 175.093 88.5611C175.523 88.5311 175.952 88.5049 176.38 88.4569C176.223 89.4328 176.231 90.359 176.302 91.342C176.651 93.3254 177.167 95.1508 178.913 96.3595C179.922 97.058 181.02 97.2866 182.227 97.138C183.263 99.0379 184.549 100.541 186.201 101.919C183.396 103.466 181.707 105.161 180.038 107.849C175.347 106.155 169.82 102.479 165.948 99.3424C165.776 97.3287 166.05 95.1887 166.315 93.1943C166.524 91.9903 166.79 90.7971 167.113 89.6188Z" fill="#494268"/>
<path d="M167.111 89.6188C169.729 89.1049 172.438 88.815 175.092 88.5611C175.521 88.5311 175.951 88.5049 176.378 88.457C176.222 89.4329 176.23 90.359 176.3 91.3421C172.919 91.7013 169.554 92.1208 166.314 93.1943C166.522 91.9903 166.788 90.7971 167.111 89.6188Z" fill="#658AF4"/>
<path d="M176.381 88.4076C176.741 86.8173 177.427 85.4028 178.817 84.4705C179.957 83.706 181.491 83.2216 182.856 83.4971L182.263 84.5388C180.639 88.1462 180.173 91.8923 181.579 95.6776C181.626 95.8042 181.679 95.9288 181.736 96.051C181.888 96.4215 182.044 96.7816 182.227 97.138C181.02 97.2865 179.922 97.058 178.913 96.3594C177.167 95.1508 176.651 93.3253 176.302 91.342C176.231 90.3589 176.223 89.4327 176.38 88.4568C175.952 88.5048 175.522 88.531 175.093 88.561C175.516 88.4867 175.954 88.4554 176.381 88.4076Z" fill="#838385"/>
<path d="M180.91 84.7984L180.973 84.7791L181.078 84.7484C181.481 84.6284 181.842 84.5691 182.262 84.539C180.638 88.1464 180.172 91.8925 181.578 95.6778C181.626 95.8044 181.678 95.929 181.735 96.0511C181.431 96.0418 180.918 96.0698 180.676 95.8638C179.695 95.0312 179.443 92.9395 179.34 91.7522C179.149 89.5543 179.423 86.5565 180.91 84.7984Z" fill="#BBBBBB"/>
<path d="M178.813 85.9466C178.874 85.9978 178.837 85.9589 178.887 86.0895C178.144 87.9334 177.942 90.2977 178.222 92.2671C178.32 92.9544 178.59 93.6958 178.576 94.385L178.469 94.3018C177.788 93.3067 177.513 91.9706 177.423 90.7872C177.289 89.0133 177.632 87.3128 178.813 85.9466Z" fill="#BBBBBB"/>
<path d="M197.929 74.4935C198.254 74.5651 198.595 74.5721 198.926 74.5965C198.998 75.2343 198.778 76.7071 199.285 77.1717C199.362 77.2426 202.727 78.1821 203.254 78.393C205.289 79.2274 207.122 80.4879 208.629 82.0901C211.112 84.7397 212.516 88.2309 212.381 91.8759C212.248 95.2362 210.772 98.4022 208.282 100.661C205.035 103.644 200.717 104.742 196.406 104.536C192.358 104.328 188.271 102.623 185.459 99.675C183.101 97.2031 181.798 93.9741 181.894 90.549C182.072 84.2297 186.913 79.1567 192.854 77.6495C193.529 77.478 194.252 77.3052 194.946 77.2516C195.63 77.1988 196.371 77.2367 197.04 77.0956C197.215 77.0588 197.383 76.9942 197.508 76.8624C198.033 76.3101 197.916 75.215 197.929 74.4935Z" fill="#CDEB97"/>
<path d="M187.651 86.7742C188.577 86.6509 189.385 86.7661 190.229 87.1823C191.696 87.9068 192.852 89.3152 193.357 90.8649C193.697 91.9092 193.756 93.1501 193.232 94.1457C192.792 94.9832 192.101 95.4084 191.224 95.6751C190.312 95.7936 189.495 95.6634 188.667 95.2544C187.198 94.5296 186.051 93.1258 185.543 91.5774C185.2 90.5349 185.138 89.2955 185.661 88.3005C186.096 87.4749 186.784 87.0359 187.651 86.7742Z" fill="black"/>
<path d="M187.277 88.5286C187.368 88.527 187.457 88.5263 187.547 88.5331C187.931 88.5614 188.253 88.7587 188.491 89.0585C188.763 89.4028 188.88 89.844 188.816 90.2779C188.753 90.7165 188.557 90.9383 188.218 91.2036C188.146 91.2083 188.125 91.2115 188.058 91.2106C187.646 91.2047 187.321 91.045 187.046 90.739C186.74 90.3972 186.609 89.9464 186.66 89.4922C186.71 89.0396 186.924 88.7923 187.277 88.5286Z" fill="#FAFDF1"/>
<path d="M205.434 88.1321C206.21 88.0078 207.102 88.1153 207.795 88.5016C208.464 88.8741 208.892 89.5042 209.094 90.2307C209.408 91.3738 209.12 92.5887 208.548 93.6016C207.652 95.1907 206.254 96.1532 204.527 96.6465C203.59 96.7635 202.664 96.73 201.839 96.218C201.173 95.8051 200.762 95.1569 200.599 94.3991C200.339 93.1832 200.719 91.9164 201.383 90.8926C202.331 89.4296 203.737 88.4829 205.434 88.1321Z" fill="black"/>
<path d="M204.5 89.846C204.712 89.8291 204.912 89.8336 205.116 89.9087C205.31 89.9803 205.486 90.118 205.573 90.3091C205.707 90.6054 205.651 90.9216 205.538 91.2144C205.32 91.784 204.964 92.0777 204.429 92.3213C204.219 92.3403 204.011 92.3488 203.81 92.2757C203.599 92.1991 203.417 92.0606 203.321 91.854C203.183 91.5558 203.25 91.2096 203.371 90.918C203.6 90.363 203.963 90.0778 204.5 89.846Z" fill="#FAFDF1"/>
<path d="M204.5 89.846C204.712 89.8291 204.912 89.8336 205.116 89.9087C205.31 89.9803 205.486 90.118 205.573 90.3091C205.707 90.6054 205.651 90.9216 205.538 91.2144C205.32 91.784 204.964 92.0777 204.429 92.3213C204.219 92.3403 204.011 92.3488 203.81 92.2757C203.599 92.1991 203.417 92.0606 203.321 91.854C203.183 91.5558 203.25 91.2096 203.371 90.918C203.6 90.363 203.963 90.0778 204.5 89.846Z" fill="#FAFDF1"/>
<path d="M192.754 98.9417C193.402 99.0099 194.238 99.9419 194.999 100.186C196.015 100.512 197.217 100.199 198.187 100.546C198.359 100.718 198.386 100.739 198.442 100.988C198.384 101.25 198.289 101.364 198.107 101.558C197.99 101.577 197.873 101.591 197.756 101.602C196.243 101.736 193.936 101.252 192.771 100.213C192.574 100.037 192.421 99.8247 192.42 99.5507C192.42 99.2653 192.559 99.1325 192.754 98.9417Z" fill="#A4C95F"/>
<path d="M195.492 95.8481C196.089 95.7479 196.157 96.0189 196.656 96.1524C196.825 96.0615 197.023 95.935 197.217 95.914C197.433 95.8907 197.714 95.9731 197.871 96.1262C198.027 96.2774 198.068 96.4945 198.06 96.7036C198.04 97.2541 197.837 97.5596 197.448 97.9267C197.146 98.1721 196.773 98.3519 196.434 98.5437C196.258 98.4189 196.085 98.2903 195.915 98.1579C195.511 97.8387 195.085 97.378 195.048 96.8403C195.02 96.4132 195.225 96.1504 195.492 95.8481Z" fill="#A4C95F"/>
<path d="M198.07 69.9726C198.675 69.7504 199.354 69.8725 199.845 70.2919C200.335 70.7114 200.562 71.3629 200.436 71.9964C200.312 72.6298 199.856 73.1465 199.242 73.3481C198.316 73.6527 197.318 73.1581 196.997 72.237C196.678 71.3158 197.155 70.3081 198.07 69.9726Z" fill="#CDEB97"/>
<path d="M165.946 99.3425C169.818 102.479 175.345 106.155 180.035 107.849C180.399 107.999 180.762 108.159 181.138 108.276C182.642 105.841 184.593 103.823 187.279 102.696C191.418 105.393 196.452 106.352 201.292 105.365C202.558 105.108 203.792 104.714 204.973 104.191C206.771 105.9 208.23 107.665 209.457 109.827C209.831 109.71 210.207 109.598 210.585 109.489C216.029 107.769 221.146 105.144 225.719 101.724C226.763 100.958 227.734 100.092 228.762 99.3052C228.723 99.8568 228.532 100.827 228.899 101.285C229.08 101.512 229.363 101.599 229.643 101.618C229.682 101.621 229.722 101.622 229.761 101.624C229.278 102.329 228.185 103.028 227.503 103.552C222.941 107.122 217.822 109.913 212.351 111.814C200.234 115.96 187.335 114.712 175.914 109.081C174.65 108.456 173.41 107.783 172.199 107.062C171.051 106.376 164.384 102.156 164.081 101.059C164.01 100.801 164.096 100.59 164.213 100.363C164.786 101.09 165.561 101.75 166.218 102.409C166.077 101.387 166.005 100.372 165.946 99.3425Z" fill="#CDEB97"/>
<path d="M184.887 109.032C185.032 109.033 185.21 109.043 185.342 109.11C185.546 109.215 185.646 109.37 185.729 109.574L185.643 109.756L185.56 109.756C185.268 109.69 184.925 109.653 184.684 109.467C184.663 109.246 184.753 109.203 184.887 109.032Z" fill="#A4C95F"/>
<path d="M165.242 89.9064C167.427 81.409 172.89 74.1256 180.434 69.6538C188.025 65.1449 197.101 63.8536 205.649 66.0667C214.203 68.276 221.522 73.8111 225.98 81.4432C228.196 85.2217 229.062 88.2228 230.027 92.43C230.257 93.9624 231.02 100.128 230.19 101.292C230.087 101.436 229.91 101.533 229.762 101.624C229.724 101.622 229.684 101.621 229.645 101.618C229.364 101.599 229.082 101.512 228.9 101.285C228.533 100.826 228.725 99.8566 228.764 99.305C228.785 97.7817 228.737 96.2924 228.601 94.7742C228.485 93.8013 228.333 92.8331 228.144 91.8717C227.457 88.8117 226.453 85.9136 224.95 83.1534C220.938 75.7797 214.145 70.3176 206.084 67.984C198.067 65.6639 189.456 66.6279 182.15 70.6635C174.812 74.7226 169.398 81.5465 167.112 89.6188C166.789 90.7971 166.523 91.9903 166.315 93.1943C166.05 95.1887 165.775 97.3287 165.948 99.3424C166.006 100.372 166.079 101.387 166.219 102.409C165.563 101.75 164.788 101.09 164.214 100.363C164.165 96.7757 164.336 93.3947 165.242 89.9064Z" fill="#FAFDF1"/>
</svg>
