<svg width="393" height="852" viewBox="0 0 393 852" fill="none" xmlns="http://www.w3.org/2000/svg">
<g clip-path="url(#clip0_868_462)">
<rect width="393" height="852" fill="#312A54"/>
<path d="M159.315 46C160.778 46.6985 161.581 49.8472 162.15 51.2989C163.562 51.2688 165.781 50.9696 166.959 51.8102L167 52.338C166.267 53.4943 164.951 54.2433 163.869 55.1125C164.344 56.1519 165.297 57.7374 165.196 58.876C165.144 59.4533 165.048 59.54 164.602 59.8772C162.817 60.0068 161.246 58.7367 159.818 57.8727C158.023 58.4754 156.851 59.6794 154.836 60C154.657 59.9201 154.35 59.8433 154.266 59.6738C153.659 58.4465 154.764 56.2262 155.192 55.0279C154.454 54.4258 153.632 53.9099 152.891 53.3074C152.328 52.8512 152.049 52.4746 152 51.7894C152.026 51.7667 152.051 51.7431 152.077 51.7219C153.072 50.932 155.632 51.4355 156.851 51.539C157.627 49.6752 158.449 47.8284 159.315 46Z" fill="#FEF7A0"/>
<path d="M236.754 257.235C238.424 257.38 239.27 257.461 240.602 258.615C241.445 259.344 241.938 260.593 241.985 261.709C242.055 263.344 241.184 265.189 240.119 266.376C238.384 268.31 235.985 268.106 233.612 268.173L232.163 268.569C230.205 267.054 229.873 263.24 229.314 260.841C231.688 259.22 233.961 257.911 236.754 257.235Z" fill="#FEF7A0"/>
<path d="M41.1082 79.6178C41.9251 79.3123 42.7817 79.4311 43.644 79.4473C44.5025 79.9464 45.1147 80.1424 45.6027 81.0511C46.5322 82.7829 46.4329 85.118 45.9157 86.9771C45.3631 88.962 44.3569 90.7594 42.6061 91.7283C41.4299 91.6558 40.1744 91.611 39.0227 91.3518C37.2977 90.963 36.1136 88.4806 35.2188 87.0489C35.8346 85.0579 36.3303 81.7161 38.2857 80.6886C39.1784 80.2188 39.9636 80.3869 41.1082 79.6178Z" fill="#6F87F5"/>
<path d="M7.88609 24.7852C9.40301 24.9892 11.3488 25.2303 12.7094 25.9816C14.0874 26.7425 14.2664 27.5694 14.6696 28.9894C14.3426 31.0757 13.2901 32.4414 12.1084 34.1141C10.368 34.1239 7.89667 34.3401 6.43411 33.2382C5.86933 32.8127 5.08482 31.7989 5.02139 31.0643C4.79865 28.4793 6.35407 26.6362 7.88609 24.7852Z" fill="#FBD2CD"/>
<path d="M292.556 214.232C294.256 214.381 294.967 214.355 296.403 215.381C297.003 216.785 297.352 217.392 296.835 218.937C296.319 220.475 295.004 221.031 293.669 221.626C292.064 221.327 289.969 221.184 289.103 219.593C288.367 218.243 288.528 217.519 288.929 216.162C290.296 214.84 290.798 214.668 292.556 214.232Z" fill="#FEF7A0"/>
<path d="M373.55 143.335C374.475 143.477 375.387 143.707 376.302 143.914C377.178 144.793 377.774 145.153 377.963 146.443C378.233 148.287 376.982 149.782 375.93 151.118C374.8 151.069 373.747 150.923 372.638 150.697C371.712 149.713 371.026 149.205 371.118 147.71C371.227 145.912 372.413 144.577 373.55 143.335Z" fill="#FBD2CD"/>
<path d="M218.685 592.215C217.222 592.913 216.419 596.062 215.85 597.514C214.438 597.484 212.219 597.184 211.041 598.025L211 598.553C211.733 599.709 213.049 600.458 214.131 601.327C213.656 602.367 212.703 603.952 212.804 605.091C212.856 605.668 212.952 605.755 213.398 606.092C215.183 606.222 216.754 604.952 218.182 604.088C219.977 604.69 221.149 605.894 223.164 606.215C223.343 606.135 223.65 606.058 223.734 605.889C224.341 604.661 223.236 602.441 222.808 601.243C223.546 600.641 224.368 600.125 225.109 599.522C225.672 599.066 225.951 598.689 226 598.004C225.974 597.982 225.949 597.958 225.923 597.937C224.928 597.147 222.368 597.65 221.149 597.754C220.373 595.89 219.551 594.043 218.685 592.215Z" fill="#FEF7A0"/>
<path d="M356.543 784.889C355.934 782.706 355.646 779.831 354.11 778.14C353.756 777.751 353.324 777.916 352.83 777.914C351.016 779.484 350.431 782.017 349.678 784.242L347.549 784.315C345.752 784.349 343.913 784.167 342.401 785.311C342.314 786.42 342.314 786.462 343.007 787.321C343.954 788.493 345.368 789.308 346.605 790.128C346.241 791.407 345.537 793.191 345.654 794.515C345.754 795.648 345.859 795.692 346.728 796.387C349.039 796.324 351.356 794.674 353.356 793.575C355.017 794.84 356.683 796.328 358.721 796.863C361.961 794.999 358.651 792.652 359.957 790.25C360.924 788.473 362.767 787.306 363.702 785.342L362.897 784.632C360.705 784.305 358.726 784.578 356.543 784.889Z" fill="#FEF7A0"/>
<path d="M141.246 803.45C139.576 803.594 138.73 803.676 137.398 804.829C136.555 805.559 136.062 806.808 136.015 807.924C135.945 809.559 136.816 811.403 137.881 812.591C139.616 814.525 142.015 814.321 144.388 814.387L145.837 814.784C147.795 813.269 148.127 809.455 148.686 807.056C146.312 805.435 144.039 804.126 141.246 803.45Z" fill="#FEF7A0"/>
<path d="M336.892 625.833C336.075 625.527 335.218 625.646 334.356 625.662C333.497 626.161 332.885 626.357 332.397 627.266C331.468 628.998 331.567 631.333 332.084 633.192C332.637 635.177 333.643 636.974 335.394 637.943C336.57 637.871 337.826 637.826 338.977 637.567C340.702 637.178 341.886 634.695 342.781 633.264C342.165 631.273 341.67 627.931 339.714 626.903C338.822 626.434 338.036 626.602 336.892 625.833Z" fill="#6F87F5"/>
<path d="M100.758 633.762C100.199 633.857 99.6061 633.96 99.0843 634.195C98.034 634.669 97.4149 635.734 97.0789 636.808C96.6145 638.291 96.9301 640.468 97.8362 641.77C98.9605 643.386 100.558 643.394 102.32 643.826L104.707 643.679C105.896 642.715 106.331 642.325 106.723 640.787C107.153 639.103 106.379 636.772 105.4 635.383C104.231 633.724 102.592 633.993 100.758 633.762Z" fill="#FEF7A0"/>
<path d="M370.114 571C368.597 571.204 366.651 571.445 365.291 572.196C363.913 572.957 363.734 573.784 363.33 575.204C363.657 577.291 364.71 578.656 365.892 580.329C367.632 580.339 370.103 580.555 371.566 579.453C372.131 579.028 372.915 578.014 372.979 577.279C373.201 574.694 371.646 572.851 370.114 571Z" fill="#FBD2CD"/>
<path d="M312.816 728.18C310.519 727.842 308.086 727.55 306.085 729.005L305.945 730.056C306.582 731.597 307.126 733.12 308.267 734.355C308.335 734.428 308.407 734.497 308.477 734.569L307.847 735.894C309.346 737.124 309.987 737.602 311.913 737.559C312.684 736.876 313.112 736.586 313.446 735.556C314.04 733.724 313.621 729.898 312.816 728.18Z" fill="#6F87F5"/>
<path d="M85.4435 760.447C83.7439 760.596 83.0326 760.57 81.5965 761.596C80.997 763 80.6481 763.607 81.1653 765.151C81.681 766.69 82.9956 767.246 84.3306 767.841C85.9358 767.542 88.0311 767.399 88.8972 765.808C89.6326 764.458 89.4718 763.734 89.0709 762.377C87.7042 761.055 87.2021 760.882 85.4435 760.447Z" fill="#FEF7A0"/>
<path d="M4.4504 689.55C3.52469 689.692 2.61256 689.922 1.69818 690.129C0.822312 691.008 0.225805 691.368 0.0370394 692.658C-0.232517 694.502 1.01788 695.997 2.06968 697.333C3.2 697.284 4.25255 697.137 5.36173 696.912C6.28819 695.928 6.97382 695.42 6.88246 693.925C6.77297 692.127 5.58676 690.792 4.4504 689.55Z" fill="#FBD2CD"/>
</g>
<rect x="0.5" y="0.5" width="392" height="851" stroke="black"/>
<defs>
<clipPath id="clip0_868_462">
<rect width="393" height="852" fill="white"/>
</clipPath>
</defs>
</svg>
