<svg width="88" height="84" viewBox="0 0 88 84" fill="none" xmlns="http://www.w3.org/2000/svg">
<path d="M56.8548 35.3202C54.6729 35.507 52.1069 34.8788 50.408 33.4633C48.9715 32.2663 48.2853 30.5141 48.1323 28.6933C47.9622 26.6699 48.4042 23.2142 49.7642 21.6303C50.884 20.326 52.7622 19.941 54.3995 19.8174C56.6842 19.7282 59.1523 20.3134 60.92 21.8339C62.2704 22.9951 63.0559 25.1329 63.1778 26.8819C63.3079 28.7483 63.0003 32.1408 61.7129 33.5864C60.6879 34.7375 58.3494 35.2315 56.8548 35.3202ZM54.1647 20.8634C52.9326 20.9869 51.311 21.3065 50.4973 22.3142C49.3566 23.7266 48.9143 26.9876 49.122 28.7484C49.3038 30.2898 49.856 31.7615 51.1152 32.7496C52.597 33.9125 55.0843 34.5613 56.9512 34.3259C57.0362 34.315 57.1209 34.3028 57.2054 34.2891C58.3052 34.1535 60.3446 33.7119 61.0453 32.829C61.4279 32.3468 61.5995 31.7079 61.754 31.1222C62.1493 29.625 62.335 28.1559 62.1373 26.6099C61.9493 25.1402 61.3081 23.3904 60.1058 22.4627C58.3934 21.1415 56.2804 20.7435 54.1647 20.8634Z" fill="#312A54"/>
<path d="M57.2052 34.2897C57.1208 34.3033 57.036 34.3156 56.9511 34.3265C55.0841 34.5619 52.5969 33.9131 51.115 32.7502C49.8558 31.7621 49.3037 30.2904 49.1218 28.749C48.9142 26.9882 49.3565 23.7271 50.4971 22.3148C51.3109 21.3071 52.9325 20.9875 54.1646 20.864C56.2802 20.7441 58.3932 21.1421 60.1056 22.4633C61.308 23.3909 61.9491 25.1408 62.1371 26.6105C62.3349 28.1565 62.1491 29.6256 61.7539 31.1228C61.5993 31.7085 61.4278 32.3473 61.0451 32.8296C60.3445 33.7125 58.305 34.154 57.2052 34.2897ZM55.2873 24.2978C54.9031 24.3497 54.1995 24.4443 53.9682 24.8091C53.8966 24.9222 53.8983 25.2034 53.8922 25.3361C53.85 26.2567 53.8939 27.185 53.881 28.1069C53.8715 28.7933 53.7965 29.4924 53.8121 30.177C53.8174 30.4111 53.8414 30.7114 53.9217 30.9314C53.9631 31.0453 54.101 31.1107 54.2094 31.1517C54.9847 31.4447 56.5606 31.3005 57.3027 30.9861C57.8016 30.7176 58.1656 30.4025 58.3306 29.8434C58.4804 29.3228 58.4153 28.7643 58.1497 28.292C57.8862 27.8288 57.4525 27.5284 56.9748 27.3127C57.3467 26.8423 57.6629 26.3453 57.5946 25.7201C57.5522 25.3305 57.3513 24.9753 57.039 24.7375C56.5636 24.3692 55.8743 24.2572 55.2873 24.2978Z" fill="#CEEC97"/>
<path d="M14.432 50.1853C14.2832 49.4677 14.2927 48.9049 14.7078 48.2743C14.9116 47.9645 15.1764 47.6861 15.4324 47.4186C13.1399 43.4359 12.5287 38.708 13.7331 34.2757C14.8486 30.0525 17.6174 26.4525 21.4185 24.2832C25.045 22.2524 29.325 21.7191 33.3412 22.7974C37.5517 23.9386 41.1217 26.7273 43.2407 30.5307C45.4564 34.4464 46.0039 39.0849 44.7606 43.4066C43.5688 47.6252 40.7519 51.2026 36.9246 53.3576C33.3421 55.3484 29.1152 55.8446 25.167 54.738C24.0013 54.4055 22.8757 53.9462 21.8105 53.3686C21.0334 54.2596 20.6672 54.5562 19.4819 54.788C18.9263 54.6895 18.4341 54.587 17.9217 54.3374C16.3141 53.555 14.9927 51.8459 14.432 50.1853ZM28.9148 25.0202C25.1305 25.1797 21.8825 26.6552 19.3128 29.445C16.8536 32.1149 15.5983 35.8622 15.7619 39.4649C15.9263 43.0854 17.4482 46.5434 20.1506 48.9877C22.7025 51.2958 25.9664 52.6112 29.4294 52.5374C33.1195 52.3727 36.4656 50.9249 38.9716 48.1904C41.5916 45.3312 42.694 41.6559 42.5114 37.8271C42.3311 34.1991 40.6994 30.7948 37.9816 28.3761C35.5048 26.1362 32.2576 24.9343 28.9148 25.0202Z" fill="#658BF5"/>
<path d="M57.3023 30.9852C56.5602 31.2997 54.9843 31.4438 54.209 31.1508C54.1006 31.1098 53.9627 31.0444 53.9212 30.9305C53.841 30.7105 53.817 30.4102 53.8117 30.1761C53.7961 29.4916 53.8711 28.7924 53.8806 28.1061C53.8935 27.1841 53.8496 26.2559 53.8918 25.3352C53.8978 25.2025 53.8961 24.9213 53.9678 24.8082C54.199 24.4434 54.9026 24.3488 55.2868 24.2969C55.8739 24.2564 56.5632 24.3684 57.0385 24.7366C57.3509 24.9744 57.5517 25.3296 57.5941 25.7192C57.6625 26.3444 57.3462 26.8414 56.9743 27.3119C57.452 27.5275 57.8858 27.828 58.1492 28.2911C58.4149 28.7634 58.48 29.3219 58.3301 29.8425C58.1651 30.4017 57.8012 30.7167 57.3023 30.9852ZM55.0957 25.5317C55.0467 26.0649 55.0684 26.6088 55.0714 27.1441C55.3696 27.0027 55.6735 26.8702 55.9435 26.6786C56.1081 26.5215 56.3438 26.3357 56.3545 26.0909C56.3603 25.9613 56.3017 25.8507 56.2139 25.7586C56.128 25.6686 56.0171 25.5959 55.916 25.5238C55.6405 25.5156 55.3707 25.5135 55.0957 25.5317ZM55.0885 28.329C55.0522 28.8843 54.9896 29.4521 54.9952 30.0081C55.5847 30.0931 56.2996 30.184 56.8259 29.8407C57.0187 29.6312 57.2023 29.3897 57.192 29.0876C57.1864 28.9225 57.0904 28.792 56.9694 28.687C56.4591 28.2445 55.7145 28.3215 55.0885 28.329Z" fill="#312A54"/>
<path d="M29.4297 52.5381C25.9667 52.6119 22.7028 51.2965 20.1509 48.9885C17.4485 46.5442 15.9266 43.0861 15.7622 39.4656C15.5986 35.8629 16.8539 32.1156 19.3131 29.4457C21.8828 26.6559 25.1308 25.1805 28.9151 25.0209C32.2579 24.935 35.5051 26.1369 37.9819 28.3769C40.6997 30.7955 42.3315 34.1998 42.5117 37.8278C42.6943 41.6567 41.5919 45.3319 38.9719 48.1911C36.4659 50.9257 33.1198 52.3735 29.4297 52.5381ZM28.4078 26.2191C21.4492 26.6413 16.151 32.6078 16.5729 39.5465C16.9948 46.4854 22.9772 51.7699 29.9359 51.3507C36.8969 50.9314 42.1986 44.9638 41.7765 38.0228C41.3544 31.0817 35.3686 25.7966 28.4078 26.2191Z" fill="#312A54"/>
<path d="M55.0718 27.1439C55.0688 26.6087 55.0472 26.0648 55.0961 25.5316C55.3711 25.5134 55.6409 25.5154 55.9164 25.5236C56.0175 25.5957 56.1284 25.6684 56.2143 25.7584C56.3021 25.8505 56.3607 25.9611 56.355 26.0907C56.3442 26.3356 56.1085 26.5214 55.944 26.6784C55.6739 26.87 55.37 27.0025 55.0718 27.1439Z" fill="#CEEC97"/>
<path d="M29.9364 51.3506C22.9776 51.7698 16.9953 46.4854 16.5734 39.5465C16.1514 32.6077 21.4497 26.6412 28.4083 26.219C35.3691 25.7965 41.3549 31.0816 41.777 38.0227C42.199 44.9637 36.8974 50.9313 29.9364 51.3506ZM27.8144 33.7889C27.4199 33.9651 27.1318 34.2098 26.9794 34.6252C26.8032 35.1055 26.6737 35.616 26.5237 36.1052L25.6127 39.0748C25.2991 40.0955 24.7602 41.4826 24.602 42.4955C24.5648 42.7337 24.59 42.9465 24.6935 43.1656C24.8293 43.4535 25.0738 43.692 25.3742 43.8041C25.6752 43.9165 26.0652 43.8966 26.3571 43.7634C26.7554 43.582 26.9526 43.2037 27.0835 42.8094C27.2857 42.1996 27.4339 40.7721 28.0738 40.469C28.3743 40.3267 29.8552 40.3564 30.1567 40.4825C30.2038 40.5021 30.2493 40.5246 30.2948 40.5476L30.3314 40.5894C31.0959 41.4719 30.9155 43.7668 32.3923 43.8602C32.736 43.882 33.0498 43.7471 33.2991 43.5178C33.5295 43.3059 33.7115 43.0036 33.7308 42.6858C33.7544 42.294 31.6719 35.4476 31.3938 34.6875C31.3181 34.4806 31.2289 34.3054 31.0756 34.1438C30.7494 33.8001 30.296 33.7588 29.8478 33.7521C29.1845 33.7422 28.4734 33.7234 27.8144 33.7889Z" fill="#FDFFF3"/>
<path d="M54.9955 30.0082C54.9899 29.4521 55.0525 28.8843 55.0888 28.329C55.7148 28.3216 56.4594 28.2445 56.9697 28.687C57.0907 28.792 57.1867 28.9225 57.1923 29.0877C57.2026 29.3897 57.019 29.6313 56.8262 29.8407C56.2999 30.184 55.585 30.0932 54.9955 30.0082Z" fill="#CEEC97"/>
<path d="M30.2949 40.547C30.2494 40.524 30.2039 40.5015 30.1569 40.4819C29.8554 40.3558 28.3745 40.3261 28.0739 40.4684C27.4341 40.7715 27.2859 42.199 27.0837 42.8088C26.9528 43.2031 26.7555 43.5814 26.3573 43.7629C26.0653 43.896 25.6754 43.9159 25.3743 43.8036C25.074 43.6914 24.8295 43.4529 24.6936 43.165C24.5902 42.946 24.565 42.7331 24.6022 42.4949C24.7603 41.482 25.2993 40.0949 25.6129 39.0742L26.5239 36.1046C26.6739 35.6154 26.8034 35.1049 26.9796 34.6247C27.132 34.2092 27.42 33.9645 27.8145 33.7884C28.4736 33.7228 29.1847 33.7416 29.8479 33.7515C30.2962 33.7582 30.7495 33.7995 31.0758 34.1432C31.2291 34.3048 31.3182 34.48 31.3939 34.687C31.6721 35.447 33.7545 42.2934 33.731 42.6853C33.7117 43.003 33.5297 43.3053 33.2993 43.5172C33.05 43.7465 32.7362 43.8814 32.3925 43.8596C30.9156 43.7663 31.0961 41.4713 30.3315 40.5888L30.2949 40.547ZM28.9249 36.7407C28.644 36.8992 28.4798 37.0739 28.391 37.3946C28.3058 37.7022 28.3246 38.0575 28.4948 38.3338C28.626 38.5466 28.8229 38.6596 29.067 38.7006C29.1767 38.7189 29.2795 38.7026 29.3877 38.685C29.6485 38.5688 29.8213 38.4486 29.9359 38.1716C30.0592 37.8691 30.0495 37.5288 29.9095 37.2338C29.8058 37.0191 29.6208 36.833 29.39 36.7593C29.2476 36.7138 29.0714 36.7244 28.9249 36.7407Z" fill="#658BF5"/>
<path d="M73.0895 50.6988C71.4723 50.7945 69.482 50.4578 68.1823 49.4484C66.887 48.4425 66.3619 46.6787 66.1729 45.1108C65.895 42.8054 66.2865 40.1922 67.7701 38.3278C69.0487 36.7211 71.3291 36.2751 73.2698 36.042L73.2987 36.0392C74.9037 35.8992 77.2614 36.287 78.503 37.3539C79.6754 38.3614 80.2031 40.3199 80.3153 41.8188C80.4825 44.0537 80.2694 46.7076 78.7169 48.4735C77.3959 49.9767 75.0281 50.5824 73.0895 50.6988ZM73.3718 37.0444C71.6947 37.2686 69.6272 37.5743 68.5254 38.9945C67.2006 40.7018 66.8798 43.0261 67.1648 45.1159C67.3385 46.3909 67.7459 47.8588 68.8124 48.6732C69.7089 49.3577 71.7293 49.9007 72.8728 49.7273C72.8913 49.7244 72.9099 49.7209 72.9284 49.7178C74.6167 49.6066 76.8777 49.1014 78.0319 47.7763C79.2255 46.4058 79.5228 43.9581 79.3827 42.2114C79.2799 40.9266 78.9016 38.9783 77.87 38.1176C76.8239 37.2451 74.7049 36.9431 73.3718 37.0444Z" fill="#312A54"/>
<path d="M29.387 38.6849C29.2788 38.7024 29.176 38.7187 29.0663 38.7004C28.8222 38.6594 28.6253 38.5464 28.4941 38.3336C28.3239 38.0574 28.3051 37.7021 28.3903 37.3944C28.4791 37.0738 28.6433 36.899 28.9242 36.7405C29.0707 36.7242 29.2469 36.7137 29.3893 36.7592C29.6201 36.8328 29.8051 37.0189 29.9088 37.2336C30.0488 37.5287 30.0585 37.8689 29.9352 38.1714C29.8206 38.4484 29.6478 38.5687 29.387 38.6849Z" fill="#FDFFF3"/>
<path d="M72.9279 49.7176C72.9093 49.7207 72.8908 49.7241 72.8722 49.7271C71.7288 49.9004 69.7083 49.3574 68.8119 48.6729C67.7454 47.8585 67.338 46.3907 67.1642 45.1156C66.8793 43.0259 67.2001 40.7015 68.5249 38.9942C69.6267 37.5741 71.6942 37.2683 73.3713 37.0442C74.7043 36.9429 76.8234 37.2449 77.8695 38.1174C78.901 38.9781 79.2793 40.9263 79.3821 42.2111C79.5222 43.9579 79.2249 46.4056 78.0313 47.776C76.8771 49.1011 74.6161 49.6063 72.9279 49.7176ZM73.2125 40.4797C72.3885 40.6885 71.7416 41.0817 71.2952 41.8223C70.8173 42.6151 70.7412 43.59 70.9647 44.4763C71.148 45.2028 71.5711 45.8242 72.2272 46.2036C72.8369 46.556 73.655 46.6657 74.3371 46.4833C74.6571 46.3977 75.1011 46.1649 75.2649 45.8674C75.3348 45.7402 75.3369 45.6365 75.3095 45.4975C75.2665 45.4448 75.2263 45.3928 75.1764 45.3465C75.1568 45.2332 75.1508 45.1795 75.0465 45.1164C74.6143 44.8548 72.795 46.196 72.1703 44.3533C71.9765 43.7814 72.0043 43.0482 72.2766 42.5054C72.4575 42.1448 72.7171 41.8933 73.1066 41.767C73.7045 41.5731 74.9936 41.9435 75.1694 41.6545C75.2598 41.5061 75.2778 41.2324 75.2249 41.0713C75.1577 40.8673 74.9678 40.7368 74.7797 40.6533C74.2939 40.4377 73.7319 40.431 73.2125 40.4797Z" fill="#658BF5"/>
<path d="M75.1766 45.3466C75.2265 45.3929 75.2667 45.445 75.3097 45.4976C75.3371 45.6367 75.3351 45.7403 75.2651 45.8675C75.1014 46.1651 74.6573 46.3978 74.3373 46.4834C73.6552 46.6658 72.8371 46.5561 72.2274 46.2038C71.5713 45.8244 71.1482 45.2029 70.965 44.4764C70.7414 43.5901 70.8176 42.6152 71.2954 41.8224C71.7418 41.0818 72.3887 40.6886 73.2127 40.4798C73.7322 40.4312 74.2942 40.4378 74.7799 40.6535C74.968 40.7369 75.1579 40.8674 75.2251 41.0714C75.278 41.2325 75.26 41.5063 75.1696 41.6546C74.9939 41.9436 73.7047 41.5732 73.1068 41.7671C72.7173 41.8934 72.4577 42.1449 72.2768 42.5055C72.0045 43.0484 71.9767 43.7815 72.1706 44.3534C72.7952 46.1961 74.6145 44.8549 75.0467 45.1165C75.1511 45.1796 75.157 45.2334 75.1766 45.3466Z" fill="#FDFFF3"/>
<path d="M53.7132 57.8058C51.8644 57.7145 49.6096 57.3472 48.1562 56.1087C47.0859 55.1969 46.7357 53.6768 46.6227 52.3322C46.4381 50.1354 46.8775 47.5927 48.3515 45.8758C49.7242 44.2772 51.7005 43.7868 53.7141 43.624C53.8243 43.619 53.9346 43.6159 54.0449 43.6147C55.6574 43.587 57.177 43.9601 58.3631 45.115C60.007 46.7154 60.7763 49.2211 60.8036 51.4676C60.822 52.9747 60.5342 54.8718 59.4358 55.9776C57.9521 57.4709 55.7266 57.7884 53.7132 57.8058ZM53.113 44.6727C51.5302 44.8925 49.9639 45.3728 48.9624 46.7044C47.6769 48.4136 47.3704 50.8376 47.6772 52.9031C47.8274 53.9136 48.115 54.8288 48.9722 55.4572C50.432 56.5275 52.599 56.796 54.3641 56.7708C55.893 56.7202 57.6946 56.3838 58.7772 55.2191C59.7066 54.2192 59.8535 52.4954 59.7912 51.1853C59.6976 49.2195 59.0253 47.0622 57.523 45.7122C56.355 44.6624 54.906 44.5636 53.4109 44.651C53.3115 44.6567 53.2123 44.664 53.113 44.6727Z" fill="#312A54"/>
<path d="M54.3642 56.7705C52.5991 56.7957 50.4321 56.5272 48.9724 55.4569C48.1151 54.8285 47.8275 53.9132 47.6773 52.9028C47.3705 50.8373 47.677 48.4133 48.9625 46.704C49.964 45.3724 51.5303 44.8922 53.1131 44.6724C53.2124 44.6637 53.3116 44.6564 53.411 44.6506C54.9061 44.5633 56.3551 44.6621 57.5231 45.7119C59.0254 47.0618 59.6977 49.2192 59.7913 51.1849C59.8536 52.4951 59.7067 54.2188 58.7773 55.2187C57.6947 56.3835 55.8931 56.7198 54.3642 56.7705ZM53.5416 47.9075C52.7887 48.1194 52.2095 48.5329 51.8176 49.2192C51.3511 50.0361 51.2268 51.1775 51.4798 52.0806C51.6462 52.6742 51.9874 53.2242 52.5368 53.532C53.0279 53.807 53.5768 53.8432 54.1238 53.758C54.8877 53.5485 55.4848 53.1058 55.8743 52.4106C56.3428 51.5667 56.4571 50.5721 56.1926 49.6442C56.0109 49.0243 55.625 48.4489 55.0466 48.1355C54.5666 47.8756 54.0719 47.8762 53.5416 47.9075Z" fill="#FF5A5E"/>
<path d="M54.1232 53.7582C53.5761 53.8434 53.0272 53.8072 52.5362 53.5322C51.9868 53.2244 51.6456 52.6745 51.4792 52.0808C51.2262 51.1777 51.3505 50.0363 51.817 49.2194C52.2088 48.5331 52.7881 48.1196 53.5409 47.9077C54.0713 47.8764 54.566 47.8758 55.046 48.1357C55.6243 48.4491 56.0102 49.0246 56.1919 49.6444C56.4565 50.5723 56.3421 51.5669 55.8736 52.4108C55.4841 53.106 54.8871 53.5487 54.1232 53.7582ZM53.6512 49.1499C53.2102 49.3244 52.9437 49.6034 52.759 50.0383C52.5265 50.5848 52.4874 51.3767 52.7167 51.9309C52.8188 52.1775 53.007 52.4015 53.2592 52.5045C53.4931 52.5999 53.7586 52.5584 54.0016 52.5292C54.4457 52.348 54.7277 52.0729 54.9129 51.6272C55.1368 51.089 55.196 50.3944 54.9645 49.8489C54.8453 49.5685 54.634 49.3216 54.3481 49.202C54.1255 49.1088 53.8857 49.1349 53.6512 49.1499Z" fill="#FDFFF3"/>
<path d="M54.0018 52.5292C53.7587 52.5584 53.4932 52.5999 53.2594 52.5045C53.0071 52.4015 52.8189 52.1775 52.7169 51.9309C52.4875 51.3768 52.5266 50.5849 52.7591 50.0383C52.9439 49.6035 53.2103 49.3244 53.6514 49.15C53.8859 49.1349 54.1256 49.1088 54.3483 49.202C54.6342 49.3216 54.8455 49.5685 54.9646 49.8489C55.1962 50.3944 55.137 51.089 54.9131 51.6272C54.7278 52.0729 54.4458 52.3481 54.0018 52.5292Z" fill="#FF5A5E"/>
<path d="M19.4823 54.7883C19.095 55.1551 18.7437 55.5752 18.3839 55.9695C17.6074 56.8182 16.8402 57.6753 16.0822 58.5406L10.6027 64.5821C9.89475 65.3548 9.0601 66.4503 8.30327 67.1205C8.09278 67.3068 7.89264 67.4404 7.60112 67.4545C6.72265 67.4968 5.56744 66.6743 4.93971 66.1143C4.21236 65.4652 3.28129 64.2853 3.24111 63.2673C3.2291 62.9629 3.34137 62.7148 3.51721 62.4754C3.88746 61.9711 4.37026 61.5034 4.78353 61.0301C5.83213 59.8276 6.89078 58.6341 7.95937 57.4493L12.5117 52.3418C13.1522 51.6251 13.7706 50.8823 14.4324 50.1855C14.9932 51.8462 16.3145 53.5553 17.9221 54.3377C18.4346 54.5872 18.9267 54.6898 19.4823 54.7883Z" fill="#312A54"/>
</svg>
