<svg width="88" height="84" viewBox="0 0 88 84" fill="none" xmlns="http://www.w3.org/2000/svg">
<ellipse cx="43.0586" cy="47.8497" rx="24.0586" ry="22.2803" fill="#CEEC97"/>
<path d="M61.6161 31.183C59.3069 28.9144 56.5596 27.1119 53.5321 25.8792C50.5046 24.6465 47.2566 24.0079 43.9746 24.0001C40.6926 23.9922 37.4414 24.6153 34.4077 25.8334C31.374 27.0516 28.6176 28.8409 26.2969 31.0985C23.9762 33.3561 22.1369 36.0375 20.8847 38.9887C19.6325 41.9399 18.992 45.1027 19.0001 48.2954C19.0082 51.4881 19.6646 54.6478 20.9318 57.5929C22.1989 60.5381 24.0518 63.2107 26.3839 65.4571C28.6931 67.7258 31.4404 69.5283 34.4679 70.7609C37.4954 71.9936 40.7434 72.6322 44.0254 72.6401C47.3074 72.648 50.5586 72.0249 53.5923 70.8067C56.626 69.5886 59.3824 67.7993 61.7031 65.5417C64.0238 63.2841 65.8631 60.6027 67.1153 57.6515C68.3675 54.7003 69.008 51.5375 68.9999 48.3448C68.9918 45.1521 68.3354 41.9924 67.0682 39.0472C65.8011 36.1021 63.9482 33.4295 61.6161 31.183ZM22.6458 48.3201C22.6449 46.4815 22.8955 44.651 23.3909 42.8768C24.2073 44.5863 25.3929 46.0631 26.1992 47.817C27.2414 50.0718 30.0397 49.4464 31.2753 51.422C32.3719 53.1759 31.2008 55.3939 32.0216 57.2289C32.6177 58.5608 34.0236 58.8518 34.9934 59.8256C35.9844 60.808 35.9632 62.1539 36.1145 63.435C36.2851 64.9401 36.5619 66.432 36.9431 67.9002C36.9431 67.911 36.9431 67.9229 36.952 67.9337C28.6294 65.0903 22.6458 57.3728 22.6458 48.3201ZM44 69.0936C42.8074 69.0933 41.617 68.9963 40.441 68.8036C40.4532 68.5104 40.4588 68.2367 40.4888 68.0462C40.759 66.3259 41.6444 64.6435 42.8389 63.356C44.0189 62.0858 45.636 61.2267 46.6326 59.7855C47.6091 58.379 47.9016 56.4856 47.499 54.8421C46.9062 52.4142 43.5151 51.6038 41.6866 50.2871C40.6356 49.5297 39.7002 48.359 38.32 48.2638C37.6838 48.2205 37.1511 48.3536 36.5205 48.1957C35.9421 48.0496 35.4883 47.7466 34.8722 47.8256C33.721 47.9728 32.9948 49.1694 31.758 49.0071C30.5846 48.8546 29.3757 47.5184 29.1088 46.431C28.7662 45.0331 29.9029 44.5798 31.1207 44.4554C31.629 44.4034 32.1996 44.3472 32.6878 44.5289C33.3307 44.7605 33.6343 45.3728 34.2115 45.6823C35.2937 46.26 35.5128 45.3371 35.3471 44.4023C35.0991 43.0023 34.8099 42.4321 36.0934 41.4681C36.9831 40.8038 37.7439 40.3234 37.6015 39.13C37.517 38.4289 37.1222 38.1119 37.4903 37.414C37.7695 36.8828 38.5358 36.4035 39.0351 36.0865C40.3242 35.2685 44.5572 35.3291 42.8277 33.0397C42.3195 32.3678 41.3819 31.1668 40.4921 31.0024C39.3799 30.7979 38.8861 32.0053 38.1109 32.5376C37.3101 33.0884 35.7508 33.7137 34.9489 32.8622C33.8701 31.7164 35.6641 31.341 36.0611 30.5404C36.2446 30.1671 36.0611 29.6488 35.7519 29.1609C36.1531 28.9964 36.5609 28.8439 36.9753 28.7032C37.2351 28.8898 37.5432 29.0023 37.8651 29.0278C38.6092 29.0754 39.0095 28.7941 39.659 29.2875C40.3797 29.8284 41.213 30.4212 42.1695 30.59C43.0948 30.7533 44.0623 30.2093 44.2914 29.2875C44.4304 28.727 42.8747 30.582 42.1695 30.59C46.3291 30.6132 52.3785 28.7915 55.836 31.0413C55.6136 30.9591 55.3478 30.9688 55.0197 31.117C54.3446 31.4222 53.3881 32.199 53.3091 32.9693C53.219 33.8436 54.5448 33.9669 55.1743 33.9669C56.1196 33.9669 57.0772 33.5558 56.7725 32.4933C56.6402 32.0324 56.46 31.5531 56.1697 31.2631C56.8675 31.7341 57.536 32.2449 58.1717 32.793C58.1616 32.8027 58.1516 32.8114 58.1416 32.8222C57.501 33.4714 56.7569 33.9853 56.3187 34.7751C56.0095 35.3312 55.6614 35.5952 55.0352 35.7391C54.6905 35.8181 54.2967 35.8473 54.0076 36.0724C53.2023 36.6891 53.6606 38.1714 54.4235 38.6161C55.3878 39.1776 56.8181 38.9136 57.5455 38.1119C58.1138 37.4843 58.4486 36.3948 59.4707 36.3959C59.9207 36.395 60.353 36.5664 60.6741 36.873C61.0967 37.2993 61.0133 37.6975 61.1034 38.2298C61.2625 39.1754 62.12 38.6626 62.6416 38.1854C63.0218 38.8437 63.3649 39.5217 63.6693 40.2163C63.0954 41.0202 62.6394 41.8965 61.2591 40.9596C60.4328 40.398 59.9245 39.5833 58.8868 39.3301C57.9804 39.1138 57.0517 39.3388 56.1563 39.4892C55.1387 39.6612 53.9319 39.737 53.1601 40.4867C52.4138 41.2095 52.019 42.1768 51.2249 42.9027C49.6889 44.3093 49.0405 45.8446 50.0348 47.8332C50.9913 49.745 52.9921 50.7826 55.1509 50.6463C57.2719 50.5089 59.4752 49.3122 59.414 52.3103C59.3917 53.3717 59.6197 54.1064 59.9545 55.092C60.2648 56.0009 60.2437 56.8816 60.3149 57.8196C60.3825 58.9181 60.5591 60.0076 60.842 61.0731C58.8485 63.57 56.2948 65.5906 53.3758 66.9807C50.4569 68.3707 47.2499 69.0934 44 69.0936Z" fill="#4285F4"/>
<path d="M43.333 12.75V14.5833ZM43.333 29.25V21.9167ZM43.333 14.5833H54.333L52.4997 18.25L54.333 21.9167H43.333M43.333 14.5833V21.9167Z" fill="#FF5A5E"/>
<path d="M43.333 12.75V14.5833M43.333 14.5833H54.333L52.4997 18.25L54.333 21.9167H43.333M43.333 14.5833V21.9167M43.333 29.25V21.9167" stroke="#312A54" stroke-width="2" stroke-linecap="round" stroke-linejoin="round"/>
</svg>
