<svg width="80" height="86" viewBox="0 0 80 86" fill="none" xmlns="http://www.w3.org/2000/svg">
<path d="M32.0307 72.615C31.4976 73.5189 27.0161 71.8637 22.021 68.9179C17.026 65.9721 13.4089 62.8513 13.942 61.9473C14.4751 61.0433 18.9565 62.6986 23.9516 65.6444C28.9466 68.5902 32.5638 71.711 32.0307 72.615Z" fill="#FDFCD5" fill-opacity="0.03"/>
<path d="M34.7374 13.9853C36.8867 10.8567 40.1882 8.70824 43.9177 8.01126C47.6719 7.30617 51.5518 8.12908 54.6964 10.2975C57.8443 12.4653 59.9967 15.8013 60.6749 19.5645C61.0144 21.4289 60.9208 22.777 60.6883 24.6299C63.6644 26.7314 66.6944 29.1369 68.6635 32.249C68.8268 32.5068 69.2053 33.0293 69.287 33.3059C69.2908 33.3182 69.2901 33.3313 69.2916 33.3441C69.6131 33.5877 69.8939 34.0013 70.1411 34.3196C71.2791 35.7866 72.3513 37.5227 72.6078 39.3968C72.7767 40.6296 72.535 41.8528 71.7703 42.8515C70.3988 44.6425 67.8765 45.3065 65.7474 45.5794C64.0994 45.7908 62.4465 45.7821 60.7904 45.7081C60.6452 45.8882 60.2315 46.0546 60.0236 46.1647C58.214 47.1371 56.3207 47.9456 54.3669 48.5798C47.8522 50.6722 40.7764 50.3929 34.6559 47.2252C27.2337 43.3837 22.6476 36.3608 20.171 28.5793C19.9247 28.3023 19.6167 28.0515 19.3477 27.7946C17.2164 25.7575 14.5061 22.5462 14.4505 19.4301C14.4287 18.2085 14.8707 17.0829 15.7282 16.2106C17.7944 14.1088 21.5414 13.7532 24.3156 13.7397C24.7217 13.7189 25.1379 13.6241 25.5417 13.5688C26.1429 13.49 26.7473 13.4392 27.3532 13.4165C29.1285 13.3631 30.9051 13.4537 32.6656 13.6875C33.3582 13.7746 34.0455 13.8947 34.7374 13.9853ZM38.9399 14.9012C39.1228 14.9337 39.3052 14.986 39.4858 15.03C39.8684 14.4373 40.3573 13.9644 41.0605 13.7919C41.6373 13.6506 42.3326 13.6815 42.8463 13.9961C44.4348 12.8375 46.2811 12.3532 48.2335 12.6583C48.7021 12.7316 49.1494 12.8476 49.5963 13.0061C49.7015 12.7385 49.7993 12.4735 49.949 12.2268C49.9527 12.2205 49.9562 12.2141 49.96 12.2079C49.7873 11.8934 49.6957 11.5417 49.7913 11.1849C49.8772 10.8645 50.1073 10.5952 50.3955 10.4365C50.7047 10.2643 51.0701 10.2241 51.4089 10.3251C51.7347 10.4239 52.0227 10.6463 52.1821 10.9486C52.3404 11.2487 52.3449 11.637 52.2415 11.9559C52.138 12.2751 51.9033 12.526 51.6036 12.6708C51.4695 12.7356 51.3311 12.7759 51.1868 12.8107C51.1569 13.0905 51.0322 13.3586 50.9416 13.6232C52.6417 14.7028 53.9189 16.2263 54.3689 18.2256C54.4565 18.6146 54.5403 19.0609 54.5178 19.4593C55.1184 19.7031 55.6281 20.2484 55.8782 20.845C56.0006 21.1367 56.0524 21.4421 56.0568 21.7572C56.9121 22.2323 57.7545 22.73 58.5833 23.25C58.7954 23.3832 59.8634 24.1195 60.0058 24.1234C60.1809 22.7779 60.2032 21.4512 60.0026 20.1066C59.4669 16.5144 57.5175 13.2863 54.5887 11.1412C51.6751 9.00798 48.0331 8.1212 44.4651 8.67633C40.8805 9.2362 37.6675 11.2053 35.5399 14.146C36.6799 14.3259 37.8236 14.6102 38.9399 14.9012Z" fill="#658AF4"/>
<path d="M24.3156 13.7403C24.3075 13.7442 24.2996 13.7483 24.2915 13.752C23.9517 13.9098 23.5286 13.9475 23.1679 14.0652C21.5872 14.5805 19.9838 15.476 19.3633 17.1154C18.842 18.4926 19.1507 19.9836 19.744 21.2812C20.6428 23.2465 22.1517 24.9524 23.7066 26.4252C28.949 31.3908 36.5305 35.2838 43.2641 37.7766C48.9255 39.8725 55.9099 41.7125 61.9953 41.4075C63.6998 41.3221 65.477 41.0681 67.0397 40.3463C68.2391 39.7922 69.3064 38.9296 69.7767 37.6575C70.321 36.1841 69.8756 34.7173 69.2916 33.3446C69.613 33.5883 69.8939 34.0018 70.141 34.3201C71.279 35.7871 72.3513 37.5232 72.6078 39.3974C72.7766 40.6302 72.5349 41.8533 71.7702 42.852C70.3988 44.6431 67.8765 45.307 65.7473 45.58C64.0993 45.7913 62.4465 45.7827 60.7903 45.7086C60.6451 45.8888 60.2314 46.0552 60.0235 46.1653C58.2139 47.1376 56.3206 47.9461 54.3668 48.5804C47.8521 50.6727 40.7764 50.3935 34.6559 47.2257C27.2337 43.3843 22.6475 36.3614 20.171 28.5798C19.9247 28.3029 19.6166 28.0521 19.3476 27.7952C17.2163 25.758 14.5061 22.5468 14.4504 19.4307C14.4286 18.209 14.8707 17.0834 15.7282 16.2112C17.7944 14.1093 21.5414 13.7537 24.3156 13.7403Z" fill="#CDEB97"/>
<g filter="url(#filter0_d_868_355)">
<path d="M16.9359 60.9363L36.4009 42.2118L40.5072 44.3263L35.0904 72.6023L16.9359 60.9363Z" fill="#FEF7A0" fill-opacity="0.36" shape-rendering="crispEdges"/>
</g>
<path d="M20.1709 28.5801C21.4235 29.7052 22.7334 30.7649 24.0953 31.7545C32.4261 37.8241 43.7516 42.6831 53.8359 44.7517C55.3696 45.0695 56.9164 45.3199 58.4724 45.5019C59.2417 45.5885 60.0247 45.612 60.7902 45.7089C60.645 45.889 60.2313 46.0554 60.0234 46.1655C58.2138 47.1379 56.3205 47.9464 54.3667 48.5806C47.852 50.673 40.7763 50.3937 34.6558 47.226C27.2336 43.3845 22.6474 36.3616 20.1709 28.5801Z" fill="#658AF4"/>
<path d="M34.6503 41.1922C34.7739 41.225 34.856 41.2597 34.9405 41.3571C35.0346 41.6367 34.6286 42.074 34.5103 42.3407C34.3926 42.6062 34.3022 42.9287 34.4198 43.2093C34.4752 43.3409 34.591 43.4915 34.728 43.5441C35.5433 43.8567 35.7761 42.1299 36.2916 41.9308C36.3321 41.9152 36.3887 41.9039 36.4286 41.9231C36.5069 41.9599 36.5375 42.0337 36.5679 42.11C36.6577 42.3347 36.5392 42.5143 36.4494 42.7202C36.2687 43.2249 35.9978 43.7238 35.5155 43.996C35.2264 44.1591 34.8931 44.2233 34.5704 44.1231C34.2783 44.0293 34.036 43.8222 33.8971 43.5486C33.6983 43.1659 33.7289 42.7331 33.8606 42.3345C33.9883 41.9482 34.2814 41.3805 34.6503 41.1922Z" fill="#FE5A5E"/>
<path d="M40.9614 43.5288C41.0372 43.5671 41.1201 43.6062 41.165 43.6821C41.2749 43.8678 41.2957 44.1891 41.3535 44.3996C41.394 44.547 41.4799 44.7027 41.5457 44.8413C41.6698 44.6216 41.8336 44.238 42.04 44.1003C42.1113 44.0528 42.1898 44.0322 42.2731 44.0608C42.3451 44.0854 42.4071 44.1606 42.4333 44.23C42.4783 44.3501 42.4254 44.4752 42.3761 44.5855C42.0948 45.2142 41.5149 46.1129 40.861 46.3574C40.4721 46.3982 40.0317 46.3497 39.6908 46.1419C39.5965 46.0846 39.5057 46.0024 39.489 45.8872C39.4733 45.7775 39.5202 45.6892 39.5837 45.6049C39.8658 45.4784 40.2371 45.7846 40.5575 45.7611C40.8549 45.7392 40.9835 45.5659 41.158 45.3516C41.0024 45.1257 40.8824 44.8248 40.7914 44.5672C40.7043 44.3199 40.5822 43.915 40.7169 43.6678C40.7683 43.5733 40.8646 43.5547 40.9614 43.5288Z" fill="#FE5A5E"/>
<path d="M38.9658 42.9233C39.3389 42.9834 39.9519 43.1943 40.2303 43.4484C40.3258 43.5354 40.3929 43.6338 40.4003 43.7638C40.3792 43.7966 40.3717 43.8129 40.3348 43.8309C40.0224 43.9822 39.4829 43.6856 39.1917 43.5617L38.9737 44.116C39.17 44.206 39.4916 44.3186 39.6122 44.5093C39.6584 44.5827 39.6431 44.6284 39.6246 44.7077C39.5541 44.7999 39.4906 44.8394 39.386 44.8879C39.163 44.8345 38.9717 44.7289 38.7728 44.6185C38.6736 44.8797 38.5484 45.3559 38.3073 45.5086C38.233 45.5554 38.1293 45.5689 38.046 45.5416C37.9865 45.5218 37.9403 45.4823 37.915 45.424C37.8557 45.2888 37.8903 45.1203 37.9364 44.9863C38.0423 44.6778 38.6336 43.2894 38.7863 43.0615C38.8311 42.9945 38.8956 42.9589 38.9658 42.9233Z" fill="#FE5A5E"/>
<path d="M37.3269 42.349C37.6264 42.4624 38.2131 42.5727 38.4156 42.8143C38.4699 42.8789 38.5072 42.9605 38.488 43.0467C38.4711 43.123 38.4128 43.1825 38.3422 43.2119C38.1169 43.3053 37.6275 43.0532 37.4098 42.9695C37.33 43.1449 37.2625 43.3272 37.1916 43.5065C37.3599 43.5756 37.5384 43.6251 37.6999 43.7104C37.8234 43.7759 37.8954 43.8361 37.9392 43.9699C37.9308 44.0739 37.9003 44.1165 37.8358 44.1966C37.7357 44.253 37.6734 44.2554 37.5597 44.2521C37.3612 44.1759 37.166 44.0873 36.9708 44.0029C36.9182 44.1292 36.8771 44.2604 36.829 44.3886C36.7729 44.5376 36.6913 44.7418 36.5304 44.8042C36.4522 44.8344 36.3709 44.8193 36.2982 44.7829C36.2203 44.7433 36.1564 44.6701 36.1353 44.5844C36.0741 44.3348 36.7792 42.8943 36.9481 42.6218C37.0495 42.4577 37.1395 42.3916 37.3269 42.349Z" fill="#FE5A5E"/>
<path d="M49.9605 12.2084C49.7877 11.8939 49.6962 11.5422 49.7918 11.1855C49.8776 10.865 50.1077 10.5957 50.396 10.437C50.7051 10.2648 51.0705 10.2246 51.4094 10.3256C51.7351 10.4244 52.0231 10.6468 52.1826 10.9491C52.3408 11.2492 52.3454 11.6375 52.2419 11.9564C52.1384 12.2756 51.9038 12.5265 51.6041 12.6713C51.47 12.7361 51.3316 12.7764 51.1872 12.8112C51.1574 13.091 51.0327 13.3591 50.942 13.6238C52.6421 14.7033 53.9194 16.2268 54.3694 18.2261C54.457 18.6151 54.5408 19.0614 54.5183 19.4598C55.1189 19.7036 55.6285 20.2489 55.8787 20.8455C56.0011 21.1372 56.0529 21.4426 56.0573 21.7577C56.9125 22.2328 57.755 22.7305 58.5837 23.2505C58.7959 23.3837 59.8638 24.12 60.0063 24.1239C59.9403 24.5426 59.8584 24.9586 59.7612 25.3713C59.5909 26.0083 59.3891 26.6206 59.1546 27.2366C58.6199 27.4035 58.0967 27.6114 57.5588 27.7676C55.1925 28.4783 52.7236 28.7853 50.2558 28.6759C50.0863 28.6639 49.917 28.6538 49.7475 28.6455C49.5698 27.585 49.2391 26.6509 48.7623 25.6897C48.2046 25.7268 47.6446 25.7035 47.092 25.6201C44.9789 25.3027 43.0757 24.1656 41.7945 22.455C40.5353 22.5143 39.4433 23.0444 38.4703 23.8106C38.3347 23.7074 38.2114 23.5883 38.0857 23.4736C36.4313 22.0887 34.7309 19.7744 33.6235 17.9249C33.8523 17.081 34.2817 16.2522 34.6855 15.4811C34.9489 15.0228 35.2342 14.5774 35.5403 14.1465C36.6804 14.3264 37.8241 14.6107 38.9404 14.9017C39.1232 14.9343 39.3057 14.9865 39.4863 15.0305C39.8689 14.4378 40.3578 13.9649 41.061 13.7925C41.6378 13.6511 42.333 13.682 42.8468 13.9966C44.4353 12.838 46.2816 12.3537 48.234 12.6589C48.7026 12.7321 49.1499 12.8481 49.5967 13.0067C49.7019 12.7391 49.7998 12.474 49.9494 12.2273C49.9532 12.2211 49.9567 12.2146 49.9605 12.2084Z" fill="#A4C95F"/>
<path d="M54.5185 19.4597C55.1192 19.7035 55.6288 20.2488 55.8789 20.8454C56.0014 21.1371 56.0531 21.4425 56.0575 21.7576C56.9128 22.2327 57.7552 22.7305 58.584 23.2504C58.7961 23.3836 59.8641 24.1199 60.0065 24.1238C59.9405 24.5425 59.8587 24.9586 59.7615 25.3712C59.5911 26.0083 59.3894 26.6205 59.1549 27.2365C58.6201 27.4034 58.0969 27.6113 57.5591 27.7675C55.1928 28.4782 52.7238 28.7852 50.2561 28.6758C50.075 27.59 49.7797 26.6183 49.292 25.6295C50.189 25.4831 51.0156 25.1912 51.79 24.7065C51.9344 24.6106 52.0758 24.5093 52.2183 24.4104C52.2593 24.3784 52.2995 24.3457 52.3391 24.3122C53.6714 23.1908 54.3651 21.7087 54.518 19.9905C54.5261 19.813 54.5231 19.6373 54.5185 19.4597Z" fill="#494268"/>
<path d="M54.5173 19.4596C55.118 19.7034 55.6276 20.2486 55.8777 20.8453C56.0002 21.1369 56.0519 21.4423 56.0563 21.7575C56.0266 22.1829 55.9342 22.55 55.7947 22.9511C55.3632 23.8139 54.7258 24.7257 53.7678 25.0409C53.2374 25.2153 52.6385 25.203 52.1388 24.938C52.0162 24.873 51.8977 24.7917 51.7887 24.7063C51.9332 24.6105 52.0746 24.5091 52.2171 24.4102C52.2581 24.3782 52.2982 24.3455 52.3379 24.3121C53.6702 23.1907 54.3639 21.7085 54.5168 19.9904C54.5249 19.8129 54.5219 19.6371 54.5173 19.4596Z" fill="#838385"/>
<path d="M54.5183 19.9908C54.6283 20.071 54.7398 20.1482 54.8386 20.2423C55.0514 21.143 54.5772 22.2786 54.1106 23.0319C53.7926 23.5451 53.2316 24.3665 52.6077 24.5174C52.4508 24.5554 52.3494 24.4893 52.2185 24.4106C52.2595 24.3786 52.2997 24.3459 52.3393 24.3125C53.6717 23.1911 54.3653 21.7089 54.5183 19.9908Z" fill="#BBBBBB"/>
<path d="M55.3725 20.9679C55.3941 20.9964 55.4002 21.0024 55.4179 21.0389C55.6454 21.5059 55.5677 22.0865 55.4012 22.5578C55.1238 23.3431 54.5135 24.1523 53.7528 24.5166C53.654 24.5523 53.5486 24.5776 53.4475 24.6073C54.5186 23.6466 55.1582 22.3821 55.3725 20.9679Z" fill="#BBBBBB"/>
<path d="M56.0566 21.7578C56.9119 22.2328 57.7543 22.7306 58.5831 23.2506C58.7952 23.3838 59.8632 24.1201 60.0056 24.124C59.9396 24.5427 59.8578 24.9587 59.7606 25.3713C59.5119 25.1233 59.1626 24.9244 58.8691 24.7316C57.8694 24.0747 56.8577 23.4995 55.795 22.9515C55.9345 22.5503 56.0269 22.1832 56.0566 21.7578Z" fill="#658AF4"/>
<path d="M35.5403 14.1459C36.6803 14.3258 37.824 14.6102 38.9403 14.9011C39.1192 14.9527 39.2976 15.0058 39.4784 15.0498C39.2701 15.4231 39.1356 15.8006 39.0184 16.2106C38.866 17.0684 38.8046 17.8868 39.3346 18.6372C39.6409 19.0709 40.053 19.3267 40.5657 19.4456C40.7044 20.3714 41.0039 21.1732 41.4705 21.9782C40.1011 22.1907 39.1629 22.6285 38.0856 23.473C36.4312 22.0881 34.7308 19.7738 33.6234 17.9243C33.8522 17.0804 34.2816 16.2516 34.6854 15.4805C34.9489 15.0222 35.2341 14.5768 35.5403 14.1459Z" fill="#494268"/>
<path d="M35.5402 14.1467C36.6803 14.3265 37.8239 14.6109 38.9403 14.9019C39.1191 14.9534 39.2975 15.0065 39.4784 15.0505C39.2701 15.4239 39.1356 15.8013 39.0184 16.2113C37.591 15.8552 36.1615 15.5262 34.6854 15.4812C34.9488 15.0229 35.2341 14.5776 35.5402 14.1467Z" fill="#658AF4"/>
<path d="M39.4865 15.0304C39.8691 14.4377 40.358 13.9648 41.0612 13.7923C41.6379 13.651 42.3332 13.6819 42.847 13.9965L42.4511 14.3316C41.2558 15.5565 40.5102 17.0095 40.5195 18.7565C40.5199 18.8149 40.5227 18.8733 40.5279 18.9315C40.5345 19.1046 40.5445 19.2741 40.5659 19.4461C40.0533 19.3272 39.6412 19.0713 39.3349 18.6376C38.8048 17.8873 38.8662 17.0689 39.0187 16.211C39.1359 15.8011 39.2704 15.4236 39.4787 15.0502C39.2979 15.0062 39.1194 14.9531 38.9406 14.9016C39.1234 14.9341 39.3059 14.9864 39.4865 15.0304Z" fill="#838385"/>
<path d="M41.8624 14.236L41.8908 14.2375L41.9381 14.2406C42.1198 14.2518 42.2751 14.2812 42.4503 14.3313C41.255 15.5562 40.5095 17.0092 40.5188 18.7562C40.5191 18.8146 40.5219 18.873 40.5271 18.9312C40.405 18.8822 40.1923 18.8174 40.1243 18.6977C39.8495 18.2138 40.0577 17.3264 40.1921 16.8286C40.4408 15.9072 40.9972 14.7296 41.8624 14.236Z" fill="#BBBBBB"/>
<path d="M40.8399 14.3915C40.8569 14.4214 40.8476 14.4 40.8488 14.4606C40.2728 15.0995 39.8396 16.0302 39.6611 16.8721C39.5988 17.1659 39.5985 17.5073 39.4907 17.7854L39.4595 17.7356C39.3306 17.2302 39.417 16.6463 39.5563 16.1522C39.7651 15.4114 40.157 14.7713 40.8399 14.3915Z" fill="#BBBBBB"/>
<path d="M50.3092 12.5761C50.4306 12.6534 50.5682 12.7069 50.699 12.7659C50.6338 13.0359 50.3256 13.6017 50.4625 13.8657C50.4835 13.906 51.7111 14.7873 51.8941 14.9513C52.597 15.5925 53.1547 16.3768 53.5291 17.2516C54.1448 18.697 54.1971 20.3242 53.6007 21.7852C53.048 23.131 51.978 24.1983 50.631 24.7467C48.8684 25.4764 46.951 25.2815 45.2296 24.5579C43.6157 23.8723 42.2083 22.5725 41.5031 20.9571C40.9119 19.6025 40.8618 18.0969 41.4095 16.7194C42.4201 14.178 45.1406 12.8354 47.7784 13.105C48.0783 13.1356 48.3976 13.1726 48.6875 13.2539C48.9734 13.3341 49.2688 13.4594 49.5617 13.5015C49.6381 13.5124 49.716 13.5112 49.7864 13.4762C50.0816 13.3296 50.1967 12.8673 50.3092 12.5761Z" fill="#CDEB97"/>
<path d="M44.3087 16.04C44.7034 16.1275 45.0145 16.2942 45.2955 16.5886C45.7844 17.1009 46.0451 17.8449 46.0202 18.5496C46.0033 19.0244 45.8429 19.5374 45.4822 19.8642C45.179 20.1392 44.8351 20.2094 44.4391 20.1875C44.051 20.1003 43.7381 19.926 43.4624 19.6368C42.9733 19.1243 42.7154 18.3835 42.7388 17.6788C42.7545 17.2044 42.9132 16.6915 43.2736 16.3648C43.5726 16.0938 43.9178 16.0177 44.3087 16.04Z" fill="black"/>
<path d="M43.8955 16.6974C43.9326 16.7102 43.969 16.7232 44.0048 16.7394C44.1564 16.8078 44.2582 16.9359 44.3102 17.093C44.3694 17.2732 44.3516 17.4699 44.2614 17.6368C44.1704 17.8056 44.0581 17.8667 43.8809 17.9242C43.8508 17.9154 43.8418 17.9135 43.8146 17.9032C43.6483 17.8397 43.5397 17.7265 43.4736 17.5614C43.3998 17.3769 43.4138 17.1744 43.5016 16.9973C43.5892 16.8208 43.713 16.7522 43.8955 16.6974Z" fill="#FAFDF1"/>
<path d="M51.3335 19.2323C51.6673 19.297 52.0139 19.4732 52.2382 19.7331C52.4545 19.9837 52.5353 20.3034 52.5091 20.6285C52.4673 21.1398 52.1696 21.5906 51.787 21.9173C51.1867 22.4299 50.4758 22.6135 49.7008 22.5575C49.3029 22.466 48.9317 22.3149 48.6723 21.9844C48.4631 21.7177 48.3921 21.3932 48.4384 21.0611C48.5132 20.5283 48.8559 20.0701 49.2777 19.7526C49.8801 19.2989 50.5918 19.1229 51.3335 19.2323Z" fill="black"/>
<path d="M50.6991 19.7895C50.788 19.8142 50.8684 19.8457 50.9403 19.9065C51.0086 19.9645 51.0596 20.0465 51.0664 20.137C51.0771 20.2774 51.0072 20.3975 50.9181 20.4998C50.7449 20.6989 50.5564 20.7653 50.303 20.7849C50.2148 20.7615 50.1291 20.734 50.058 20.6744C49.9838 20.612 49.9303 20.5287 49.922 20.4305C49.9103 20.2889 49.9887 20.158 50.0812 20.0575C50.2566 19.866 50.4467 19.8041 50.6991 19.7895Z" fill="#FAFDF1"/>
<path d="M50.6991 19.7895C50.788 19.8142 50.8684 19.8457 50.9403 19.9065C51.0086 19.9645 51.0596 20.0465 51.0664 20.137C51.0771 20.2774 51.0072 20.3975 50.9181 20.4998C50.7449 20.6989 50.5564 20.7653 50.303 20.7849C50.2148 20.7615 50.1291 20.734 50.058 20.6744C49.9838 20.612 49.9303 20.5287 49.922 20.4305C49.9103 20.2889 49.9887 20.158 50.0812 20.0575C50.2566 19.866 50.4467 19.8041 50.6991 19.7895Z" fill="#FAFDF1"/>
<path d="M44.5747 21.7418C44.8278 21.8657 45.0294 22.3686 45.3022 22.5807C45.6669 22.8642 46.2017 22.9153 46.5445 23.2006C46.5888 23.2957 46.5963 23.3083 46.5821 23.4178C46.5196 23.5159 46.464 23.5481 46.3613 23.5999C46.3111 23.5901 46.2616 23.5787 46.2122 23.5655C45.5777 23.3955 44.7123 22.856 44.3929 22.2612C44.3389 22.1602 44.3082 22.0512 44.3486 21.9397C44.391 21.8237 44.4672 21.7904 44.5747 21.7418Z" fill="#A4C95F"/>
<path d="M46.1476 20.8916C46.4048 20.9395 46.3924 21.0598 46.5755 21.1881C46.6576 21.1763 46.7566 21.1542 46.8386 21.1745C46.9299 21.1971 47.0317 21.2723 47.0729 21.3578C47.1137 21.4424 47.0983 21.5367 47.0642 21.6206C46.9741 21.8412 46.8463 21.9353 46.6339 22.0267C46.4746 22.0816 46.2964 22.0993 46.1301 22.1268C46.077 22.05 46.0259 21.9721 45.9763 21.893C45.8596 21.7033 45.755 21.4529 45.82 21.2289C45.8719 21.0512 45.9942 20.9748 46.1476 20.8916Z" fill="#A4C95F"/>
<path d="M51.0371 10.7597C51.3161 10.7593 51.5737 10.9097 51.7109 11.153C51.8477 11.3962 51.8432 11.6947 51.6981 11.9334C51.5534 12.1723 51.2914 12.3146 51.0122 12.3054C50.5907 12.2917 50.2584 11.9425 50.265 11.5206C50.2719 11.0988 50.6154 10.7602 51.0371 10.7597Z" fill="#CDEB97"/>
<path d="M33.623 17.9246C34.7305 19.7741 36.4309 22.0884 38.0852 23.4733C38.211 23.588 38.3343 23.7072 38.4698 23.8103C39.4428 23.0442 40.5348 22.5141 41.794 22.4547C43.0752 24.1654 44.9785 25.3024 47.0915 25.6198C47.6442 25.7033 48.2041 25.7265 48.7619 25.6894C49.2387 26.6506 49.5694 27.5847 49.7471 28.6452C49.9165 28.6536 50.0858 28.6636 50.2554 28.6756C52.7231 28.785 55.1921 28.478 57.5583 27.7674C58.0962 27.6111 58.6194 27.4032 59.1542 27.2363C59.0562 27.4546 58.8345 27.8202 58.9155 28.0611C58.9555 28.1803 59.0574 28.2577 59.1687 28.307C59.1841 28.3139 59.2 28.3202 59.2156 28.3268C58.9147 28.5416 58.3667 28.6633 58.0117 28.7751C55.628 29.5482 53.1333 29.9224 50.6279 29.8824C45.0888 29.7681 40.0325 27.3457 36.2276 23.3618C35.8067 22.9202 35.403 22.4625 35.0176 21.9896C34.6531 21.5406 32.5705 18.8361 32.6103 18.3452C32.6197 18.2296 32.6861 18.1569 32.7672 18.0818C32.8922 18.4623 33.1093 18.8457 33.278 19.2111C33.3728 18.775 33.494 18.3516 33.623 17.9246Z" fill="#CDEB97"/>
<path d="M39.8806 24.6743C39.9394 24.6966 40.0102 24.7267 40.054 24.7739C40.1214 24.8465 40.1388 24.9244 40.1426 25.0197L40.0805 25.0811L40.0466 25.0688C39.9377 24.9983 39.8041 24.9326 39.7337 24.8213C39.7578 24.728 39.8008 24.7238 39.8806 24.6743Z" fill="#A4C95F"/>
<path d="M34.737 13.9858C36.8863 10.8572 40.1878 8.70877 43.9174 8.01178C47.6715 7.30669 51.5514 8.12961 54.696 10.298C57.844 12.4658 59.9964 15.8018 60.6746 19.565C61.014 21.4294 60.9204 22.7775 60.688 24.6305C60.5539 25.2873 59.9485 27.9058 59.4381 28.2555C59.3751 28.2988 59.2887 28.3119 59.2152 28.3271C59.1997 28.3205 59.1837 28.3142 59.1683 28.3073C59.0571 28.258 58.9551 28.1805 58.9152 28.0614C58.8341 27.8205 59.0558 27.4548 59.1538 27.2366C59.3883 26.6206 59.5901 26.0084 59.7604 25.3713C59.8576 24.9587 59.9394 24.5426 60.0054 24.1239C60.1805 22.7784 60.2029 21.4518 60.0023 20.1071C59.4665 16.5149 57.5172 13.2868 54.5884 11.1418C51.6748 9.00851 48.0327 8.12172 44.4647 8.67686C40.8801 9.23673 37.6671 11.2058 35.5395 14.1465C35.2334 14.5774 34.9481 15.0228 34.6847 15.4811C34.2808 16.2522 33.8515 17.081 33.6226 17.9249C33.4936 18.3519 33.3724 18.7753 33.2776 19.2113C33.1089 18.8459 32.8919 18.4626 32.7669 18.0821C33.2793 16.6172 33.8508 15.2687 34.737 13.9858Z" fill="#FAFDF1"/>
<defs>
<filter id="filter0_d_868_355" x="11.9355" y="37.2119" width="33.5713" height="40.3906" filterUnits="userSpaceOnUse" color-interpolation-filters="sRGB">
<feFlood flood-opacity="0" result="BackgroundImageFix"/>
<feColorMatrix in="SourceAlpha" type="matrix" values="0 0 0 0 0 0 0 0 0 0 0 0 0 0 0 0 0 0 127 0" result="hardAlpha"/>
<feOffset/>
<feGaussianBlur stdDeviation="2.5"/>
<feComposite in2="hardAlpha" operator="out"/>
<feColorMatrix type="matrix" values="0 0 0 0 0.992157 0 0 0 0 0.976471 0 0 0 0 0.733333 0 0 0 1 0"/>
<feBlend mode="normal" in2="BackgroundImageFix" result="effect1_dropShadow_868_355"/>
<feBlend mode="normal" in="SourceGraphic" in2="effect1_dropShadow_868_355" result="shape"/>
</filter>
</defs>
</svg>
