<svg width="369" height="369" viewBox="0 0 369 369" fill="none" xmlns="http://www.w3.org/2000/svg">
<g clip-path="url(#clip0_868_276)">
<rect width="369" height="369" fill="white"/>
<path d="M125.762 271.104C117.452 275.771 107.904 282.933 100.947 291.289C80.1027 316.322 71.4277 355.027 71.4277 387C71.4277 398.229 74.8456 423.897 87.746 429.061C93.0057 431.165 98.9033 431.829 100.017 425.126C100.765 420.642 95.7123 413.25 94.3009 409.014C93.4734 406.525 91.9912 402.372 91.9912 402.372C91.9912 402.372 92.1924 403.584 92.2944 404.19C92.8527 407.542 95.2162 411.246 96.6758 414.312C100.244 421.809 103.588 425.094 111.689 422.39C119.441 419.804 109.641 393.705 108.658 387.81C106.252 373.351 106.11 358.425 109.905 343.986C115.179 323.914 113.362 333.724 114.416 328.97C114.909 326.753 116.842 322.6 116.842 322.6C116.842 322.6 115.97 324.396 115.63 325.332C114.47 328.52 113.603 331.226 112.648 334.476C108.131 349.87 107.317 353.578 107.317 363.312C107.317 389.735 115.607 412.364 118.495 438.369C119.038 443.265 121.321 477.087 118.963 480.624C117.046 483.502 110.565 486.299 107.751 489.118C101.771 495.103 100.459 506.277 104.719 513.382C106.745 516.759 114.148 518.694 117.752 519.146C126.102 520.188 154.339 519.727 161.591 515.423C168.203 511.499 171.5 508.608 172.259 502.141C173.913 488.058 174.426 463.288 174.426 449.082C174.426 445.936 174.09 437.8 172.913 436.086C171.609 434.189 175.237 439.121 173.742 436.135C173.683 436.018 187.53 438.516 172.349 434.632C169.735 433.964 166.395 430.888 166.514 431.185C167.01 432.431 172.106 435.989 173.796 436.155C196.939 438.398 174.32 436.259 178.205 436.747C184.244 437.501 189.514 437.28 195.032 434.825C197.131 433.89 200.345 432.845 202.004 431.185C202.308 430.881 195.509 435.816 195.509 435.816C195.509 435.816 202.058 430.829 201.7 431.185C199.779 433.107 196.336 433.826 194.732 435.431C193.325 436.837 194.732 446.197 194.732 448.474C194.732 464.544 194.153 491.719 199.595 506.378C206.221 524.231 244.031 524.128 259.168 516.935C261.722 515.724 266.075 512.761 267.487 510.324C280.242 488.284 254.673 486.576 253.276 483.565C251.125 478.935 251.103 467.07 251.103 462.123C251.103 447.596 249.722 430.731 254.738 416.931C262.057 396.791 265.755 375.417 262.197 354.057C260.994 346.83 259.429 339.25 257.13 332.352C256.388 330.126 255.121 327.019 254.738 324.726C254.722 324.623 254.004 321.516 253.828 321.691C252.499 323.021 257.902 333.911 258.335 335.861C260.985 347.786 262.246 351.544 263.357 363.766C264.323 374.418 260.551 393.075 257.769 403.28C256.204 409.025 253.645 415.824 259.567 420.272C266.783 425.686 271.573 412.911 272.922 408.192C273.676 405.546 274.809 402.65 274.809 402.65C274.809 402.65 275.328 401.683 275.044 402.675C274.154 405.789 272.785 408.678 272.012 411.774C270.298 418.637 268.704 429.909 281.095 427.533C297.433 424.397 300.233 408.651 300.908 393.84C303.223 343.106 279.953 298.003 243.222 270.431C241.037 268.793 221.621 277.283 218.382 277.283C203.264 277.283 202.914 281.331 192.96 282.235C187.786 282.707 177.336 284.688 174.23 284.8C164.554 285.142 171.023 284.894 152.023 279.839C148.276 278.844 129.209 269.163 125.762 271.104Z" fill="#CEEC97" stroke="#A4C95F" stroke-width="7" stroke-miterlimit="10" stroke-linecap="round" stroke-linejoin="round"/>
<path d="M282.92 153.375C289.111 152.234 292.883 154.44 298.519 156.864C322.863 167.334 321.637 200.113 312.304 220.554C306.903 232.384 293.16 241.557 280.242 237.818" fill="#BBBBBB"/>
<path d="M282.92 153.375C289.111 152.234 292.883 154.44 298.519 156.864C322.863 167.334 321.637 200.113 312.304 220.554C306.903 232.384 293.16 241.557 280.242 237.818" stroke="#858585" stroke-width="7" stroke-miterlimit="10" stroke-linecap="round" stroke-linejoin="round"/>
<path d="M87.8769 151.754C81.6903 150.614 77.9183 152.82 72.2815 155.244C47.9348 165.714 49.1618 198.493 58.4941 218.934C63.8958 230.764 77.6406 239.937 90.555 236.199" fill="#BBBBBB"/>
<path d="M87.8769 151.754C81.6903 150.614 77.9183 152.82 72.2815 155.244C47.9348 165.714 49.1618 198.493 58.4941 218.934C63.8958 230.764 77.6406 239.937 90.555 236.199" stroke="#858585" stroke-width="7" stroke-miterlimit="10" stroke-linecap="round" stroke-linejoin="round"/>
<path d="M296.153 157.24C296.473 156.601 299.604 164.011 300.003 165.129C302.1 171.012 303.415 177.266 304.038 183.474C305.507 198.218 301.897 225.975 290.836 237.045" fill="#BBBBBB"/>
<path d="M296.153 157.24C296.473 156.601 299.604 164.011 300.003 165.129C302.1 171.012 303.415 177.266 304.038 183.474C305.507 198.218 301.897 225.975 290.836 237.045" stroke="#858585" stroke-width="4" stroke-miterlimit="10" stroke-linecap="round" stroke-linejoin="round"/>
<path d="M72.8705 155.982C72.5502 155.343 69.4186 162.753 69.019 163.871C66.9192 169.754 65.6069 176.008 64.9864 182.216C63.5126 196.961 67.1231 224.716 78.1842 235.786" fill="#BBBBBB"/>
<path d="M72.8705 155.982C72.5502 155.343 69.4186 162.753 69.019 163.871C66.9192 169.754 65.6069 176.008 64.9864 182.216C63.5126 196.961 67.1231 224.716 78.1842 235.786" stroke="#858585" stroke-width="4" stroke-miterlimit="10" stroke-linecap="round" stroke-linejoin="round"/>
<path d="M196.409 93.7291C248.318 98.9927 288.757 140.845 288.757 191.695C288.757 246.107 242.695 286.093 185.579 286.093C128.46 286.093 81.9121 246.107 81.9121 191.695C81.9121 139.905 123.861 97.4476 177.155 93.4746" fill="#CEEC97"/>
<path d="M196.409 93.7291C248.318 98.9927 288.757 140.845 288.757 191.695C288.757 246.107 242.695 286.093 185.579 286.093C128.46 286.093 81.9121 246.107 81.9121 191.695C81.9121 139.905 123.861 97.4476 177.155 93.4746" stroke="#A4C95F" stroke-width="7" stroke-miterlimit="10" stroke-linejoin="round"/>
<path d="M175.646 93.4786C181.065 93.4786 176.417 81.4933 178.737 76.8482C180.682 72.9552 187.608 71.058 190.331 75.1465C193.944 80.5713 191.885 87.657 194.117 93.2466C194.279 93.6482 195.272 93.3096 195.509 93.788" fill="#CEEC97"/>
<path d="M175.646 93.4786C181.065 93.4786 176.417 81.4933 178.737 76.8482C180.682 72.9552 187.608 71.058 190.331 75.1465C193.944 80.5713 191.885 87.657 194.117 93.2466C194.279 93.6482 195.272 93.3096 195.509 93.788" stroke="#A4C95F" stroke-width="7" stroke-miterlimit="10" stroke-linecap="round" stroke-linejoin="round"/>
<path d="M169.646 59.5102C169.646 50.7231 176.595 43.5996 185.167 43.5996C193.741 43.5996 200.689 50.7231 200.689 59.5102C200.689 68.2974 193.741 75.4206 185.167 75.4206C176.595 75.4206 169.646 68.2974 169.646 59.5102Z" fill="#CEEC97" stroke="#A4C95F" stroke-width="7" stroke-miterlimit="10" stroke-linejoin="round"/>
<path d="M220.272 183.071C230.175 170.627 245.389 166.267 254.254 173.332C263.12 180.398 262.278 196.214 252.377 208.659C242.474 221.104 227.258 225.463 218.394 218.398C209.529 211.332 210.371 195.516 220.272 183.071Z" fill="black" stroke="black" stroke-width="4" stroke-miterlimit="10" stroke-linejoin="round"/>
<path d="M151.361 183.493C141.46 171.049 126.244 166.689 117.379 173.754C108.514 180.82 109.353 196.636 119.258 209.081C129.16 221.524 144.376 225.886 153.241 218.82C162.104 211.754 161.263 195.938 151.361 183.493Z" fill="black" stroke="black" stroke-width="4" stroke-miterlimit="10" stroke-linejoin="round"/>
<path d="M163.284 248.642C163.284 248.642 179.484 266.742 205.202 253.154" stroke="#A4C95F" stroke-width="7" stroke-miterlimit="10" stroke-linecap="round" stroke-linejoin="round"/>
<path d="M117.11 190.725C115.182 186.011 116.47 181.021 119.986 179.581C123.504 178.14 127.916 180.794 129.846 185.508C131.773 190.222 130.487 195.212 126.97 196.653C123.452 198.093 119.04 195.44 117.11 190.725Z" fill="#E0E0E0"/>
<path d="M227.096 183.545C229.835 179.252 234.65 177.431 237.853 179.478C241.055 181.525 241.429 186.665 238.691 190.958C235.952 195.251 231.134 197.072 227.93 195.025C224.729 192.978 224.355 187.838 227.096 183.545Z" fill="#E0E0E0"/>
<path d="M179.863 223.6C176.825 223.6 174.607 226.586 174.607 229.806C174.607 230.672 174.75 231.5 175.003 232.286C175.127 232.672 175.275 233.046 175.447 233.413C177.836 238.498 184.5 241.6 184.5 241.6C184.5 241.6 191.163 238.5 193.552 233.413C193.725 233.048 193.872 232.673 193.996 232.286C194.25 231.5 194.392 230.672 194.392 229.806C194.392 226.586 192.174 223.6 189.136 223.6C187.064 223.6 185.519 224.66 184.55 226.501C184.546 226.51 184.539 226.517 184.53 226.523C184.521 226.528 184.51 226.53 184.5 226.53C184.489 226.53 184.478 226.528 184.469 226.523C184.46 226.517 184.453 226.51 184.449 226.501C183.48 224.662 181.935 223.6 179.863 223.6Z" fill="#A4C95F"/>
</g>
<defs>
<clipPath id="clip0_868_276">
<rect width="369" height="369" fill="white"/>
</clipPath>
</defs>
</svg>
