<svg width="24" height="24" viewBox="0 0 24 24" fill="none" xmlns="http://www.w3.org/2000/svg">
<path d="M16.0347 3.01468C16.5732 2.47608 17.2963 2.16244 18.0575 2.13737C18.8187 2.1123 19.5609 2.37768 20.1337 2.87968L20.2777 3.01468L20.9847 3.72168C21.523 4.2601 21.8365 4.98306 21.8615 5.74402C21.8866 6.50498 21.6214 7.247 21.1197 7.81968L20.9847 7.96368L9.77268 19.1767C9.61416 19.3352 9.42212 19.4562 9.21068 19.5307L9.04868 19.5777L4.59468 20.6057C4.43862 20.642 4.27612 20.6402 4.12087 20.6006C3.96562 20.561 3.82217 20.4846 3.70259 20.378C3.583 20.2714 3.4908 20.1375 3.43374 19.9878C3.37667 19.8381 3.35642 19.6769 3.37468 19.5177L3.39468 19.4047L4.42168 14.9497C4.47242 14.7312 4.57152 14.5268 4.71168 14.3517L4.82268 14.2267L16.0347 3.01468ZM15.3277 6.54968L6.33768 15.5397L5.70168 18.2977L8.45968 17.6607L17.4497 8.67068L15.3277 6.54968ZM18.8637 4.42868C18.6915 4.25651 18.4624 4.15308 18.2194 4.13779C17.9763 4.12251 17.7361 4.19643 17.5437 4.34568L17.4497 4.42868L16.7417 5.13568L18.8637 7.25668L19.5707 6.54968C19.7429 6.37749 19.8463 6.14839 19.8616 5.90536C19.8769 5.66234 19.8029 5.42209 19.6537 5.22968L19.5707 5.13568L18.8637 4.42868Z" fill="#312A54"/>
</svg>
