<svg width="34" height="32" viewBox="0 0 34 32" fill="none" xmlns="http://www.w3.org/2000/svg">
<path d="M26.1688 31.9917C25.9044 31.9928 25.6436 31.9293 25.4082 31.8066L16.9752 27.3119L8.54218 31.8066C8.26834 31.9532 7.9596 32.0186 7.65105 31.9954C7.3425 31.9723 7.04652 31.8615 6.79675 31.6756C6.54699 31.4897 6.35346 31.2362 6.23817 30.9439C6.12287 30.6516 6.09044 30.3323 6.14455 30.0221L7.79808 20.5445L0.985527 13.8109C0.772978 13.595 0.622198 13.3242 0.54937 13.0276C0.476542 12.731 0.484415 12.4198 0.572143 12.1275C0.667982 11.8283 0.844276 11.5625 1.08102 11.3601C1.31776 11.1578 1.60547 11.027 1.91151 10.9828L11.3366 9.58553L15.487 0.949629C15.6224 0.665013 15.8338 0.424981 16.097 0.25703C16.3602 0.0890781 16.6646 0 16.9752 0C17.2858 0 17.5902 0.0890781 17.8534 0.25703C18.1166 0.424981 18.328 0.665013 18.4634 0.949629L22.6634 9.5687L32.0885 10.9659C32.3945 11.0102 32.6822 11.1409 32.919 11.3433C33.1557 11.5456 33.332 11.8115 33.4279 12.1106C33.5156 12.403 33.5235 12.7142 33.4506 13.0108C33.3778 13.3073 33.227 13.5781 33.0145 13.7941L26.2019 20.5277L27.8554 30.0053C27.9145 30.3209 27.8836 30.6471 27.7664 30.9454C27.6492 31.2437 27.4506 31.5016 27.194 31.6887C26.8946 31.9023 26.5341 32.0089 26.1688 31.9917Z" fill="#FF5A5E"/>
</svg>
