<svg width="133" height="235" viewBox="0 0 133 235" fill="none" xmlns="http://www.w3.org/2000/svg">
<path d="M37.4958 111.851C33.4805 114.105 28.8668 117.563 25.5047 121.597C15.4322 133.684 11.2402 152.373 11.2402 167.811C11.2402 173.233 12.8918 185.627 19.1257 188.121C21.6674 189.137 24.5173 189.457 25.0555 186.221C25.417 184.056 22.9753 180.486 22.2933 178.441C21.8934 177.239 21.1772 175.234 21.1772 175.234C21.1772 175.234 21.2744 175.819 21.3237 176.112C21.5935 177.731 22.7356 179.519 23.4409 181C25.1651 184.619 26.7811 186.205 30.6964 184.9C34.4419 183.651 29.7062 171.049 29.231 168.203C28.0684 161.222 27.9999 154.014 29.8336 147.042C32.3822 137.35 31.5044 142.087 32.0138 139.792C32.2521 138.721 33.1861 136.716 33.1861 136.716C33.1861 136.716 32.7643 137.583 32.6 138.035C32.0398 139.574 31.6208 140.881 31.1593 142.45C28.9763 149.884 28.5833 151.674 28.5833 156.374C28.5833 169.132 32.589 180.059 33.9845 192.615C34.2474 194.979 35.3499 211.31 34.2105 213.018C33.2847 214.408 30.1527 215.758 28.7928 217.119C25.9032 220.009 25.2692 225.405 27.3275 228.835C28.3067 230.466 31.8837 231.4 33.6257 231.618C37.6602 232.122 51.3056 231.899 54.8101 229.821C58.0051 227.926 59.5978 226.53 59.9648 223.408C60.7646 216.607 61.0125 204.648 61.0125 197.788C61.0125 196.269 60.8495 192.34 60.2812 191.513C59.6512 190.597 61.4041 192.978 60.6824 191.536C60.6537 191.48 67.3449 192.687 60.0087 190.81C58.746 190.489 57.1315 189.003 57.189 189.147C57.4286 189.748 59.8909 191.466 60.7085 191.546C71.8916 192.629 60.9608 191.596 62.8384 191.832C65.7567 192.196 68.3036 192.09 70.9699 190.904C71.9847 190.453 73.5377 189.948 74.3388 189.147C74.4854 189 71.2 191.383 71.2 191.383C71.2 191.383 74.3649 188.974 74.1923 189.147C73.2638 190.075 71.5999 190.422 70.8248 191.197C70.1455 191.876 70.8248 196.395 70.8248 197.495C70.8248 205.254 70.5454 218.375 73.1748 225.454C76.3766 234.074 94.6482 234.024 101.963 230.551C103.196 229.966 105.3 228.535 105.982 227.359C112.146 216.717 99.7906 215.892 99.1154 214.438C98.076 212.203 98.065 206.473 98.065 204.085C98.065 197.07 97.3981 188.927 99.8221 182.264C103.358 172.539 105.145 162.219 103.427 151.905C102.844 148.416 102.089 144.755 100.978 141.424C100.619 140.349 100.007 138.85 99.8221 137.742C99.8138 137.693 99.4674 136.193 99.3824 136.277C98.7402 136.919 101.35 142.178 101.56 143.118C102.84 148.877 103.45 150.692 103.987 156.593C104.454 161.736 102.631 170.745 101.286 175.672C100.53 178.447 99.2934 181.729 102.156 183.877C105.642 186.491 107.957 180.323 108.609 178.044C108.973 176.766 109.521 175.368 109.521 175.368C109.521 175.368 109.771 174.901 109.634 175.381C109.204 176.884 108.543 178.278 108.169 179.774C107.34 183.088 106.571 188.53 112.558 187.383C120.453 185.869 121.806 178.266 122.132 171.115C123.251 146.617 112.006 124.839 94.2565 111.526C93.2006 110.734 83.8184 114.835 82.253 114.835C74.9483 114.835 74.7785 116.789 69.9689 117.226C67.4682 117.453 62.4189 118.41 60.918 118.464C56.2412 118.629 59.3677 118.509 50.1868 116.069C48.3763 115.588 39.1625 110.914 37.4958 111.851Z" fill="#CEEC97" stroke="#A4C95F" stroke-width="4" stroke-miterlimit="10" stroke-linecap="round" stroke-linejoin="round"/>
<path d="M113.441 55.0051C116.432 54.4542 118.254 55.5196 120.978 56.6901C132.742 61.7452 132.149 77.5726 127.639 87.4429C125.029 93.1547 118.389 97.5836 112.146 95.7786" fill="#BBBBBB"/>
<path d="M113.441 55.0051C116.432 54.4542 118.254 55.5196 120.978 56.6901C132.742 61.7452 132.149 77.5726 127.639 87.4429C125.029 93.1547 118.389 97.5836 112.146 95.7786" stroke="#858585" stroke-width="4" stroke-miterlimit="10" stroke-linecap="round" stroke-linejoin="round"/>
<path d="M19.1901 54.2223C16.2006 53.6716 14.3778 54.7369 11.6539 55.9074C-0.111256 60.9626 0.48174 76.79 4.99142 86.6602C7.60165 92.3726 14.2436 96.8015 20.4843 94.9965" fill="#BBBBBB"/>
<path d="M19.1901 54.2223C16.2006 53.6716 14.3778 54.7369 11.6539 55.9074C-0.111256 60.9626 0.48174 76.79 4.99142 86.6602C7.60165 92.3726 14.2436 96.8015 20.4843 94.9965" stroke="#858585" stroke-width="4" stroke-miterlimit="10" stroke-linecap="round" stroke-linejoin="round"/>
<path d="M119.835 56.8714C119.989 56.5628 121.503 60.1406 121.696 60.6804C122.709 63.521 123.345 66.5408 123.645 69.5386C124.355 76.6578 122.611 90.0598 117.266 95.4047" fill="#BBBBBB"/>
<path d="M119.835 56.8714C119.989 56.5628 121.503 60.1406 121.696 60.6804C122.709 63.521 123.345 66.5408 123.645 69.5386C124.355 76.6578 122.611 90.0598 117.266 95.4047" stroke="#858585" stroke-width="4" stroke-miterlimit="10" stroke-linecap="round" stroke-linejoin="round"/>
<path d="M11.9399 56.2639C11.7852 55.9554 10.2719 59.5332 10.0788 60.073C9.06399 62.9136 8.42992 65.9334 8.13001 68.9312C7.41788 76.0504 9.1626 89.4524 14.5077 94.7977" fill="#BBBBBB"/>
<path d="M11.9399 56.2639C11.7852 55.9554 10.2719 59.5332 10.0788 60.073C9.06399 62.9136 8.42992 65.9334 8.13001 68.9312C7.41788 76.0504 9.1626 89.4524 14.5077 94.7977" stroke="#858585" stroke-width="4" stroke-miterlimit="10" stroke-linecap="round" stroke-linejoin="round"/>
<path d="M71.6348 26.2049C96.7195 28.7465 116.261 48.955 116.261 73.5079C116.261 99.7816 94.0025 119.088 66.4021 119.088C38.8003 119.088 16.3066 99.7816 16.3066 73.5079C16.3066 48.5009 36.5776 28.0004 62.3306 26.082" fill="#CEEC97"/>
<path d="M71.6348 26.2049C96.7195 28.7465 116.261 48.955 116.261 73.5079C116.261 99.7816 94.0025 119.088 66.4021 119.088C38.8003 119.088 16.3066 99.7816 16.3066 73.5079C16.3066 48.5009 36.5776 28.0004 62.3306 26.082" stroke="#A4C95F" stroke-width="4" stroke-miterlimit="10" stroke-linejoin="round"/>
<path d="M61.6035 26.0842C64.222 26.0842 61.976 20.2971 63.0976 18.0541C64.0371 16.1744 67.3841 15.2584 68.7001 17.2325C70.4462 19.8519 69.4506 23.2732 70.5298 25.9722C70.6078 26.1661 71.0871 26.0026 71.2022 26.2336" fill="#CEEC97"/>
<path d="M61.6035 26.0842C64.222 26.0842 61.976 20.2971 63.0976 18.0541C64.0371 16.1744 67.3841 15.2584 68.7001 17.2325C70.4462 19.8519 69.4506 23.2732 70.5298 25.9722C70.6078 26.1661 71.0871 26.0026 71.2022 26.2336" stroke="#A4C95F" stroke-width="4" stroke-miterlimit="10" stroke-linecap="round" stroke-linejoin="round"/>
<path d="M58.7031 9.68248C58.7031 5.43957 62.0611 2 66.2037 2C70.3464 2 73.7044 5.43957 73.7044 9.68248C73.7044 13.9254 70.3464 17.3648 66.2037 17.3648C62.0611 17.3648 58.7031 13.9254 58.7031 9.68248Z" fill="#CEEC97" stroke="#A4C95F" stroke-width="4" stroke-miterlimit="10" stroke-linejoin="round"/>
<path d="M83.1675 69.3438C87.9525 63.3351 95.3052 61.2297 99.5889 64.6414C103.873 68.0531 103.466 75.69 98.6809 81.6988C93.896 87.7077 86.5433 89.8131 82.2595 86.4013C77.9758 82.9895 78.3826 75.3527 83.1675 69.3438Z" fill="black" stroke="black" stroke-width="4" stroke-miterlimit="10" stroke-linejoin="round"/>
<path d="M49.867 69.548C45.082 63.5391 37.7293 61.4338 33.4456 64.8455C29.1618 68.2572 29.5672 75.8941 34.3535 81.903C39.1385 87.9118 46.4912 90.0171 50.7749 86.6055C55.0586 83.1937 54.6519 75.5568 49.867 69.548Z" fill="black" stroke="black" stroke-width="4" stroke-miterlimit="10" stroke-linejoin="round"/>
<path d="M55.6289 101.005C55.6289 101.005 63.4568 109.745 75.8848 103.184" stroke="#A4C95F" stroke-width="4" stroke-miterlimit="10" stroke-linecap="round" stroke-linejoin="round"/>
<path d="M33.3154 73.04C32.3842 70.7637 33.0059 68.3544 34.7054 67.6588C36.4049 66.9631 38.5372 68.2445 39.4698 70.5209C40.4011 72.7972 39.7793 75.2064 38.0798 75.9021C36.3803 76.5978 34.248 75.3164 33.3154 73.04Z" fill="#E0E0E0"/>
<path d="M86.4622 69.5728C87.7865 67.4999 90.1133 66.6207 91.6608 67.6092C93.2083 68.5976 93.3891 71.0793 92.0661 73.1522C90.7419 75.225 88.4137 76.1042 86.8662 75.1159C85.3187 74.1274 85.138 71.6458 86.4622 69.5728Z" fill="#E0E0E0"/>
<path d="M63.639 88.9136C62.1714 88.9136 61.0996 90.3554 61.0996 91.9106C61.0996 92.3283 61.1687 92.7281 61.2908 93.1081C61.3507 93.2939 61.4222 93.4751 61.5054 93.6518C62.6601 96.1076 65.8799 97.6049 65.8799 97.6049C65.8799 97.6049 69.0996 96.1081 70.2543 93.6518C70.3375 93.4757 70.409 93.2945 70.4689 93.1081C70.5911 92.7281 70.6601 92.3283 70.6601 91.9106C70.6601 90.3559 69.5883 88.9136 68.1207 88.9136C67.1195 88.9136 66.3728 89.4259 65.9043 90.3148C65.9021 90.319 65.8986 90.3225 65.8943 90.325C65.89 90.3275 65.885 90.3288 65.8799 90.3288C65.8747 90.3288 65.8697 90.3275 65.8654 90.325C65.8611 90.3225 65.8576 90.319 65.8554 90.3148C65.387 89.4264 64.6407 88.9136 63.639 88.9136Z" fill="#A4C95F"/>
</svg>
