<svg width="27" height="24" viewBox="0 0 27 24" fill="none" xmlns="http://www.w3.org/2000/svg">
<path fill-rule="evenodd" clip-rule="evenodd" d="M11.3598 13.4631C11.9625 13.0713 12.6659 12.8628 13.3848 12.8628C14.1036 12.8628 14.807 13.0713 15.4097 13.4631L25.039 19.7218C25.3293 19.9105 25.5508 20.188 25.6705 20.5128C25.7902 20.8376 25.8017 21.1925 25.7033 21.5244C25.6049 21.8563 25.4019 22.1475 25.1245 22.3547C24.8471 22.5618 24.5102 22.6737 24.164 22.6738H2.60553C2.25933 22.6737 1.92242 22.5618 1.64502 22.3547C1.36762 22.1475 1.16459 21.8563 1.06621 21.5244C0.967821 21.1925 0.979346 20.8376 1.09906 20.5128C1.21878 20.188 1.44028 19.9105 1.73054 19.7218L11.3598 13.4631Z" stroke="black" stroke-width="2" stroke-linecap="round" stroke-linejoin="round"/>
<path d="M13.3835 12.1464C13.3835 12.1464 17.0989 6.76767 17.0989 4.71548C17.0989 3.73008 16.7075 2.78503 16.0107 2.08824C15.3139 1.39145 14.3689 1 13.3835 1C12.398 1 11.453 1.39145 10.7562 2.08824C10.0594 2.78503 9.66797 3.73008 9.66797 4.71548" stroke="black" stroke-width="2" stroke-linecap="round" stroke-linejoin="round"/>
</svg>
