<svg width="393" height="372" viewBox="0 0 393 372" fill="none" xmlns="http://www.w3.org/2000/svg">
<path d="M365.41 68.6699C343.334 46.9813 317.07 29.7499 288.127 17.9654C259.184 6.18097 228.133 0.0758248 196.757 0.000701831C165.382 -0.0744212 134.3 5.88197 105.298 17.5277C76.2956 29.1734 49.9446 46.2789 27.7587 67.8615C5.57269 89.4441 -12.011 115.078 -23.9823 143.292C-35.9536 171.505 -42.0765 201.741 -41.9993 232.264C-41.9221 262.786 -35.6462 292.993 -23.5323 321.148C-11.4184 349.304 6.29479 374.854 28.5897 396.33C50.6662 418.019 76.9303 435.25 105.873 447.035C134.816 458.819 165.867 464.924 197.243 464.999C228.618 465.074 259.7 459.118 288.702 447.472C317.704 435.827 344.055 418.721 366.241 397.139C388.427 375.556 406.011 349.922 417.982 321.708C429.954 293.495 436.077 263.259 435.999 232.736C435.922 202.214 429.646 172.007 417.532 143.852C405.418 115.696 387.705 90.146 365.41 68.6699ZM-7.14657 232.5C-7.15458 214.923 -4.75895 197.424 -0.0227127 180.462C7.78164 196.805 19.116 210.924 26.8247 227.69C36.7875 249.246 63.5392 243.268 75.352 262.155C85.8358 278.921 74.6396 300.126 82.4865 317.668C88.1856 330.401 101.625 333.183 110.897 342.492C120.371 351.884 120.169 364.752 121.615 376.998C123.245 391.387 125.892 405.65 129.536 419.686C129.536 419.789 129.536 419.903 129.621 420.006C50.057 392.824 -7.14657 319.044 -7.14657 232.5ZM197 431.094C185.599 431.092 174.218 430.164 162.976 428.322C163.093 425.519 163.146 422.902 163.433 421.082C166.016 404.636 174.48 388.552 185.9 376.243C197.181 364.1 212.641 355.887 222.167 342.11C231.503 328.663 234.299 310.562 230.45 294.85C224.783 271.64 192.364 263.892 174.884 251.304C164.836 244.064 155.894 232.872 142.699 231.962C136.617 231.548 131.524 232.821 125.496 231.311C119.967 229.914 115.628 227.018 109.738 227.773C98.7332 229.18 91.7901 240.62 79.9666 239.068C68.7492 237.61 57.1915 224.835 54.6397 214.44C51.3648 201.077 62.2314 196.743 73.8741 195.553C78.7332 195.057 84.1877 194.519 88.8555 196.257C95.0011 198.47 97.9039 204.324 103.422 207.283C113.768 212.806 115.862 203.983 114.278 195.046C111.907 181.662 109.143 176.211 121.413 166.995C129.919 160.644 137.191 156.051 135.83 144.643C135.022 137.94 131.248 134.909 134.767 128.238C137.436 123.159 144.762 118.577 149.536 115.546C161.859 107.727 202.327 108.306 185.793 86.4193C180.934 79.996 171.971 68.5148 163.465 66.9426C152.832 64.9876 148.111 76.531 140.7 81.6199C133.045 86.8848 118.138 92.8633 110.472 84.723C100.158 73.7692 117.308 70.1801 121.104 62.5259C122.859 58.9574 121.104 54.0029 118.148 49.338C121.983 47.7658 125.882 46.3073 129.844 44.9627C132.328 46.7469 135.273 47.8216 138.35 48.0657C145.464 48.5208 149.291 45.8316 155.5 50.5482C162.39 55.7199 170.356 61.3864 179.5 63C188.346 64.5619 197.595 59.3608 199.786 50.5482C201.115 45.1903 186.242 62.924 179.5 63C219.266 63.2226 277.098 45.8066 310.152 67.3149C308.026 66.5288 305.485 66.6219 302.348 68.039C295.894 70.9558 286.75 78.3824 285.995 85.747C285.134 94.1045 297.808 95.2836 303.826 95.2836C312.864 95.2836 322.018 91.3531 319.105 81.1958C317.84 76.7895 316.117 72.2074 313.342 69.4353C320.014 73.9379 326.405 78.8217 332.481 84.061C332.385 84.1541 332.29 84.2368 332.194 84.3403C326.07 90.5463 318.956 95.4595 314.767 103.01C311.811 108.327 308.483 110.851 302.497 112.226C299.201 112.981 295.437 113.261 292.672 115.412C284.974 121.308 289.355 135.478 296.649 139.729C305.868 145.098 319.541 142.574 326.495 134.909C331.928 128.91 335.129 118.494 344.9 118.505C349.202 118.496 353.334 120.135 356.404 123.066C360.445 127.142 359.647 130.948 360.509 136.037C362.029 145.077 370.227 140.174 375.214 135.613C378.849 141.906 382.128 148.387 385.038 155.027C379.552 162.713 375.192 171.091 361.997 162.133C354.097 156.765 349.238 148.977 339.318 146.556C330.652 144.487 321.774 146.639 313.215 148.077C303.486 149.721 291.949 150.445 284.57 157.613C277.436 164.523 273.661 173.77 266.07 180.71C251.386 194.157 245.187 208.834 254.693 227.845C263.837 246.122 282.965 256.042 303.603 254.738C323.879 253.425 344.942 241.985 344.358 270.647C344.145 280.794 346.325 287.817 349.525 297.24C352.492 305.928 352.29 314.348 352.97 323.316C353.617 333.817 355.305 344.233 358.01 354.418C338.952 378.289 314.538 397.606 286.633 410.895C258.728 424.184 228.069 431.093 197 431.094Z" fill="#4285F4"/>
</svg>
