<svg width="393" height="852" viewBox="0 0 393 852" fill="none" xmlns="http://www.w3.org/2000/svg">
<g clip-path="url(#clip0_421_1892)">
<rect width="390" height="852" transform="translate(1)" fill="#312A54"/>
<rect x="1" y="796" width="393" height="56" fill="#8AECA2"/>
<g clip-path="url(#clip1_421_1892)">
<path d="M0 32H394V127.369V401.838V415.056V531.717V639.791V674.04V710.214V758.904V819.328C393.6 819.554 393.223 819.754 392.77 819.856C389.282 820.641 372.096 820.005 367.123 820.005L295.351 820.01L5.4332 820C3.75625 819.995 1.44408 820.287 0 819.328V745.838V706.433V541.741V521.593V518.033V397.198V388.651V283.571V131.705V66.444V32Z" fill="#312A54"/>
<path d="M314.428 447.287C313.919 447.532 313.385 447.723 312.823 447.806C311.874 447.947 310.558 448.249 309.791 447.666C310.117 443.072 312.597 437.624 314.036 433.181C317.065 423.762 320.146 414.36 323.28 404.976C326.235 396.088 328.721 386.988 331.961 378.201C332.548 376.608 333.239 374.915 334.363 373.624L334.937 373.63C337.478 375.565 348.167 416.702 349.986 423.386C351.149 427.658 352.347 434.435 354.32 438.103C354.353 438.164 354.389 438.224 354.424 438.284L354.919 438.106C356.068 433.889 358.319 429.22 360.383 425.384C363.561 419.48 368.063 412.451 374.901 410.477C381.12 408.682 388.649 412.046 394 415.056V531.717V639.791V674.04V710.213V758.904V819.328C393.6 819.553 393.223 819.754 392.77 819.856C389.282 820.641 372.096 820.005 367.123 820.005L295.351 820.01L5.4332 820C3.75625 819.995 1.44408 820.287 0 819.328V745.838V706.432V541.741V521.593V518.033C1.96543 518.95 4.77329 518.848 6.8673 518.389C8.72382 518.854 11.1295 518.542 13.0395 518.442C35.7855 517.247 57.0392 505.619 72.0697 488.785C87.5804 471.413 94.9925 449.153 93.6401 426C93.7186 426.019 93.7966 426.041 93.8756 426.058C96.6249 426.632 102.896 424.966 106.5 425.084C116.293 425.406 135.361 433.853 141.061 442.145C143.896 446.268 145.706 453.276 148.207 456.465C150.63 455.924 152.631 453.273 155.066 452.34C156.602 451.752 158.64 452.499 159.93 451.733C161.648 447.303 164.894 434.373 167.416 431.369C168.34 431.604 168.699 432.319 169.163 433.13C172.637 439.198 177.251 457.153 179.533 464.744C180.793 468.938 182.508 473.13 183.403 477.415C183.691 478.789 184.005 480.564 183.554 481.937C183.398 482.409 183.097 482.748 182.733 483.071C181.757 483.469 180.476 483.78 179.432 483.446C179.355 483.421 179.284 483.38 179.209 483.347C180.018 486.395 185.384 498.246 187.545 499.767C190.955 495.201 194.062 485.622 194.998 480.008L194.748 480.232C193.646 481.203 191.834 482.479 190.303 482.386C190.242 482.382 190.182 482.373 190.123 482.366C189.54 481.611 189.647 481.299 189.762 480.39C190.292 476.207 205.94 424.247 207.025 423.141C208.785 424.007 209.612 426.519 210.224 428.307C213.691 438.432 216.51 448.874 219.71 459.097C221.813 465.815 224.629 472.76 226.15 479.599C226.385 480.655 226.556 481.789 226.033 482.794C225.247 484.309 223.076 484.165 222.522 485.681C223.41 489.323 229.674 506.922 231.523 508.712C231.567 508.667 231.613 508.623 231.655 508.576C234.127 505.811 235.426 496.017 236.488 491.971C237.586 487.789 243.591 466.744 245.551 464.829C246.216 464.962 246.205 464.917 246.582 465.487C247.757 467.267 256.387 494.795 256.107 496.078C255.926 496.908 255.361 497.362 254.726 497.868C255.255 501.066 259.23 514.091 261.296 516.193C261.267 512.007 260.232 503.818 263.414 500.655C264.657 499.419 266.268 499.033 267.978 499.053C270.597 499.083 275.869 501.518 277.702 501.008C278.603 493.925 279.525 488.406 283.836 482.473C285.161 480.65 287.055 478.903 288.144 476.97C290.176 475.312 291.969 472.583 293.795 470.634C298.089 466.051 303.448 463.372 308.924 460.472C310.775 459.407 313.609 449.684 314.428 447.287Z" fill="#122B2E"/>
<path d="M164.33 672.096C164.738 672.245 165.194 672.368 165.631 672.332C171.319 671.881 177.191 670.516 182.854 669.67C195.504 667.751 208.188 666.073 220.902 664.642C233.16 663.365 245.36 662.631 257.662 662.01C267.5 661.513 277.403 660.984 287.256 661.364C298.091 661.728 308.919 662.251 319.738 662.934C324.51 663.257 335.236 664.693 339.352 664.201C340.199 665.001 341.027 665.227 342.144 665.458C350.947 667.305 360.108 668.115 368.981 669.695C372.472 670.316 390.247 674.364 392.902 674.23C393.298 674.21 393.623 674.153 394 674.041V710.214V758.904V819.328C393.6 819.554 393.223 819.754 392.77 819.856C389.282 820.641 372.096 820.005 367.123 820.005L295.351 820.01L5.4332 820C3.75625 819.995 1.44408 820.287 0 819.328V745.838L0.750944 745.802C3.24079 741.585 7.00186 737.727 10.5353 734.356C11.3981 733.53 12.3702 733.048 13.1751 732.125C14.775 726.841 15.2574 721.834 15.0797 716.329C14.9247 716.057 14.9779 716.19 14.8931 715.857C14.331 713.62 13.4629 711.932 12.5896 709.855L12.5105 709.665C16.4883 709.224 22.9271 706.571 27.0668 705.319C36.3697 702.431 45.7393 699.763 55.1677 697.316C73.1347 692.586 91.2074 687.8 109.341 683.762C124.027 680.628 138.763 677.724 153.542 675.056C156.271 674.538 162.492 673.989 164.33 672.096Z" fill="#84ECAB"/>
<path d="M356.312 717.165C355.319 710.783 357.234 699.707 359.56 693.653C360.686 690.724 362.433 686.558 365.507 685.281C366.659 684.799 367.914 684.829 369.058 685.322C377.401 688.934 382.527 710.019 385.704 718.042L386.421 717.57L386.221 718.658L386.112 718.653C387.297 718.058 388.665 715.375 389.266 714.143L388.462 713.384L388.084 713.307C390.854 712.963 392.037 712.148 394 710.214V758.904C393 759.351 392.146 759.335 391.082 759.284C385.671 759.028 350.97 755.914 348.952 753.687C348.739 753.564 348.682 753.549 348.494 753.338C347.123 751.799 346.134 748.901 344.888 747.084C338.261 737.434 333.423 732.71 333.638 720.31C333.891 720.284 334.064 720.243 334.264 720.074C339.539 715.672 344.991 715.087 351.574 716.514C353.104 716.847 354.748 717.504 356.312 717.165Z" fill="#4E9768"/>
<path d="M348.951 753.687C348.81 753.759 348.733 753.8 348.578 753.866C344.541 755.524 317.64 747.736 312.529 745.699C310.675 744.96 305.879 743.057 305.141 741.19C304.54 739.671 304.712 737.45 305.396 735.972C308.939 728.287 325.986 723.111 333.637 720.31C333.422 732.71 338.26 737.434 344.887 747.084C346.133 748.9 347.122 751.799 348.493 753.338C348.681 753.548 348.738 753.564 348.951 753.687Z" fill="#63CB8C"/>
<path d="M15.0788 716.329C16.8606 717.755 18.9542 717.904 20.6083 719.14C22.2721 720.377 25.8163 725.019 27.2534 725.476C27.3781 728.092 27.9878 732.602 26.0957 734.741C23.7659 738.05 7.41636 745.756 2.80656 746.443C1.82259 746.587 1.53949 746.31 0.75 745.802C3.23984 741.585 7.00092 737.727 10.5343 734.356C11.3972 733.53 12.3692 733.048 13.1742 732.125C14.7741 726.841 15.2565 721.834 15.0788 716.329Z" fill="#63CB8C"/>
<path d="M0 541.741C2.1431 552.388 1.49534 618.968 2.99647 621.312C6.94666 617.454 10.394 611.514 16.664 611.514C18.5405 611.514 20.1888 612.309 21.4769 613.658C26.6647 619.076 26.3324 629.321 26.1217 636.287C26.189 636.323 26.2548 636.364 26.3237 636.4C27.9067 637.211 30.2535 636.985 32.0086 637.072C37.889 637.36 45.4917 638.555 47.7879 644.855C48.4649 646.712 48.0761 648.738 47.2212 650.467C46.1351 652.663 43.8496 654.766 43.3306 657.131L43.5492 657.496C45.1532 657.219 45.8662 657.331 47.2494 658.286C51.3872 661.143 54.3284 665.648 56.3482 670.167C57.4747 667.238 57.2803 664.262 60.4949 662.816C61.2942 662.457 62.4906 662.169 63.0656 661.502C60.2199 654.238 55.0358 641.951 58.3638 634.184C58.9353 632.85 59.9172 631.783 61.2947 631.275C63.4007 630.5 66.151 630.767 68.1553 631.732C73.3456 634.23 73.3261 640.438 76.5381 643.136C76.614 636.262 77.2455 623.944 82.5261 618.768C83.7332 617.588 85.2246 616.941 86.9247 617.013C89.0614 617.105 90.4461 618.255 91.8071 619.809C95.4003 623.913 97.9244 632.527 98.8468 637.883C99.3485 640.792 99.4881 644.116 100.303 646.927C100.347 646.892 100.391 646.85 100.433 646.815C101.567 645.732 102.195 643.942 103.075 642.623C105.102 639.591 109.859 634.635 113.849 634.8C115.125 634.851 116.161 635.405 116.978 636.364C119.033 638.765 119.155 642.418 118.855 645.404C118.449 649.451 115.461 656.89 116.248 660.312L116.684 660.476C119.774 655.731 127.127 639.981 132.568 638.888C133.444 638.714 134.146 638.95 134.806 639.545C137.41 641.884 137.07 650.206 137.914 653.607C137.971 653.545 138.03 653.484 138.086 653.422C141.878 649.205 144.926 640.899 151.612 640.469C152.479 640.412 153.258 640.545 153.941 641.12C155.307 642.269 155.507 644.537 155.547 646.194C155.647 650.38 154.275 660.133 151.821 663.288C151.889 663.272 151.957 663.257 152.023 663.236C154.973 662.359 162.189 651.421 167.904 654.151C168.618 654.494 169.251 654.936 169.496 655.715C170.667 659.435 163.9 671.393 164.33 672.096C162.492 673.989 156.271 674.538 153.542 675.056C138.763 677.724 124.027 680.628 109.341 683.762C91.2074 687.8 73.1347 692.586 55.1677 697.316C45.7393 699.763 36.3697 702.431 27.0668 705.319C22.9271 706.571 16.4883 709.224 12.5105 709.665L12.5896 709.855C13.4629 711.932 14.331 713.62 14.8931 715.857C14.9779 716.19 14.9247 716.057 15.0797 716.329C15.2574 721.834 14.775 726.841 13.1751 732.125C12.3702 733.048 11.3981 733.53 10.5353 734.356C7.00186 737.727 3.24079 741.585 0.750944 745.802L0 745.838V706.433V541.741Z" fill="#4E9768"/>
<path d="M0 541.741C2.1431 552.388 1.49534 618.968 2.99647 621.312L2.70093 673.856C2.70452 685.532 2.1811 697.865 3.955 709.413C3.29974 710.09 2.66312 710.701 1.90296 711.265C0.765863 710.414 1.17642 707.792 0 706.433V541.741Z" fill="#5C3530"/>
<path d="M354.424 438.284L354.919 438.106C356.068 433.889 358.32 429.22 360.384 425.384C363.562 419.48 368.064 412.451 374.902 410.477C381.121 408.682 388.649 412.046 394.001 415.056V531.717C393.707 531.678 393.442 531.586 393.184 531.435C389.2 529.109 374.639 512.206 371.463 507.469C369.298 504.241 367.818 500.581 365.603 497.385C361.138 490.941 356.694 487.003 354.157 479.237C355.86 481.854 361.264 485.658 364.144 486.704C365.339 486.523 366.59 485.08 367.332 484.176C366.242 482.918 365.399 480.813 364.533 479.338C359.365 470.532 352.004 458.792 350.479 448.691C351.628 449.862 354.728 451.932 356.395 452.09C356.586 451.85 356.773 451.612 356.943 451.357C358.671 448.757 355.032 441.729 354.487 438.655L354.424 438.284Z" fill="#285B5D"/>
<path d="M362.245 632.752C361.717 627.797 360.797 621.153 361.952 616.315C362.209 615.238 362.692 614.273 363.697 613.714C364.939 613.022 366.586 613.273 367.905 613.591C375.446 615.418 383.073 624.416 387.19 630.618C388.904 633.199 390.193 636.092 391.948 638.632C392.541 639.488 393.045 639.632 394 639.791V674.04C393.623 674.153 393.297 674.21 392.902 674.23C390.247 674.364 372.472 670.316 368.981 669.695C360.108 668.115 350.946 667.304 342.144 665.458C341.027 665.227 340.199 665.001 339.352 664.201L339.495 663.877C337.996 662.046 336.608 660.117 335.339 658.116C333.247 654.812 327.172 644.49 328.203 640.571C328.347 640.027 328.511 639.945 329.017 639.694C332.43 638.006 338.549 640.561 341.398 642.587C343.075 643.777 344.8 646.163 346.764 646.712C346.829 646.732 346.897 646.743 346.963 646.758C346.424 646.06 346.037 645.239 345.681 644.434C343.603 639.74 339.676 629.926 341.808 624.852C342.175 623.98 342.908 623.144 343.817 622.82C348.001 621.333 354.771 626.119 357.76 628.874C359.02 630.033 360.459 632.096 362.064 632.691C362.123 632.711 362.185 632.732 362.245 632.752Z" fill="#4E9768"/>
<path d="M288.145 476.97C290.177 475.312 291.97 472.583 293.795 470.634C298.089 466.051 303.449 463.373 308.925 460.472C308.916 460.568 308.908 460.665 308.897 460.762C308.231 466.6 298.953 475.615 300.644 480.96C301.454 481.711 302.018 481.874 303.137 481.842C304.967 481.789 307.801 481.132 309.262 480.009C308.241 485.069 304.966 490.515 301.743 494.501C298.812 491.654 297.346 484.445 294.065 480.75C292.269 478.727 289.883 478.554 288.145 476.97Z" fill="#285B5D"/>
<path d="M0 518.033C1.96543 518.95 4.77329 518.848 6.8673 518.389C6.04934 520.044 3.81985 521.237 2.13024 521.791C1.23943 522.083 0.824748 522.012 0 521.593V518.033Z" fill="#5C3530"/>
<path d="M0 283.571C18.3483 281.234 33.7567 284.122 48.542 295.575C63.3447 307.041 76.4806 324.642 78.8123 343.604C80.2852 355.581 78.4373 366.75 74.5917 378.082C86.9016 394.338 91.095 405.928 93.6401 426C94.9925 449.153 87.5804 471.413 72.0697 488.785C57.0392 505.619 35.7855 517.247 13.0395 518.442C11.1295 518.542 8.72382 518.854 6.8673 518.389C4.77329 518.849 1.96543 518.95 0 518.033V397.198V388.651V283.571Z" fill="#4E9768"/>
<path d="M327.776 151.347C327.984 150.989 328.354 150.612 328.636 150.306C331.922 146.745 336.249 143.726 340.314 141.117C357.611 130.012 374.117 128.32 393.999 127.369V401.838C377.045 394.156 364.668 386.404 354.026 370.585C339 348.25 335.081 319.857 340.426 293.701C341.771 287.116 344.692 280.917 345.972 274.392C345.617 273.611 345.108 273.131 344.438 272.629C342.42 271.116 339.924 270.014 337.755 268.702C334.992 267.031 332.355 264.929 329.881 262.855C326.083 259.724 322.72 256.102 319.88 252.083C320.008 249.672 312.36 238.961 311.029 235.416C309.192 230.523 308.369 225.562 307.596 220.417C306.983 216.336 306.249 212.204 306.075 208.078C305.574 196.189 308.121 181.346 314.256 171.06C317.09 166.307 320.26 161.825 323.488 157.335C324.766 155.557 326.853 153.499 327.698 151.542C327.726 151.478 327.751 151.412 327.776 151.347Z" fill="#4E9768"/>
<path d="M254.991 243.451C270.302 241.633 284.159 252.646 285.846 267.972C287.531 283.298 276.4 297.06 261.06 298.614C245.905 300.149 232.346 289.182 230.68 274.041C229.015 258.9 239.866 245.247 254.991 243.451Z" fill="#FEF7A0"/>
<path d="M133.692 140.241C135.963 141.393 137.209 146.587 138.093 148.982C140.285 148.932 143.731 148.439 145.56 149.825L145.623 150.696C144.486 152.603 142.442 153.839 140.763 155.273C141.5 156.987 142.979 159.603 142.822 161.481C142.742 162.433 142.593 162.576 141.9 163.132C139.129 163.346 136.691 161.251 134.473 159.826C131.686 160.82 129.867 162.806 126.739 163.335C126.461 163.203 125.984 163.076 125.854 162.797C124.912 160.772 126.626 157.11 127.292 155.133C126.146 154.14 124.87 153.289 123.719 152.295C122.846 151.543 122.412 150.921 122.336 149.791C122.376 149.754 122.414 149.715 122.456 149.68C124 148.377 127.974 149.207 129.867 149.378C131.072 146.304 132.348 143.257 133.692 140.241Z" fill="#FEF7A0"/>
<path d="M119.768 252.068C120.182 250.617 120.378 248.705 121.422 247.58C121.662 247.321 121.956 247.431 122.291 247.43C123.524 248.474 123.921 250.158 124.433 251.638L125.879 251.687C127.1 251.709 128.35 251.588 129.377 252.349C129.436 253.086 129.437 253.114 128.966 253.685C128.322 254.465 127.361 255.007 126.521 255.552C126.768 256.403 127.247 257.589 127.167 258.47C127.099 259.223 127.028 259.253 126.438 259.714C124.867 259.673 123.293 258.576 121.934 257.845C120.805 258.686 119.673 259.676 118.289 260.032C116.087 258.792 118.336 257.231 117.449 255.633C116.792 254.452 115.539 253.675 114.904 252.37L115.451 251.897C116.941 251.68 118.286 251.861 119.768 252.068Z" fill="#FEF7A0"/>
<path d="M119.768 252.068C120.182 250.617 120.377 248.705 121.421 247.58C121.662 247.321 121.955 247.431 122.291 247.43C123.523 248.474 123.92 250.158 124.432 251.638C122.862 251.7 121.325 251.988 119.768 252.068Z" fill="#FEF7A0"/>
<path d="M125.879 251.687C127.1 251.709 128.35 251.588 129.377 252.349C129.436 253.086 129.436 253.115 128.965 253.686C128.322 254.465 127.361 255.007 126.521 255.552C126.035 254.261 125.958 253.053 125.879 251.687Z" fill="#FEF7A0"/>
<path d="M175.684 396.536L176.908 396.926C178.081 397.873 178.189 399.161 178.829 400.437C179.896 402.565 181.067 401.091 182.907 401.781C182.866 402.476 181.046 404.059 180.488 404.647C180.633 406.412 180.789 408.176 180.957 409.938L177.484 406.722C176.728 406.723 175.971 406.774 175.215 406.809C174.029 407.35 173.672 408.592 173.177 409.712C173.189 406.281 173.265 404.307 170.757 401.634L170.496 401.36C171.7 400.959 173.169 400.967 174.435 400.859C174.748 399.358 175.036 397.933 175.684 396.536Z" fill="#6F87F5"/>
<path d="M253.519 153.922C254.909 153.886 256.34 153.887 257.699 154.22C258.86 154.506 260.149 155.643 260.712 156.69C261.139 157.482 261.214 158.809 260.93 159.663C260.516 160.91 260.37 161.271 259.217 161.867C256.732 162.069 254.319 161.244 251.984 160.504C252.265 158.553 252.298 155.493 253.519 153.922Z" fill="#FEF7A0"/>
<path d="M255.748 431.172C258.199 432.694 256.671 436.593 259.432 438.442C259.684 439.634 257.873 442.334 257.22 443.433C256.241 443.882 255.831 443.55 254.844 443.224C253.518 442.724 252.272 443.159 250.861 442.331C251.838 440.576 251.798 438.138 253.072 436.533C253.378 436.148 254.327 435.747 254.755 435.389C255.703 434.596 255.648 432.366 255.748 431.172Z" fill="#6F87F5"/>
<path d="M159.135 224.049C160.27 224.145 160.844 224.199 161.749 224.966C162.322 225.451 162.657 226.282 162.689 227.024C162.736 228.111 162.145 229.338 161.421 230.128C160.242 231.414 158.613 231.278 157 231.322L156.015 231.586C154.685 230.579 154.46 228.042 154.08 226.447C155.693 225.369 157.237 224.498 159.135 224.049Z" fill="#FEF7A0"/>
<path d="M13.2847 273.841C13.8398 273.637 14.4218 273.716 15.0076 273.727C15.591 274.059 16.007 274.189 16.3385 274.794C16.9701 275.946 16.9026 277.498 16.5512 278.735C16.1757 280.055 15.492 281.25 14.3025 281.894C13.5033 281.846 12.6503 281.817 11.8678 281.644C10.6958 281.386 9.89118 279.735 9.2832 278.783C9.70162 277.458 10.0384 275.236 11.367 274.553C11.9736 274.24 12.5071 274.352 13.2847 273.841Z" fill="#6F87F5"/>
<path d="M337.056 70.6299C337.435 70.6935 337.838 70.7615 338.193 70.918C338.906 71.2336 339.327 71.9416 339.555 72.656C339.871 73.6419 339.656 75.0897 339.041 75.9557C338.277 77.0305 337.191 77.036 335.994 77.323L334.373 77.2254C333.564 76.584 333.269 76.3249 333.002 75.3022C332.711 74.1819 333.236 72.6322 333.902 71.708C334.696 70.6049 335.81 70.7838 337.056 70.6299Z" fill="#FEF7A0"/>
<path d="M86.7988 73.9224C87.8295 74.0581 89.1515 74.2184 90.076 74.7181C91.0123 75.2241 91.1339 75.774 91.4078 76.7183C91.1857 78.1058 90.4705 79.014 89.6676 80.1265C88.4851 80.133 86.806 80.2767 85.8123 79.5439C85.4285 79.261 84.8955 78.5867 84.8524 78.0982C84.7011 76.3791 85.7579 75.1534 86.7988 73.9224Z" fill="#FBD2CD"/>
<path d="M68.4718 258.039C70.0319 257.814 71.6853 257.62 73.0448 258.588L73.1398 259.287C72.7073 260.312 72.3374 261.325 71.5622 262.146C71.516 262.194 71.4673 262.241 71.4196 262.288L71.8475 263.169C70.8291 263.987 70.3935 264.306 69.0848 264.277C68.561 263.822 68.2702 263.629 68.0434 262.945C67.6402 261.727 67.9244 259.182 68.4718 258.039Z" fill="#6F87F5"/>
<path d="M321.506 305.324C322.66 305.423 323.144 305.406 324.119 306.088C324.527 307.022 324.764 307.426 324.412 308.453C324.062 309.476 323.169 309.845 322.262 310.242C321.171 310.042 319.748 309.947 319.159 308.889C318.659 307.991 318.769 307.51 319.041 306.607C319.97 305.728 320.311 305.614 321.506 305.324Z" fill="#FEF7A0"/>
<path d="M264.588 89.959C265.217 90.0534 265.836 90.2063 266.458 90.3443C267.053 90.9286 267.458 91.1682 267.586 92.0259C267.769 93.2526 266.92 94.2468 266.205 95.1349C265.437 95.1025 264.722 95.0051 263.968 94.8553C263.339 94.2006 262.873 93.8626 262.935 92.8683C263.01 91.673 263.816 90.7849 264.588 89.959Z" fill="#FBD2CD"/>
</g>
</g>
<path d="M161.421 645.25C156.464 648.019 150.767 652.266 146.617 657.222C134.181 672.069 129.006 695.025 129.006 713.988C129.006 720.647 131.045 735.871 138.741 738.934C141.879 740.182 145.398 740.576 146.062 736.601C146.508 733.941 143.494 729.556 142.652 727.044C142.158 725.567 141.274 723.105 141.274 723.105C141.274 723.105 141.394 723.823 141.455 724.183C141.788 726.171 143.198 728.368 144.069 730.187C146.197 734.633 148.192 736.58 153.026 734.977C157.651 733.443 151.804 717.964 151.217 714.469C149.782 705.893 149.697 697.04 151.961 688.476C155.108 676.572 154.024 682.39 154.653 679.571C154.947 678.255 156.1 675.793 156.1 675.793C156.1 675.793 155.579 676.858 155.376 677.413C154.685 679.303 154.168 680.908 153.598 682.836C150.903 691.967 150.418 694.165 150.418 699.938C150.418 715.609 155.363 729.031 157.086 744.455C157.41 747.358 158.772 767.418 157.365 769.515C156.222 771.223 152.355 772.881 150.676 774.553C147.109 778.102 146.326 784.73 148.867 788.944C150.076 790.947 154.492 792.095 156.643 792.362C161.624 792.981 178.47 792.707 182.797 790.155C186.742 787.827 188.708 786.113 189.161 782.278C190.148 773.924 190.454 759.234 190.454 750.808C190.454 748.943 190.253 744.116 189.552 743.1C188.774 741.975 190.938 744.9 190.047 743.129C190.011 743.06 198.272 744.542 189.215 742.237C187.656 741.842 185.663 740.017 185.734 740.194C186.03 740.932 189.07 743.043 190.079 743.141C203.886 744.471 190.391 743.203 192.709 743.492C196.312 743.94 199.456 743.809 202.748 742.352C204.001 741.798 205.918 741.178 206.907 740.194C207.088 740.014 203.032 742.941 203.032 742.941C203.032 742.941 206.939 739.982 206.726 740.194C205.58 741.334 203.526 741.76 202.569 742.712C201.73 743.546 202.569 749.097 202.569 750.448C202.569 759.979 202.224 776.096 205.47 784.791C209.423 795.378 231.981 795.318 241.011 791.052C242.535 790.333 245.132 788.576 245.974 787.131C253.584 774.059 238.33 773.046 237.496 771.26C236.213 768.514 236.199 761.476 236.199 758.543C236.199 749.927 235.376 739.925 238.369 731.739C242.734 719.794 244.941 707.118 242.819 694.449C242.1 690.163 241.167 685.667 239.796 681.576C239.353 680.256 238.597 678.414 238.369 677.053C238.358 676.992 237.931 675.15 237.826 675.253C237.033 676.042 240.255 682.501 240.514 683.657C242.095 690.73 242.847 692.959 243.51 700.207C244.087 706.526 241.836 717.591 240.176 723.643C239.243 727.051 237.716 731.083 241.25 733.721C245.554 736.932 248.412 729.356 249.216 726.557C249.666 724.987 250.342 723.27 250.342 723.27C250.342 723.27 250.652 722.696 250.483 723.285C249.952 725.132 249.135 726.844 248.674 728.681C247.651 732.752 246.701 739.437 254.093 738.027C263.84 736.168 265.51 726.829 265.913 718.045C267.294 687.955 253.411 661.204 231.497 644.851C230.194 643.879 218.61 648.915 216.678 648.915C207.66 648.915 207.45 651.316 201.512 651.853C198.425 652.132 192.191 653.308 190.338 653.373C184.564 653.577 188.424 653.429 177.089 650.431C174.854 649.841 163.479 644.1 161.421 645.25Z" fill="#CEEC97" stroke="#A4C95F" stroke-width="4" stroke-miterlimit="10" stroke-linecap="round" stroke-linejoin="round"/>
<path d="M255.182 575.426C258.874 574.749 261.125 576.058 264.488 577.495C279.011 583.705 278.279 603.146 272.711 615.269C269.489 622.285 261.29 627.725 253.584 625.508" fill="#BBBBBB"/>
<path d="M255.182 575.426C258.874 574.749 261.125 576.058 264.488 577.495C279.011 583.705 278.279 603.146 272.711 615.269C269.489 622.285 261.29 627.725 253.584 625.508" stroke="#858585" stroke-width="4" stroke-miterlimit="10" stroke-linecap="round" stroke-linejoin="round"/>
<path d="M138.821 574.464C135.13 573.788 132.879 575.097 129.516 576.534C114.991 582.744 115.723 602.185 121.291 614.308C124.513 621.325 132.714 626.765 140.418 624.548" fill="#BBBBBB"/>
<path d="M138.821 574.464C135.13 573.788 132.879 575.097 129.516 576.534C114.991 582.744 115.723 602.185 121.291 614.308C124.513 621.325 132.714 626.765 140.418 624.548" stroke="#858585" stroke-width="4" stroke-miterlimit="10" stroke-linecap="round" stroke-linejoin="round"/>
<path d="M263.076 577.718C263.267 577.339 265.135 581.733 265.374 582.396C266.625 585.886 267.41 589.595 267.78 593.277C268.657 602.022 266.503 618.483 259.904 625.049" fill="#BBBBBB"/>
<path d="M263.076 577.718C263.267 577.339 265.135 581.733 265.374 582.396C266.625 585.886 267.41 589.595 267.78 593.277C268.657 602.022 266.503 618.483 259.904 625.049" stroke="#858585" stroke-width="4" stroke-miterlimit="10" stroke-linecap="round" stroke-linejoin="round"/>
<path d="M129.869 576.972C129.678 576.593 127.81 580.987 127.571 581.65C126.319 585.139 125.536 588.849 125.166 592.531C124.286 601.276 126.44 617.737 133.039 624.303" fill="#BBBBBB"/>
<path d="M129.869 576.972C129.678 576.593 127.81 580.987 127.571 581.65C126.319 585.139 125.536 588.849 125.166 592.531C124.286 601.276 126.44 617.737 133.039 624.303" stroke="#858585" stroke-width="4" stroke-miterlimit="10" stroke-linecap="round" stroke-linejoin="round"/>
<path d="M203.57 540.05C234.539 543.172 258.664 567.994 258.664 598.153C258.664 630.425 231.185 654.14 197.109 654.14C163.032 654.14 135.262 630.425 135.262 598.153C135.262 567.437 160.288 542.256 192.083 539.899" fill="#CEEC97"/>
<path d="M203.57 540.05C234.539 543.172 258.664 567.994 258.664 598.153C258.664 630.425 231.185 654.14 197.109 654.14C163.032 654.14 135.262 630.425 135.262 598.153C135.262 567.437 160.288 542.256 192.083 539.899" stroke="#A4C95F" stroke-width="4" stroke-miterlimit="10" stroke-linejoin="round"/>
<path d="M191.184 539.901C194.416 539.901 191.643 532.793 193.028 530.038C194.188 527.729 198.32 526.604 199.945 529.029C202.101 532.246 200.872 536.449 202.204 539.764C202.3 540.002 202.892 539.801 203.034 540.085" fill="#CEEC97"/>
<path d="M191.184 539.901C194.416 539.901 191.643 532.793 193.028 530.038C194.188 527.729 198.32 526.604 199.945 529.029C202.101 532.246 200.872 536.449 202.204 539.764C202.3 540.002 202.892 539.801 203.034 540.085" stroke="#A4C95F" stroke-width="4" stroke-miterlimit="10" stroke-linecap="round" stroke-linejoin="round"/>
<path d="M187.604 519.755C187.604 514.544 191.749 510.319 196.864 510.319C201.978 510.319 206.124 514.544 206.124 519.755C206.124 524.967 201.978 529.192 196.864 529.192C191.749 529.192 187.604 524.967 187.604 519.755Z" fill="#CEEC97" stroke="#A4C95F" stroke-width="4" stroke-miterlimit="10" stroke-linejoin="round"/>
<path d="M217.806 593.038C223.714 585.658 232.792 583.071 238.08 587.262C243.369 591.453 242.867 600.833 236.959 608.214C231.052 615.595 221.974 618.181 216.686 613.99C211.397 609.799 211.899 600.419 217.806 593.038Z" fill="black" stroke="black" stroke-width="4" stroke-miterlimit="10" stroke-linejoin="round"/>
<path d="M176.694 593.289C170.787 585.908 161.709 583.322 156.42 587.513C151.132 591.704 151.632 601.084 157.541 608.465C163.449 615.846 172.527 618.432 177.815 614.241C183.104 610.05 182.602 600.67 176.694 593.289Z" fill="black" stroke="black" stroke-width="4" stroke-miterlimit="10" stroke-linejoin="round"/>
<path d="M183.809 631.928C183.809 631.928 193.473 642.663 208.816 634.604" stroke="#A4C95F" stroke-width="4" stroke-miterlimit="10" stroke-linecap="round" stroke-linejoin="round"/>
<path d="M156.259 597.578C155.109 594.782 155.877 591.823 157.975 590.969C160.073 590.114 162.706 591.688 163.857 594.484C165.007 597.28 164.239 600.239 162.141 601.094C160.043 601.949 157.41 600.375 156.259 597.578Z" fill="#E0E0E0"/>
<path d="M221.873 593.32C223.508 590.773 226.381 589.694 228.291 590.908C230.202 592.122 230.425 595.17 228.792 597.716C227.157 600.262 224.283 601.342 222.372 600.128C220.461 598.914 220.238 595.866 221.873 593.32Z" fill="#E0E0E0"/>
<path d="M193.698 617.076C191.886 617.076 190.562 618.847 190.562 620.757C190.562 621.27 190.648 621.761 190.799 622.228C190.872 622.456 190.961 622.679 191.063 622.896C192.489 625.912 196.464 627.752 196.464 627.752C196.464 627.752 200.439 625.913 201.865 622.896C201.968 622.68 202.056 622.457 202.13 622.228C202.281 621.761 202.366 621.27 202.366 620.757C202.366 618.848 201.043 617.076 199.231 617.076C197.995 617.076 197.073 617.705 196.494 618.797C196.492 618.802 196.487 618.807 196.482 618.81C196.477 618.813 196.47 618.814 196.464 618.814C196.458 618.814 196.452 618.813 196.446 618.81C196.441 618.807 196.437 618.802 196.434 618.797C195.856 617.706 194.934 617.076 193.698 617.076Z" fill="#A4C95F"/>
<defs>
<clipPath id="clip0_421_1892">
<rect width="390" height="852" fill="white" transform="translate(1)"/>
</clipPath>
<clipPath id="clip1_421_1892">
<rect width="394" height="788" fill="white" transform="translate(0 32)"/>
</clipPath>
</defs>
</svg>
