<svg width="393" height="852" viewBox="0 0 393 852" fill="none" xmlns="http://www.w3.org/2000/svg">
<g clip-path="url(#clip0_401_145)">
<rect width="393" height="852" fill="#FDFFF3"/>
<rect width="393" height="852" fill="#312A54"/>
<g clip-path="url(#clip1_401_145)">
<path d="M135 394H393V793.527V852H316.312H284.466H258.633H254.081H249.795H238.543H204.203H135V829.025V822.398V800.898V785.374V778.039V727.674V717.578V712.979V394Z" fill="#312A54"/>
<path d="M162.383 737.823C160.88 735.786 157.156 725.918 155.75 722.621C152.805 715.709 149.673 709.071 146.875 701.955C144.593 696.149 142.75 689.446 143.493 682.191C143.999 677.247 145.79 673.547 148.07 670.745C156.701 660.139 170.176 661.033 180.188 662.872C183.706 663.518 187.202 664.53 190.72 665.199C194.555 665.928 198.413 666.283 202.247 667.013C205.084 667.555 207.91 668.402 210.718 669.299C220.468 671.704 230.179 674.593 239.838 677.961C243.87 679.416 247.889 680.987 251.893 682.674C253.63 683.408 258.017 685.782 259.508 685.738C272.957 665.806 299.268 665.311 315.715 667.957C329.472 670.256 342.983 675.957 355.852 684.894C358.901 687.021 361.869 689.516 364.859 691.887C372.662 698.079 380.598 704.642 386.189 716.579C387.13 718.587 387.912 720.814 388.688 723.028C389.449 725.198 390.224 727.393 390.757 729.78C392.274 736.588 391.95 744.9 391.557 752.063C391.052 761.281 388.17 768.966 385.109 776.129C384.271 778.094 383.448 780.286 382.427 781.964C382.412 781.988 382.395 782.001 382.379 782.019C382.189 782.617 382.039 782.847 382.1 783.536L382.349 784.065C382.967 783.174 383.552 782.241 384.135 781.28C387.208 784.895 390.167 789.327 393 793.528V852H316.312H284.466H258.633H254.081H249.795H238.543H204.203H135V829.025V822.398V800.898V785.374V778.039V727.675V717.578V712.979C140.628 720.659 146.338 726.865 152.492 733.12C154.51 735.173 156.587 737.062 158.653 738.959C159.796 740.008 161.566 741.212 162.503 742.721C162.731 743.087 162.883 743.787 163.012 744.279C162.813 742.148 162.752 739.884 162.383 737.823Z" fill="#2987F9"/>
<path d="M162.383 737.823C160.88 735.786 157.156 725.918 155.75 722.621C152.805 715.709 149.673 709.071 146.875 701.955C144.593 696.149 142.75 689.446 143.493 682.191C143.999 677.247 145.79 673.547 148.07 670.745C156.701 660.139 170.176 661.033 180.188 662.872C183.706 663.518 187.202 664.53 190.72 665.199C194.555 665.928 198.413 666.283 202.247 667.013C205.084 667.555 207.91 668.402 210.718 669.299C205.496 669.085 200.278 666.888 195.055 666.74C188.855 666.564 174 673.545 169.469 681.321C167.329 684.993 166.308 688.841 166.269 694.145C166.191 704.964 169.617 714.217 173.758 721.7C179.882 732.77 188.28 742.641 195.504 751.37C215.754 775.838 237.105 795.739 259.431 813.503C265.217 818.163 271.047 822.651 276.917 826.969C281.626 830.345 286.396 833.381 291.147 836.553C295.152 839.305 299.172 841.986 303.205 844.596C307.53 847.34 311.98 849.345 316.312 852H284.466H258.633H254.081H249.795H238.543H204.203H135V829.025V822.398V800.898V785.374V778.039V727.675V717.578V712.979C140.628 720.659 146.338 726.865 152.492 733.12C154.51 735.173 156.587 737.062 158.653 738.959C159.796 740.008 161.566 741.212 162.503 742.721C162.731 743.087 162.883 743.787 163.012 744.279C162.813 742.148 162.752 739.884 162.383 737.823Z" fill="#CDEB97"/>
<path d="M135 712.979C140.628 720.659 146.338 726.865 152.492 733.12C154.51 735.173 156.587 737.062 158.653 738.959C159.796 740.008 161.566 741.212 162.503 742.72C162.731 743.087 162.883 743.787 163.012 744.279C163.269 746.522 163.542 748.76 163.712 751.029C164.125 753.618 164.517 756.216 164.888 758.824C166.162 766.164 167.408 773.155 169.172 780.198C170.99 787.062 172.9 793.914 175.124 800.396C177.643 807.749 180.62 814.538 183.586 821.331L183.738 821.599C184.417 822.805 185.004 824.236 185.641 825.518C186.667 827.548 187.731 829.515 188.833 831.415C190.614 834.48 192.657 837.046 194.431 840.068C196.273 842.496 198.132 844.881 200.008 847.221C201.414 848.794 202.812 850.387 204.203 852H135V829.025V822.398V800.898V785.374V778.039V727.674V717.578V712.979Z" fill="#312A54"/>
<path d="M162.383 737.823C174.073 760.678 189.241 776.766 204.494 791C209.403 795.631 214.357 800.112 219.353 804.442C231.996 815.533 244.9 825.659 258.03 834.793C264.339 839.187 270.737 843.236 277.099 847.376C279.509 848.943 282.142 850.131 284.466 852H258.633H254.081H249.795H238.543H204.203C202.812 850.387 201.414 848.794 200.008 847.221C198.132 844.881 196.273 842.497 194.431 840.068C192.657 837.046 190.614 834.48 188.832 831.415C187.731 829.515 186.666 827.548 185.641 825.518C185.004 824.236 184.417 822.805 183.738 821.599L183.586 821.331C180.62 814.538 177.643 807.749 175.124 800.396C172.9 793.914 170.99 787.062 169.172 780.198C167.408 773.155 166.162 766.164 164.888 758.824C164.517 756.216 164.125 753.618 163.712 751.029C163.542 748.76 163.269 746.522 163.012 744.279C162.813 742.148 162.752 739.884 162.383 737.823Z" fill="#2987F9"/>
<path d="M238.543 852C240.521 849.45 243.552 843.873 245.676 842.474C246.234 842.105 246.818 842.135 247.399 842.287C248.623 842.605 253.769 845.658 254.43 847.17C254.628 847.624 254.625 847.841 254.651 848.393C254.467 849.159 254.208 849.654 253.768 849.964C251.972 851.23 249.015 848.477 247.316 847.265L246.046 849.208C247.273 850.025 248.653 850.849 249.794 852H238.543Z" fill="#FE5A5E"/>
<path d="M254.08 852C254.652 850.738 255.225 850.079 256.153 849.936C256.854 849.828 257.677 850.215 258.207 851.058C258.379 851.331 258.504 851.665 258.633 852H254.08Z" fill="#FE5A5E"/>
<path d="M220.554 824.768C221.579 824.627 222.608 824.791 223.424 826.02C223.519 826.41 223.594 826.512 223.532 826.946C223.37 828.093 222.293 828.845 221.752 829.43C220.505 830.778 218.379 833.506 218.021 836.102C218.063 836.377 218.058 836.57 218.193 836.757C218.68 837.435 219.72 837.296 220.322 837.208C222.322 836.913 224.406 834.488 225.685 831.856C226.291 830.61 227.019 830.059 227.951 829.989C228.611 829.939 229.336 830.222 229.827 831.055C230.117 831.551 230.271 832.248 230.247 832.961C230.205 834.226 229.625 835.08 229.145 835.893C227.948 837.763 226.576 839.183 225.097 840.238C222.074 842.394 218.425 843.044 215.382 840.598C214.623 839.987 213.811 839.137 213.528 837.652C213.308 836.496 213.485 835.278 213.78 834.218C215.026 829.754 217.966 826.306 220.554 824.768Z" fill="#FE5A5E"/>
<path d="M234.464 834.157L234.572 834.13C235.138 833.994 235.734 833.951 236.293 834.19C236.855 834.431 243.207 838.491 243.615 839.095C243.921 839.549 243.972 839.952 244.007 840.632C243.846 841.307 243.648 841.658 243.278 841.959C241.158 843.681 237.479 840.352 235.417 839.028L234.127 840.891C235.917 842.207 239.386 843.513 240.715 845.342C240.75 845.77 240.777 846.219 240.68 846.628C240.541 847.209 240.3 847.642 239.968 847.879C237.703 849.493 233.767 846.066 231.69 844.653C231.3 845.415 230.909 846.226 230.446 846.852C229.707 847.852 228.656 847.917 227.77 847.641C227.187 847.458 226.766 847.173 226.423 846.287C226.364 845.852 226.343 845.602 226.413 845.157C226.759 842.966 230.89 837.565 232.019 836.342C232.792 835.505 233.652 834.871 234.464 834.157Z" fill="#FE5A5E"/>
<path d="M259.507 685.738C272.956 665.806 299.267 665.311 315.714 667.957C329.471 670.256 342.982 675.958 355.851 684.895C358.9 687.021 361.868 689.516 364.858 691.887C372.661 698.079 380.597 704.642 386.188 716.579C387.13 718.587 387.911 720.814 388.687 723.028C389.448 725.199 390.223 727.393 390.756 729.78C392.273 736.588 391.949 744.9 391.556 752.063C391.051 761.282 388.169 768.966 385.109 776.13C384.27 778.094 383.447 780.286 382.426 781.964C382.411 781.988 382.394 782.001 382.378 782.019C380.842 783.846 380.322 787.668 378.145 788.227C377.353 788.431 376.23 788.083 375.594 787.176C375.333 786.805 375.182 786.363 375.174 785.759C375.16 784.718 376.111 783.59 376.494 782.884L376.546 782.445C376.399 782.648 376.254 782.849 376.114 783.063C375.373 784.196 374.611 784.533 373.657 784.694C367.516 786.928 361.141 788.183 354.903 789.296C348.793 790.386 342.646 791.399 336.498 791.288C334.118 791.244 331.738 791.016 329.369 790.608C327.942 790.369 326.5 789.941 325.067 789.892C324.078 789.975 322.72 789.246 321.712 789.011C322.044 782.848 321.265 777.362 319.747 771.841C307.759 770.286 294.424 763.178 286.17 746.926C279.718 746.135 273.713 747.186 267.477 750.207C266.61 748.828 265.431 747.958 264.773 746.261C263.917 744.467 262.707 742.903 261.739 741.26C257.256 733.638 253.563 726.827 251.997 715.767C251.605 712.998 250.93 707.251 251.81 704.653C252.654 703.902 254.124 704.54 255.097 704.241C255.136 704.228 255.177 704.214 255.216 704.201C253.099 704.148 250.945 704.447 248.843 703.929C248.992 706.813 249.081 709.78 249.339 712.637C249.479 714.191 249.955 716.312 249.943 717.816C249.94 718.173 249.784 718.589 249.657 718.84C249.317 719.518 248.593 719.786 248.118 720.002C247.196 720.041 246.203 719.847 245.512 718.658C244.108 716.244 244.053 705.973 244.113 702.585C244.131 701.564 244.184 700.703 244.653 700.018C246.279 697.646 249.339 699.543 251.26 699.733L251.44 699.749C252.103 698.847 252.799 697.98 253.402 696.953C254.161 695.659 254.807 694.13 255.498 692.723C256.724 690.202 258.064 687.866 259.507 685.738Z" fill="#312A54"/>
<path d="M338.281 705.299C338.962 704.263 340.434 702.604 340.886 701.372C340.776 699.315 340.351 697.958 341.217 696.168C342.539 693.436 345.035 692.33 346.98 692.173C349.12 692.002 351.778 692.809 353.404 695.474C354.026 696.493 354.493 697.842 354.485 699.385C354.477 700.661 354.149 701.808 353.637 702.682C351.994 705.492 349.19 706.063 347.022 706.026C346.373 707.595 345.542 708.82 344.739 710.132C349.968 715.092 355.597 722.196 357.379 732.805C358.06 736.752 358.063 740.969 357.388 744.92C357.178 745.969 356.977 747.013 356.709 748.021C353.712 758.365 347.51 764.413 341.483 767.854C340.868 768.209 340.25 768.546 339.629 768.868C338.712 769.261 337.78 769.734 336.85 770.008C332.287 771.974 327.35 772.377 322.672 772.147C323.929 777.061 324.711 782.099 324.53 787.541C324.475 788.357 324.393 788.7 324.604 789.447L325.068 789.892C324.079 789.974 322.721 789.246 321.713 789.011C322.045 782.848 321.266 777.361 319.748 771.84C307.759 770.286 294.424 763.178 286.171 746.926C279.718 746.135 273.714 747.186 267.478 750.207C266.61 748.828 265.432 747.958 264.773 746.26C265.226 746.654 265.642 747.334 266.041 747.879C272.453 744.532 278.341 743.782 284.986 744.009C283.463 739.47 282.634 734.883 283.008 729.573C283.117 728.642 283.232 727.714 283.358 726.788C283.519 725.864 283.71 724.923 283.941 724.044C286.631 713.814 293.047 708.215 298.703 704.488C299.557 704.004 300.416 703.551 301.28 703.127C312.895 696.917 326.849 698.723 338.281 705.299Z" fill="#A3C85F"/>
<path d="M314.255 702.291C319.839 701.551 325.965 702.613 331.397 704.924C333.528 705.83 335.686 707.437 337.829 708.041C339.857 708.613 341.083 705.844 342.547 703.917C343.147 704.46 343.783 704.871 344.408 705.311C343.464 707.136 342.407 708.509 341.625 710.61C342.597 712.239 344.034 713.295 345.192 714.478C346.38 715.702 347.517 717.077 348.593 718.592C351.772 723.084 354.654 729.498 355.103 736.897C355.445 742.499 354.357 747.625 352.39 751.963C347.385 763.013 338.442 767.37 330.796 768.896C330.434 769.016 330.04 769.042 329.672 769.097C317.25 770.97 301.232 765.635 291.519 750.949C288.567 746.486 285.963 740.491 285.68 733.392C285.469 728.117 286.701 723.165 288.632 719.248C294.578 707.197 305.602 703.256 314.255 702.291Z" fill="#CDEB97"/>
<path d="M333.294 739.6C336.282 738.735 341.565 739.682 344.089 742.933C344.784 743.829 345.416 745.117 345.529 746.679C345.629 748.06 345.339 749.348 344.852 750.408C342.826 754.812 338.26 756.264 335.272 756.783C332.036 757.559 327.148 757.002 324.372 753.581C323.641 752.681 322.984 751.4 322.845 749.787C322.725 748.4 323.026 747.083 323.516 746.021C325.586 741.529 330.249 740.095 333.294 739.6Z" fill="black"/>
<path d="M335.374 742.502C335.921 742.552 336.549 742.61 337.076 742.889C337.521 743.125 337.804 743.465 338.034 744.203C338.034 744.808 338.023 745.133 337.804 745.624C337.113 747.175 335.763 747.425 334.733 747.614C334.228 747.607 333.677 747.549 333.181 747.374C332.633 747.182 332.255 746.878 331.938 746.023C331.91 745.336 331.941 744.909 332.213 744.382C333.004 742.853 334.284 742.682 335.374 742.502Z" fill="#FDFDFD"/>
<path d="M303.88 715.235C306.155 714.877 308.821 716.217 310.661 718.598C312.064 720.412 313.186 723.041 313.418 726.159C313.6 728.586 313.196 730.985 312.36 732.916C310.837 736.433 308.49 737.632 306.126 738.185C303.407 738.356 300.684 737.38 298.534 734.252C297.245 732.38 296.263 729.726 296.138 726.723C296.037 724.281 296.533 721.919 297.434 720.085C299.062 716.77 301.5 715.569 303.88 715.235Z" fill="black"/>
<path d="M302.572 718.773C303.105 718.716 303.649 718.634 304.167 718.908C304.647 719.163 305.225 719.788 305.42 720.655C305.575 721.344 305.575 722.009 305.396 722.677C305.034 724.021 304.266 724.544 303.524 725.002C302.946 725.101 302.38 725.148 301.82 724.82C301.358 724.55 300.899 723.96 300.701 723.152C300.548 722.534 300.567 721.884 300.707 721.265C301.033 719.832 301.825 719.293 302.572 718.773Z" fill="#FDFDFD"/>
<path d="M301.261 750.059C301.489 750.048 301.719 750.052 301.947 750.068C305.045 750.261 310.062 753.464 312.131 757.743C312.395 758.29 312.546 758.768 312.524 759.511C312.34 760.135 312.144 760.293 311.806 760.59C311.403 760.63 311.014 760.692 310.627 760.443C309.511 759.73 307.964 755.871 306.042 754.655C305.168 754.101 301.043 752.581 300.737 752.198C300.461 751.853 300.47 751.71 300.445 751.166C300.636 750.578 300.936 750.364 301.261 750.059Z" fill="#A3C85F"/>
<path d="M310.592 743.558C312.597 743.501 311.753 744.309 313.014 745.379C313.426 745.729 314.034 745.51 314.49 745.663C314.869 745.789 315.259 746.265 315.438 746.884C315.548 747.267 315.517 747.698 315.387 748.051C315.029 749.023 314.241 749.451 313.65 749.725C312.354 750.195 311.022 750.05 309.71 749.977C309.36 749.283 309.009 748.466 308.835 747.577C308.686 746.808 308.678 746.021 308.89 745.284C309.212 744.17 309.971 743.84 310.592 743.558Z" fill="#A3C85F"/>
<path d="M346.426 695.043C347.717 694.861 348.971 694.921 350.166 695.921C350.824 696.471 351.569 697.421 351.789 698.72C351.89 699.318 351.832 699.936 351.648 700.458C351.099 702.026 349.866 702.687 348.92 703.15C347.535 703.565 345.918 703.324 344.684 702.094C344.134 701.546 343.583 700.639 343.436 699.505C343.342 698.783 343.406 698.069 343.645 697.456C344.228 695.957 345.476 695.415 346.426 695.043Z" fill="#CDEB97"/>
<path d="M259.507 685.738C272.956 665.806 299.267 665.311 315.714 667.957C329.471 670.256 342.982 675.958 355.851 684.895C358.9 687.021 361.868 689.516 364.858 691.887C372.661 698.079 380.597 704.642 386.188 716.579C387.13 718.587 387.911 720.814 388.687 723.028C389.448 725.199 390.223 727.393 390.756 729.78C392.273 736.588 391.949 744.9 391.556 752.063C391.051 761.282 388.169 768.966 385.109 776.13C384.27 778.094 383.447 780.286 382.426 781.964C382.411 781.988 382.394 782.001 382.378 782.019C380.842 783.846 380.322 787.668 378.145 788.227C377.353 788.431 376.23 788.083 375.594 787.176C375.333 786.805 375.182 786.363 375.174 785.759C375.16 784.718 376.111 783.59 376.494 782.884L376.546 782.445C379.197 777.657 382.238 770.947 384.034 765.058C386.844 755.843 387.806 742.179 386.088 732.063C385.652 729.492 384.876 727.245 384.086 724.979C380.837 715.645 376.363 708.833 370.934 703.652C367.517 700.389 363.981 697.579 360.442 694.768C355.55 690.881 350.673 687.167 345.564 684.236C342.515 682.488 339.409 681.165 336.314 679.707C332.935 678.115 329.572 676.463 326.124 675.387C318.087 672.879 309.824 671.914 301.671 671.905C293 671.895 284.289 673.09 275.959 677.57C269.258 681.174 262.08 687.819 258.027 698.32C257.504 699.672 257.268 701.22 256.813 702.629C256.502 703.597 255.926 703.912 255.35 704.147L255.216 704.201C253.099 704.148 250.945 704.447 248.843 703.929C248.992 706.813 249.081 709.78 249.339 712.637C249.479 714.191 249.955 716.312 249.943 717.816C249.94 718.173 249.784 718.589 249.657 718.84C249.317 719.518 248.593 719.786 248.118 720.002C247.196 720.041 246.203 719.847 245.512 718.658C244.108 716.244 244.053 705.973 244.113 702.585C244.131 701.564 244.184 700.703 244.653 700.018C246.279 697.646 249.339 699.543 251.26 699.733L251.44 699.749C252.103 698.847 252.799 697.98 253.402 696.953C254.161 695.659 254.807 694.13 255.498 692.723C256.724 690.202 258.064 687.866 259.507 685.738Z" fill="#FDFDFD"/>
<path d="M356.708 748.021C356.977 747.013 357.178 745.97 357.388 744.92C357.413 744.971 357.435 745.028 357.462 745.075C357.804 745.651 358.506 745.961 358.935 746.386C360.839 748.273 363.052 751.598 363.246 755.695C363.37 758.331 362.668 760.721 361.71 762.647C358.358 769.393 351.732 773.558 346.777 774.017C344.156 774.259 341.34 773.693 338.893 771.932C338.202 771.434 337.546 770.347 336.85 770.009C337.78 769.734 338.712 769.261 339.629 768.868C340.25 768.546 340.868 768.209 341.483 767.855C347.51 764.414 353.712 758.365 356.708 748.021Z" fill="#858485"/>
<path d="M356.708 748.021C357.317 748.499 357.802 749.119 358.291 749.92C357.014 757.25 353.481 761.63 349.802 765.048C346.987 767.666 344.212 769.338 341.066 770.104C340.587 769.713 340.082 769.352 339.629 768.868C340.25 768.546 340.868 768.209 341.483 767.854C347.51 764.413 353.711 758.365 356.708 748.021Z" fill="#BABABA"/>
<path d="M360.212 754.055C360.419 754.585 360.505 755.156 360.529 755.803C360.602 757.851 360.002 759.868 359.271 761.378C356.443 767.22 350.727 770.781 346.504 771.32L346.27 771.143C351.666 767.663 357.027 762.888 360.212 754.055Z" fill="#BABABA"/>
<path d="M283.008 729.573C282.27 729.278 281.526 728.876 280.829 728.351C279.077 727.031 277.246 724.804 276.562 721.509C276.079 719.187 276.279 716.864 276.87 714.672C278.512 708.581 282.156 704.134 285.659 701.962C290.288 699.089 296.835 699.295 301.281 703.127C300.416 703.551 299.557 704.004 298.703 704.488C293.047 708.216 286.631 713.814 283.941 724.044C283.71 724.923 283.519 725.864 283.358 726.788C283.233 727.714 283.117 728.642 283.008 729.573Z" fill="#858485"/>
<path d="M283.358 726.788C282.883 726.46 281.672 725.835 281.444 725.037C281.152 724.012 281.319 722.722 281.533 721.701C282.943 714.953 287.253 709.269 290.776 706.281C293.592 703.894 295.65 702.595 298.703 704.488C293.047 708.215 286.63 713.814 283.941 724.044C283.71 724.923 283.519 725.864 283.358 726.788Z" fill="#BABABA"/>
<path d="M289.656 703.111L290.114 703.137C289.582 704.198 287.703 705.393 286.91 706.127C283.913 708.898 281.086 714.124 279.355 719.226C279.271 719.523 279.334 719.378 279.134 719.613C279.071 719.355 279.059 719.342 279.03 719.021C278.884 717.422 279.634 714.766 280.137 713.401C282.258 707.641 285.986 704.473 289.656 703.111Z" fill="#BABABA"/>
<path d="M286.503 683.009C288.905 682.567 291.786 683.134 293.882 685.405C294.306 685.865 294.865 686.593 294.921 687.554C294.952 688.096 294.81 688.604 294.633 689.024C292.668 693.675 283.521 697.124 280.108 698.062C277.849 698.518 274.718 699.376 272.734 696.997C272.299 696.476 271.799 695.697 271.762 694.696C271.738 694.052 271.916 693.476 272.139 692.998C272.68 691.84 273.524 690.94 274.237 690.153C277.938 686.07 282.194 683.863 286.503 683.009Z" fill="#FDFDFD"/>
<path d="M248.844 703.929C250.946 704.447 253.1 704.148 255.217 704.201C255.178 704.214 255.137 704.228 255.098 704.241C254.125 704.54 252.655 703.902 251.812 704.653C250.931 707.251 251.607 712.998 251.998 715.767C253.564 726.827 257.257 733.638 261.74 741.26C262.708 742.903 263.918 744.467 264.774 746.261C265.432 747.958 266.611 748.828 267.478 750.207C273.715 747.186 279.719 746.135 286.171 746.926C294.425 763.178 307.76 770.286 319.748 771.841C321.267 777.362 322.045 782.848 321.713 789.011C322.721 789.246 324.079 789.975 325.068 789.892C326.501 789.941 327.943 790.369 329.37 790.608C331.739 791.016 334.119 791.244 336.499 791.288C342.647 791.399 348.794 790.386 354.905 789.296C361.142 788.183 367.517 786.928 373.658 784.694C374.612 784.533 375.374 784.196 376.115 783.063C376.255 782.849 376.4 782.648 376.547 782.445L376.495 782.884C376.112 783.59 375.161 784.718 375.175 785.759C375.183 786.363 375.334 786.805 375.595 787.176C376.231 788.083 377.354 788.431 378.146 788.227C380.323 787.668 380.843 783.846 382.379 782.019C382.189 782.617 382.039 782.847 382.1 783.536L382.349 784.065C382.331 784.133 382.319 784.207 382.295 784.267C379.779 790.644 373.733 795.804 369.661 797.991C367.115 799.358 364.456 800.639 361.812 801.197C353.364 802.98 344.563 801.753 336.136 800.178C325.105 798.116 314.1 795.231 303.535 789.054C296.033 784.71 288.708 779.457 281.612 773.33C278.13 770.261 274.725 766.75 271.299 763.48C264.448 756.941 258.267 748.871 253.421 737.986C252.368 735.619 251.327 733.203 250.507 730.554C249.474 727.213 248.734 723.642 248.119 720.002C248.594 719.786 249.318 719.518 249.659 718.84C249.786 718.589 249.941 718.173 249.944 717.816C249.956 716.312 249.48 714.191 249.34 712.637C249.082 709.78 248.993 706.813 248.844 703.929Z" fill="#CDEB97"/>
<path d="M208.645 672.992C209.192 672.794 210.059 672.952 210.642 672.936C214.915 672.892 219.186 673.161 223.447 673.738L223.454 674.028L223.54 673.789L223.565 673.939C223.199 673.984 222.832 674.019 222.465 674.048C222.714 674.49 223.382 673.925 223.637 674.355C222.439 674.572 221.171 674.195 219.967 674.062C218.295 673.873 216.62 673.761 214.945 673.724C207.444 673.502 199.744 673.784 192.328 675.917C189.741 677.136 187.054 677.817 184.47 679.105C183.198 679.74 182.06 681.209 180.722 681.544L180.769 681.283C180.943 681.189 181.048 681.162 181.182 680.936C180.566 680.854 179.94 681.915 179.349 682.384L179.25 682.139L179.044 682.21L179.031 682.026C181.223 680.459 183.459 678.899 185.733 677.751C193.17 674.004 200.965 673.373 208.645 672.992Z" fill="#298FF9"/>
<path d="M367.424 807.556C367.657 807.496 367.898 807.51 368.132 807.5C368.098 807.538 368.067 807.588 368.029 807.616C367.969 807.659 367.903 807.679 367.841 807.71L367.992 807.989L368.08 808.01L368.034 808.118L367.946 807.991L367.895 808.194C363.486 810.175 357.862 810.452 353.312 810.223C350.784 810.095 348.257 809.726 345.728 809.724L345.531 809.639C345.71 809.404 346.027 809.473 346.249 809.451C346.06 809.127 345.352 809.138 345.051 808.986C345.555 808.656 352.699 809.493 353.884 809.52C358.058 809.618 363.455 809.551 367.424 807.556Z" fill="#298FF9"/>
<path d="M340.603 845.178C341.307 845.197 349.946 850.746 351.453 851.641L351.29 851.724C350.893 851.605 350.519 851.772 350.122 851.635C348.893 851.213 341.16 846.596 340.338 845.564L340.653 845.538L340.603 845.178Z" fill="#298FF9"/>
<path d="M243.854 768.503C245.38 769.219 246.873 770.997 248.319 772.168C249.926 773.471 251.745 774.405 253.258 776.017C253.139 776.308 253.166 776.194 253.106 776.503C253.093 776.571 253.082 776.639 253.069 776.707C252.03 776.127 250.97 775.067 249.967 774.276C247.918 772.662 245.878 771.118 243.868 769.344L244.266 769.151L243.854 768.503Z" fill="#298FF9"/>
<path d="M258.299 780.061C259.288 780.573 265.636 785.43 266.41 786.455L266.119 786.224L266.472 786.845L266.235 787.019C265.281 786.452 264.319 785.485 263.383 784.775C261.674 783.481 259.733 782.38 258.139 780.717C258.454 780.624 258.527 780.831 258.797 781.098L258.862 780.638L258.749 780.866C258.639 780.56 258.448 780.309 258.299 780.061Z" fill="#298FF9"/>
<path d="M286.399 802.436C286.7 802.59 293.884 808.762 294.041 808.996C293.834 808.904 293.752 808.9 293.526 808.928L294.006 809.517C292.687 809.003 287.683 804.584 286.248 803.137L286.332 803.002C286.572 803.185 286.643 803.256 286.912 803.213C286.789 802.995 286.67 802.804 286.532 802.615C286.488 802.554 286.443 802.495 286.399 802.436Z" fill="#298FF9"/>
<path d="M286.776 813.635C287.372 813.508 293.03 818.613 293.901 819.412L293.857 819.537C293.478 819.344 292.464 818.275 292.176 818.364L292.401 818.535C292.857 819.223 293.236 819.632 293.792 820.004L294.014 820.15L293.856 820.256C293.599 820.152 286.819 814.419 286.574 814.031L286.886 813.932L286.776 813.635Z" fill="#298FF9"/>
<path d="M249.48 794.195C249.713 794.202 249.807 794.244 250.011 794.459C252.039 796.597 254.216 798.191 256.345 799.979C256.313 800.037 256.279 800.096 256.247 800.155C256.196 800.249 256.146 800.347 256.094 800.443C255.408 800.464 250.14 795.605 249.158 794.659C249.212 794.6 249.27 794.551 249.319 794.48C249.378 794.396 249.426 794.291 249.48 794.195Z" fill="#298FF9"/>
<path d="M336.722 807.174C337.28 806.749 343.224 808.302 344.149 808.594L344.13 809.199L343.586 809.159C342.332 808.995 337.379 808.175 336.582 807.535L337.561 807.393C337.287 807.276 337.002 807.235 336.722 807.174Z" fill="#298FF9"/>
<path d="M256.939 752.23C257.13 752.374 261.66 757.756 261.948 758.213C261.583 758.326 261.288 757.682 260.919 757.471L261.027 758.001C261.328 758.233 261.606 758.549 261.888 758.846L261.783 758.901C260.653 758.074 257.504 754.315 256.641 752.833L256.875 752.668L256.939 752.23Z" fill="#298FF9"/>
<path d="M229.975 776.592C230.852 776.759 233.585 779.704 234.561 780.601C234.916 780.927 235.335 781.187 235.459 781.877L235.275 782.074C234.872 782.036 234.618 781.678 234.29 781.301L234.136 781.123C232.793 779.959 231.017 778.947 229.969 777.022C230.216 777.136 230.173 777.062 230.334 777.283C230.596 777.644 230.814 777.953 231.108 778.241L231.219 778.113C231.091 777.668 230.992 777.524 230.742 777.297L229.975 776.592Z" fill="#298FF9"/>
<path d="M276.299 773.495C277.287 773.643 281.827 778.067 282.907 779.14L282.902 779.27L282.455 779.043C281.959 778.545 281.527 778.164 280.971 777.933L281.092 778.093C280.856 777.963 280.62 777.822 280.392 777.649C279.45 776.939 276.662 775.104 276.299 773.495Z" fill="#298FF9"/>
<path d="M332.038 839.369C332.623 839.335 336.735 842.228 337.592 842.91L337.611 843.043L337.279 843.047L337.322 843.396C336.566 843.349 332.511 840.53 331.82 839.753L332.089 839.695L332.038 839.369Z" fill="#298FF9"/>
<path d="M304.766 834.381C305.098 834.291 305.395 834.275 305.726 834.409C306.296 834.638 306.825 835.153 307.389 835.428C308.271 835.859 309.371 835.797 310.151 836.712L309.916 836.808L309.862 837.039L309.93 837.219C309.848 837.216 309.763 837.233 309.681 837.212C309.31 837.111 308.901 836.748 308.531 836.575C307.601 836.142 305.302 835.827 304.766 834.381Z" fill="#298FF9"/>
<path d="M229.207 767.26C229.409 767.241 229.596 767.219 229.794 767.313C230.46 767.63 234.254 771.053 234.85 771.787L234.788 771.927C234.481 771.653 234.189 771.373 233.845 771.285C233.772 771.266 233.699 771.251 233.626 771.235C233.963 771.573 234.286 771.738 234.579 772.21C234.408 772.182 234.392 772.192 234.201 772.083C233.861 771.887 229.607 768.126 229.437 767.842C229.286 767.593 229.287 767.543 229.207 767.26Z" fill="#298FF9"/>
<path d="M258.301 790.751C259.493 790.591 262.289 793.42 263.59 794.378L263.243 794.799L263.333 794.933C262.498 794.416 258.676 791.898 258.301 790.751Z" fill="#298FF9"/>
<path d="M325.339 834.216C326.822 834.971 328.765 836.395 330.089 837.82L329.585 837.676C329.749 838.128 329.666 837.993 329.9 838.295C329.954 838.363 330.009 838.425 330.063 838.49C329.097 837.899 326.193 836.236 325.555 835.197L325.537 834.8L325.413 834.79L325.267 835.132C325.152 835.025 325.218 835.108 325.104 834.818C325.34 834.878 325.574 834.925 325.812 834.961L325.339 834.216Z" fill="#298FF9"/>
<path d="M278.34 817.555C279.532 817.792 280.2 818.849 281.253 819.58C281.984 820.088 282.733 820.368 283.439 821.004L283.124 821.115L283.089 821.293L283.49 821.698L283.339 821.813C281.737 820.903 280.197 819.685 278.745 818.183L279.346 818.555C279.06 818.062 278.698 817.835 278.34 817.555Z" fill="#298FF9"/>
<path d="M250.108 690.287C250.181 690.375 250.285 690.679 250.339 690.809L250.266 691.2C249.165 692.244 248.283 693.872 247.248 695.106C247.598 694.153 248.161 693.427 248.632 692.661C247.947 692.813 247.209 694.505 246.751 695.357L246.607 695.335C247.039 693.22 249.065 691.427 250.108 690.287Z" fill="#298FF9"/>
<path d="M270.761 800.408C271.646 800.36 274.031 802.885 274.962 803.587L274.768 803.694L274.701 803.922L274.537 804.042C273.261 803.178 271.879 802.223 270.738 800.885C270.835 800.827 270.793 800.861 270.865 800.791L270.761 800.408Z" fill="#298FF9"/>
<path d="M285.699 781.482C287.174 781.841 288.681 783.417 290.039 784.478L290.078 784.69C289.864 784.562 289.705 784.527 289.48 784.526L289.973 785.268C288.645 784.73 287.364 783.338 286.16 782.233L286.453 782.316C286.269 781.868 285.978 781.716 285.699 781.482Z" fill="#298FF9"/>
<path d="M314.156 838.756C315.4 838.986 317.307 839.539 318.426 840.515C318.177 840.614 318.273 840.586 318.029 840.644L317.861 840.682L318.567 841.19C317.752 841.596 315.545 840 314.771 839.462L315.046 839.542C314.794 839.09 314.487 838.971 314.156 838.756Z" fill="#298FF9"/>
<path d="M245.263 780.269C246.48 780.474 247.521 782.817 248.64 782.512L248.498 782.807L248.034 782.738L248.292 782.837L248.624 783.401C247.846 783.46 245.849 781.689 245.211 780.788L245.263 780.269Z" fill="#298FF9"/>
<path d="M251.684 785.146C252.821 785.756 253.914 786.774 254.967 787.737L254.613 787.928L255.071 788.569C254.384 788.234 252.047 786.593 251.637 785.819L252.012 785.757L251.684 785.146Z" fill="#298FF9"/>
<path d="M378.518 797.651L378.637 797.911C378.201 798.583 377.776 799.274 377.361 799.985C377.977 799.357 378.48 798.549 379.073 797.905C378.787 798.835 378.372 799.36 377.915 800.007C377.561 800.252 377.29 800.606 376.981 800.987C376.634 801.412 376.242 801.849 375.812 801.712L376.057 801.777L376.054 801.781L375.882 801.459C376.644 800.075 377.678 798.929 378.518 797.651Z" fill="#298FF9"/>
<path d="M311.488 823.544C312.353 823.826 314.339 825.413 315.075 826.29L315.074 826.515C314.884 826.39 314.747 826.35 314.545 826.344L314.873 826.808L314.822 826.926L314.189 826.563C313.34 825.867 312.518 825.072 311.688 824.311C312.023 824.245 312.355 824.423 312.641 824.743C312.696 824.804 312.748 824.868 312.802 824.932C312.568 824.321 311.866 823.887 311.488 823.544Z" fill="#298FF9"/>
<path d="M269.427 810.735C269.886 810.664 272.136 812.428 272.651 812.902L272.609 813.112L271.868 812.638L271.807 812.826C272.045 812.97 272.131 812.997 272.304 813.336C271.683 813.324 269.631 811.88 269.158 811.124L269.477 811.097L269.427 810.735Z" fill="#298FF9"/>
<path d="M301.543 825.76C302.505 826.402 303.487 827.453 304.422 828.251C304.091 828.117 303.732 827.862 303.39 827.952C303.345 827.964 303.302 827.994 303.259 828.014C303.554 828.183 303.855 828.226 304.043 828.673C303.19 828.372 301.947 827.256 301.215 826.415C301.487 826.144 301.431 826.208 301.543 825.76Z" fill="#298FF9"/>
<path d="M305.941 819.076C306.926 819.37 308.009 820.404 308.855 821.343L308.871 821.507C308.799 821.69 308.726 821.902 308.642 822.068C307.798 821.362 306.954 820.658 306.124 819.899L306.172 819.763C306.369 819.849 306.567 819.932 306.766 820.009C306.676 819.637 306.155 819.284 305.941 819.076Z" fill="#298FF9"/>
<path d="M296.117 810.799C296.609 810.92 297.147 811.172 297.548 811.707C297.967 812.264 298.481 812.379 298.879 812.973L298.569 813.136L298.765 813.456L298.467 813.608C297.748 813.027 297.048 812.313 296.349 811.655C296.471 811.542 296.763 811.716 296.9 811.76L296.861 811.504L296.117 810.799Z" fill="#298FF9"/>
<path d="M300.9 814.834C301.929 815.112 303.009 816.179 303.869 817.203L303.692 817.621L303.722 817.638L303.843 817.198L303.783 817.662C303.533 817.8 303.325 817.625 303.074 817.518C302.47 816.643 301.837 816.244 301.117 815.754L301.119 815.596L301.373 815.89L301.353 815.578L302.045 815.744C301.642 815.612 301.382 815.358 301.032 814.98L300.9 814.834Z" fill="#298FF9"/>
<path d="M281.479 809.179C282.203 809.141 283.4 810.546 284.067 811.14L284.077 811.503L283.993 811.19L283.633 811.124L283.659 811.282L283.789 811.466L283.771 811.664C282.962 811.517 281.93 810.316 281.188 809.667C281.23 809.599 281.273 809.534 281.315 809.465C281.371 809.372 281.424 809.274 281.479 809.179Z" fill="#298FF9"/>
<path d="M316.289 827.515C316.934 827.442 318.477 828.847 319.093 829.405L319.081 829.602L318.723 829.42L318.74 829.807C317.966 829.862 317.118 828.675 316.372 828.25L316.227 828.169L316.312 827.982L316.164 827.743L316.168 827.977L316.322 827.774L316.289 827.515Z" fill="#298FF9"/>
<path d="M269.533 788.821C270.392 789.145 271.297 790.119 272.102 790.762L272.075 790.999L272.022 790.605C272.165 790.806 272.217 790.876 272.303 791.172L272.003 791.149L272.053 791.512C271.444 791.608 270.23 790.2 269.66 789.7L270.019 789.538C269.808 789.185 269.889 789.302 269.675 789.011L269.533 788.821Z" fill="#298FF9"/>
<path d="M298.139 823.08C298.794 823.294 299.6 824.055 300.219 824.518L300.15 825.146L300.331 825.128L300.362 824.649L300.277 825.162L300.416 824.865L300.094 824.918L300.146 825.278C299.624 825.373 298.508 824.244 297.977 823.845L298.009 823.592L298.163 823.485L298.139 823.08Z" fill="#298FF9"/>
<path d="M238.166 764.065C238.952 764.282 240.364 765.37 240.943 766.299L240.634 766.325L240.685 766.686C239.993 766.702 239.332 765.784 238.843 764.998L238.903 765.043C238.728 764.521 238.458 764.362 238.166 764.065Z" fill="#298FF9"/>
<path d="M322.378 803.086C323.018 802.983 324.342 803.365 324.927 803.868L324.37 804.07C323.915 804.467 322.753 803.884 322.207 803.718L322.338 803.729L322.387 803.151L322.324 803.428L322.506 803.346L322.378 803.086Z" fill="#298FF9"/>
<path d="M237.303 783.445C237.424 783.41 237.461 783.382 237.598 783.436C237.983 783.587 238.882 784.53 239.049 785.134L238.929 785.542C238.354 785.32 237.75 784.62 237.235 784.113L237.227 784.205L237.08 783.791L237.353 783.815L237.303 783.445Z" fill="#298FF9"/>
<path d="M221.525 767.774C222.021 768.209 222.532 768.658 222.879 769.437L222.736 770.026C222.3 769.578 221.966 769.385 221.727 768.562L221.808 768.408L221.525 767.774Z" fill="#298FF9"/>
<path d="M365.957 434.068C366.443 433.974 366.922 433.829 367.358 434.319C367.749 434.758 368.087 435.364 368.179 436.195C368.268 437.011 368.198 437.212 367.939 437.884C367.517 437.985 367.086 438.104 366.674 437.848C366.269 437.595 365.819 437.108 365.681 436.337C365.528 435.471 365.697 434.781 365.957 434.068Z" fill="#CDEB97"/>
<path d="M354.403 460.879L354.557 460.856C355.119 460.781 355.598 460.687 356.054 461.38C356.102 461.726 356.165 461.846 356.064 462.183C355.784 463.111 355.196 463.343 354.674 463.65C354.367 463.729 354.017 463.793 353.708 463.749C353.424 463.709 353.295 463.563 353.113 463.177L353.149 462.651C353.427 461.74 353.914 461.375 354.403 460.879Z" fill="#CDEB97"/>
<path d="M155.489 432.322C156.051 432.353 156.533 432.337 156.974 433.031C157.012 433.418 157.073 433.468 156.925 433.809C156.538 434.699 155.883 434.615 155.306 434.706C154.714 434.699 154.244 434.722 153.762 434.034C153.726 433.674 153.664 433.605 153.804 433.29C154.205 432.388 154.897 432.432 155.489 432.322Z" fill="#CDEB97"/>
<path d="M235.091 466.003C235.593 465.984 235.942 466.065 236.399 466.434C236.863 466.808 237.241 467.139 237.428 468.022C237.296 468.662 237.228 468.691 236.909 469.089C236.274 469.119 235.762 469.034 235.182 468.524C234.82 468.206 234.674 467.906 234.559 467.231C234.699 466.547 234.786 466.455 235.091 466.003Z" fill="#CDEB97"/>
<path d="M377.392 572.495C377.865 572.449 378.463 572.3 378.846 572.911C378.993 573.146 378.948 573.281 378.954 573.602C378.579 574.704 378.07 574.833 377.41 575.134C377.304 575.175 377.196 575.22 377.089 575.246C376.679 575.342 376.415 575.217 376.088 574.791C376.032 574.248 376.018 574.035 376.203 573.534C376.439 572.898 377.011 572.707 377.392 572.495Z" fill="#CDEB97"/>
<path d="M357.109 434.493C357.252 434.476 357.395 434.467 357.538 434.465C358.06 434.463 358.873 434.58 359.239 435.331C359.358 435.576 359.288 435.731 359.258 436.016C358.972 436.586 358.64 436.758 358.251 437.017C357.632 437.172 356.936 437.267 356.416 436.54C356.241 436.295 356.281 436.177 356.254 435.816C356.464 435.11 356.735 434.874 357.109 434.493Z" fill="#CDEB97"/>
<path d="M374.061 449.487C374.616 449.388 375.015 449.366 375.506 449.873C375.616 450.155 375.735 450.321 375.726 450.681C375.699 451.574 375.28 452.09 374.921 452.6C374.492 452.667 373.844 452.806 373.496 452.26C373.354 452.038 373.263 451.796 373.27 451.459C373.289 450.541 373.694 450.021 374.061 449.487Z" fill="#CDEB97"/>
<path d="M203.961 525.751L204.085 525.743C204.586 525.719 205.196 525.764 205.54 526.535C205.764 527.036 205.719 527.206 205.676 527.8C205.445 528.44 205.206 528.641 204.839 528.968C204.406 528.948 203.819 528.883 203.48 528.347C203.203 527.909 203.231 527.692 203.249 527.098C203.445 526.486 203.647 526.175 203.961 525.751Z" fill="#CDEB97"/>
<path d="M156.849 410.858C157.233 410.886 157.66 410.877 158.03 411.074C158.41 411.275 158.691 411.608 158.873 412.213L158.763 412.606C158.434 412.982 158.13 413.1 157.754 413.248C157.392 413.256 156.925 413.345 156.575 413.165C156.159 412.95 155.819 412.618 155.627 411.935L155.757 411.504C156.121 411.115 156.434 410.994 156.849 410.858Z" fill="#CDEB97"/>
<path d="M319.067 595.982C319.658 595.964 320.232 596.088 320.761 596.596C321.076 596.896 321.163 597.142 321.274 597.722C321.142 598.341 321.037 598.431 320.753 598.833C320.109 598.926 319.602 598.856 319.033 598.233C318.734 597.905 318.657 597.65 318.562 597.069C318.67 596.5 318.8 596.333 319.067 595.982Z" fill="#CDEB97"/>
<path d="M268.003 552.787C268.561 552.692 269.115 552.534 269.577 553.23C269.752 553.493 269.712 553.644 269.74 554.019C269.572 554.744 269.317 555.018 268.97 555.451C268.557 555.533 268.026 555.712 267.633 555.379C267.336 555.129 267.324 554.925 267.27 554.418C267.393 553.648 267.677 553.29 268.003 552.787Z" fill="#CDEB97"/>
<path d="M196.629 500.688C197.091 500.71 197.482 500.708 197.902 501.106C198.234 501.42 198.354 501.709 198.472 502.331C198.354 503.061 198.274 503.156 197.973 503.66C197.409 503.71 196.912 503.732 196.437 503.11C196.159 502.746 196.116 502.514 196.051 501.928C196.202 501.265 196.314 501.087 196.629 500.688Z" fill="#CDEB97"/>
<path d="M180.291 426.029C180.557 426.027 180.851 425.997 181.113 426.078C181.446 426.182 181.584 426.503 181.774 426.954L181.709 427.54C181.415 428.157 181.089 428.333 180.671 428.612C180.175 428.582 179.627 428.636 179.257 427.953C179.095 427.655 179.155 427.547 179.168 427.168C179.45 426.482 179.861 426.311 180.291 426.029Z" fill="#CDEB97"/>
<path d="M374.561 629.314C375.112 629.321 375.654 629.234 376.069 629.99C376.228 630.28 376.17 630.369 376.155 630.738C375.885 631.364 375.613 631.547 375.208 631.84C374.952 631.874 374.686 631.882 374.433 631.805C374.141 631.715 373.871 631.416 373.711 630.971C373.605 630.674 373.668 630.524 373.701 630.203C373.965 629.659 374.193 629.529 374.561 629.314Z" fill="#CDEB97"/>
<path d="M360.971 532.463C361.53 532.404 362.17 532.244 362.605 533.021C362.752 533.283 362.686 533.442 362.67 533.781C362.429 534.392 362.104 534.611 361.738 534.923C361.248 535.015 360.778 535.088 360.368 534.516C360.187 534.265 360.221 534.118 360.184 533.745C360.359 533.058 360.623 532.832 360.971 532.463Z" fill="#CDEB97"/>
<path d="M275.12 549.929C275.478 549.911 275.889 549.885 276.213 550.211C276.507 550.508 276.515 550.72 276.557 551.25C276.38 551.944 276.141 552.177 275.794 552.565C275.261 552.581 274.699 552.735 274.298 551.985C274.149 551.705 274.201 551.562 274.206 551.203C274.444 550.522 274.727 550.293 275.12 549.929Z" fill="#CDEB97"/>
<path d="M161.314 530.719C161.538 530.739 161.762 530.76 161.986 530.801C162.41 530.88 162.621 531.082 162.893 531.683L162.853 532.19C162.525 532.782 162.192 532.865 161.746 533.044C161.443 532.989 161.116 532.96 160.823 532.812C160.509 532.656 160.283 532.317 160.135 531.809L160.247 531.34C160.587 530.906 160.912 530.839 161.314 530.719Z" fill="#CDEB97"/>
<path d="M358.062 453.096C358.295 453.099 358.549 453.082 358.777 453.156C359.107 453.261 359.24 453.527 359.437 453.973L359.384 454.582C359.101 455.22 358.801 455.365 358.38 455.625C358.168 455.64 357.939 455.674 357.73 455.622C357.386 455.537 357.237 455.311 357.016 454.867L357.045 454.253C357.302 453.544 357.633 453.39 358.062 453.096Z" fill="#CDEB97"/>
<path d="M264.857 544.98C265.218 544.933 265.689 544.88 266.022 545.188C266.335 545.475 266.375 545.587 266.475 546.14C266.405 546.805 266.187 547.091 265.922 547.529C265.355 547.613 264.753 547.765 264.305 547.008C264.157 546.76 264.197 546.576 264.184 546.24C264.353 545.605 264.543 545.364 264.857 544.98Z" fill="#CDEB97"/>
<path d="M182.258 542.782C182.693 542.771 183.106 542.814 183.531 542.987C183.912 543.142 184.144 543.325 184.349 543.919C184.22 544.591 184.119 544.656 183.81 545.078C183.219 545.133 182.68 545.132 182.129 544.682C181.846 544.451 181.777 544.278 181.682 543.77C181.814 543.236 181.992 543.087 182.258 542.782Z" fill="#CDEB97"/>
<path d="M360.03 447.274C360.465 447.198 360.923 447.108 361.344 447.376C361.67 447.584 361.759 447.733 361.891 448.289C361.787 448.948 361.645 449.127 361.362 449.551C361.051 449.597 360.68 449.647 360.373 449.5C360.018 449.331 359.881 449.133 359.689 448.598C359.73 447.948 359.809 447.811 360.03 447.274Z" fill="#CDEB97"/>
<path d="M252.658 553.744C253.044 553.648 253.415 553.593 253.805 553.633C254.201 553.675 254.435 553.804 254.704 554.323C254.672 554.973 254.607 555.046 254.373 555.563C254.032 555.668 253.695 555.719 253.349 555.709C252.934 555.697 252.71 555.566 252.426 555.035C252.424 554.41 252.478 554.293 252.658 553.744Z" fill="#CDEB97"/>
<path d="M196.716 404.346C197.152 404.251 197.617 404.177 198.054 404.313C198.406 404.423 198.556 404.576 198.773 405.065C198.738 405.681 198.68 405.752 198.456 406.24C198.263 406.28 198.071 406.307 197.877 406.317C197.329 406.345 196.953 406.353 196.541 405.661C196.505 405.021 196.549 404.929 196.716 404.346Z" fill="#CDEB97"/>
<path d="M250.11 527.08C250.409 527.106 250.753 527.161 251.022 527.424C251.302 527.696 251.402 527.925 251.485 528.453C251.298 529.081 251.179 529.167 250.849 529.539C250.338 529.512 249.901 529.53 249.504 528.874C249.332 528.59 249.377 528.511 249.363 528.127C249.547 527.529 249.781 527.366 250.11 527.08Z" fill="#CDEB97"/>
<path d="M342.451 448.536C342.84 448.519 343.277 448.524 343.631 448.849C343.901 449.097 343.917 449.146 344 449.63C343.883 450.193 343.664 450.375 343.393 450.676C343.122 450.669 342.812 450.677 342.548 450.556C342.22 450.406 342.068 450.206 341.887 449.716C342.019 449.03 342.133 448.963 342.451 448.536Z" fill="#CDEB97"/>
</g>
<path d="M353.587 107.145L353.741 107.123C354.302 107.048 354.781 106.953 355.238 107.646C355.285 107.992 355.349 108.112 355.247 108.449C354.968 109.378 354.38 109.609 353.858 109.916C353.551 109.995 353.201 110.059 352.892 110.016C352.607 109.975 352.478 109.83 352.297 109.443L352.333 108.917C352.611 108.006 353.097 107.641 353.587 107.145Z" fill="#CDEB97"/>
<path d="M247.564 274.617L247.557 274.773C247.528 275.339 247.531 275.827 246.766 276.147C246.417 276.13 246.288 276.17 245.975 276.008C245.115 275.562 244.995 274.941 244.79 274.372C244.769 274.056 244.771 273.7 244.871 273.404C244.963 273.132 245.13 273.032 245.544 272.925L246.054 273.057C246.898 273.499 247.167 274.044 247.564 274.617Z" fill="#CDEB97"/>
<path d="M51.8563 313.521L51.7045 313.486C51.1542 313.352 50.6738 313.266 50.5003 312.455C50.5815 312.115 50.5659 311.98 50.7831 311.703C51.3807 310.939 52.0123 310.937 52.6102 310.84C52.9248 310.879 53.2742 310.946 53.5465 311.099C53.7967 311.24 53.8641 311.422 53.8928 311.849L53.6684 312.325C53.0783 313.073 52.4927 313.237 51.8563 313.521Z" fill="#CDEB97"/>
<path d="M177.54 641.711L177.69 641.751C178.236 641.902 178.714 642.004 178.861 642.82C178.769 643.158 178.78 643.292 178.554 643.563C177.932 644.307 177.301 644.289 176.7 644.366C176.387 644.318 176.04 644.239 175.773 644.077C175.527 643.929 175.466 643.744 175.451 643.317L175.69 642.848C176.304 642.12 176.895 641.975 177.54 641.711Z" fill="#CDEB97"/>
<path d="M376.576 218.761C377.049 218.716 377.647 218.567 378.029 219.177C378.176 219.412 378.132 219.547 378.138 219.868C377.763 220.97 377.254 221.099 376.593 221.401C376.487 221.441 376.38 221.486 376.272 221.513C375.862 221.608 375.599 221.483 375.271 221.057C375.215 220.514 375.202 220.301 375.387 219.8C375.622 219.164 376.195 218.973 376.576 218.761Z" fill="#CDEB97"/>
<path d="M133.622 276.585C133.579 277.058 133.615 277.674 132.944 277.937C132.686 278.038 132.562 277.969 132.245 277.916C131.232 277.344 131.199 276.82 131.024 276.115C131.004 276.003 130.98 275.889 130.974 275.778C130.956 275.358 131.127 275.122 131.606 274.879C132.15 274.924 132.362 274.95 132.82 275.225C133.402 275.574 133.484 276.171 133.622 276.585Z" fill="#CDEB97"/>
<path d="M70.9773 201.178C70.5201 201.048 69.9084 200.97 69.7741 200.262C69.7226 199.99 69.8127 199.88 69.9236 199.579C70.6734 198.688 71.1942 198.753 71.9193 198.712C72.033 198.713 72.1497 198.71 72.2593 198.724C72.6757 198.784 72.8762 198.997 73.0264 199.512C72.8816 200.038 72.8163 200.242 72.4619 200.641C72.0118 201.148 71.4094 201.118 70.9773 201.178Z" fill="#CDEB97"/>
<path d="M154.821 753.383C155.274 753.527 155.883 753.625 155.995 754.337C156.037 754.61 155.944 754.717 155.823 755.014C155.045 755.88 154.527 755.799 153.801 755.817C153.687 755.812 153.57 755.812 153.461 755.794C153.047 755.72 152.853 755.502 152.72 754.981C152.881 754.46 152.953 754.259 153.32 753.871C153.786 753.379 154.388 753.428 154.821 753.383Z" fill="#CDEB97"/>
<path d="M156.033 57.1248C156.416 57.1527 156.844 57.1434 157.214 57.3399C157.593 57.5414 157.874 57.8745 158.057 58.479L157.947 58.8727C157.617 59.2483 157.313 59.3662 156.938 59.5139C156.575 59.5227 156.109 59.6113 155.759 59.431C155.342 59.2164 155.002 58.8841 154.811 58.2011L154.94 57.7701C155.305 57.3817 155.617 57.2605 156.033 57.1248Z" fill="#CDEB97"/>
<path d="M333.227 89.7089C333.129 90.0803 333.059 90.5023 332.798 90.8296C332.529 91.1655 332.15 91.38 331.522 91.4478L331.156 91.267C330.848 90.8735 330.788 90.553 330.712 90.157C330.77 89.7986 330.77 89.3237 331.011 89.0132C331.299 88.6438 331.689 88.371 332.395 88.3087L332.795 88.5158C333.109 88.9457 333.171 89.2753 333.227 89.7089Z" fill="#CDEB97"/>
<path d="M217.752 431.878C217.405 431.713 217.003 431.566 216.73 431.249C216.449 430.923 216.308 430.511 216.358 429.881L216.603 429.555C217.047 429.324 217.373 429.325 217.776 429.324C218.118 429.447 218.584 429.534 218.845 429.829C219.155 430.18 219.351 430.613 219.282 431.319L219.004 431.674C218.524 431.903 218.188 431.903 217.752 431.878Z" fill="#CDEB97"/>
<path d="M15.5284 518.088C15.8698 518.264 16.2666 518.424 16.5297 518.75C16.7996 519.084 16.927 519.501 16.8574 520.129L16.6017 520.448C16.1509 520.663 15.825 520.652 15.422 520.641C15.0847 520.506 14.6208 520.404 14.37 520.101C14.0715 519.74 13.8894 519.301 13.9814 518.598L14.27 518.252C14.7577 518.038 15.0928 518.05 15.5284 518.088Z" fill="#CDEB97"/>
<path d="M373.744 275.581C374.296 275.588 374.837 275.501 375.253 276.257C375.412 276.547 375.353 276.635 375.339 277.005C375.069 277.631 374.797 277.813 374.392 278.107C374.136 278.14 373.87 278.148 373.616 278.071C373.325 277.981 373.055 277.682 372.895 277.237C372.789 276.94 372.852 276.79 372.884 276.469C373.148 275.925 373.376 275.795 373.744 275.581Z" fill="#CDEB97"/>
<path d="M78.3029 263.302C78.1939 263.843 78.1794 264.391 77.3595 264.66C77.0453 264.763 76.9693 264.689 76.6086 264.606C76.0431 264.225 75.9141 263.924 75.7006 263.472C75.715 263.214 75.756 262.951 75.879 262.717C76.0208 262.447 76.3649 262.237 76.8316 262.162C77.1432 262.112 77.2791 262.202 77.5885 262.293C78.0742 262.653 78.1599 262.901 78.3029 263.302Z" fill="#CDEB97"/>
<path d="M94.2533 149.266C93.7418 149.059 93.206 148.944 93.0934 148.088C93.0507 147.76 93.1373 147.699 93.2849 147.36C93.7638 146.875 94.0839 146.804 94.5677 146.677C94.818 146.739 95.0692 146.828 95.2769 146.992C95.516 147.181 95.6588 147.558 95.6463 148.031C95.6375 148.346 95.5239 148.463 95.3773 148.751C94.9339 149.161 94.6741 149.2 94.2533 149.266Z" fill="#CDEB97"/>
<path d="M129.89 804.519C130.395 804.743 130.926 804.875 131.011 805.734C131.044 806.063 130.955 806.121 130.797 806.455C130.302 806.925 129.98 806.986 129.493 807.097C129.244 807.027 128.996 806.93 128.794 806.759C128.561 806.562 128.43 806.181 128.458 805.709C128.477 805.394 128.594 805.281 128.75 804.998C129.206 804.602 129.467 804.572 129.89 804.519Z" fill="#CDEB97"/>
<path d="M249.294 173.346C249.592 173.373 249.936 173.428 250.206 173.69C250.485 173.962 250.585 174.191 250.668 174.719C250.482 175.348 250.362 175.434 250.032 175.806C249.522 175.778 249.085 175.796 248.688 175.14C248.516 174.856 248.561 174.778 248.547 174.394C248.731 173.795 248.965 173.633 249.294 173.346Z" fill="#CDEB97"/>
<path d="M201.774 159.887C201.693 160.176 201.576 160.504 201.268 160.72C200.949 160.944 200.706 161 200.171 160.984C199.588 160.685 199.525 160.552 199.221 160.159C199.342 159.662 199.405 159.229 200.123 158.96C200.434 158.843 200.503 158.902 200.883 158.96C201.437 159.251 201.554 159.511 201.774 159.887Z" fill="#CDEB97"/>
<path d="M173.072 289.721C172.803 289.588 172.502 289.412 172.347 289.07C172.185 288.715 172.175 288.465 172.29 287.943C172.692 287.425 172.834 287.388 173.277 287.161C173.743 287.372 174.156 287.514 174.288 288.27C174.345 288.597 174.275 288.654 174.148 289.017C173.759 289.507 173.482 289.574 173.072 289.721Z" fill="#CDEB97"/>
<path d="M55.6221 661.606C55.8867 661.748 56.1814 661.933 56.3262 662.281C56.4763 662.64 56.4781 662.89 56.347 663.409C55.9283 663.913 55.7848 663.945 55.3352 664.158C54.8764 663.932 54.4674 663.777 54.3602 663.018C54.3136 662.689 54.3859 662.634 54.5241 662.276C54.9286 661.797 55.2075 661.74 55.6221 661.606Z" fill="#CDEB97"/>
<path d="M133.692 108.241C135.963 109.393 137.209 114.587 138.093 116.982C140.285 116.932 143.731 116.439 145.56 117.825L145.623 118.696C144.486 120.603 142.442 121.839 140.763 123.273C141.5 124.987 142.979 127.603 142.822 129.481C142.742 130.433 142.593 130.576 141.9 131.132C139.129 131.346 136.691 129.251 134.473 127.826C131.686 128.82 129.867 130.806 126.739 131.335C126.461 131.203 125.984 131.076 125.854 130.797C124.912 128.772 126.626 125.11 127.292 123.133C126.146 122.14 124.87 121.289 123.719 120.295C122.846 119.543 122.412 118.921 122.336 117.791C122.376 117.754 122.414 117.715 122.456 117.68C124 116.377 127.974 117.207 129.867 117.378C131.072 114.304 132.348 111.257 133.692 108.241Z" fill="#FEF7A0"/>
<path d="M312.637 276.46C314.908 277.612 316.155 282.806 317.038 285.201C319.23 285.151 322.676 284.658 324.505 286.044L324.568 286.915C323.431 288.822 321.388 290.058 319.708 291.492C320.445 293.206 321.924 295.822 321.767 297.7C321.688 298.652 321.538 298.795 320.845 299.351C318.074 299.565 315.636 297.47 313.419 296.045C310.632 297.039 308.812 299.025 305.685 299.554C305.406 299.422 304.929 299.295 304.799 299.016C303.857 296.991 305.572 293.329 306.237 291.352C305.091 290.359 303.815 289.508 302.664 288.514C301.791 287.762 301.357 287.14 301.281 286.01C301.321 285.973 301.36 285.934 301.401 285.899C302.945 284.596 306.919 285.426 308.812 285.597C310.017 282.523 311.293 279.476 312.637 276.46Z" fill="#FEF7A0"/>
<path d="M54.9519 489.141C57.2226 490.293 58.4692 495.487 59.3526 497.882C61.5448 497.832 64.9907 497.338 66.8196 498.725L66.8827 499.596C65.7454 501.503 63.702 502.738 62.0224 504.172C62.7596 505.887 64.2386 508.502 64.0817 510.38C64.0021 511.333 63.8523 511.476 63.1598 512.032C60.3884 512.246 57.9505 510.151 55.7333 508.725C52.946 509.72 51.1263 511.706 47.999 512.234C47.7209 512.103 47.2438 511.976 47.1135 511.696C46.1716 509.672 47.8861 506.01 48.5515 504.033C47.4059 503.04 46.1295 502.189 44.9783 501.195C44.1056 500.442 43.6716 499.821 43.5957 498.691C43.6357 498.653 43.6742 498.614 43.7158 498.579C45.2599 497.276 49.2338 498.107 51.1269 498.278C52.3319 495.203 53.6073 492.157 54.9519 489.141Z" fill="#FEF7A0"/>
<path d="M98.7331 733.403L99.9572 733.793C101.13 734.741 101.238 736.028 101.878 737.304C102.945 739.432 104.116 737.958 105.956 738.649C105.914 739.344 104.095 740.926 103.537 741.514C103.682 743.279 103.838 745.043 104.005 746.806L100.533 743.589C99.7771 743.591 99.0199 743.641 98.2642 743.677C97.0776 744.217 96.721 745.459 96.2255 746.579C96.2378 743.149 96.3137 741.175 93.8055 738.501L93.5449 738.227C94.7485 737.827 96.2178 737.834 97.4839 737.727C97.7968 736.226 98.0852 734.8 98.7331 733.403Z" fill="#6F87F5"/>
<path d="M54.2214 212.64L55.4454 213.03C56.6182 213.977 56.7265 215.265 57.3662 216.541C58.4333 218.669 59.604 217.195 61.4442 217.886C61.4027 218.581 59.583 220.163 59.0253 220.751C59.17 222.516 59.3265 224.28 59.4937 226.043L56.0216 222.826C55.2654 222.827 54.5082 222.878 53.7525 222.914C52.5659 223.454 52.2093 224.696 51.7137 225.816C51.7261 222.386 51.802 220.412 49.2938 217.738L49.0332 217.464C50.2368 217.064 51.706 217.071 52.9722 216.964C53.2851 215.463 53.5734 214.037 54.2214 212.64Z" fill="#6F87F5"/>
<path d="M226.947 243.612C228.336 243.576 229.768 243.577 231.127 243.911C232.288 244.196 233.576 245.333 234.14 246.381C234.566 247.173 234.641 248.5 234.358 249.354C233.944 250.601 233.797 250.962 232.645 251.557C230.16 251.76 227.746 250.935 225.412 250.195C225.693 248.244 225.726 245.184 226.947 243.612Z" fill="#FEF7A0"/>
<path d="M305.702 30.6541C307.092 30.6182 308.524 30.6192 309.883 30.9526C311.044 31.2379 312.332 32.3747 312.896 33.4223C313.322 34.2144 313.397 35.5416 313.114 36.3953C312.7 37.6424 312.553 38.0036 311.401 38.5992C308.915 38.8014 306.502 37.9764 304.168 37.2366C304.449 35.2856 304.482 32.2255 305.702 30.6541Z" fill="#FEF7A0"/>
<path d="M20.4893 38.3223C21.0514 38.3532 21.5325 38.3374 21.9739 39.0311C22.0119 39.4182 22.0725 39.468 21.9248 39.8085C21.5384 40.699 20.8834 40.6149 20.3058 40.7061C19.714 40.6995 19.244 40.7215 18.7618 40.0339C18.7258 39.674 18.6642 39.6047 18.8041 39.2903C19.2054 38.3879 19.8972 38.4319 20.4893 38.3223Z" fill="#CDEB97"/>
<path d="M279.15 168.12C280.094 168.173 280.902 168.146 281.644 169.34C281.707 170.006 281.809 170.092 281.561 170.678C280.912 172.21 279.812 172.065 278.842 172.222C277.848 172.211 277.059 172.249 276.249 171.066C276.189 170.446 276.085 170.327 276.32 169.786C276.994 168.233 278.156 168.309 279.15 168.12Z" fill="#CDEB97"/>
<path d="M21.8493 16.8584C22.2325 16.8863 22.6601 16.877 23.0302 17.0736C23.4098 17.275 23.6907 17.6081 23.8733 18.2126L23.7634 18.6063C23.4337 18.9819 23.1297 19.0999 22.7545 19.2475C22.3915 19.2563 21.925 19.345 21.5751 19.1646C21.1588 18.9501 20.8188 18.6178 20.627 17.9347L20.7567 17.5038C21.1211 17.1153 21.4337 16.9941 21.8493 16.8584Z" fill="#CDEB97"/>
<path d="M281.434 131.181C282.077 131.229 282.795 131.213 283.417 131.551C284.054 131.898 284.526 132.471 284.833 133.511L284.648 134.189C284.094 134.835 283.584 135.038 282.954 135.293C282.344 135.308 281.561 135.46 280.973 135.15C280.274 134.781 279.703 134.209 279.381 133.033L279.599 132.292C280.211 131.623 280.736 131.414 281.434 131.181Z" fill="#CDEB97"/>
<path d="M45.2915 32.0292C45.5572 32.0273 45.8512 31.9972 46.113 32.0785C46.4463 32.1819 46.5837 32.5033 46.774 32.954L46.7087 33.5401C46.4146 34.1574 46.0892 34.3328 45.6708 34.6117C45.1755 34.5823 44.6275 34.636 44.257 33.9528C44.0954 33.6549 44.155 33.5469 44.1679 33.1685C44.4502 32.4824 44.8609 32.3113 45.2915 32.0292Z" fill="#CDEB97"/>
<path d="M320.802 157.29C321.248 157.286 321.742 157.235 322.181 157.374C322.741 157.552 322.972 158.106 323.291 158.881L323.182 159.89C322.688 160.952 322.141 161.254 321.439 161.734C320.607 161.683 319.687 161.776 319.064 160.6C318.793 160.087 318.893 159.902 318.915 159.25C319.389 158.07 320.079 157.775 320.802 157.29Z" fill="#CDEB97"/>
<path d="M61.7156 10.3462C62.152 10.2507 62.6169 10.177 63.0537 10.3134C63.4059 10.4234 63.5561 10.576 63.7732 11.065C63.7377 11.6813 63.6801 11.7516 63.456 12.2399C63.263 12.2803 63.0711 12.3068 62.8769 12.3168C62.3291 12.3451 61.9533 12.3531 61.5413 11.6615C61.5047 11.0212 61.5487 10.9286 61.7156 10.3462Z" fill="#CDEB97"/>
<path d="M348.383 119.973C349.116 119.809 349.897 119.682 350.63 119.917C351.222 120.106 351.474 120.369 351.839 121.211C351.779 122.271 351.682 122.392 351.306 123.232C350.982 123.302 350.66 123.348 350.333 123.365C349.413 123.413 348.782 123.427 348.09 122.237C348.029 121.135 348.103 120.976 348.383 119.973Z" fill="#CDEB97"/>
<path d="M81.7205 54.4283C81.8462 54.977 81.9943 55.4351 81.4497 56.051C81.0881 56.1945 81.0571 56.2666 80.689 56.2187C79.7264 56.0935 79.6261 55.4408 79.3788 54.911C79.2216 54.3404 79.0705 53.8948 79.598 53.2413C79.9339 53.1072 79.9835 53.0288 80.3243 53.0763C81.3025 53.2126 81.4515 53.8896 81.7205 54.4283Z" fill="#CDEB97"/>
<path d="M102.725 49.8017C102.804 50.1777 102.931 50.586 102.844 50.996C102.756 51.4165 102.513 51.7786 101.983 52.1212L101.574 52.1244C101.122 51.9113 100.924 51.6518 100.679 51.332C100.57 50.9856 100.356 50.5618 100.432 50.1757C100.524 49.7163 100.749 49.2977 101.352 48.9245L101.802 48.93C102.276 49.1729 102.479 49.4398 102.725 49.8017Z" fill="#CDEB97"/>
<path d="M94.6243 76.5242C94.6996 76.7791 94.8097 77.0532 94.804 77.3273C94.7968 77.6762 94.5259 77.8972 94.1453 78.2046L93.564 78.3038C92.8895 78.1919 92.631 77.9277 92.2473 77.6027C92.1386 77.1185 91.9355 76.6067 92.4896 76.0618C92.7313 75.8241 92.8515 75.8515 93.2188 75.7593C93.9561 75.841 94.2341 76.1883 94.6243 76.5242Z" fill="#CDEB97"/>
<path d="M120.003 86.314C120.215 86.707 120.414 87.1334 120.404 87.5909C120.396 87.9598 120.291 88.1463 119.881 88.4902C119.279 88.6265 119.195 88.5905 118.664 88.5101C118.572 88.3358 118.493 88.1587 118.43 87.9749C118.251 87.4562 118.14 87.0972 118.691 86.5101C119.296 86.298 119.397 86.3146 120.003 86.314Z" fill="#CDEB97"/>
<path d="M100.401 411.924C100.183 412.443 100.035 412.901 99.2335 413.083C98.8562 412.988 98.7889 413.029 98.5181 412.775C97.8098 412.111 98.1096 411.523 98.2182 410.948C98.4239 410.393 98.5614 409.943 99.3713 409.721C99.7223 409.808 99.8083 409.774 100.057 410.011C100.772 410.693 100.497 411.33 100.401 411.924Z" fill="#CDEB97"/>
<path d="M178.512 309.117C178.322 309.636 178.194 310.094 177.496 310.276C177.168 310.182 177.11 310.222 176.874 309.968C176.258 309.304 176.519 308.716 176.613 308.141C176.792 307.586 176.912 307.136 177.616 306.914C177.922 307.001 177.996 306.967 178.213 307.204C178.834 307.886 178.596 308.523 178.512 309.117Z" fill="#CDEB97"/>
<path d="M282.729 381.874C282.324 381.498 281.949 381.2 282.089 380.524C282.325 380.28 282.313 380.213 282.657 380.113C283.558 379.853 283.997 380.318 284.496 380.635C284.94 381.016 285.311 381.303 285.206 382.002C284.987 382.229 284.986 382.308 284.666 382.398C283.745 382.655 283.252 382.189 282.729 381.874Z" fill="#CDEB97"/>
<path d="M120.153 420.435C119.997 420.786 119.862 421.192 119.552 421.474C119.235 421.764 118.827 421.916 118.196 421.884L117.862 421.648C117.62 421.211 117.611 420.885 117.598 420.482C117.712 420.137 117.786 419.668 118.074 419.4C118.416 419.08 118.843 418.872 119.551 418.921L119.913 419.188C120.156 419.662 120.165 419.998 120.153 420.435Z" fill="#CDEB97"/>
<path d="M195.693 317.628C195.558 317.979 195.44 318.385 195.17 318.667C194.894 318.957 194.539 319.109 193.991 319.077L193.7 318.841C193.489 318.404 193.482 318.078 193.471 317.675C193.57 317.331 193.634 316.861 193.884 316.593C194.182 316.273 194.554 316.065 195.169 316.114L195.484 316.382C195.696 316.856 195.703 317.191 195.693 317.628Z" fill="#CDEB97"/>
<path d="M267.034 393.221C266.763 392.96 266.433 392.693 266.287 392.345C266.137 391.989 266.152 391.62 266.427 391.16L266.779 391.006C267.285 391.002 267.596 391.129 267.981 391.284C268.262 391.51 268.675 391.757 268.817 392.083C268.986 392.471 269.016 392.877 268.694 393.388L268.302 393.55C267.76 393.539 267.441 393.408 267.034 393.221Z" fill="#CDEB97"/>
<path d="M97.971 437.397C97.8833 437.648 97.8126 437.935 97.6479 438.154C97.4383 438.433 97.0893 438.454 96.6008 438.481L96.071 438.222C95.5889 437.737 95.5333 437.372 95.4117 436.884C95.6062 436.428 95.7402 435.893 96.5083 435.775C96.8433 435.723 96.9248 435.815 97.2768 435.955C97.8276 436.452 97.8505 436.896 97.971 437.397Z" fill="#CDEB97"/>
<path d="M176.399 334.59C176.323 334.841 176.261 335.128 176.118 335.347C175.936 335.626 175.632 335.647 175.207 335.674L174.746 335.415C174.327 334.931 174.279 334.565 174.173 334.077C174.342 333.621 174.459 333.087 175.127 332.968C175.418 332.916 175.489 333.009 175.795 333.148C176.274 333.645 176.294 334.089 176.399 334.59Z" fill="#CDEB97"/>
<path d="M259.654 369.64C259.451 369.472 259.208 369.302 259.065 369.088C258.884 368.817 258.999 368.546 259.163 368.169L259.613 367.877C260.258 367.713 260.624 367.821 261.131 367.929C261.486 368.261 261.937 368.58 261.751 369.205C261.67 369.478 261.551 369.501 261.283 369.708C260.6 369.919 260.172 369.754 259.654 369.64Z" fill="#CDEB97"/>
<path d="M112.855 460.165C112.798 460.608 112.711 461.07 112.436 461.436C112.213 461.73 112.019 461.82 111.485 461.86C110.917 461.619 110.87 461.541 110.486 461.166C110.513 460.97 110.553 460.781 110.609 460.594C110.767 460.069 110.886 459.713 111.676 459.558C112.291 459.739 112.363 459.811 112.855 460.165Z" fill="#CDEB97"/>
<path d="M189.346 357.358C189.296 357.801 189.22 358.263 188.98 358.629C188.787 358.923 188.618 359.013 188.154 359.053C187.66 358.812 187.619 358.734 187.285 358.359C187.308 358.163 187.343 357.974 187.391 357.788C187.529 357.262 187.632 356.906 188.319 356.751C188.855 356.932 188.917 357.005 189.346 357.358Z" fill="#CDEB97"/>
<path d="M232.405 371.506C232.01 371.282 231.607 371.028 231.37 370.672C231.178 370.385 231.169 370.202 231.339 369.785C231.787 369.457 231.878 369.454 232.382 369.319C232.555 369.419 232.719 369.526 232.873 369.644C233.307 369.978 233.597 370.213 233.436 370.869C233.026 371.257 232.929 371.281 232.405 371.506Z" fill="#CDEB97"/>
</g>
<defs>
<clipPath id="clip0_401_145">
<rect width="393" height="852" fill="white"/>
</clipPath>
<clipPath id="clip1_401_145">
<rect width="258" height="458" fill="white" transform="translate(135 394)"/>
</clipPath>
</defs>
</svg>
