<svg width="393" height="852" viewBox="0 0 393 852" fill="none" xmlns="http://www.w3.org/2000/svg">
<g clip-path="url(#clip0_421_423)">
<rect width="393" height="852" fill="#FDFFF3"/>
<g clip-path="url(#clip1_421_423)">
<rect width="393" height="852" fill="#312A54"/>
<rect y="796" width="393" height="56" fill="#8AECA2"/>
<g clip-path="url(#clip2_421_423)">
<path d="M-1 32H393V127.369V401.838V415.056V531.717V639.791V674.04V710.214V758.904V819.328C392.6 819.554 392.223 819.754 391.77 819.856C388.282 820.641 371.096 820.005 366.123 820.005L294.351 820.01L4.4332 820C2.75625 819.995 0.444077 820.287 -1 819.328V745.838V706.433V541.741V521.593V518.033V397.198V388.651V283.571V131.705V66.444V32Z" fill="#312A54"/>
<path d="M313.428 447.287C312.919 447.532 312.385 447.723 311.823 447.806C310.874 447.947 309.558 448.249 308.791 447.666C309.117 443.072 311.597 437.624 313.036 433.181C316.065 423.762 319.146 414.36 322.28 404.976C325.235 396.088 327.721 386.988 330.961 378.201C331.548 376.608 332.239 374.915 333.363 373.624L333.937 373.63C336.478 375.565 347.167 416.702 348.986 423.386C350.149 427.658 351.347 434.435 353.32 438.103C353.353 438.164 353.389 438.224 353.424 438.284L353.919 438.106C355.068 433.889 357.319 429.22 359.383 425.384C362.561 419.48 367.063 412.451 373.901 410.477C380.12 408.682 387.649 412.046 393 415.056V531.717V639.791V674.04V710.213V758.904V819.328C392.6 819.553 392.223 819.754 391.77 819.856C388.282 820.641 371.096 820.005 366.123 820.005L294.351 820.01L4.4332 820C2.75625 819.995 0.444077 820.287 -1 819.328V745.838V706.432V541.741V521.593V518.033C0.965434 518.95 3.77329 518.848 5.8673 518.389C7.72382 518.854 10.1295 518.542 12.0395 518.442C34.7855 517.247 56.0392 505.619 71.0697 488.785C86.5804 471.413 93.9925 449.153 92.6401 426C92.7186 426.019 92.7966 426.041 92.8756 426.058C95.6249 426.632 101.896 424.966 105.5 425.084C115.293 425.406 134.361 433.853 140.061 442.145C142.896 446.268 144.706 453.276 147.207 456.465C149.63 455.924 151.631 453.273 154.066 452.34C155.602 451.752 157.64 452.499 158.93 451.733C160.648 447.303 163.894 434.373 166.416 431.369C167.34 431.604 167.699 432.319 168.163 433.13C171.637 439.198 176.251 457.153 178.533 464.744C179.793 468.938 181.508 473.13 182.403 477.415C182.691 478.789 183.005 480.564 182.554 481.937C182.398 482.409 182.097 482.748 181.733 483.071C180.757 483.469 179.476 483.78 178.432 483.446C178.355 483.421 178.284 483.38 178.209 483.347C179.018 486.395 184.384 498.246 186.545 499.767C189.955 495.201 193.062 485.622 193.998 480.008L193.748 480.232C192.646 481.203 190.834 482.479 189.303 482.386C189.242 482.382 189.182 482.373 189.123 482.366C188.54 481.611 188.647 481.299 188.762 480.39C189.292 476.207 204.94 424.247 206.025 423.141C207.785 424.007 208.612 426.519 209.224 428.307C212.691 438.432 215.51 448.874 218.71 459.097C220.813 465.815 223.629 472.76 225.15 479.599C225.385 480.655 225.556 481.789 225.033 482.794C224.247 484.309 222.076 484.165 221.522 485.681C222.41 489.323 228.674 506.922 230.523 508.712C230.567 508.667 230.613 508.623 230.655 508.576C233.127 505.811 234.426 496.017 235.488 491.971C236.586 487.789 242.591 466.744 244.551 464.829C245.216 464.962 245.205 464.917 245.582 465.487C246.757 467.267 255.387 494.795 255.107 496.078C254.926 496.908 254.361 497.362 253.726 497.868C254.255 501.066 258.23 514.091 260.296 516.193C260.267 512.007 259.232 503.818 262.414 500.655C263.657 499.419 265.268 499.033 266.978 499.053C269.597 499.083 274.869 501.518 276.702 501.008C277.603 493.925 278.525 488.406 282.836 482.473C284.161 480.65 286.055 478.903 287.144 476.97C289.176 475.312 290.969 472.583 292.795 470.634C297.089 466.051 302.448 463.372 307.924 460.472C309.775 459.407 312.609 449.684 313.428 447.287Z" fill="#122B2E"/>
<path d="M163.33 672.096C163.738 672.245 164.194 672.368 164.631 672.332C170.319 671.881 176.191 670.516 181.854 669.67C194.504 667.751 207.188 666.073 219.902 664.642C232.16 663.365 244.36 662.631 256.662 662.01C266.5 661.513 276.403 660.984 286.256 661.364C297.091 661.728 307.919 662.251 318.738 662.934C323.51 663.257 334.236 664.693 338.352 664.201C339.199 665.001 340.027 665.227 341.144 665.458C349.947 667.305 359.108 668.115 367.981 669.695C371.472 670.316 389.247 674.364 391.902 674.23C392.298 674.21 392.623 674.153 393 674.041V710.214V758.904V819.328C392.6 819.554 392.223 819.754 391.77 819.856C388.282 820.641 371.096 820.005 366.123 820.005L294.351 820.01L4.4332 820C2.75625 819.995 0.444077 820.287 -1 819.328V745.838L-0.249056 745.802C2.24079 741.585 6.00186 737.727 9.53529 734.356C10.3981 733.53 11.3702 733.048 12.1751 732.125C13.775 726.841 14.2574 721.834 14.0797 716.329C13.9247 716.057 13.9779 716.19 13.8931 715.857C13.331 713.62 12.4629 711.932 11.5896 709.855L11.5105 709.665C15.4883 709.224 21.9271 706.571 26.0668 705.319C35.3697 702.431 44.7393 699.763 54.1677 697.316C72.1347 692.586 90.2074 687.8 108.341 683.762C123.027 680.628 137.763 677.724 152.542 675.056C155.271 674.538 161.492 673.989 163.33 672.096Z" fill="#84ECAB"/>
<path d="M355.312 717.165C354.319 710.783 356.234 699.707 358.56 693.653C359.686 690.724 361.433 686.558 364.507 685.281C365.659 684.799 366.914 684.829 368.058 685.322C376.401 688.934 381.527 710.019 384.704 718.042L385.421 717.57L385.221 718.658L385.112 718.653C386.297 718.058 387.665 715.375 388.266 714.143L387.462 713.384L387.084 713.307C389.854 712.963 391.037 712.148 393 710.214V758.904C392 759.351 391.146 759.335 390.082 759.284C384.671 759.028 349.97 755.914 347.952 753.687C347.739 753.564 347.682 753.549 347.494 753.338C346.123 751.799 345.134 748.901 343.888 747.084C337.261 737.434 332.423 732.71 332.638 720.31C332.891 720.284 333.064 720.243 333.264 720.074C338.539 715.672 343.991 715.087 350.574 716.514C352.104 716.847 353.748 717.504 355.312 717.165Z" fill="#4E9768"/>
<path d="M347.951 753.687C347.81 753.759 347.733 753.8 347.578 753.866C343.541 755.524 316.64 747.736 311.529 745.699C309.675 744.96 304.879 743.057 304.141 741.19C303.54 739.671 303.712 737.45 304.396 735.972C307.939 728.287 324.986 723.111 332.637 720.31C332.422 732.71 337.26 737.434 343.887 747.084C345.133 748.9 346.122 751.799 347.493 753.338C347.681 753.548 347.738 753.564 347.951 753.687Z" fill="#63CB8C"/>
<path d="M14.0788 716.329C15.8606 717.755 17.9542 717.904 19.6083 719.14C21.2721 720.377 24.8163 725.019 26.2534 725.476C26.3781 728.092 26.9878 732.602 25.0957 734.741C22.7659 738.05 6.41636 745.756 1.80656 746.443C0.822593 746.587 0.539493 746.31 -0.25 745.802C2.23984 741.585 6.00092 737.727 9.53435 734.356C10.3972 733.53 11.3692 733.048 12.1742 732.125C13.7741 726.841 14.2565 721.834 14.0788 716.329Z" fill="#63CB8C"/>
<path d="M-1 541.741C1.1431 552.388 0.495343 618.968 1.99647 621.312C5.94666 617.454 9.39396 611.514 15.664 611.514C17.5405 611.514 19.1888 612.309 20.4769 613.658C25.6647 619.076 25.3324 629.321 25.1217 636.287C25.189 636.323 25.2548 636.364 25.3237 636.4C26.9067 637.211 29.2535 636.985 31.0086 637.072C36.889 637.36 44.4917 638.555 46.7879 644.855C47.4649 646.712 47.0761 648.738 46.2212 650.467C45.1351 652.663 42.8496 654.766 42.3306 657.131L42.5492 657.496C44.1532 657.219 44.8662 657.331 46.2494 658.286C50.3872 661.143 53.3284 665.648 55.3482 670.167C56.4747 667.238 56.2803 664.262 59.4949 662.816C60.2942 662.457 61.4906 662.169 62.0656 661.502C59.2199 654.238 54.0358 641.951 57.3638 634.184C57.9353 632.85 58.9172 631.783 60.2947 631.275C62.4007 630.5 65.151 630.767 67.1553 631.732C72.3456 634.23 72.3261 640.438 75.5381 643.136C75.614 636.262 76.2455 623.944 81.5261 618.768C82.7332 617.588 84.2246 616.941 85.9247 617.013C88.0614 617.105 89.4461 618.255 90.8071 619.809C94.4003 623.913 96.9244 632.527 97.8468 637.883C98.3485 640.792 98.4881 644.116 99.3033 646.927C99.3469 646.892 99.391 646.85 99.4331 646.815C100.567 645.732 101.195 643.942 102.075 642.623C104.102 639.591 108.859 634.635 112.849 634.8C114.125 634.851 115.161 635.405 115.978 636.364C118.033 638.765 118.155 642.418 117.855 645.404C117.449 649.451 114.461 656.89 115.248 660.312L115.684 660.476C118.774 655.731 126.127 639.981 131.568 638.888C132.444 638.714 133.146 638.95 133.806 639.545C136.41 641.884 136.07 650.206 136.914 653.607C136.971 653.545 137.03 653.484 137.086 653.422C140.878 649.205 143.926 640.899 150.612 640.469C151.479 640.412 152.258 640.545 152.941 641.12C154.307 642.269 154.507 644.537 154.547 646.194C154.647 650.38 153.275 660.133 150.821 663.288C150.889 663.272 150.957 663.257 151.023 663.236C153.973 662.359 161.189 651.421 166.904 654.151C167.618 654.494 168.251 654.936 168.496 655.715C169.667 659.435 162.9 671.393 163.33 672.096C161.492 673.989 155.271 674.538 152.542 675.056C137.763 677.724 123.027 680.628 108.341 683.762C90.2074 687.8 72.1347 692.586 54.1677 697.316C44.7393 699.763 35.3697 702.431 26.0668 705.319C21.9271 706.571 15.4883 709.224 11.5105 709.665L11.5896 709.855C12.4629 711.932 13.331 713.62 13.8931 715.857C13.9779 716.19 13.9247 716.057 14.0797 716.329C14.2574 721.834 13.775 726.841 12.1751 732.125C11.3702 733.048 10.3981 733.53 9.53529 734.356C6.00186 737.727 2.24079 741.585 -0.249056 745.802L-1 745.838V706.433V541.741Z" fill="#4E9768"/>
<path d="M-1 541.741C1.1431 552.388 0.495343 618.968 1.99647 621.312L1.70093 673.856C1.70452 685.532 1.1811 697.865 2.955 709.413C2.29974 710.09 1.66312 710.701 0.902964 711.265C-0.234137 710.414 0.176418 707.792 -1 706.433V541.741Z" fill="#5C3530"/>
<path d="M353.424 438.284L353.919 438.106C355.068 433.889 357.32 429.22 359.384 425.384C362.562 419.48 367.064 412.451 373.902 410.477C380.121 408.682 387.649 412.046 393.001 415.056V531.717C392.707 531.678 392.442 531.586 392.184 531.435C388.2 529.109 373.639 512.206 370.463 507.469C368.298 504.241 366.818 500.581 364.603 497.385C360.138 490.941 355.694 487.003 353.157 479.237C354.86 481.854 360.264 485.658 363.144 486.704C364.339 486.523 365.59 485.08 366.332 484.176C365.242 482.918 364.399 480.813 363.533 479.338C358.365 470.532 351.004 458.792 349.479 448.691C350.628 449.862 353.728 451.932 355.395 452.09C355.586 451.85 355.773 451.612 355.943 451.357C357.671 448.757 354.032 441.729 353.487 438.655L353.424 438.284Z" fill="#285B5D"/>
<path d="M361.245 632.752C360.717 627.797 359.797 621.153 360.952 616.315C361.209 615.238 361.692 614.273 362.697 613.714C363.939 613.022 365.586 613.273 366.905 613.591C374.446 615.418 382.073 624.416 386.19 630.618C387.904 633.199 389.193 636.092 390.948 638.632C391.541 639.488 392.045 639.632 393 639.791V674.04C392.623 674.153 392.297 674.21 391.902 674.23C389.247 674.364 371.472 670.316 367.981 669.695C359.108 668.115 349.946 667.304 341.144 665.458C340.027 665.227 339.199 665.001 338.352 664.201L338.495 663.877C336.996 662.046 335.608 660.117 334.339 658.116C332.247 654.812 326.172 644.49 327.203 640.571C327.347 640.027 327.511 639.945 328.017 639.694C331.43 638.006 337.549 640.561 340.398 642.587C342.075 643.777 343.8 646.163 345.764 646.712C345.829 646.732 345.897 646.743 345.963 646.758C345.424 646.06 345.037 645.239 344.681 644.434C342.603 639.74 338.676 629.926 340.808 624.852C341.175 623.98 341.908 623.144 342.817 622.82C347.001 621.333 353.771 626.119 356.76 628.874C358.02 630.033 359.459 632.096 361.064 632.691C361.123 632.711 361.185 632.732 361.245 632.752Z" fill="#4E9768"/>
<path d="M287.145 476.97C289.177 475.312 290.97 472.583 292.795 470.634C297.089 466.051 302.449 463.373 307.925 460.472C307.916 460.568 307.908 460.665 307.897 460.762C307.231 466.6 297.953 475.615 299.644 480.96C300.454 481.711 301.018 481.874 302.137 481.842C303.967 481.789 306.801 481.132 308.262 480.009C307.241 485.069 303.966 490.515 300.743 494.501C297.812 491.654 296.346 484.445 293.065 480.75C291.269 478.727 288.883 478.554 287.145 476.97Z" fill="#285B5D"/>
<path d="M-1 518.033C0.965434 518.95 3.77329 518.848 5.8673 518.389C5.04934 520.044 2.81985 521.237 1.13024 521.791C0.239427 522.083 -0.175252 522.012 -1 521.593V518.033Z" fill="#5C3530"/>
<path d="M-1 283.571C17.3483 281.234 32.7567 284.122 47.542 295.575C62.3447 307.041 75.4806 324.642 77.8123 343.604C79.2852 355.581 77.4373 366.75 73.5917 378.082C85.9016 394.338 90.095 405.928 92.6401 426C93.9925 449.153 86.5804 471.413 71.0697 488.785C56.0392 505.619 34.7855 517.247 12.0395 518.442C10.1295 518.542 7.72382 518.854 5.8673 518.389C3.77329 518.849 0.965434 518.95 -1 518.033V397.198V388.651V283.571Z" fill="#4E9768"/>
<path d="M326.776 151.347C326.984 150.989 327.354 150.612 327.636 150.306C330.922 146.745 335.249 143.726 339.314 141.117C356.611 130.012 373.117 128.32 392.999 127.369V401.838C376.045 394.156 363.668 386.404 353.026 370.585C338 348.25 334.081 319.857 339.426 293.701C340.771 287.116 343.692 280.917 344.972 274.392C344.617 273.611 344.108 273.131 343.438 272.629C341.42 271.116 338.924 270.014 336.755 268.702C333.992 267.031 331.355 264.929 328.881 262.855C325.083 259.724 321.72 256.102 318.88 252.083C319.008 249.672 311.36 238.961 310.029 235.416C308.192 230.523 307.369 225.562 306.596 220.417C305.983 216.336 305.249 212.204 305.075 208.078C304.574 196.189 307.121 181.346 313.256 171.06C316.09 166.307 319.26 161.825 322.488 157.335C323.766 155.557 325.853 153.499 326.698 151.542C326.726 151.478 326.751 151.412 326.776 151.347Z" fill="#4E9768"/>
<path d="M253.991 243.451C269.302 241.633 283.159 252.646 284.846 267.972C286.531 283.298 275.4 297.06 260.06 298.614C244.905 300.149 231.346 289.182 229.68 274.041C228.015 258.9 238.866 245.247 253.991 243.451Z" fill="#FEF7A0"/>
<path d="M132.692 140.241C134.963 141.393 136.209 146.587 137.093 148.982C139.285 148.932 142.731 148.439 144.56 149.825L144.623 150.696C143.486 152.603 141.442 153.839 139.763 155.273C140.5 156.987 141.979 159.603 141.822 161.481C141.742 162.433 141.593 162.576 140.9 163.132C138.129 163.346 135.691 161.251 133.473 159.826C130.686 160.82 128.867 162.806 125.739 163.335C125.461 163.203 124.984 163.076 124.854 162.797C123.912 160.772 125.626 157.11 126.292 155.133C125.146 154.14 123.87 153.289 122.719 152.295C121.846 151.543 121.412 150.921 121.336 149.791C121.376 149.754 121.414 149.715 121.456 149.68C123 148.377 126.974 149.207 128.867 149.378C130.072 146.304 131.348 143.257 132.692 140.241Z" fill="#FEF7A0"/>
<path d="M118.768 252.068C119.182 250.617 119.378 248.705 120.422 247.58C120.662 247.321 120.956 247.431 121.291 247.43C122.524 248.474 122.921 250.158 123.433 251.638L124.879 251.687C126.1 251.709 127.35 251.588 128.377 252.349C128.436 253.086 128.437 253.114 127.966 253.685C127.322 254.465 126.361 255.007 125.521 255.552C125.768 256.403 126.247 257.589 126.167 258.47C126.099 259.223 126.028 259.253 125.438 259.714C123.867 259.673 122.293 258.576 120.934 257.845C119.805 258.686 118.673 259.676 117.289 260.032C115.087 258.792 117.336 257.231 116.449 255.633C115.792 254.452 114.539 253.675 113.904 252.37L114.451 251.897C115.941 251.68 117.286 251.861 118.768 252.068Z" fill="#FEF7A0"/>
<path d="M118.768 252.068C119.182 250.617 119.377 248.705 120.421 247.58C120.662 247.321 120.955 247.431 121.291 247.43C122.523 248.474 122.92 250.158 123.432 251.638C121.862 251.7 120.325 251.988 118.768 252.068Z" fill="#FEF7A0"/>
<path d="M124.879 251.687C126.1 251.709 127.35 251.588 128.377 252.349C128.436 253.086 128.436 253.115 127.965 253.686C127.322 254.465 126.361 255.007 125.521 255.552C125.035 254.261 124.958 253.053 124.879 251.687Z" fill="#FEF7A0"/>
<path d="M174.684 396.536L175.908 396.926C177.081 397.873 177.189 399.161 177.829 400.437C178.896 402.565 180.067 401.091 181.907 401.781C181.866 402.476 180.046 404.059 179.488 404.647C179.633 406.412 179.789 408.176 179.957 409.938L176.484 406.722C175.728 406.723 174.971 406.774 174.215 406.809C173.029 407.35 172.672 408.592 172.177 409.712C172.189 406.281 172.265 404.307 169.757 401.634L169.496 401.36C170.7 400.959 172.169 400.967 173.435 400.859C173.748 399.358 174.036 397.933 174.684 396.536Z" fill="#6F87F5"/>
<path d="M252.519 153.922C253.909 153.886 255.34 153.887 256.699 154.22C257.86 154.506 259.149 155.643 259.712 156.69C260.139 157.482 260.214 158.809 259.93 159.663C259.516 160.91 259.37 161.271 258.217 161.867C255.732 162.069 253.319 161.244 250.984 160.504C251.265 158.553 251.298 155.493 252.519 153.922Z" fill="#FEF7A0"/>
<path d="M254.748 431.172C257.199 432.694 255.671 436.593 258.432 438.442C258.684 439.634 256.873 442.334 256.22 443.433C255.241 443.882 254.831 443.55 253.844 443.224C252.518 442.724 251.272 443.159 249.861 442.331C250.838 440.576 250.798 438.138 252.072 436.533C252.378 436.148 253.327 435.747 253.755 435.389C254.703 434.596 254.648 432.366 254.748 431.172Z" fill="#6F87F5"/>
<path d="M158.135 224.049C159.27 224.145 159.844 224.199 160.749 224.966C161.322 225.451 161.657 226.282 161.689 227.024C161.736 228.111 161.145 229.338 160.421 230.128C159.242 231.414 157.613 231.278 156 231.322L155.015 231.586C153.685 230.579 153.46 228.042 153.08 226.447C154.693 225.369 156.237 224.498 158.135 224.049Z" fill="#FEF7A0"/>
<path d="M12.2847 273.841C12.8398 273.637 13.4218 273.716 14.0076 273.727C14.591 274.059 15.007 274.189 15.3385 274.794C15.9701 275.946 15.9026 277.498 15.5512 278.735C15.1757 280.055 14.492 281.25 13.3025 281.894C12.5033 281.846 11.6503 281.817 10.8678 281.644C9.69576 281.386 8.89118 279.735 8.2832 278.783C8.70162 277.458 9.03842 275.236 10.367 274.553C10.9736 274.24 11.5071 274.352 12.2847 273.841Z" fill="#6F87F5"/>
<path d="M336.056 70.6299C336.435 70.6935 336.838 70.7615 337.193 70.918C337.906 71.2336 338.327 71.9416 338.555 72.656C338.871 73.6419 338.656 75.0897 338.041 75.9557C337.277 77.0305 336.191 77.036 334.994 77.323L333.373 77.2254C332.564 76.584 332.269 76.3249 332.002 75.3022C331.711 74.1819 332.236 72.6322 332.902 71.708C333.696 70.6049 334.81 70.7838 336.056 70.6299Z" fill="#FEF7A0"/>
<path d="M85.7988 73.9224C86.8295 74.0581 88.1515 74.2184 89.076 74.7181C90.0123 75.2241 90.1339 75.774 90.4078 76.7183C90.1857 78.1058 89.4705 79.014 88.6676 80.1265C87.4851 80.133 85.806 80.2767 84.8123 79.5439C84.4285 79.261 83.8955 78.5867 83.8524 78.0982C83.7011 76.3791 84.7579 75.1534 85.7988 73.9224Z" fill="#FBD2CD"/>
<path d="M67.4718 258.039C69.0319 257.814 70.6853 257.62 72.0448 258.588L72.1398 259.287C71.7073 260.312 71.3374 261.325 70.5622 262.146C70.516 262.194 70.4673 262.241 70.4196 262.288L70.8475 263.169C69.8291 263.987 69.3935 264.306 68.0848 264.277C67.561 263.822 67.2702 263.629 67.0434 262.945C66.6402 261.727 66.9244 259.182 67.4718 258.039Z" fill="#6F87F5"/>
<path d="M320.506 305.324C321.66 305.423 322.144 305.406 323.119 306.088C323.527 307.022 323.764 307.426 323.412 308.453C323.062 309.476 322.169 309.845 321.262 310.242C320.171 310.042 318.748 309.947 318.159 308.889C317.659 307.991 317.769 307.51 318.041 306.607C318.97 305.728 319.311 305.614 320.506 305.324Z" fill="#FEF7A0"/>
<path d="M263.588 89.959C264.217 90.0534 264.836 90.2063 265.458 90.3443C266.053 90.9286 266.458 91.1682 266.586 92.0259C266.769 93.2526 265.92 94.2468 265.205 95.1349C264.437 95.1025 263.722 95.0051 262.968 94.8553C262.339 94.2006 261.873 93.8626 261.935 92.8683C262.01 91.673 262.816 90.7849 263.588 89.959Z" fill="#FBD2CD"/>
</g>
</g>
<path d="M157.838 737.823C156.335 735.786 152.611 725.918 151.206 722.621C148.26 715.709 145.128 709.071 142.33 701.955C140.048 696.149 138.205 689.446 138.948 682.191C139.454 677.247 141.245 673.547 143.525 670.745C152.156 660.139 165.631 661.033 175.643 662.872C179.162 663.518 182.657 664.53 186.175 665.199C190.01 665.928 193.868 666.283 197.702 667.013C200.539 667.555 203.366 668.402 206.173 669.299C215.923 671.704 225.634 674.593 235.293 677.961C239.325 679.416 243.344 680.987 247.348 682.674C249.085 683.408 253.472 685.782 254.963 685.738C268.412 665.806 294.723 665.311 311.17 667.957C324.927 670.256 338.438 675.957 351.307 684.894C354.356 687.021 357.324 689.516 360.314 691.887C368.117 698.079 376.053 704.642 381.644 716.579C382.586 718.587 383.367 720.814 384.143 723.028C384.904 725.198 385.679 727.393 386.212 729.78C387.729 736.588 387.405 744.9 387.012 752.063C386.507 761.281 383.625 768.966 380.565 776.129C379.726 778.094 378.903 780.286 377.882 781.964C377.868 781.988 377.85 782.001 377.834 782.019C377.644 782.617 377.494 782.847 377.555 783.536L377.804 784.065C378.422 783.174 379.007 782.241 379.59 781.28C382.663 784.895 385.622 789.327 388.455 793.528V852H311.767H279.921H254.088H249.536H245.25H233.998H199.658H130.455V829.025V822.398V800.898V785.374V778.039V727.675V717.578V712.979C136.083 720.659 141.793 726.865 147.947 733.12C149.965 735.173 152.042 737.062 154.108 738.959C155.252 740.008 157.021 741.212 157.958 742.721C158.186 743.087 158.338 743.787 158.467 744.279C158.268 742.148 158.207 739.884 157.838 737.823Z" fill="#2987F9"/>
<path d="M157.838 737.823C156.335 735.786 152.611 725.918 151.206 722.621C148.26 715.709 145.128 709.071 142.33 701.955C140.048 696.149 138.205 689.446 138.948 682.191C139.454 677.247 141.245 673.547 143.525 670.745C152.156 660.139 165.631 661.033 175.643 662.872C179.162 663.518 182.657 664.53 186.175 665.199C190.01 665.928 193.868 666.283 197.702 667.013C200.539 667.555 203.366 668.402 206.173 669.299C200.951 669.085 195.733 666.888 190.51 666.74C184.31 666.564 169.455 673.545 164.924 681.321C162.784 684.993 161.763 688.841 161.724 694.145C161.646 704.964 165.072 714.217 169.213 721.7C175.337 732.77 183.735 742.641 190.959 751.37C211.209 775.838 232.56 795.739 254.886 813.503C260.672 818.163 266.502 822.651 272.372 826.969C277.081 830.345 281.851 833.381 286.602 836.553C290.607 839.305 294.627 841.986 298.66 844.596C302.985 847.34 307.435 849.345 311.767 852H279.921H254.088H249.536H245.25H233.998H199.658H130.455V829.025V822.398V800.898V785.374V778.039V727.675V717.578V712.979C136.083 720.659 141.793 726.865 147.947 733.12C149.965 735.173 152.042 737.062 154.108 738.959C155.252 740.008 157.021 741.212 157.958 742.721C158.186 743.087 158.338 743.787 158.467 744.279C158.268 742.148 158.207 739.884 157.838 737.823Z" fill="#CDEB97"/>
<path d="M130.455 712.979C136.083 720.659 141.793 726.865 147.947 733.12C149.965 735.173 152.042 737.062 154.108 738.959C155.252 740.008 157.021 741.212 157.958 742.72C158.186 743.087 158.338 743.787 158.467 744.279C158.724 746.522 158.997 748.76 159.167 751.029C159.58 753.618 159.972 756.216 160.343 758.824C161.617 766.164 162.863 773.155 164.628 780.198C166.445 787.062 168.356 793.914 170.579 800.396C173.098 807.749 176.075 814.538 179.041 821.331L179.193 821.599C179.872 822.805 180.459 824.236 181.097 825.518C182.122 827.548 183.186 829.515 184.288 831.415C186.069 834.48 188.112 837.046 189.887 840.068C191.728 842.496 193.587 844.881 195.463 847.221C196.869 848.794 198.267 850.387 199.658 852H130.455V829.025V822.398V800.898V785.374V778.039V727.674V717.578V712.979Z" fill="#84ECAB"/>
<path d="M157.838 737.823C169.529 760.678 184.696 776.766 199.949 791C204.858 795.631 209.812 800.112 214.808 804.442C227.451 815.533 240.355 825.659 253.485 834.793C259.794 839.187 266.192 843.236 272.554 847.376C274.964 848.943 277.597 850.131 279.921 852H254.088H249.536H245.25H233.998H199.658C198.267 850.387 196.869 848.794 195.463 847.221C193.587 844.881 191.728 842.497 189.887 840.068C188.112 837.046 186.069 834.48 184.288 831.415C183.186 829.515 182.122 827.548 181.096 825.518C180.459 824.236 179.872 822.805 179.193 821.599L179.041 821.331C176.075 814.538 173.098 807.749 170.579 800.396C168.355 793.914 166.445 787.062 164.627 780.198C162.863 773.155 161.617 766.164 160.343 758.824C159.972 756.216 159.58 753.618 159.167 751.029C158.997 748.76 158.724 746.522 158.467 744.279C158.268 742.148 158.207 739.884 157.838 737.823Z" fill="#2987F9"/>
<path d="M233.998 852C235.976 849.45 239.007 843.873 241.131 842.474C241.689 842.105 242.273 842.135 242.854 842.287C244.078 842.605 249.224 845.658 249.885 847.17C250.083 847.624 250.08 847.841 250.106 848.393C249.922 849.159 249.663 849.654 249.224 849.964C247.427 851.23 244.471 848.477 242.771 847.265L241.501 849.208C242.728 850.025 244.108 850.849 245.249 852H233.998Z" fill="#FE5A5E"/>
<path d="M249.535 852C250.107 850.738 250.68 850.079 251.608 849.936C252.309 849.828 253.132 850.215 253.663 851.058C253.835 851.331 253.959 851.665 254.088 852H249.535Z" fill="#FE5A5E"/>
<path d="M216.009 824.768C217.034 824.627 218.063 824.791 218.879 826.02C218.974 826.41 219.049 826.512 218.988 826.946C218.825 828.093 217.748 828.845 217.207 829.43C215.961 830.778 213.834 833.506 213.476 836.102C213.518 836.377 213.513 836.57 213.648 836.757C214.135 837.435 215.175 837.296 215.777 837.208C217.777 836.913 219.861 834.488 221.14 831.856C221.746 830.61 222.474 830.059 223.406 829.989C224.066 829.939 224.791 830.222 225.282 831.055C225.572 831.551 225.726 832.248 225.702 832.961C225.66 834.226 225.08 835.08 224.6 835.893C223.403 837.763 222.031 839.183 220.552 840.238C217.529 842.394 213.88 843.044 210.837 840.598C210.078 839.987 209.266 839.137 208.983 837.652C208.763 836.496 208.94 835.278 209.235 834.218C210.481 829.754 213.421 826.306 216.009 824.768Z" fill="#FE5A5E"/>
<path d="M229.919 834.157L230.027 834.13C230.593 833.994 231.189 833.951 231.748 834.19C232.31 834.431 238.662 838.491 239.07 839.095C239.376 839.549 239.427 839.952 239.462 840.632C239.301 841.307 239.103 841.658 238.733 841.959C236.613 843.681 232.934 840.352 230.873 839.028L229.583 840.891C231.372 842.207 234.841 843.513 236.17 845.342C236.205 845.77 236.232 846.219 236.135 846.628C235.996 847.209 235.755 847.642 235.423 847.879C233.158 849.493 229.222 846.066 227.145 844.653C226.755 845.415 226.364 846.226 225.901 846.852C225.162 847.852 224.111 847.917 223.225 847.641C222.642 847.458 222.221 847.173 221.879 846.287C221.819 845.852 221.798 845.602 221.868 845.157C222.214 842.966 226.345 837.565 227.474 836.342C228.247 835.505 229.107 834.871 229.919 834.157Z" fill="#FE5A5E"/>
<path d="M254.962 685.738C268.411 665.806 294.722 665.311 311.169 667.957C324.926 670.256 338.437 675.958 351.306 684.895C354.355 687.021 357.323 689.516 360.313 691.887C368.116 698.079 376.052 704.642 381.643 716.579C382.585 718.587 383.366 720.814 384.142 723.028C384.903 725.199 385.678 727.393 386.211 729.78C387.728 736.588 387.404 744.9 387.011 752.063C386.506 761.282 383.624 768.966 380.564 776.13C379.725 778.094 378.902 780.286 377.881 781.964C377.867 781.988 377.849 782.001 377.833 782.019C376.297 783.846 375.777 787.668 373.6 788.227C372.808 788.431 371.685 788.083 371.049 787.176C370.788 786.805 370.637 786.363 370.629 785.759C370.615 784.718 371.566 783.59 371.949 782.884L372.001 782.445C371.854 782.648 371.709 782.849 371.569 783.063C370.828 784.196 370.066 784.533 369.112 784.694C362.971 786.928 356.192 790.175 349.955 791.288C343.844 792.378 338.101 791.399 331.953 791.288C329.573 791.244 327.193 791.016 324.824 790.608C323.398 790.369 321.955 789.941 320.522 789.892C319.533 789.975 318.175 789.246 317.167 789.011C309.955 791.288 305.473 791.521 303.955 786C291.966 784.446 282.709 781.752 274.455 765.5C268.003 764.709 267.955 758.193 262.932 750.207C262.065 748.828 260.886 747.958 260.228 746.261C259.372 744.467 258.162 742.903 257.194 741.26C252.711 733.638 249.018 726.827 247.452 715.767C247.061 712.998 246.385 707.251 247.266 704.653C248.109 703.902 249.579 704.54 250.552 704.241C250.591 704.228 250.632 704.214 250.671 704.201C248.554 704.148 246.4 704.447 244.298 703.929C244.447 706.813 244.536 709.78 244.794 712.637C244.934 714.191 245.41 716.312 245.398 717.816C245.395 718.173 245.24 718.589 245.113 718.84C244.772 719.518 244.048 719.786 243.573 720.002C242.651 720.041 241.658 719.847 240.967 718.658C239.563 716.244 239.508 705.973 239.568 702.585C239.586 701.564 239.639 700.703 240.108 700.018C241.734 697.646 244.794 699.543 246.715 699.733L246.895 699.749C247.558 698.847 248.255 697.98 248.857 696.953C249.616 695.659 250.262 694.13 250.953 692.723C252.179 690.202 253.519 687.866 254.962 685.738Z" fill="#84ECAB" fill-opacity="0.91"/>
<path d="M254.962 685.738C268.411 665.806 294.722 665.311 311.169 667.957C324.926 670.256 338.437 675.958 351.306 684.895C354.355 687.021 357.323 689.516 360.313 691.887C368.116 698.079 376.052 704.642 381.643 716.579C382.585 718.587 383.366 720.814 384.142 723.028C384.903 725.199 385.678 727.393 386.211 729.78C387.728 736.588 387.404 744.9 387.011 752.063C386.506 761.282 383.624 768.966 380.564 776.13C379.725 778.094 378.902 780.286 377.881 781.964C377.867 781.988 377.849 782.001 377.833 782.019C376.297 783.846 375.777 787.668 373.6 788.227C372.808 788.431 371.685 788.083 371.049 787.176C370.788 786.805 370.637 786.363 370.629 785.759C370.615 784.718 371.566 783.59 371.949 782.884L372.001 782.445C374.652 777.657 377.693 770.947 379.489 765.058C382.299 755.843 383.261 742.179 381.543 732.063C381.107 729.492 380.331 727.245 379.541 724.979C376.292 715.645 371.818 708.833 366.389 703.652C362.972 700.389 359.436 697.579 355.897 694.768C351.005 690.881 346.128 687.167 341.019 684.236C337.97 682.488 334.864 681.165 331.769 679.707C328.39 678.115 325.027 676.463 321.58 675.387C313.542 672.879 305.279 671.914 297.126 671.905C288.455 671.895 279.744 673.09 271.414 677.57C264.713 681.174 257.535 687.819 253.482 698.32C252.959 699.672 252.723 701.22 252.268 702.629C251.957 703.597 251.381 703.912 250.805 704.147L250.671 704.201C248.554 704.148 246.4 704.447 244.298 703.929C244.447 706.813 244.536 709.78 244.794 712.637C244.934 714.191 245.41 716.312 245.398 717.816C245.395 718.173 245.24 718.589 245.113 718.84C244.772 719.518 244.048 719.786 243.573 720.002C242.651 720.041 241.658 719.847 240.967 718.658C239.563 716.244 239.508 705.973 239.568 702.585C239.586 701.564 239.639 700.703 240.108 700.018C241.734 697.646 244.794 699.543 246.715 699.733L246.895 699.749C247.558 698.847 248.255 697.98 248.857 696.953C249.616 695.659 250.262 694.13 250.953 692.723C252.179 690.202 253.519 687.866 254.962 685.738Z" fill="#FDFDFD"/>
<path d="M281.958 683.009C284.36 682.567 287.241 683.134 289.337 685.405C289.761 685.865 290.32 686.593 290.376 687.554C290.407 688.096 290.265 688.604 290.088 689.024C288.123 693.675 278.976 697.124 275.563 698.062C273.304 698.518 270.173 699.376 268.189 696.997C267.754 696.476 267.254 695.697 267.217 694.696C267.193 694.052 267.371 693.476 267.594 692.998C268.136 691.84 268.979 690.94 269.692 690.153C273.393 686.07 277.649 683.863 281.958 683.009Z" fill="#FDFDFD"/>
<path d="M244.299 703.929C246.401 704.447 248.555 704.148 250.672 704.201C250.633 704.214 250.592 704.228 250.553 704.241C249.58 704.54 248.11 703.902 247.267 704.653C246.386 707.251 247.062 712.998 247.454 715.767C249.019 726.827 252.713 733.638 257.195 741.26C258.163 742.903 259.373 744.467 260.229 746.261C260.887 747.958 262.066 748.828 262.933 750.207C269.455 758.5 271.955 761.5 277.955 766.5C287.955 774 285.955 774.5 298.455 781C309.955 788 306.455 786 317.168 789.011C318.176 789.246 319.535 789.975 320.524 789.892C321.956 789.941 323.399 790.369 324.825 790.608C327.195 791.016 329.574 791.244 331.954 791.288C338.102 791.399 344.344 792.378 350.455 791.288C356.692 790.175 362.972 786.928 369.114 784.694C370.067 784.533 370.829 784.196 371.571 783.063C371.71 782.849 371.855 782.648 372.002 782.445L371.95 782.884C371.567 783.59 370.616 784.718 370.631 785.759C370.638 786.363 370.789 786.805 371.05 787.176C371.686 788.083 372.809 788.431 373.601 788.227C375.779 787.668 376.298 783.846 377.834 782.019C377.644 782.617 377.494 782.847 377.555 783.536L377.804 784.065C377.786 784.133 377.774 784.207 377.751 784.267C375.234 790.644 369.188 795.804 365.116 797.991C362.57 799.358 359.912 800.639 357.267 801.197C348.819 802.98 340.018 801.753 331.591 800.178C320.561 798.116 309.555 795.231 298.99 789.054C291.488 784.71 284.163 779.457 277.067 773.33C273.585 770.261 270.18 766.75 266.754 763.48C259.903 756.941 253.722 748.871 248.876 737.986C247.823 735.619 246.782 733.203 245.963 730.554C244.929 727.213 244.189 723.642 243.574 720.002C244.049 719.786 244.773 719.518 245.114 718.84C245.241 718.589 245.396 718.173 245.399 717.816C245.411 716.312 244.935 714.191 244.795 712.637C244.537 709.78 244.448 706.813 244.299 703.929Z" fill="#CDEB97"/>
<path d="M60.7178 647.508C55.7605 650.277 50.0644 654.525 45.9136 659.48C33.4781 674.327 28.3027 697.283 28.3027 716.246C28.3027 722.905 30.3418 738.129 38.0381 741.192C41.1761 742.44 44.6945 742.834 45.359 738.859C45.8054 736.199 42.7908 731.814 41.9488 729.303C41.4551 727.826 40.5708 725.363 40.5708 725.363C40.5708 725.363 40.6909 726.081 40.7517 726.441C41.0848 728.43 42.4949 730.627 43.3656 732.445C45.4943 736.891 47.4894 738.839 52.3232 737.236C56.9474 735.702 51.1008 720.222 50.5141 716.727C49.0787 708.151 48.9941 699.298 51.258 690.734C54.4045 678.83 53.3208 684.648 53.9497 681.829C54.2439 680.514 55.397 678.051 55.397 678.051C55.397 678.051 54.8762 679.116 54.6734 679.671C53.9818 681.562 53.4645 683.166 52.8947 685.094C50.1996 694.225 49.7144 696.423 49.7144 702.197C49.7144 717.867 54.6598 731.289 56.3827 746.713C56.7073 749.616 58.0684 769.676 56.6617 771.773C55.5187 773.481 51.652 775.139 49.9731 776.811C46.4056 780.361 45.6228 786.988 48.164 791.202C49.3729 793.206 53.7891 794.353 55.9397 794.62C60.9207 795.239 77.7673 794.965 82.0939 792.413C86.0384 790.085 88.0048 788.371 88.4579 784.536C89.4453 776.182 89.7513 761.492 89.7513 753.066C89.7513 751.201 89.5501 746.375 88.8485 745.359C88.0707 744.233 90.2349 747.159 89.3438 745.387C89.3083 745.318 97.5694 746.8 88.512 744.496C86.9531 744.1 84.9599 742.275 85.0309 742.452C85.3268 743.19 88.3666 745.302 89.376 745.399C103.183 746.73 89.6876 745.461 92.0056 745.75C95.6086 746.198 98.7529 746.067 102.045 744.61C103.298 744.057 105.215 743.436 106.204 742.452C106.385 742.272 102.329 745.199 102.329 745.199C102.329 745.199 106.236 742.24 106.023 742.452C104.877 743.592 102.823 744.018 101.866 744.97C101.027 745.805 101.866 751.356 101.866 752.706C101.866 762.237 101.521 778.354 104.767 787.049C108.72 797.636 131.278 797.576 140.308 793.31C141.831 792.592 144.428 790.834 145.27 789.389C152.881 776.317 137.627 775.304 136.793 773.518C135.51 770.773 135.496 763.734 135.496 760.801C135.496 752.185 134.673 742.183 137.665 733.998C142.031 722.053 144.237 709.376 142.115 696.708C141.397 692.422 140.464 687.925 139.092 683.834C138.649 682.514 137.894 680.672 137.665 679.311C137.655 679.25 137.228 677.409 137.123 677.511C136.33 678.3 139.552 684.759 139.811 685.915C141.392 692.989 142.144 695.217 142.807 702.466C143.384 708.784 141.133 719.849 139.473 725.901C138.54 729.309 137.013 733.341 140.546 735.979C144.851 739.19 147.708 731.614 148.513 728.815C148.963 727.245 149.639 725.528 149.639 725.528C149.639 725.528 149.949 724.954 149.78 725.543C149.249 727.39 148.432 729.102 147.971 730.939C146.948 735.01 145.997 741.695 153.389 740.285C163.137 738.427 164.807 729.087 165.209 720.303C166.591 690.213 152.708 663.462 130.794 647.11C129.491 646.137 117.907 651.174 115.975 651.174C106.956 651.174 106.747 653.574 100.809 654.111C97.7215 654.39 91.4877 655.566 89.6346 655.631C83.8607 655.835 87.7207 655.687 76.3859 652.689C74.1508 652.099 62.7754 646.358 60.7178 647.508Z" fill="#CEEC97" stroke="#A4C95F" stroke-width="4" stroke-miterlimit="10" stroke-linecap="round" stroke-linejoin="round"/>
<path d="M154.479 577.684C158.171 577.007 160.422 578.316 163.784 579.754C178.308 585.963 177.576 605.404 172.008 617.528C168.786 624.544 160.587 629.984 152.881 627.767" fill="#BBBBBB"/>
<path d="M154.479 577.684C158.171 577.007 160.422 578.316 163.784 579.754C178.308 585.963 177.576 605.404 172.008 617.528C168.786 624.544 160.587 629.984 152.881 627.767" stroke="#858585" stroke-width="4" stroke-miterlimit="10" stroke-linecap="round" stroke-linejoin="round"/>
<path d="M38.1174 576.723C34.4265 576.046 32.1761 577.355 28.8132 578.793C14.288 585.002 15.0201 604.443 20.5877 616.567C23.8103 623.583 32.0104 629.023 39.7152 626.806" fill="#BBBBBB"/>
<path d="M38.1174 576.723C34.4265 576.046 32.1761 577.355 28.8132 578.793C14.288 585.002 15.0201 604.443 20.5877 616.567C23.8103 623.583 32.0104 629.023 39.7152 626.806" stroke="#858585" stroke-width="4" stroke-miterlimit="10" stroke-linecap="round" stroke-linejoin="round"/>
<path d="M162.373 579.976C162.564 579.597 164.432 583.992 164.671 584.655C165.922 588.144 166.706 591.853 167.077 595.535C167.954 604.28 165.8 620.742 159.201 627.307" fill="#BBBBBB"/>
<path d="M162.373 579.976C162.564 579.597 164.432 583.992 164.671 584.655C165.922 588.144 166.706 591.853 167.077 595.535C167.954 604.28 165.8 620.742 159.201 627.307" stroke="#858585" stroke-width="4" stroke-miterlimit="10" stroke-linecap="round" stroke-linejoin="round"/>
<path d="M29.1661 579.23C28.975 578.851 27.1068 583.246 26.8684 583.909C25.6155 587.398 24.8327 591.107 24.4624 594.789C23.5832 603.534 25.7373 619.996 32.3363 626.561" fill="#BBBBBB"/>
<path d="M29.1661 579.23C28.975 578.851 27.1068 583.246 26.8684 583.909C25.6155 587.398 24.8327 591.107 24.4624 594.789C23.5832 603.534 25.7373 619.996 32.3363 626.561" stroke="#858585" stroke-width="4" stroke-miterlimit="10" stroke-linecap="round" stroke-linejoin="round"/>
<path d="M102.867 542.308C133.836 545.43 157.961 570.253 157.961 600.411C157.961 632.684 130.482 656.398 96.4062 656.398C62.3292 656.398 34.5586 632.684 34.5586 600.411C34.5586 569.695 59.5851 544.514 91.3796 542.157" fill="#CEEC97"/>
<path d="M102.867 542.308C133.836 545.43 157.961 570.253 157.961 600.411C157.961 632.684 130.482 656.398 96.4062 656.398C62.3292 656.398 34.5586 632.684 34.5586 600.411C34.5586 569.695 59.5851 544.514 91.3796 542.157" stroke="#A4C95F" stroke-width="4" stroke-miterlimit="10" stroke-linejoin="round"/>
<path d="M90.4805 542.16C93.7132 542.16 90.9404 535.051 92.3251 532.296C93.4849 529.987 97.6171 528.862 99.2419 531.287C101.398 534.504 100.168 538.707 101.501 542.022C101.597 542.26 102.189 542.06 102.331 542.343" fill="#CEEC97"/>
<path d="M90.4805 542.16C93.7132 542.16 90.9404 535.051 92.3251 532.296C93.4849 529.987 97.6171 528.862 99.2419 531.287C101.398 534.504 100.168 538.707 101.501 542.022C101.597 542.26 102.189 542.06 102.331 542.343" stroke="#A4C95F" stroke-width="4" stroke-miterlimit="10" stroke-linecap="round" stroke-linejoin="round"/>
<path d="M86.9004 522.014C86.9004 516.802 91.0461 512.577 96.1606 512.577C101.275 512.577 105.421 516.802 105.421 522.014C105.421 527.225 101.275 531.45 96.1606 531.45C91.0461 531.45 86.9004 527.225 86.9004 522.014Z" fill="#CEEC97" stroke="#A4C95F" stroke-width="4" stroke-miterlimit="10" stroke-linejoin="round"/>
<path d="M117.103 595.296C123.011 587.916 132.088 585.33 137.377 589.521C142.666 593.711 142.164 603.092 136.256 610.472C130.349 617.853 121.271 620.439 115.982 616.248C110.694 612.058 111.196 602.677 117.103 595.296Z" fill="black" stroke="black" stroke-width="4" stroke-miterlimit="10" stroke-linejoin="round"/>
<path d="M75.9911 595.547C70.0836 588.167 61.006 585.581 55.7173 589.771C50.4287 593.962 50.9291 603.342 56.8383 610.723C62.7458 618.104 71.8234 620.69 77.1121 616.499C82.4007 612.309 81.8986 602.928 75.9911 595.547Z" fill="black" stroke="black" stroke-width="4" stroke-miterlimit="10" stroke-linejoin="round"/>
<path d="M83.1055 634.186C83.1055 634.186 92.7698 644.922 108.113 636.863" stroke="#A4C95F" stroke-width="4" stroke-miterlimit="10" stroke-linecap="round" stroke-linejoin="round"/>
<path d="M55.5556 599.837C54.4059 597.041 55.1735 594.081 57.2717 593.227C59.3699 592.372 62.0024 593.946 63.1538 596.742C64.3035 599.539 63.5359 602.498 61.4377 603.352C59.3395 604.207 56.707 602.633 55.5556 599.837Z" fill="#E0E0E0"/>
<path d="M121.17 595.578C122.805 593.032 125.678 591.952 127.588 593.166C129.499 594.38 129.722 597.428 128.089 599.974C126.454 602.521 123.579 603.601 121.669 602.387C119.758 601.172 119.535 598.124 121.17 595.578Z" fill="#E0E0E0"/>
<path d="M92.9945 619.334C91.1827 619.334 89.8594 621.105 89.8594 623.016C89.8594 623.529 89.9446 624.02 90.0954 624.486C90.1693 624.715 90.2576 624.937 90.3604 625.154C91.7859 628.171 95.761 630.01 95.761 630.01C95.761 630.01 99.7361 628.171 101.162 625.154C101.264 624.938 101.353 624.715 101.427 624.486C101.577 624.02 101.663 623.529 101.663 623.016C101.663 621.106 100.339 619.334 98.5276 619.334C97.2915 619.334 96.3696 619.964 95.7912 621.055C95.7885 621.061 95.7842 621.065 95.7789 621.068C95.7735 621.071 95.7674 621.073 95.761 621.073C95.7547 621.073 95.7486 621.071 95.7432 621.068C95.7379 621.065 95.7336 621.061 95.7309 621.055C95.1525 619.964 94.2312 619.334 92.9945 619.334Z" fill="#A4C95F"/>
</g>
<defs>
<clipPath id="clip0_421_423">
<rect width="393" height="852" fill="white"/>
</clipPath>
<clipPath id="clip1_421_423">
<rect width="393" height="852" fill="white"/>
</clipPath>
<clipPath id="clip2_421_423">
<rect width="394" height="788" fill="white" transform="translate(-1 32)"/>
</clipPath>
</defs>
</svg>
