<svg width="393" height="852" viewBox="0 0 393 852" fill="none" xmlns="http://www.w3.org/2000/svg">
<g clip-path="url(#clip0_421_295)">
<rect width="393" height="852" fill="#FDFFF3"/>
<g clip-path="url(#clip1_421_295)">
<path d="M0 0H55.0491H349.14H392.935V1.06446V7.85743V42.7834V45.7195V94.4191V424.34V460.364V477.602V512.591V518.002V606.938V684.707V685.201V697.261V737.061V746.336V772.869V785.327V851.436C392.568 851.695 392.168 851.91 391.726 852.007C388.091 852.81 370.643 852.169 365.484 852.17L293.574 852.166L5.61705 852.163C3.83681 852.161 1.54097 852.451 0 851.436V672.675V627.643V621.502V589.507V544.942V514.492V482.137V480.855V470.085V466.192V459.68V444.687V111.746V76.4753V75.3691V64.1317V63.1475V0Z" fill="url(#paint0_linear_421_295)"/>
<path d="M378.323 457.675L380.447 458.547C383.134 458.92 390.833 461.471 392.935 460.364V477.602V512.591V518.002V606.938V684.707V685.201V697.261V737.061V746.336V772.869V785.327V851.436C392.568 851.694 392.168 851.909 391.726 852.006C388.091 852.81 370.643 852.168 365.484 852.169L293.574 852.165L5.61705 852.162C3.83681 852.16 1.54097 852.45 0 851.436V672.675V627.643V621.502V589.507V544.942V514.492V482.137V480.855C0.0553756 480.849 0.111045 480.845 0.166128 480.836C1.32644 480.659 1.81283 479.807 2.77694 479.451C4.64521 478.765 8.61569 480.366 10.1736 481.438C15.6706 485.219 20.0651 490.66 21.2343 497.384C21.5494 499.196 21.3081 503.11 22.2853 504.564C22.8007 505.332 23.9467 506.187 24.623 506.862C27.6882 509.923 29.2713 513.283 29.7543 517.671C31.7832 517.036 33.5244 515.88 35.4508 515.014C40.8884 512.572 46.1262 513.576 51.2151 516.219C54.2234 517.781 56.5885 519.244 57.9333 522.473C59.7801 523.207 61.941 521.59 63.815 521.856C65.2029 522.053 66.3941 522.856 67.7912 523.043C79.2429 524.577 91.9123 524.203 103.467 524.088C108.477 524.038 113.491 524.323 118.502 524.296C126.54 524.253 134.638 523.828 142.681 523.632C147.779 523.508 152.863 524.098 157.967 523.94C165.941 523.694 173.9 522.617 181.884 522.681C187.592 522.726 193.268 523.368 198.951 523.45C205.124 523.539 211.315 522.926 217.487 523.228C222.527 523.475 227.572 524.836 232.6 524.77C237.357 524.707 242.312 524.663 247.035 524.096C250.245 523.711 253.572 522.734 256.79 522.652C259.857 522.573 262.862 523.802 265.914 523.773C269.481 523.739 273.383 521.978 276.877 522.266C278.27 522.381 279.553 523.202 280.986 523.398C283.048 521.515 284.964 519.766 287.387 518.36C289.894 516.906 296.827 517.577 299.712 518.388C300.835 518.704 304.65 520.599 305.201 521.538L304.734 521.699C305.717 523.148 310.559 527.566 312.171 528.529C313.671 528.16 318.273 523.151 321.991 522.031C326.171 520.772 330.018 523.032 333.62 522.303C333.679 522.291 333.737 522.275 333.796 522.261C334.851 517.796 336.66 513.574 340.069 510.381C343.921 506.772 350.195 505.219 355.327 506.688C357.268 507.243 359.404 508.385 361.421 508.427C361.494 508.429 361.567 508.426 361.64 508.425C361.899 508.234 361.819 508.323 362.003 508.076C364.388 504.878 366.93 503.408 369.852 500.91L370.06 500.73C368.255 494.557 368.384 488.088 368.429 481.727C369.619 479.587 369.998 473.49 370.926 470.571C372.466 465.723 375.655 461.89 378.323 457.675Z" fill="#15504A"/>
<path d="M378.323 457.675L380.447 458.547C383.134 458.92 390.833 461.471 392.935 460.364V477.602V512.591V518.002C388.914 522.542 384.205 526.49 380.062 530.933C370.462 541.232 363.633 554.967 360.725 568.728C360.652 568.744 360.579 568.764 360.506 568.777C357.716 569.287 353.379 567.284 350.477 566.87C346.21 566.261 341.656 566.231 337.348 566.29C325.562 566.45 313.719 568.173 306.272 578.3C301.917 584.223 300.808 590.982 301.03 598.187C300.958 598.203 300.886 598.222 300.813 598.235C299.108 598.533 297.02 597.523 295.361 597.101C290.707 595.914 284.177 595.795 281.033 600.041C278.642 603.27 279.162 606.143 278.298 609.681C278.228 609.618 278.157 609.555 278.087 609.491C276.339 607.884 275.198 605.722 273.662 603.926C270.655 600.411 264.968 598.269 260.461 598.426C256.831 598.552 253.593 600.044 251.149 602.737C248.868 605.252 247.812 608.011 246.797 611.19C246.704 611.219 246.612 611.25 246.519 611.278C243.949 612.043 240.877 611.32 238.204 611.479C230.023 611.966 222.834 617.762 218.908 624.654C216.627 628.657 215.449 632.994 214.282 637.413C214.225 637.415 214.168 637.42 214.11 637.421C212.814 637.443 211.464 636.827 210.219 636.485C204.32 634.861 201.173 636.237 196.903 640.422C196.22 641.092 195.41 642.385 194.482 642.63C194.404 642.625 194.326 642.621 194.248 642.614C192.58 642.449 191.017 641.615 189.439 641.082C185.508 639.754 181.289 638.995 177.133 639.227C174.018 639.4 163.296 642.572 162.442 642.414C161.161 638.693 159.092 631.647 155.3 629.736C151.642 627.89 145.821 628.169 142.956 626.777C142.862 626.686 142.767 626.596 142.674 626.504C140.776 624.618 140.477 621.873 137.227 621.654C134.893 621.497 132.621 623.809 130.381 623.442C128.157 623.665 125.741 621.977 123.614 621.366C122.375 621.01 121.091 621.105 119.824 620.982C119.689 620.969 119.554 620.96 119.419 620.949C116.954 615.743 114.595 610.596 108.731 608.513C105.604 607.402 102.484 607.472 99.2291 607.569C99.577 601.771 97.9219 597.568 94.118 593.242C88.8803 587.286 80.6559 583.713 72.8144 583.271C69.7866 583.1 66.918 583.571 63.9245 583.621C63.8156 583.556 63.705 583.493 63.5977 583.425C61.173 581.884 60.5199 580.096 56.9447 578.465C51.1849 575.835 43.6943 578.766 40.25 577.096C37.6957 576.247 35.0829 573.817 32.1992 572.754L31.5495 571.598C26.7992 587.57 14.3464 611.81 0.880554 621.465L0 621.502V589.507V544.942V514.492V482.137V480.855C0.0553756 480.849 0.111045 480.845 0.166128 480.836C1.32644 480.659 1.81283 479.807 2.77694 479.451C4.64521 478.765 8.61569 480.366 10.1736 481.438C15.6706 485.219 20.0651 490.66 21.2343 497.384C21.5494 499.196 21.3081 503.11 22.2853 504.564C22.8007 505.332 23.9467 506.187 24.623 506.862C27.6882 509.923 29.2713 513.283 29.7543 517.671C31.7832 517.036 33.5244 515.88 35.4508 515.014C40.8884 512.572 46.1262 513.576 51.2151 516.219C54.2234 517.781 56.5885 519.244 57.9333 522.473C59.7801 523.207 61.941 521.59 63.815 521.856C65.2029 522.053 66.3941 522.856 67.7912 523.043C79.2429 524.577 91.9123 524.203 103.467 524.088C108.477 524.038 113.491 524.323 118.502 524.296C126.54 524.253 134.638 523.828 142.681 523.632C147.779 523.508 152.863 524.098 157.967 523.94C165.941 523.694 173.9 522.617 181.884 522.681C187.592 522.726 193.268 523.368 198.951 523.45C205.124 523.539 211.315 522.926 217.487 523.228C222.527 523.475 227.572 524.836 232.6 524.77C237.357 524.707 242.312 524.663 247.035 524.096C250.245 523.711 253.572 522.734 256.79 522.652C259.857 522.573 262.862 523.802 265.914 523.773C269.481 523.739 273.383 521.978 276.877 522.266C278.27 522.381 279.553 523.202 280.986 523.398C283.048 521.515 284.964 519.766 287.387 518.36C289.894 516.906 296.827 517.577 299.712 518.388C300.835 518.704 304.65 520.599 305.201 521.538L304.734 521.699C305.717 523.148 310.559 527.566 312.171 528.529C313.671 528.16 318.273 523.151 321.991 522.031C326.171 520.772 330.018 523.032 333.62 522.303C333.679 522.291 333.737 522.275 333.796 522.261C334.851 517.796 336.66 513.574 340.069 510.381C343.921 506.772 350.195 505.219 355.327 506.688C357.268 507.243 359.404 508.385 361.421 508.427C361.494 508.429 361.567 508.426 361.64 508.425C361.899 508.234 361.819 508.323 362.003 508.076C364.388 504.878 366.93 503.408 369.852 500.91L370.06 500.73C368.255 494.557 368.384 488.088 368.429 481.727C369.619 479.587 369.998 473.49 370.926 470.571C372.466 465.723 375.655 461.89 378.323 457.675Z" fill="#53A38A"/>
<path d="M0 480.855C0.0553756 480.849 0.111045 480.845 0.166128 480.836C1.32644 480.659 1.81283 479.807 2.77694 479.452C4.64521 478.766 8.61569 480.366 10.1736 481.438C15.6706 485.219 20.0651 490.66 21.2343 497.384C21.5494 499.196 21.3081 503.11 22.2853 504.565C22.8007 505.332 23.9467 506.187 24.623 506.862C27.6882 509.924 29.2713 513.283 29.7543 517.671C31.7832 517.036 33.5244 515.88 35.4508 515.015C40.8884 512.572 46.1262 513.576 51.2151 516.219C54.2234 517.781 56.5885 519.244 57.9333 522.473C59.7801 523.207 61.941 521.59 63.815 521.856C65.2029 522.053 66.3941 522.856 67.7912 523.043C79.2429 524.577 91.9123 524.203 103.467 524.088C108.477 524.038 113.491 524.323 118.502 524.296C126.54 524.253 134.638 523.828 142.681 523.632C147.779 523.508 152.863 524.098 157.967 523.94C165.941 523.694 173.9 522.617 181.884 522.681C187.592 522.726 193.268 523.368 198.951 523.45C205.124 523.539 211.315 522.926 217.487 523.228C222.527 523.475 227.572 524.836 232.6 524.77C237.357 524.707 242.312 524.663 247.035 524.096C250.245 523.711 253.572 522.734 256.79 522.652C259.857 522.573 262.862 523.802 265.914 523.773C269.481 523.739 273.383 521.978 276.877 522.266C278.27 522.381 279.553 523.202 280.986 523.398C283.048 521.515 284.964 519.766 287.387 518.36C289.894 516.906 296.827 517.577 299.712 518.388C300.835 518.704 304.65 520.6 305.201 521.538L304.734 521.699C303.219 521.006 301.704 520.257 300.15 519.655C296.106 518.09 291.028 517.807 287.045 519.634C282.25 521.836 280.246 526.362 278.585 531.021C278.245 531.338 273.833 531.968 272.828 532.348C269.99 533.42 267.86 537.593 266.646 540.259C263.02 539.748 259.761 539.126 256.07 539.546C251.002 540.124 246.276 542.553 243.118 546.602C239.04 551.832 238.795 557.637 239.63 563.886C236.944 564.244 230.01 559.654 222.813 561.221C217.5 562.378 213.571 566.207 211.225 570.936C210.549 572.299 210.087 573.951 209.265 575.21C209.196 575.315 209.126 575.417 209.056 575.521C206.742 574.957 204.781 573.879 202.329 573.631C200.014 573.397 197.564 573.496 195.717 575.083C193.152 577.287 192.646 580.54 192.394 583.708C188.808 585.642 185.337 586.121 182.143 589.063C181.469 589.684 180.979 590.164 180.123 590.525C179.181 588.842 178.787 586.69 177.857 584.919C176.769 582.847 175.083 580.32 172.719 579.656C167.99 578.327 166.206 583.306 163.002 585.06C162.945 585.091 162.886 585.119 162.828 585.148C160.892 584.916 157.14 581.811 154.409 581.279C151.323 580.679 147.891 583.26 145.484 584.892C145.198 584.835 144.963 584.768 144.722 584.598C144.504 584.445 144.293 584.281 144.076 584.127C142.681 583.139 140.79 582.103 139.026 582.414C138.956 582.427 138.885 582.441 138.815 582.454C136.461 582.88 134.7 584.689 132.439 585.046C132.368 585.057 132.297 585.063 132.225 585.072C132.545 583.141 132.828 581.209 132.972 579.256C133.402 573.462 132.08 567.564 128.162 563.119C125.05 559.589 120.018 557.272 115.289 557.581C113.943 557.669 112.358 558.229 111.054 558.114C110.938 558.104 110.823 558.09 110.708 558.078C108.15 555.037 105.871 552.495 102.131 550.874C96.089 548.255 87.8572 549.504 82.3977 553.139C80.7006 554.268 79.1338 556.299 77.2406 556.991C77.1826 557.012 77.1231 557.029 77.0644 557.049C77.6943 554.1 77.7176 550.324 76.8295 547.433C75.3374 542.576 70.1605 540.113 65.4589 539.285C64.1334 539.051 62.463 539.202 61.2919 538.532C61.2423 538.504 61.1951 538.472 61.1466 538.441C61.2791 536.258 61.3898 534.121 61.0556 531.948C60.2162 526.49 57.3541 521.324 52.8511 518.061C48.4776 514.892 41.1455 513.264 35.9934 515.596C33.9958 516.5 31.6362 518.32 29.4997 518.633C29.4384 518.642 29.3766 518.647 29.315 518.654C27.8401 512.127 25.8004 509.255 21.2463 504.562C21.0349 502.049 20.7884 499.456 20.1649 497.009C18.6736 491.156 15.2818 485.263 9.93927 482.148C8.39113 481.246 4.57944 479.6 2.88688 480.527C1.93961 481.046 1.23993 481.837 0.159583 482.104C0.106817 482.117 0.0531943 482.126 0 482.137V480.855Z" fill="url(#paint1_linear_421_295)"/>
<path d="M16.6164 570.397C16.7211 570.364 16.8271 570.335 16.9303 570.297C20.9598 568.832 31.4558 548.772 34.0823 548.293C35.9513 551.398 33.4312 564.442 32.5574 567.994C32.2659 569.179 31.9847 570.458 31.5495 571.598C26.7992 587.571 14.3464 611.81 0.880554 621.465L0 621.502V589.507L0.786917 589.328C3.57897 586.15 15.5023 573.116 16.6164 570.397Z" fill="#15504A"/>
<path d="M378.324 457.675L380.447 458.547C383.134 458.92 390.833 461.471 392.935 460.364V477.602C389.459 482.722 386.539 487.938 384.221 493.688C383.275 496.034 382.571 499.7 381.281 501.755C380.76 502.104 380.561 502.399 379.92 502.295C378.165 502.013 376.871 501.48 375.834 500.047C375.062 501.591 373.563 505.064 372.084 505.925C370.897 504.549 370.44 502.478 370.06 500.73C368.255 494.557 368.384 488.088 368.429 481.727C369.619 479.587 369.998 473.49 370.926 470.571C372.466 465.723 375.655 461.89 378.324 457.675Z" fill="#1C6E38"/>
<path d="M380.447 458.548C383.134 458.92 390.834 461.471 392.935 460.364V477.602C389.459 482.722 386.539 487.938 384.221 493.688C383.275 496.034 382.571 499.701 381.281 501.755C380.76 502.104 380.561 502.399 379.92 502.295C378.165 502.013 376.871 501.48 375.834 500.048C377.238 498.665 378.669 495.198 379.545 493.34C385.236 481.295 384.817 470.774 380.447 458.548Z" fill="url(#paint2_linear_421_295)"/>
<path d="M0 482.137C0.0531943 482.126 0.106817 482.117 0.159583 482.104C1.23993 481.837 1.93961 481.046 2.88688 480.527C4.57944 479.6 8.39113 481.246 9.93927 482.148C15.2818 485.263 18.6736 491.156 20.1649 497.009C20.7884 499.455 21.0349 502.049 21.2463 504.561C20.7082 509.037 18.9669 519.535 15.0692 522.514C15.0192 522.552 14.9626 522.581 14.9093 522.614C12.6132 523.192 8.61071 521.124 6.63722 519.94C4.19185 518.475 1.80734 516.715 0 514.492V482.137Z" fill="#1C6346"/>
<path d="M0 544.942C6.50504 551.053 9.06892 556.004 9.35486 564.956C10.0005 565.581 10.8011 565.689 11.5298 566.184C13.131 567.27 14.8178 568.842 16.0989 570.292L16.6164 570.397C15.5023 573.116 3.57897 586.15 0.786917 589.328L0 589.507V544.942Z" fill="#338A70"/>
<path d="M381.28 501.755C382.57 499.701 383.274 496.034 384.22 493.688C386.538 487.938 389.458 482.722 392.934 477.602V512.591C392.695 512.963 392.436 513.323 392.124 513.639C389.889 515.901 383.723 521.507 380.602 521.533C379.216 515.245 380.29 508.032 381.28 501.755Z" fill="#1C6E38"/>
<path d="M284.487 546.412C285.7 546.598 286.54 546.73 287.497 547.542C287.822 547.818 287.718 548.028 287.742 548.433L286.697 549.101C286.387 549.231 286.079 549.337 285.742 549.37C284.821 549.46 284.146 549.29 283.459 548.716C283.388 547.543 283.789 547.305 284.487 546.412Z" fill="#92E5BE"/>
<path d="M392.935 518.002V606.938C392.13 606.844 379.557 597.851 377.628 596.752C375.66 595.632 372.082 594.466 370.618 592.848C370.11 598.254 369.851 603.574 369.999 609.012C369.926 609.023 369.854 609.035 369.782 609.045C368.832 609.169 368.231 608.996 367.344 608.7L367.62 608.878C369.208 609.919 369.387 611.081 369.731 612.842C370.466 616.606 371.347 621.316 371.26 625.126C369.776 626.746 367.87 627.833 366.131 629.152C362.246 632.086 359.703 636.462 359.078 641.293C357.438 640.916 355.618 639.019 354.062 638.171C351.686 636.876 342.568 633.376 340.34 634.732C340.13 634.859 339.935 635.013 339.74 635.162C338.113 634.243 336.497 632.704 335.883 630.905C335.997 629.759 336.01 629.556 335.507 628.529L334.668 628.138C333.165 628.814 332.982 631.186 332.131 631.503C330.745 632.018 329.935 632.991 329.374 634.339C328.545 636.338 329.165 639.598 328.023 641.201C325.378 641.859 322.01 642.201 320.494 644.732C319.284 646.753 318.271 649.181 316.56 650.817L315.714 650.973C315.193 649.408 314.815 647.413 313.915 646.042C312.244 643.526 311.322 639.504 310.286 636.628C309.04 638.399 307.134 640.008 306.134 641.888C305 644.02 304.672 647.636 303.047 649.344C297.881 671.323 295.693 694.003 304.402 715.552C304.35 715.57 304.298 715.592 304.245 715.608C304.157 715.634 304.066 715.651 303.978 715.676C302.126 716.194 298.643 714.309 296.8 713.695C293.968 712.752 283.353 709.718 280.618 711.089C277.497 710.119 275.422 704.095 272.322 703.506C272.452 705.698 273.539 707.309 274.803 709.037C271.746 709.82 251.073 709.063 246.734 708.687C244.41 708.486 242.283 708.399 240.683 706.5L239.57 706.354C236.354 707.596 233.616 708.853 230.977 711.1C230.641 711.386 230.397 711.566 229.97 711.714C224.827 709.717 219.448 708.239 214.12 706.827C212.199 706.319 210.109 706.244 208.3 705.482C206.93 706.223 204.182 706.965 202.647 706.714C201.957 708.021 200.598 709.762 199.435 710.657C198.825 710.43 198.235 710.182 197.641 709.917C195.541 708.98 195.684 706.807 194.146 705.729C193.258 705.108 191.877 705.725 190.844 705.937C188.034 704.2 183.564 702.568 181.558 700.099C181.31 700.481 181.055 700.858 180.794 701.231C180.015 702.33 179.559 702.872 178.226 703.108C177.023 702.645 176.016 702.358 174.721 702.296L174.368 702.281C173.656 704.109 173.007 706.347 171.752 707.875C169.562 708.202 165.743 705.834 164.022 704.514C163.563 704.162 163.222 703.652 163.014 703.116C160.703 702.421 156.8 701.642 155.007 700.021C154.271 701.648 153.44 704.214 152.079 705.381C150.45 706.494 145.735 706.942 143.801 706.483C143.738 706.468 143.677 706.443 143.615 706.423C142.528 705.703 141.586 704.14 140.609 703.187C136.927 699.593 133.048 698.562 128.196 697.32C128.033 696.445 127.831 695.598 127.453 694.788C126.754 693.29 125.345 691.924 123.765 691.389C120.959 690.441 116.226 692.401 113.948 694.1C112.938 694.853 112.152 695.872 110.997 696.41C110.944 696.434 110.89 696.456 110.837 696.479C108.757 696.105 99.5639 687.352 96.985 685.46C94.7408 683.814 91.5379 682.331 89.8671 680.146C89.448 680.335 89.0369 680.45 88.5714 680.399C84.7595 679.985 80.645 677.008 77.1497 675.49C71.5182 673.047 65.8367 670.745 59.8602 669.303C57.2594 668.675 51.1054 668.008 49.4383 666.123C46.224 666.924 33.0862 666.686 28.5773 666.952C27.0271 667.043 25.4951 667.72 24.029 667.769C23.1858 667.793 22.3481 667.624 21.579 667.277C20.227 668.655 15.8605 668.817 13.887 669.208C11.0988 669.76 2.54158 672.928 0.670375 672.829C0.445751 672.817 0.212036 672.747 0 672.675V627.643V621.502L0.880554 621.465C14.3464 611.81 26.7992 587.57 31.5495 571.598L32.1992 572.754C35.0829 573.817 37.6957 576.247 40.25 577.096C43.6943 578.766 51.1849 575.835 56.9447 578.465C60.5199 580.096 61.173 581.884 63.5977 583.425C63.705 583.493 63.8156 583.556 63.9245 583.621C66.918 583.571 69.7866 583.1 72.8144 583.271C80.6559 583.713 88.8803 587.286 94.118 593.242C97.9219 597.568 99.577 601.771 99.2291 607.569C102.484 607.472 105.604 607.402 108.731 608.513C114.595 610.596 116.954 615.743 119.419 620.949C119.554 620.96 119.689 620.969 119.824 620.982C121.091 621.105 122.375 621.01 123.614 621.366C125.741 621.977 128.157 623.665 130.381 623.442C132.621 623.809 134.893 621.497 137.227 621.654C140.477 621.873 140.776 624.618 142.674 626.504C142.767 626.596 142.862 626.686 142.956 626.777C145.821 628.169 151.642 627.89 155.3 629.736C159.092 631.647 161.161 638.693 162.442 642.414C163.296 642.572 174.018 639.4 177.133 639.227C181.289 638.995 185.508 639.754 189.439 641.082C191.017 641.615 192.58 642.449 194.248 642.614C194.326 642.621 194.404 642.625 194.482 642.63C195.41 642.385 196.22 641.092 196.903 640.422C201.173 636.237 204.32 634.861 210.219 636.485C211.464 636.827 212.814 637.443 214.11 637.421C214.168 637.42 214.225 637.415 214.282 637.413C215.449 632.994 216.627 628.657 218.908 624.654C222.834 617.762 230.023 611.966 238.204 611.479C240.877 611.32 243.949 612.043 246.519 611.278C246.612 611.25 246.704 611.219 246.797 611.19C247.812 608.011 248.868 605.252 251.149 602.737C253.593 600.044 256.831 598.553 260.461 598.426C264.968 598.269 270.655 600.411 273.662 603.926C275.198 605.722 276.339 607.884 278.087 609.491C278.157 609.555 278.228 609.618 278.298 609.681C279.162 606.143 278.642 603.27 281.033 600.041C284.177 595.795 290.707 595.914 295.361 597.101C297.02 597.523 299.108 598.534 300.813 598.235C300.886 598.222 300.958 598.203 301.03 598.187C300.808 590.982 301.917 584.223 306.272 578.3C313.719 568.173 325.562 566.45 337.348 566.29C341.656 566.231 346.21 566.261 350.477 566.87C353.379 567.284 357.716 569.287 360.506 568.777C360.579 568.764 360.652 568.744 360.725 568.728C363.633 554.967 370.462 541.232 380.062 530.933C384.205 526.49 388.914 522.542 392.935 518.002Z" fill="#338A70"/>
<path d="M283.804 671.453C286.406 666.99 287.603 662.695 291.529 659C294.713 656.005 295.549 657.829 299.078 657.935C299.334 657.825 300.183 657.568 300.338 657.396C301.36 656.266 301.381 651.413 302.897 649.517C302.945 649.457 302.997 649.402 303.047 649.344C297.881 671.322 295.693 694.003 304.402 715.552C304.35 715.57 304.298 715.592 304.245 715.608C304.157 715.634 304.066 715.651 303.978 715.676C302.126 716.194 298.643 714.309 296.8 713.695C293.969 712.751 283.354 709.718 280.618 711.089C277.497 710.119 275.423 704.095 272.322 703.506C272.452 705.698 273.539 707.308 274.803 709.037C271.746 709.82 251.074 709.063 246.735 708.687C244.41 708.486 242.283 708.399 240.684 706.5C240.814 706.299 241.149 705.91 241.203 705.699C241.581 704.234 241.384 701.956 241.469 700.403C241.708 696.04 242.297 691.933 243.707 687.782C246.23 680.35 250.962 673.876 258.115 670.386C263.617 667.702 271.74 666.185 277.621 668.392C279.674 669.162 281.538 670.692 283.631 671.398C283.689 671.417 283.746 671.434 283.804 671.453Z" fill="#1C6346"/>
<path d="M0 627.643L0.244065 627.801C2.16878 629.023 4.38844 629.702 6.40059 630.774C13.5595 634.584 17.9823 639.803 19.8299 647.802C20.4652 650.553 20.9899 666.559 21.579 667.277C20.227 668.655 15.8605 668.817 13.887 669.208C11.0988 669.76 2.54158 672.928 0.670375 672.829C0.445751 672.817 0.212036 672.747 0 672.675V627.643Z" fill="#1C6346"/>
<path d="M49.4375 666.123C49.5428 666.085 49.6494 666.05 49.7535 666.009C51.0877 665.484 52.8594 663.185 54.0078 662.193C60.1463 656.894 68.0898 654.807 75.8874 657.835C81.1065 659.863 85.0403 663.753 87.2746 668.867C88.7002 672.13 89.8514 676.582 89.8663 680.146C89.4472 680.336 89.036 680.451 88.5706 680.4C84.7587 679.985 80.6441 677.008 77.1489 675.491C71.5173 673.047 65.8359 670.746 59.8594 669.303C57.2586 668.675 51.1046 668.008 49.4375 666.123Z" fill="#1C6346"/>
<path d="M215.967 700.126C219.69 700.553 223.927 699.447 227.482 700.517C230.417 701.402 237.793 706.401 239.57 706.354C236.353 707.596 233.616 708.853 230.976 711.1C230.64 711.386 230.396 711.567 229.969 711.715C224.826 709.717 219.447 708.239 214.119 706.828C212.198 706.319 210.109 706.244 208.299 705.482C209.548 705.745 210.546 705.956 211.692 705.201C213.242 704.178 215.058 701.741 215.967 700.126Z" fill="#1C6346"/>
<path d="M163.014 703.116L163.716 703.302L164.026 703.02C163.263 701.781 162.513 700.627 162.127 699.212C163.312 697.511 168.215 698.401 170.269 697.949C170.365 697.928 170.461 697.905 170.557 697.883C171.232 699.335 173.064 701.339 174.368 702.281C173.656 704.109 173.007 706.347 171.751 707.875C169.562 708.202 165.742 705.834 164.022 704.514C163.563 704.162 163.222 703.652 163.014 703.116Z" fill="#1C6346"/>
<path d="M155.007 700.021C156.8 701.643 160.703 702.421 163.014 703.116C163.222 703.652 163.563 704.162 164.022 704.514C165.743 705.834 169.562 708.202 171.752 707.875C173.007 706.347 173.656 704.109 174.368 702.281L174.721 702.296C176.016 702.358 177.023 702.645 178.226 703.108C179.559 702.872 180.015 702.33 180.794 701.231C181.055 700.858 181.31 700.481 181.558 700.099C183.564 702.568 188.034 704.2 190.844 705.937C191.877 705.725 193.258 705.108 194.146 705.729C195.684 706.808 195.541 708.98 197.641 709.917C198.235 710.182 198.825 710.43 199.435 710.657C200.598 709.762 201.957 708.021 202.647 706.715C204.182 706.966 206.93 706.223 208.3 705.482C210.109 706.244 212.199 706.319 214.12 706.828C219.448 708.239 224.827 709.717 229.97 711.715C230.397 711.567 230.641 711.386 230.977 711.1C233.616 708.853 236.354 707.596 239.57 706.354L240.683 706.501C242.283 708.399 244.41 708.486 246.734 708.687C251.073 709.063 271.746 709.82 274.803 709.037C273.539 707.309 272.452 705.698 272.322 703.506C275.422 704.095 277.497 710.119 280.618 711.089C283.353 709.718 293.968 712.752 296.8 713.695C298.643 714.309 302.126 716.194 303.978 715.676C304.066 715.651 304.157 715.634 304.245 715.608C304.298 715.592 304.35 715.57 304.402 715.552C306.574 720.453 313.156 734.388 317.727 737.045C314.867 742.18 311.946 747.754 309.963 753.3C309.405 753.627 308.725 754.152 308.111 754.323C308.315 754.951 308.482 755.9 309.021 756.311C309.667 758.855 316.278 775.153 317.222 775.897C317.739 779.066 318.433 782.185 319.137 785.316C318.432 785.776 317.81 785.975 316.974 786.058C312.583 786.492 285.59 786.806 282.41 785.951C281.929 785.822 281.515 785.519 281.127 785.217C280.937 785.349 280.746 785.473 280.54 785.58C278.519 786.624 221.126 786.602 217.743 785.573C217.04 785.212 207.539 773.346 206.813 772.209C203.206 776.547 201.909 780.585 200.219 785.879C196.363 786.332 182.784 787.145 179.688 785.457C179.638 783.146 179.679 780.924 179.185 778.65C176.9 768.147 169.063 756.458 162.221 748.166C159.961 745.425 156.692 743.173 155.2 739.89C154.653 732.22 153.277 724.738 149.771 717.795C147.9 714.086 144.128 710.634 143.615 706.423C143.677 706.443 143.738 706.468 143.801 706.483C145.735 706.943 150.45 706.494 152.079 705.381C153.44 704.214 154.271 701.649 155.007 700.021Z" fill="#25585E"/>
<path d="M281.128 785.217C279.45 779.699 272.906 775.277 268.94 771.201C259.021 761.009 251.878 748.567 249.554 734.459C248.819 729.997 247.665 721.066 250.43 717.191C254.218 716.856 277.584 737.274 282.888 740.652C286.83 743.163 291.007 744.109 295.185 745.993C296.877 746.756 299.465 748.793 301.323 748.664C301.391 748.659 301.459 748.647 301.527 748.639C299.869 745.912 298.56 741.755 297.707 738.672L299.415 738.894C300.604 741.7 305.74 752.869 308.111 754.323C308.315 754.951 308.482 755.9 309.021 756.311C309.667 758.855 316.278 775.153 317.223 775.897C317.74 779.066 318.434 782.185 319.138 785.316C318.433 785.776 317.811 785.975 316.974 786.058C312.584 786.492 285.59 786.806 282.411 785.951C281.93 785.822 281.516 785.519 281.128 785.217Z" fill="#15504A"/>
<path d="M280.617 711.089C283.353 709.718 293.968 712.752 296.8 713.695C298.642 714.309 302.126 716.194 303.977 715.676C304.065 715.651 304.156 715.634 304.244 715.608C304.297 715.592 304.349 715.57 304.401 715.552C306.574 720.453 313.156 734.388 317.727 737.045C314.867 742.18 311.946 747.754 309.962 753.299C309.404 753.626 308.725 754.152 308.111 754.323C305.739 752.869 300.603 741.7 299.414 738.894C296.912 733.434 289.551 723.469 285.786 718.338C284.067 715.992 281.765 713.76 280.617 711.089Z" fill="#25585E"/>
<path d="M274.803 709.037C273.539 707.309 272.452 705.698 272.322 703.506C275.423 704.095 277.497 710.119 280.618 711.089C281.766 713.76 284.067 715.992 285.787 718.338C289.551 723.469 296.913 733.435 299.415 738.894L297.707 738.672C295.87 737.144 295.724 734.087 294.206 732.242C287.831 724.505 280.579 717.267 274.803 709.037Z" fill="#1C6E38"/>
<path d="M370.619 592.849C372.083 594.466 375.661 595.632 377.628 596.752C379.558 597.852 392.131 606.844 392.936 606.938V684.707V685.201V697.261V737.061V746.336V772.869V785.327C392.478 785.671 392.016 785.953 391.449 786.068C389.472 786.469 379.23 786.821 377.39 786.245C377.106 786.156 376.592 785.663 376.327 785.47C376.725 785.659 377.135 785.817 377.566 785.91C378.716 786.157 380.232 786.494 381.278 785.84C382.098 784.731 381.824 784.285 381.693 782.944C380.882 781.807 380.784 780.195 380.562 778.841C378.478 773.281 375.783 766.448 374.85 760.606C374.413 757.873 375.294 755.323 374.451 752.553C372.72 746.866 370.244 741.335 367.895 735.884C362.8 724.056 357.543 712.621 349.843 702.219C347.321 698.812 343.846 696.225 341.398 692.871L341.219 692.621C339.713 699.315 339.32 706.968 337.129 713.404C336.437 710.452 336.39 707.073 335.944 704.036C335.004 697.686 333.298 691.474 330.866 685.534C328.912 680.612 326.515 675.878 323.704 671.39C321.416 667.766 318.462 664.188 316.901 660.191C315.193 655.816 314.713 650.667 313.916 646.042C314.816 647.413 315.194 649.409 315.715 650.973L316.561 650.817C318.272 649.181 319.285 646.753 320.495 644.733C322.011 642.201 325.379 641.859 328.024 641.201C329.165 639.599 328.546 636.338 329.375 634.34C329.936 632.991 330.746 632.018 332.132 631.503C332.983 631.186 333.166 628.815 334.669 628.138L335.507 628.53C336.011 629.556 335.998 629.759 335.884 630.905C336.498 632.704 338.114 634.244 339.741 635.162C339.936 635.013 340.131 634.859 340.341 634.732C342.569 633.376 351.687 636.876 354.063 638.171C355.619 639.02 357.439 640.916 359.079 641.293C359.704 636.462 362.247 632.086 366.132 629.153C367.871 627.833 369.777 626.746 371.261 625.126C371.348 621.316 370.467 616.606 369.732 612.842C369.388 611.081 369.209 609.919 367.621 608.878L367.345 608.701C368.232 608.996 368.833 609.169 369.783 609.045C369.855 609.035 369.927 609.023 370 609.012C369.852 603.575 370.111 598.255 370.619 592.849Z" fill="url(#paint3_linear_421_295)"/>
<path d="M370.617 592.849C372.082 594.466 375.659 595.632 377.627 596.752C379.557 597.852 392.13 606.844 392.935 606.938V684.707C392.865 684.673 392.792 684.645 392.725 684.605C384.901 679.971 378.131 657.763 377.118 649.211C376.59 644.75 377.329 640.117 376.525 635.703C375.76 631.497 373.091 627.714 372.04 623.518C370.855 618.781 371.064 613.778 369.998 609.012C369.85 603.575 370.109 598.255 370.617 592.849Z" fill="#15504A"/>
<path d="M375.441 693.272C376.976 694.267 380.94 694.576 382.742 694.262C383.114 694.197 383.437 694.08 383.768 693.904C385.706 695.266 389.932 697.134 392.293 697.452L392.936 697.261V737.061C392.647 737.225 392.36 737.361 392.047 737.476C390.359 738.091 389.041 737.513 387.516 736.789C386.804 736.913 386.205 736.863 385.516 736.645C380.038 734.915 375.346 730.878 372.648 725.853C367.315 715.92 366.768 704.207 369.983 693.556C370.231 693.702 370.472 693.801 370.749 693.879C372.397 694.346 373.969 694.114 375.441 693.272Z" fill="#15504A"/>
<path d="M353.275 654.872C356.981 660.421 361.724 664.996 366.248 669.853C372.532 676.6 379.192 684.292 383.81 692.309C383.764 692.8 383.611 693.438 383.768 693.904C383.437 694.08 383.114 694.197 382.743 694.262C380.94 694.576 376.976 694.267 375.441 693.272C375.396 692.225 355.107 665.413 353.275 654.872Z" fill="#1C6E38"/>
<path d="M383.81 692.309L384.493 692.116C385.178 690.494 385.801 688.739 386.611 687.185C387.802 684.899 390.791 685.905 392.713 685.279C392.788 685.254 392.862 685.227 392.936 685.201V697.261L392.293 697.452C389.932 697.134 385.706 695.266 383.768 693.904C383.611 693.438 383.764 692.8 383.81 692.309Z" fill="#15504A"/>
<path d="M389.159 777.912C390.495 776.661 391.722 774.354 392.935 772.869V785.327C392.478 785.671 392.016 785.953 391.449 786.068C389.472 786.469 379.23 786.821 377.39 786.245C377.105 786.156 376.591 785.663 376.326 785.47C376.724 785.659 377.134 785.817 377.566 785.91C378.716 786.157 380.232 786.494 381.277 785.84C382.097 784.73 381.823 784.284 381.692 782.944C383.37 782.993 383.089 781.044 384.304 780.061C385.585 780.768 385.59 782.547 386.595 783.611C386.634 783.652 386.676 783.691 386.717 783.731C387.792 781.979 388.643 779.894 389.159 777.912Z" fill="#1C6E38"/>
<path d="M387.516 736.789C389.041 737.513 390.359 738.091 392.047 737.475C392.36 737.361 392.647 737.225 392.936 737.061V746.336C392.148 746.409 391.94 746.4 391.25 745.997C387.609 743.868 388.473 740.324 387.584 737.025C387.563 736.946 387.539 736.868 387.516 736.789Z" fill="#1C6346"/>
<path d="M380.561 778.84C380.913 779.578 381.275 780.312 381.645 781.041C383.633 781.03 384.893 775.468 386.843 774.146C387.156 773.932 387.282 774.053 387.636 774.119C387.583 775.417 387.291 777.077 388.01 778.159L389.158 777.912C388.642 779.894 387.791 781.979 386.717 783.731C386.676 783.691 386.634 783.652 386.595 783.611C385.589 782.547 385.584 780.768 384.303 780.061C383.088 781.044 383.369 782.993 381.691 782.944C380.881 781.807 380.783 780.195 380.561 778.84Z" fill="#1C6346"/>
<path d="M303.046 649.344C304.671 647.636 304.999 644.02 306.133 641.888C307.133 640.008 309.039 638.399 310.285 636.628C311.322 639.504 312.243 643.526 313.914 646.042C314.711 650.667 315.191 655.816 316.899 660.19C318.46 664.188 321.414 667.766 323.702 671.39C326.513 675.878 328.91 680.611 330.864 685.533C333.296 691.474 335.002 697.686 335.942 704.036C336.388 707.073 336.435 710.452 337.127 713.404C339.318 706.967 339.711 699.315 341.218 692.621L341.397 692.871C343.844 696.224 347.32 698.812 349.841 702.219C357.541 712.621 362.798 724.056 367.893 735.884C370.242 741.335 372.718 746.866 374.449 752.553C375.292 755.323 374.411 757.873 374.848 760.606C375.781 766.448 378.476 773.281 380.56 778.84C380.782 780.195 380.88 781.807 381.691 782.944C381.822 784.284 382.096 784.731 381.276 785.84C380.23 786.494 378.714 786.157 377.565 785.91C377.133 785.817 376.723 785.659 376.325 785.47C373.811 782.923 369.399 784.477 366.147 783.53C361.951 782.31 350.008 773.251 347.944 769.538C348.857 772.208 353.904 783.487 355.49 785.262C355.188 785.444 354.883 785.611 354.557 785.745C352.066 786.77 339.349 786.626 336.88 785.62C336.787 785.573 336.691 785.528 336.6 785.477C334.144 784.097 327.845 770.162 326.837 766.826C327.14 766.869 327.358 766.87 327.648 766.76C339.732 762.194 355.775 764.707 366.057 772.635C368.457 774.487 372.117 778.995 374.961 779.58C372.542 776.925 368.673 761.251 367.819 757.137C366.861 757.428 365.848 757.098 364.922 756.803C355.985 753.958 337.977 740.808 333.648 732.42C334.003 737.069 334.903 741.684 335.722 746.269C334.404 746.811 333.331 746.678 331.951 746.417C326.876 745.454 320.597 741.338 317.726 737.045C313.155 734.388 306.573 720.453 304.401 715.552C295.692 694.003 297.88 671.323 303.046 649.344Z" fill="#15504A"/>
<path d="M309.021 756.311C310.514 756.594 311.512 754.895 312.448 756.213C314.65 759.318 318.037 771.877 317.279 775.654C317.262 775.736 317.241 775.816 317.223 775.897C316.278 775.153 309.667 758.855 309.021 756.311Z" fill="#1C6346"/>
<path d="M0 0H55.0491C62.2282 12.4079 63.9654 21.6569 63.6205 35.7871C48.5046 30.2576 36.8382 24.0538 26.4636 11.3943L17.4875 10.1203C17.4907 14.1281 17.5831 18.1642 17.4817 22.1693C31.0984 25.8212 40.8784 33.522 47.9389 45.8154C52.0008 52.8879 53.9866 59.8759 55.3164 67.8547C48.2141 70.2635 41.8157 71.6209 34.4235 69.5827C34.9553 72.2329 35.3533 75.0526 36.2199 77.6094C52.2054 80.6477 63.7715 85.822 73.2796 99.7244C74.7892 101.932 76.1865 104.278 77.4546 106.634C61.4627 109.596 48.1019 105.392 33.8441 98.6783C33.2664 98.4062 33.4006 98.4282 32.8868 98.7957C33.1532 99.8046 33.5898 100.152 34.5166 100.661C37.3743 102.231 40.6083 103.089 43.4895 104.639C52.0464 109.241 58.9248 118.661 61.9091 127.797C64.1458 134.643 64.3589 142.614 64.4063 149.779C50.8308 146.349 38.0551 139.817 30.6366 127.398C29.366 125.27 28.2773 122.688 26.6879 120.798C23.9718 117.571 19.8406 115.143 16.5649 112.483C12.9194 109.521 9.52323 106.035 6.36867 102.555C6.28196 107.27 5.84913 111.497 4.51348 116.029C2.98185 114.648 1.35454 113.304 0 111.746V76.4753V75.3691V64.1317V63.1475V0Z" fill="#1C6346"/>
<path d="M0 63.1475C4.22611 66.9642 8.5317 69.1738 13.9619 70.8656L14.1286 76.631C9.55414 76.5073 4.50106 75.8337 0 76.4752V75.369V64.1317V63.1475Z" fill="#7E9BFD"/>
<path d="M0 64.1316C1.27074 66.5301 4.91238 71.5635 4.03417 74.2957C3.92035 74.6498 3.49183 74.8982 3.20956 75.1373C2.12615 75.2936 1.09351 75.3597 0 75.369V64.1316Z" fill="#1C6346"/>
<path d="M4.61914 93.519C7.74242 94.394 13.647 99.2753 16.7949 101.142C19.9852 103.035 23.3866 104.551 26.7641 106.073C26.3545 108.669 26.1408 111.293 25.885 113.907L25.5054 114.195C21.1705 113.597 7.71507 97.2907 4.61914 93.519Z" fill="#7E9BFD"/>
<path d="M349.141 0H392.936V1.06446V7.85743V42.7834C390.954 45.3761 388.972 47.9925 386.634 50.2783C384.219 52.6394 381.236 54.8682 379.189 57.5484C377.714 59.4788 376.726 61.9292 375.583 64.0722C369.337 75.7745 357.659 84.025 345.187 87.8164C345.509 74.5841 349.543 66.7129 359.663 58.4537C361.226 57.1783 363.598 55.5403 364.363 53.6343L364.01 53.4608C360.862 56.0662 357.922 59.0832 354.527 61.3506C346.003 67.0435 335.943 67.1365 326.206 65.2038L326.837 64.0311C332.164 54.1945 341.439 46.2965 352.234 43.1231C357.627 41.5381 363.007 41.2966 368.063 44.0367C373.244 33.4545 376.609 30.5707 386.748 25.1995C383.325 25.8816 380.017 27.2418 376.58 27.9888C373.283 28.7056 369.235 28.6648 366.127 29.8358C362.901 31.0513 360.247 33.4837 356.883 34.4615C343.7 38.2925 332.264 33.6146 320.846 27.3137C321.837 26.4076 322.851 25.5264 323.886 24.671C332.188 17.9135 341.21 17.0398 351.493 18.1033C353.825 14.7515 356.565 12.0426 359.62 9.35155C355.464 8.1947 351.487 6.41711 347.502 4.77886C347.981 3.16267 348.568 1.58427 349.141 0Z" fill="#1C6346"/>
<path d="M392.935 1.06445V7.85743C391.784 10.2132 391.002 12.8603 389.949 15.2867C388.652 11.8433 387.238 9.21123 384.451 6.72479C387.358 4.95237 390.14 3.00627 392.935 1.06445Z" fill="#7E9BFD"/>
<path d="M365.746 403.016C367.155 404.38 373.733 406.022 376.104 407.112C378.46 408.214 380.677 409.594 382.706 411.222C384.001 412.263 385.47 413.421 386.53 414.699C387.989 416.46 391.86 423.679 392.936 424.34V460.364C390.834 461.471 383.134 458.92 380.448 458.548L378.324 457.675C376.283 457.682 374.227 457.507 372.338 456.698C372.296 457.445 372.238 458.193 372.164 458.938C371.444 466.089 366.906 473.967 361.358 478.476C357.431 481.668 352.791 483.188 347.727 482.616C343.536 482.142 336.792 479.966 334.113 476.622C335.448 474.9 337.138 468.671 338.237 466.158C342.089 457.344 349.898 449.58 360.105 449.832C363.201 449.908 366.292 450.905 369.35 451.379C372.741 451.903 376.195 451.847 379.618 451.804C381.576 451.779 383.982 451.995 385.803 451.212C385.895 451.173 385.986 451.129 386.077 451.088C385.045 450.749 384.278 449.761 383.57 448.968C371.401 435.335 364.729 421.578 365.746 403.016Z" fill="url(#paint4_linear_421_295)"/>
<path d="M0 466.192C0.963995 466.43 1.38617 466.674 2.31703 466.123C4.18139 465.018 6.09591 462.303 7.73611 460.771C14.1412 454.788 23.3336 454.049 31.5926 455.912C40.2537 457.866 46.5092 465.458 50.1537 466.398C46.4426 471.375 35.304 475.403 29.2994 476.294C20.6008 477.586 13.3987 475.746 5.33164 472.556C3.79269 471.947 1.4393 471.289 0.157588 470.237C0.101304 470.191 0.0525293 470.136 0 470.085V466.192Z" fill="#1C6346"/>
<path d="M0 444.687C0.927516 446.55 1.44658 449.873 2.73887 451.311L3.39124 451.245C4.81667 449.459 4.98845 445.935 5.56385 443.701C8.31756 433.002 15.1298 425.291 26.4025 423.993C29.3415 423.654 34.0849 424.107 36.6364 422.861C34.7977 434.412 29.563 442.917 20.0555 449.799C17.7188 451.49 3.06387 460.313 0.397276 459.797C0.204411 459.759 0.167093 459.74 0 459.68V444.687Z" fill="#1C6346"/>
<path d="M392.936 45.7195V94.4191L389.756 98.856C385.301 91.2254 382.444 82.2482 382.443 73.3695C382.443 62.8995 385.479 53.1875 392.936 45.7195Z" fill="#1C6346"/>
<path d="M368.43 481.727C368.385 488.088 368.256 494.558 370.061 500.73L369.853 500.91C366.931 503.408 364.388 504.879 362.004 508.076C361.82 508.323 361.9 508.234 361.641 508.425C361.568 508.426 361.495 508.429 361.422 508.427C359.404 508.385 357.269 507.243 355.328 506.688C350.196 505.22 343.922 506.772 340.07 510.382C336.661 513.574 334.851 517.796 333.797 522.261C333.738 522.275 333.68 522.291 333.621 522.303C330.019 523.032 326.172 520.773 321.992 522.031C318.274 523.151 313.672 528.16 312.172 528.529C310.559 527.566 305.718 523.148 304.734 521.699L305.201 521.538C306.656 522.177 307.839 523.289 309.407 523.88C314.934 525.964 319.849 520.905 325.259 520.639C327.309 520.538 331.648 522.171 333.296 521.43C333.332 521.019 333.378 520.608 333.436 520.199C334.077 515.686 337.475 511.027 341.091 508.366C348.187 503.146 353.565 506.349 361.055 507.551C362.675 506.399 363.697 504.159 365.236 502.814C366.482 501.726 368.102 501.519 369.301 500.265C369.219 500.1 369.133 499.937 369.064 499.766C367.428 495.723 366.508 486.067 368.273 482.069C368.323 481.954 368.377 481.841 368.43 481.727Z" fill="#D3C2D0"/>
<path d="M82.2748 174.258C97.1805 171.578 111.42 181.544 114.018 196.475C116.616 211.405 106.58 225.601 91.6469 228.12C76.8261 230.621 62.7707 220.671 60.1926 205.854C57.6143 191.036 67.4818 176.917 82.2748 174.258Z" fill="#E8FEA3"/>
<path d="M9.43541 116.494C10.4053 116.463 11.4219 116.425 12.3821 116.578C16.6994 117.264 20.3653 120.662 22.8506 124.09C30.3521 134.434 31.4209 147.842 29.4944 160.083C29.13 162.398 28.5582 167.342 26.6072 168.761L25.6202 168.326C20.9002 165.559 16.6651 162.478 13.1187 158.263C6.65069 150.573 2.51964 138.797 3.4563 128.72C3.89939 123.953 5.71326 119.603 9.43541 116.494Z" fill="#1C6346"/>
<path d="M70.5038 23.9783C71.578 24.6939 71.9661 25.1927 72.3979 26.4011C72.2973 27.7041 71.9562 28.3111 71.1787 29.3378C71.0451 29.283 70.9119 29.2272 70.7812 29.166C69.6446 28.6328 68.9914 28.004 68.5625 26.848C68.6613 25.5723 69.6469 24.8242 70.5038 23.9783Z" fill="#FDFEED"/>
<path d="M317.787 74.2949C318.896 74.9655 319.206 75.3569 319.595 76.5581C319.414 77.978 318.668 78.8529 317.828 79.9583C316.988 79.0379 316.023 78.1885 315.812 76.9095C316.263 75.56 316.756 75.2416 317.787 74.2949Z" fill="#FDFEED"/>
<path d="M80.0353 79.6348C81.0182 79.7611 81.6294 79.8409 82.3947 80.5461C82.9004 81.7748 82.216 83.1936 81.829 84.3947C80.773 84.0675 80.3733 83.718 79.6762 82.8794C79.2868 81.625 79.6134 80.8231 80.0353 79.6348Z" fill="#FDFEED"/>
<path d="M220.991 306.995C221.869 306.801 222.755 307.288 223.061 308.135C223.367 308.981 222.999 309.923 222.2 310.337C221.582 310.657 220.836 310.59 220.285 310.165C219.733 309.74 219.478 309.035 219.629 308.355C219.781 307.675 220.312 307.145 220.991 306.995Z" fill="#FDFEED"/>
</g>
<path d="M161.6 644.931C156.668 647.7 151 651.947 146.871 656.903C134.499 671.75 129.35 694.706 129.35 713.669C129.35 720.328 131.378 735.552 139.035 738.615C142.157 739.863 145.658 740.257 146.319 736.282C146.763 733.622 143.764 729.237 142.926 726.726C142.435 725.249 141.555 722.786 141.555 722.786C141.555 722.786 141.675 723.504 141.735 723.864C142.067 725.852 143.47 728.049 144.336 729.868C146.454 734.314 148.439 736.262 153.248 734.659C157.849 733.124 152.032 717.645 151.448 714.15C150.02 705.574 149.936 696.721 152.188 688.157C155.319 676.253 154.24 682.071 154.866 679.252C155.159 677.937 156.306 675.474 156.306 675.474C156.306 675.474 155.788 676.539 155.586 677.094C154.898 678.985 154.383 680.589 153.816 682.517C151.135 691.648 150.652 693.846 150.652 699.619C150.652 715.29 155.573 728.712 157.287 744.136C157.61 747.039 158.964 767.099 157.564 769.196C156.427 770.904 152.58 772.562 150.91 774.234C147.36 777.784 146.582 784.411 149.11 788.625C150.313 790.628 154.706 791.776 156.846 792.043C161.802 792.662 178.562 792.388 182.867 789.836C186.791 787.508 188.748 785.794 189.199 781.959C190.181 773.605 190.485 758.915 190.485 750.489C190.485 748.624 190.285 743.798 189.587 742.782C188.813 741.656 190.967 744.581 190.08 742.81C190.045 742.741 198.264 744.223 189.252 741.919C187.702 741.523 185.718 739.698 185.789 739.875C186.083 740.613 189.108 742.724 190.112 742.822C203.848 744.153 190.422 742.884 192.728 743.173C196.313 743.621 199.441 743.49 202.716 742.033C203.963 741.48 205.87 740.859 206.854 739.875C207.034 739.695 202.999 742.622 202.999 742.622C202.999 742.622 206.886 739.663 206.674 739.875C205.534 741.015 203.49 741.441 202.538 742.393C201.704 743.227 202.538 748.778 202.538 750.129C202.538 759.66 202.195 775.777 205.425 784.472C209.357 795.059 231.801 794.999 240.785 790.733C242.301 790.015 244.884 788.257 245.722 786.812C253.293 773.74 238.117 772.727 237.288 770.941C236.011 768.195 235.998 761.157 235.998 758.224C235.998 749.608 235.178 739.606 238.156 731.42C242.499 719.475 244.694 706.799 242.583 694.131C241.868 689.844 240.94 685.348 239.575 681.257C239.135 679.937 238.383 678.095 238.156 676.734C238.146 676.673 237.72 674.831 237.616 674.934C236.827 675.723 240.033 682.182 240.29 683.338C241.863 690.411 242.612 692.64 243.271 699.889C243.845 706.207 241.606 717.272 239.954 723.324C239.025 726.732 237.506 730.764 241.022 733.402C245.305 736.613 248.148 729.037 248.948 726.238C249.396 724.668 250.069 722.951 250.069 722.951C250.069 722.951 250.377 722.377 250.208 722.966C249.68 724.813 248.868 726.525 248.408 728.362C247.391 732.433 246.445 739.118 253.8 737.708C263.497 735.849 265.159 726.51 265.56 717.726C266.934 687.636 253.122 660.885 231.32 644.533C230.023 643.56 218.498 648.597 216.576 648.597C207.603 648.597 207.394 650.997 201.487 651.534C198.415 651.813 192.213 652.989 190.369 653.054C184.625 653.258 188.465 653.11 177.188 650.112C174.964 649.522 163.647 643.781 161.6 644.931Z" fill="#CEEC97" stroke="#A4C95F" stroke-width="4" stroke-miterlimit="10" stroke-linecap="round" stroke-linejoin="round"/>
<path d="M254.885 575.107C258.558 574.43 260.797 575.739 264.143 577.176C278.593 583.386 277.864 602.827 272.325 614.951C269.119 621.966 260.962 627.406 253.295 625.189" fill="#BBBBBB"/>
<path d="M254.885 575.107C258.558 574.43 260.797 575.739 264.143 577.176C278.593 583.386 277.864 602.827 272.325 614.951C269.119 621.966 260.962 627.406 253.295 625.189" stroke="#858585" stroke-width="4" stroke-miterlimit="10" stroke-linecap="round" stroke-linejoin="round"/>
<path d="M139.115 574.146C135.443 573.469 133.204 574.778 129.858 576.215C115.407 582.425 116.135 601.866 121.674 613.989C124.881 621.006 133.039 626.446 140.704 624.229" fill="#BBBBBB"/>
<path d="M139.115 574.146C135.443 573.469 133.204 574.778 129.858 576.215C115.407 582.425 116.135 601.866 121.674 613.989C124.881 621.006 133.039 626.446 140.704 624.229" stroke="#858585" stroke-width="4" stroke-miterlimit="10" stroke-linecap="round" stroke-linejoin="round"/>
<path d="M262.738 577.399C262.928 577.02 264.787 581.414 265.024 582.078C266.269 585.567 267.049 589.276 267.417 592.958C268.29 601.703 266.147 618.165 259.582 624.73" fill="#BBBBBB"/>
<path d="M262.738 577.399C262.928 577.02 264.787 581.414 265.024 582.078C266.269 585.567 267.049 589.276 267.417 592.958C268.29 601.703 266.147 618.165 259.582 624.73" stroke="#858585" stroke-width="4" stroke-miterlimit="10" stroke-linecap="round" stroke-linejoin="round"/>
<path d="M130.21 576.653C130.019 576.274 128.161 580.668 127.924 581.331C126.677 584.821 125.898 588.53 125.53 592.212C124.655 600.957 126.798 617.419 133.364 623.984" fill="#BBBBBB"/>
<path d="M130.21 576.653C130.019 576.274 128.161 580.668 127.924 581.331C126.677 584.821 125.898 588.53 125.53 592.212C124.655 600.957 126.798 617.419 133.364 623.984" stroke="#858585" stroke-width="4" stroke-miterlimit="10" stroke-linecap="round" stroke-linejoin="round"/>
<path d="M203.535 539.731C234.346 542.853 258.349 567.676 258.349 597.834C258.349 630.106 231.009 653.821 197.107 653.821C163.203 653.821 135.574 630.106 135.574 597.834C135.574 567.118 160.473 541.937 192.106 539.58" fill="#CEEC97"/>
<path d="M203.535 539.731C234.346 542.853 258.349 567.676 258.349 597.834C258.349 630.106 231.009 653.821 197.107 653.821C163.203 653.821 135.574 630.106 135.574 597.834C135.574 567.118 160.473 541.937 192.106 539.58" stroke="#A4C95F" stroke-width="4" stroke-miterlimit="10" stroke-linejoin="round"/>
<path d="M191.213 539.583C194.429 539.583 191.67 532.474 193.048 529.719C194.202 527.41 198.313 526.285 199.93 528.71C202.075 531.927 200.852 536.13 202.177 539.445C202.273 539.683 202.862 539.482 203.003 539.766" fill="#CEEC97"/>
<path d="M191.213 539.583C194.429 539.583 191.67 532.474 193.048 529.719C194.202 527.41 198.313 526.285 199.93 528.71C202.075 531.927 200.852 536.13 202.177 539.445C202.273 539.683 202.862 539.482 203.003 539.766" stroke="#A4C95F" stroke-width="4" stroke-miterlimit="10" stroke-linecap="round" stroke-linejoin="round"/>
<path d="M187.65 519.436C187.65 514.225 191.775 510 196.863 510C201.952 510 206.077 514.225 206.077 519.436C206.077 524.648 201.952 528.873 196.863 528.873C191.775 528.873 187.65 524.648 187.65 519.436Z" fill="#CEEC97" stroke="#A4C95F" stroke-width="4" stroke-miterlimit="10" stroke-linejoin="round"/>
<path d="M217.7 592.719C223.578 585.339 232.609 582.753 237.871 586.943C243.132 591.134 242.633 600.514 236.755 607.895C230.878 615.276 221.847 617.862 216.585 613.671C211.323 609.481 211.823 600.1 217.7 592.719Z" fill="black" stroke="black" stroke-width="4" stroke-miterlimit="10" stroke-linejoin="round"/>
<path d="M176.797 592.97C170.92 585.589 161.888 583.003 156.626 587.194C151.365 591.385 151.863 600.765 157.742 608.146C163.619 615.527 172.651 618.113 177.912 613.922C183.174 609.731 182.674 600.351 176.797 592.97Z" fill="black" stroke="black" stroke-width="4" stroke-miterlimit="10" stroke-linejoin="round"/>
<path d="M183.875 631.609C183.875 631.609 193.49 642.345 208.756 634.285" stroke="#A4C95F" stroke-width="4" stroke-miterlimit="10" stroke-linecap="round" stroke-linejoin="round"/>
<path d="M156.465 597.26C155.321 594.464 156.085 591.504 158.172 590.65C160.26 589.795 162.879 591.369 164.024 594.165C165.168 596.961 164.405 599.921 162.317 600.775C160.23 601.63 157.61 600.056 156.465 597.26Z" fill="#E0E0E0"/>
<path d="M221.747 593.001C223.373 590.455 226.231 589.375 228.132 590.589C230.033 591.803 230.255 594.851 228.63 597.397C227.003 599.943 224.144 601.023 222.243 599.809C220.342 598.595 220.12 595.547 221.747 593.001Z" fill="#E0E0E0"/>
<path d="M193.713 616.757C191.91 616.757 190.594 618.528 190.594 620.438C190.594 620.951 190.679 621.443 190.829 621.909C190.902 622.137 190.99 622.36 191.092 622.577C192.511 625.594 196.465 627.433 196.465 627.433C196.465 627.433 200.42 625.594 201.839 622.577C201.941 622.361 202.029 622.138 202.102 621.909C202.252 621.443 202.337 620.951 202.337 620.438C202.337 618.529 201.02 616.757 199.218 616.757C197.988 616.757 197.071 617.386 196.495 618.478C196.493 618.483 196.488 618.488 196.483 618.491C196.478 618.494 196.472 618.495 196.465 618.495C196.459 618.495 196.453 618.494 196.448 618.491C196.442 618.488 196.438 618.483 196.435 618.478C195.86 617.387 194.943 616.757 193.713 616.757Z" fill="#A4C95F"/>
</g>
<defs>
<linearGradient id="paint0_linear_421_295" x1="193.232" y1="525.513" x2="199.435" y2="-1.74459" gradientUnits="userSpaceOnUse">
<stop stop-color="#CBB6CE"/>
<stop offset="1" stop-color="#648CFF"/>
</linearGradient>
<linearGradient id="paint1_linear_421_295" x1="169.546" y1="588.793" x2="165.519" y2="545.249" gradientUnits="userSpaceOnUse">
<stop stop-color="#FFC4A1"/>
<stop offset="1" stop-color="#C8B5D0"/>
</linearGradient>
<linearGradient id="paint2_linear_421_295" x1="376.695" y1="500.303" x2="389.506" y2="461.001" gradientUnits="userSpaceOnUse">
<stop stop-color="#C5C3E1"/>
<stop offset="1" stop-color="#B0B2F0"/>
</linearGradient>
<linearGradient id="paint3_linear_421_295" x1="379.078" y1="782.033" x2="344.111" y2="629.83" gradientUnits="userSpaceOnUse">
<stop stop-color="#114C46"/>
<stop offset="1" stop-color="#236F62"/>
</linearGradient>
<linearGradient id="paint4_linear_421_295" x1="336.954" y1="478.174" x2="390.85" y2="420.028" gradientUnits="userSpaceOnUse">
<stop stop-color="#1B7037"/>
<stop offset="1" stop-color="#1A5F41"/>
</linearGradient>
<clipPath id="clip0_421_295">
<rect width="393" height="852" fill="white"/>
</clipPath>
<clipPath id="clip1_421_295">
<rect width="393" height="852" fill="white"/>
</clipPath>
</defs>
</svg>
