<svg width="68" height="68" viewBox="0 0 68 68" fill="none" xmlns="http://www.w3.org/2000/svg">
<path d="M24.1347 36.1995L21.2394 29.0223L21.3191 17.4039C21.3191 17.4039 29.1178 16.2351 33.2137 15.672C37.3097 15.1089 45.4538 11.677 52.8806 14.9654C61.3169 18.7001 65.79 27.3435 63.5375 40.5185C61.285 53.6935 51.4091 64.3557 42.5159 65.5032C38.1119 66.0717 37.3256 64.361 33.9522 64.6054C31.2216 64.802 31.3703 66.2204 26.7112 65.9814C22.0522 65.7423 18.0997 64.0104 15.7728 61.1204C13.4459 58.2304 24.1347 36.1995 24.1347 36.1995Z" fill="#DC0D28"/>
<path d="M11.2788 19.6509C4.60097 25.229 1.45066 36.9856 6.77909 49.5337C11.5178 60.7006 19.0882 63.8934 19.0882 63.8934C19.0882 63.8934 32.3269 63.0274 41.5653 58.0443C50.8038 53.0612 59.7235 44.3859 59.7235 32.9799C59.7235 21.574 53.7788 17.7171 53.136 17.5577C52.4932 17.3984 49.8422 19.0824 46.8672 19.1621C43.8922 19.2418 41.5653 18.5193 41.5653 18.5193L32.1675 21.6537L23.3807 19.6031C23.3807 19.6031 23.0991 18.3759 24.05 17.8765C26.0263 16.8459 30.1541 18.599 31.8435 18.5193C33.5328 18.4396 34.9778 16.1871 34.9778 16.1871C34.9778 16.1871 31.0413 15.7834 29.676 15.4646C28.3107 15.1565 19.0722 13.1431 11.2788 19.6509Z" fill="#FF5117"/>
<path d="M32.9527 19.72C30.5196 19.8316 23.9959 17.5419 23.4062 19.3322C22.7793 21.2341 27.6349 23.7575 33.5477 23.3431C39.7156 22.9128 43.5565 19.5022 42.579 17.6641C41.6068 15.8259 37.6065 19.5022 32.9527 19.72Z" fill="#8D1D0A"/>
<path d="M27.1148 9.01002C27.1148 9.01002 26.0895 8.9569 25.5476 8.73909C25.0058 8.52127 24.2408 8.53721 24.3045 7.60221C24.4108 6.03502 26.4189 4.42534 26.9023 4.13846C27.8214 3.59659 29.4311 3.74534 30.042 4.13846C30.8017 4.62721 30.4192 6.41221 30.4192 6.41221C30.4192 6.41221 33.1233 10.471 33.5005 12.9572C33.8458 15.2256 35.2589 21.845 33.1233 22.2594C31.1736 22.6366 31.9864 17.5525 30.908 15.0663C30.2598 13.5788 29.3408 11.985 28.4748 10.9013C27.9845 10.2983 27.5304 9.66677 27.1148 9.01002Z" fill="#513630"/>
<path d="M55.9984 2.6829C56.2162 2.30571 55.7806 1.92321 53.9956 1.87008C52.2106 1.81696 42.4728 0.897895 36.9584 7.76696C32.9953 12.7023 33.6062 16.9098 33.6062 16.9098L37.2293 17.0745L55.9984 2.6829Z" fill="#2F7C31"/>
<path d="M44.0406 9.4402C47.3185 7.17707 56.0469 2.24707 56.0469 2.24707C56.0469 2.24707 56.0469 3.4902 55.505 4.57394C54.9631 5.65769 53.125 11.0127 45.661 14.9068C38.6538 18.5618 33.9788 17.6639 33.5963 17.0158C33.2244 16.3677 38.6325 13.1749 44.0406 9.4402Z" fill="#709F19"/>
<path d="M19.9743 21.2341C18.524 19.1462 15.0124 19.7359 11.8621 23.9381C7.80338 29.3462 8.02119 36.5394 10.7784 36.975C13.5143 37.4053 11.1024 34.6481 15.3206 29.1869C18.5506 25.0059 21.8124 23.885 19.9743 21.2341Z" fill="#FFD2B1"/>
</svg>
