<svg width="72" height="72" viewBox="0 0 72 72" fill="none" xmlns="http://www.w3.org/2000/svg">
<path d="M26.0744 69.632C1.58844 66.026 2.00044 41.438 2.00044 34H70.0004C70.0004 37.828 70.1744 65.54 43.7504 69.836C39.6664 70.5 30.8344 70.334 26.0744 69.632Z" fill="#292F33"/>
<path d="M66.7751 26.4939C71.7091 15.3459 50.1131 15.9859 44.7051 17.7299C41.8152 17.3941 38.9084 17.2245 35.9991 17.2219C17.2211 17.2219 1.99907 23.6779 1.99907 34.1099C1.99907 36.1279 2.58107 38.0679 3.63507 39.8919C-5.01893 51.3159 12.1271 53.4639 22.0031 51.3119C26.2751 52.3859 31.0031 52.9999 35.9991 52.9999C54.7771 52.9999 69.9991 44.5419 69.9991 34.1119C69.9991 31.2519 68.8211 28.7039 66.7751 26.4939Z" fill="#66757F"/>
<path d="M36 50C52.5685 50 66 43.732 66 36C66 28.268 52.5685 22 36 22C19.4315 22 6 28.268 6 36C6 43.732 19.4315 50 36 50Z" fill="#FFCC4D"/>
<path d="M7.99921 32C6.91521 27.662 11.9992 20 21.9992 22C23.9992 20 27.6752 18 33.9992 18C37.9992 18 45.2232 21.55 41.9992 28C39.9992 32 31.9992 38 21.9992 34C19.9992 36 9.99921 40 7.99921 32Z" fill="#77B255"/>
<path d="M24.0005 34.0001C23.5025 34.0721 23.0585 34.1461 22.6445 34.2221C32.3405 37.7141 40.0445 31.9121 42.0005 28.0001C44.1565 23.6881 41.6385 20.6801 38.5385 19.1541C39.3265 22.7981 36.2825 32.2461 24.0005 34.0001Z" fill="#5C913B"/>
<path d="M9.99964 32C11.0496 29.374 19.9996 26 29.9996 38C31.9996 40 39.1716 41.172 41.9996 44C43.9996 46 41.9996 48 33.9996 48C25.9996 48 5.99964 42 9.99964 32Z" fill="#D99E82"/>
<path d="M12.082 40.0359C17.178 45.1219 28.462 47.9999 34 47.9999C42 47.9999 44 45.9999 42 43.9999C41.348 43.3479 40.46 42.7859 39.464 42.2799C33.056 45.7459 16.104 41.9919 12.082 40.0359Z" fill="#B27962"/>
<path d="M53.9993 38.0021C53.5813 38.0021 53.1533 37.9341 52.7333 37.7941L46.7333 35.7941C45.7268 35.4586 44.8948 34.737 44.4204 33.788C43.9459 32.8391 43.8678 31.7406 44.2033 30.7341C44.5388 29.7276 45.2604 28.8956 46.2094 28.4211C47.1583 27.9466 48.2568 27.8686 49.2633 28.2041L55.2633 30.2041C56.1668 30.5026 56.9342 31.1134 57.4278 31.9268C57.9215 32.7402 58.109 33.7029 57.9568 34.6421C57.8045 35.5813 57.3225 36.4355 56.5972 37.0513C55.8719 37.6671 54.9508 38.0042 53.9993 38.0021ZM51.9993 44.0001H47.9993C47.4689 44.0001 46.9602 43.7894 46.5851 43.4143C46.21 43.0392 45.9993 42.5305 45.9993 42.0001C45.9993 41.4696 46.21 40.9609 46.5851 40.5858C46.9602 40.2108 47.4689 40.0001 47.9993 40.0001H51.9993C52.5298 40.0001 53.0385 40.2108 53.4135 40.5858C53.7886 40.9609 53.9993 41.4696 53.9993 42.0001C53.9993 42.5305 53.7886 43.0392 53.4135 43.4143C53.0385 43.7894 52.5298 44.0001 51.9993 44.0001Z" fill="#FFE8B6"/>
</svg>
