<svg width="99" height="110" viewBox="0 0 99 110" fill="none" xmlns="http://www.w3.org/2000/svg">
<path d="M49.7169 41.4177C50.411 43.485 52.408 45.5048 54.3658 46.4752C55.0367 46.8077 55.7234 46.9458 56.4705 46.9476C57.0601 46.9126 57.6533 46.9438 58.2457 46.9025C59.8751 46.7891 61.4623 46.4711 63.0407 46.0624C63.0304 46.2962 63.0169 46.5271 62.9901 46.7601C62.9868 46.9306 62.9421 47.1543 63.057 47.2925C63.2162 47.4837 63.6585 47.6237 63.8961 47.8417L63.2568 48.0333L63.3128 48.1292C63.8499 48.1991 64.3807 48.24 64.9225 48.2369C65.9176 49.1723 66.2577 50.3291 66.2981 51.665C66.3194 52.3706 66.2968 53.0847 66.3447 53.7883C66.1757 55.5082 66.488 61.1661 67.1937 62.575C67.3574 62.7025 67.4652 62.8478 67.5615 63.0293C68.3082 64.4361 68.8808 65.9869 69.5381 67.4421C70.0437 68.5614 70.7891 69.9047 71.16 71.0464C70.4552 71.7695 69.4731 72.2614 68.5716 72.7056C68.263 72.8577 67.9006 72.9937 67.62 73.191C66.2804 73.6613 64.3128 74.3105 62.8955 74.3557C62.4844 74.3105 60.6546 74.4843 60.2222 74.6048C60.1459 74.7187 60.1496 74.7595 60.1398 74.8982L60.1008 74.6797C59.9525 74.5611 59.5004 74.6143 59.2987 74.6119C57.9843 74.5956 56.7204 74.469 55.427 74.2346C54.9246 73.9822 54.2995 73.8549 53.7598 73.6782C53.224 73.5027 52.7207 73.2643 52.2157 73.0174C52.2462 71.9592 52.498 70.8737 52.6797 69.8321L53.4782 65.1419C53.915 62.4951 54.0391 59.8109 54.0753 57.1319C53.6553 57.0893 53.1788 57.1634 52.753 57.1859C52.1164 57.2209 51.4786 57.2361 50.841 57.2313C49.9906 57.2271 49.1344 57.2172 48.2862 57.1577C47.5515 57.106 46.8195 57.0101 46.0831 56.9846C46.1117 58.3596 46.7888 63.0805 46.3836 64.0648C46.3792 64.3474 46.3954 64.6527 46.3563 64.9312C46.3596 67.8146 46.5598 70.7073 46.4401 73.5902C46.2074 73.6455 45.5722 73.7263 45.422 73.8931C45.2401 73.7979 41.815 74.025 41.2663 74.0199C41.0744 74.0268 40.8523 74.0116 40.6689 74.0663C40.5404 73.9789 40.3354 74.0086 40.1856 73.9601C39.6298 73.7797 39.8888 70.1451 39.4706 69.3429C39.3132 69.9974 38.6405 73.8136 38.3517 73.9985C38.0766 74.1745 37.5393 74.1203 37.2158 74.1246C35.59 73.9769 34.0042 73.7364 32.3945 73.4702C32.1671 73.3745 31.9403 73.2775 31.714 73.1794C31.6577 71.066 32.0866 68.6913 32.2452 66.5516C32.3441 65.7729 32.4318 64.983 32.4678 64.1987C32.2855 64.0577 32.2205 63.9289 32.1909 63.6991C32.0883 62.8998 32.2997 61.9656 32.3749 61.1652C32.4774 60.0299 32.5495 58.892 32.591 57.7531C32.627 56.2312 32.6163 54.7085 32.5589 53.1874C32.5136 51.9252 32.3912 50.5856 32.5406 49.3287C32.6191 48.6695 32.8614 48.0547 33.2759 47.5316C33.8553 46.8005 34.9336 46.1866 35.8658 46.0813C36.0335 46.1388 36.1851 46.1676 36.3617 46.1845L36.4808 46.1335C36.4293 46.1182 36.3491 46.1009 36.3011 46.0727C36.2025 46.0146 36.1545 45.9681 36.1221 45.8581C36.0797 45.7137 36.1306 45.552 36.2065 45.4289L36.3321 45.5305L36.4117 45.5112C36.3133 45.446 36.2311 45.3928 36.1524 45.3035C36.5089 45.1279 37.8075 45.5155 38.2809 45.5533C39.4139 45.6439 40.5686 45.6005 41.704 45.5844C41.7398 45.7552 41.7858 45.8689 41.8857 46.0128C42.5996 46.3963 43.5196 46.5521 44.3042 46.7579C45.3469 47.031 46.4006 47.3035 47.4281 47.6286C47.8727 47.7337 48.3634 47.9193 48.8176 47.9356L48.9088 48.0051L48.9216 48.2968C49.0372 48.2821 49.095 48.2174 49.1811 48.1452C49.3396 48.1893 49.5089 48.2687 49.668 48.2246C49.6111 46.889 49.5365 45.5642 49.5158 44.2268C49.5076 43.6984 49.4703 43.1473 49.5243 42.6225C49.6253 42.2293 49.6643 41.8197 49.7169 41.4177Z" fill="#FEC1A1"/>
<path d="M36.3617 46.1845L36.4808 46.1335C36.4293 46.1182 36.3491 46.101 36.3011 46.0727C36.2025 46.0146 36.1545 45.9681 36.1221 45.8581C36.0797 45.7137 36.1306 45.552 36.2065 45.429L36.3321 45.5305L36.4117 45.5113C36.3133 45.446 36.2311 45.3928 36.1524 45.3035C36.5089 45.1279 37.8075 45.5155 38.2809 45.5533C39.4139 45.6439 40.5686 45.6005 41.704 45.5844C41.7398 45.7552 41.7858 45.8689 41.8857 46.0128C42.5996 46.3964 43.5196 46.5521 44.3042 46.7579C45.3469 47.0311 46.4006 47.3035 47.4281 47.6287C47.8727 47.7337 48.3634 47.9193 48.8176 47.9356L48.9088 48.0051L48.9216 48.2968C48.6128 48.5876 48.8093 50.0784 48.3871 50.2845C47.4735 50.0859 46.5321 49.9929 45.6332 49.7275C45.4889 50.3883 45.3365 51.0485 45.2117 51.713C44.9898 51.5721 44.3543 51.0695 44.1009 51.1244C43.9742 51.1519 43.9049 51.2335 43.8377 51.3336C43.8018 51.629 44.0148 51.8899 44.1895 52.1094C44.3691 52.3348 44.7769 52.7059 44.7756 52.9976C44.7754 53.0199 44.7706 53.0419 44.768 53.0641L44.6906 53.1172C44.4642 53.0458 44.2874 52.895 44.0963 52.759C43.2926 52.1881 42.7088 51.7885 41.6887 51.7955C41.4172 51.7975 41.1131 51.7773 40.8588 51.8805L40.8361 51.9682C41.2624 52.4991 42.0655 52.7041 42.6305 53.0551C42.8645 53.2006 43.063 53.4031 43.2592 53.5943C42.4426 53.3406 40.8088 52.7752 39.9916 52.9414L39.8666 53.0324C39.8767 53.2627 40.0252 53.3803 40.1858 53.5331L40.1612 53.5723C40.0705 53.7141 39.9702 53.8361 39.8574 53.961C40.0313 53.9774 40.2094 53.9864 40.3791 54.0281C40.1586 54.0444 39.867 54.0132 39.7015 54.1612C39.6948 54.3069 39.721 54.362 39.8224 54.4708C40.3863 55.0757 41.4336 55.404 42.2014 55.6623C41.9809 55.6349 41.7476 55.6144 41.533 55.5567C41.0989 55.44 40.5692 55.0401 40.1161 55.1702C40.0247 55.2774 40.033 55.2699 40.0437 55.4115C40.448 56.0479 41.2321 56.4142 41.946 56.5731C43.2717 56.8681 44.7283 56.9402 46.0831 56.9846C46.1117 58.3597 46.7888 63.0805 46.3836 64.0648C46.3792 64.3474 46.3954 64.6527 46.3563 64.9312C46.3596 67.8146 46.5598 70.7073 46.4401 73.5902C46.2074 73.6455 45.5722 73.7263 45.422 73.8931C45.2401 73.7979 41.815 74.025 41.2663 74.0199C41.0744 74.0268 40.8523 74.0116 40.6689 74.0663C40.5404 73.9789 40.3354 74.0087 40.1856 73.9602C39.6298 73.7798 39.8888 70.1451 39.4706 69.3429C39.3132 69.9974 38.6405 73.8136 38.3517 73.9986C38.0766 74.1745 37.5393 74.1204 37.2158 74.1246C35.59 73.9769 34.0042 73.7364 32.3945 73.4702C32.1671 73.3745 31.9403 73.2775 31.714 73.1794C31.6577 71.0661 32.0866 68.6913 32.2452 66.5517C32.3441 65.7729 32.4318 64.983 32.4678 64.1988C32.2855 64.0577 32.2205 63.9289 32.1909 63.6991C32.0883 62.8998 32.2997 61.9656 32.3749 61.1652C32.4774 60.0299 32.5495 58.892 32.591 57.7531C32.627 56.2312 32.6163 54.7085 32.5589 53.1874C32.5136 51.9252 32.3912 50.5856 32.5406 49.3287C32.6191 48.6695 32.8614 48.0547 33.2759 47.5317C33.8553 46.8005 34.9336 46.1866 35.8658 46.0813C36.0335 46.1388 36.1851 46.1676 36.3617 46.1845Z" fill="#545ABA"/>
<path d="M32.4678 64.1988C33.0097 64.2083 34.5627 64.6669 35.2893 64.7778C38.2089 65.2231 42.0398 65.3898 44.9006 64.5691C45.34 64.4429 45.7515 64.2359 46.1786 64.0753C46.2578 64.0456 46.3023 64.045 46.3836 64.0649C46.3792 64.3474 46.3954 64.6527 46.3563 64.9312C46.3596 67.8147 46.5598 70.7073 46.4401 73.5902C46.2074 73.6455 45.5722 73.7263 45.422 73.8931C45.2401 73.798 41.815 74.025 41.2663 74.0199C41.0744 74.0269 40.8523 74.0116 40.6689 74.0664C40.5404 73.9789 40.3354 74.0087 40.1856 73.9602C39.6298 73.7798 39.8888 70.1452 39.4706 69.3429C39.3132 69.9975 38.6405 73.8136 38.3517 73.9986C38.0766 74.1746 37.5393 74.1204 37.2158 74.1246C35.59 73.9769 34.0042 73.7364 32.3945 73.4702C32.1671 73.3745 31.9403 73.2775 31.714 73.1794C31.6577 71.0661 32.0866 68.6913 32.2452 66.5517C32.3441 65.773 32.4318 64.983 32.4678 64.1988Z" fill="#AD7979"/>
<path d="M39.4707 69.3429L39.494 69.2547C39.6209 68.7672 39.7014 67.4794 39.9879 67.1529C40.1576 67.1125 40.3582 67.1083 40.5132 67.2022C40.7368 67.3376 40.7878 67.6706 40.8288 67.9074C41.0074 68.9402 41.01 70.0522 41.0844 71.0989C41.152 72.0489 41.3013 73.0707 41.2664 74.0199C41.0745 74.0268 40.8525 74.0116 40.669 74.0663C40.5405 73.9789 40.3355 74.0087 40.1857 73.9602C39.6299 73.7798 39.8889 70.1451 39.4707 69.3429Z" fill="#8B5F5F"/>
<path d="M32.4667 64.1988C33.0086 64.2083 34.5616 64.6669 35.2882 64.7778C38.2078 65.2231 42.0387 65.3898 44.8995 64.5691C45.3389 64.4429 45.7504 64.2359 46.1775 64.0753C46.2567 64.0456 46.3012 64.045 46.3825 64.0649C46.3781 64.3474 46.3943 64.6527 46.3552 64.9312C46.3446 64.7466 46.3816 64.5284 46.2477 64.3966C45.7811 64.3604 44.5017 64.864 43.9457 64.9764C43.3576 65.0955 42.75 65.1427 42.153 65.195C40.775 65.3157 39.2826 65.3589 37.9064 65.2398C36.9021 65.153 35.904 64.9687 34.8998 64.8967C34.4558 65.6646 34.0019 66.1136 33.1257 66.3507C32.8418 66.4275 32.5169 66.4538 32.2441 66.5517C32.343 65.773 32.4307 64.983 32.4667 64.1988Z" fill="#8B5F5F"/>
<path d="M36.3624 46.1845L36.4815 46.1335C36.43 46.1182 36.3498 46.101 36.3018 46.0727C36.2032 46.0146 36.1552 45.9681 36.1228 45.8581C36.0803 45.7137 36.1313 45.552 36.2072 45.429L36.3328 45.5305L36.4124 45.5113C36.314 45.446 36.2318 45.3928 36.1531 45.3035C36.5096 45.1279 37.8082 45.5155 38.2816 45.5533C39.4146 45.6439 40.5693 45.6005 41.7047 45.5844C41.7405 45.7552 41.7865 45.8689 41.8864 46.0128C41.8909 46.2057 41.9029 46.4013 41.8925 46.5938C41.8901 47.0252 41.923 47.4934 41.7821 47.906C41.2343 47.5794 40.5618 47.356 39.9648 47.1301C38.6815 46.6723 37.7443 46.3341 36.3624 46.1845Z" fill="#E89B7C"/>
<path d="M39.9629 47.13C39.9766 47.0674 39.9714 47.0066 40.0264 46.9656C40.2311 46.8129 41.599 46.5754 41.8906 46.5938C41.8882 47.0251 41.9211 47.4934 41.7802 47.906C41.2323 47.5794 40.5598 47.356 39.9629 47.13Z" fill="#FEC1A1"/>
<path d="M41.8856 46.0127C42.5995 46.3963 43.5195 46.5521 44.3041 46.7578C45.3467 47.031 46.4005 47.3034 47.4279 47.6286L47.3796 47.6282C46.3221 47.6063 43.9266 46.873 42.9052 46.4788C42.8097 46.442 42.7171 46.4501 42.6172 46.4477C42.5164 46.4451 42.4262 46.4255 42.328 46.4045C42.2293 46.4585 42.1954 46.4604 42.1686 46.5774C42.0749 46.9854 42.4778 47.7801 42.2415 48.0946C42.0705 48.0781 41.9222 48.0024 41.7812 47.906C41.9222 47.4934 41.8893 47.0251 41.8917 46.5938C41.902 46.4012 41.89 46.2056 41.8856 46.0127Z" fill="#3239AC"/>
<path d="M57.6105 57.2607C58.6742 56.8914 59.7398 56.4827 60.8186 56.1621C60.9874 58.7325 61.2534 61.2868 61.497 63.8502C62.2273 63.7629 62.9538 63.6417 63.6802 63.528C64.4173 63.3775 66.6567 63.0151 67.1928 62.5751C67.3565 62.7026 67.4644 62.8479 67.5606 63.0294C68.3073 64.4362 68.8799 65.9871 69.5373 67.4422C70.0428 68.5615 70.7882 69.9048 71.1591 71.0465C70.4543 71.7696 69.4722 72.2616 68.5707 72.7058C68.2621 72.8579 67.8997 72.9938 67.6191 73.1911C66.2795 73.6614 64.3119 74.3106 62.8947 74.3558C62.4835 74.3106 60.6537 74.4844 60.2213 74.6049C60.145 74.7188 60.1487 74.7596 60.1389 74.8983L60.0999 74.6799C59.9516 74.5612 59.4995 74.6145 59.2978 74.6121C57.9834 74.5957 56.7195 74.4692 55.4261 74.2347C54.9237 73.9823 54.2986 73.855 53.759 73.6783C53.2231 73.5029 52.7198 73.2644 52.2148 73.0175C52.2453 71.9594 52.4971 70.8738 52.6788 69.8322L53.4773 65.142C53.9141 62.4952 54.0382 59.8111 54.0744 57.1321C54.5003 57.0994 54.9161 56.9585 55.3237 56.8383L55.5175 56.7457C55.6834 57.085 55.8228 57.446 56.0302 57.7624C56.5675 57.6191 57.0867 57.4458 57.6105 57.2607Z" fill="#545ABA"/>
<path d="M61.498 63.8501C62.2284 63.7628 62.9548 63.6415 63.6812 63.5278C63.8626 64.0033 64.2608 65.9476 64.2082 66.4157C63.7721 66.5178 63.2878 66.2998 62.9197 66.0777C62.2042 65.6461 61.7542 64.9532 61.5596 64.1517C61.5357 64.0519 61.5152 63.9513 61.498 63.8501Z" fill="#3239AC"/>
<path d="M55.5176 56.7456C55.6835 57.0849 55.8229 57.4459 56.0303 57.7622C56.5676 57.6189 57.0868 57.4457 57.6106 57.2605C57.8731 57.7156 57.7739 58.5375 57.7427 59.0379C57.2231 59.2379 56.6679 59.3316 56.123 59.436C55.8074 59.2495 55.5523 59.0239 55.3019 58.7594C55.2875 58.3811 55.4234 57.0676 55.3238 56.8382L55.5176 56.7456Z" fill="#3239AC"/>
<path d="M58.8146 49.6269C60.174 48.9106 61.6914 48.1505 63.2573 48.0334L63.3132 48.1293C63.8503 48.1992 64.3812 48.2401 64.9229 48.237C65.9181 49.1724 66.2581 50.3292 66.2986 51.6651C66.3198 52.3707 66.2973 53.0848 66.3451 53.7884C66.1761 55.5083 66.4884 61.1662 67.1942 62.5751C66.658 63.015 64.4187 63.3775 63.6815 63.528C62.9551 63.6417 62.2287 63.7629 61.4983 63.8502C61.2547 61.2867 60.9888 58.7325 60.8199 56.1621C59.7411 56.4826 58.6756 56.8914 57.6119 57.2606C57.088 57.4458 56.5688 57.619 56.0315 57.7623C55.8241 57.446 55.6847 57.085 55.5188 56.7457C55.0528 56.0096 54.6995 55.0846 54.3912 54.2699C53.7124 54.2921 53.078 54.0522 52.4035 54.0098C50.8104 53.9095 49.2316 53.9569 47.6387 54.0173C47.379 54.0272 46.9956 54.0728 46.7793 53.9087C46.81 53.8764 46.8229 53.8578 46.868 53.8373C46.9468 53.8013 52.1399 53.8755 52.643 53.9163C53.1497 53.9572 53.6524 54.0739 54.1494 54.1766C54.7264 53.9664 55.2126 53.6962 55.7329 53.3762C56.3472 53.5975 56.8934 53.9003 57.4532 54.2295C57.7096 54.3801 57.9805 54.5734 58.2544 54.6832C58.376 54.7319 58.504 54.7604 58.6357 54.7521C58.8106 54.7413 58.9186 54.7056 59.0361 54.5815L59.0244 54.4305C58.5764 53.6155 57.3873 53.0113 56.5901 52.5717C57.5659 52.7626 58.3309 53.2114 59.2437 53.541C59.5328 53.6453 59.8222 53.692 60.1079 53.5617C60.2041 53.4384 60.2185 53.4368 60.2161 53.2828C59.7308 52.5179 58.0795 51.9256 57.2029 51.6789C58.3322 51.7019 59.2697 52.2361 60.2734 52.6898C60.4987 52.6116 60.7026 52.5455 60.8883 52.3908C60.9176 52.3224 60.9603 52.2758 60.9332 52.2004C60.776 51.7641 59.199 50.9742 58.7478 50.8155C58.4122 50.6974 58.055 50.672 57.7254 50.5414C58.2413 50.2704 59.5883 51.0595 60.2374 51.0203C60.4437 51.008 60.6149 50.9459 60.7462 50.7861C60.7542 50.6917 60.7727 50.6597 60.7237 50.573C60.4561 50.0985 59.3093 49.7577 58.8146 49.6269Z" fill="#FF5A5E"/>
<path d="M49.7166 41.4177C50.4107 43.485 52.4077 45.5048 54.3655 46.4752C55.0363 46.8077 55.7231 46.9458 56.4702 46.9476C56.6621 46.9598 56.9644 46.9408 57.1032 47.0933C57.1914 47.1903 57.2186 47.2642 57.1933 47.3922C57.1604 47.5576 56.9428 47.7372 56.8255 47.8506C56.627 47.7624 56.4305 47.7622 56.2227 47.8443C55.9613 47.9474 55.7432 48.1665 55.5749 48.3828L55.4643 48.5222L55.3906 48.3883C55.0085 48.3508 54.5576 48.5847 54.2104 48.7294C53.015 49.4303 51.6338 49.7986 50.4371 50.4794C49.8305 50.5229 48.9783 50.4256 48.3867 50.2845C48.8089 50.0784 48.6124 48.5876 48.9212 48.2968C49.0369 48.2821 49.0947 48.2174 49.1808 48.1452C49.3392 48.1893 49.5086 48.2687 49.6676 48.2246C49.6107 46.889 49.5361 45.5642 49.5154 44.2268C49.5073 43.6984 49.47 43.1473 49.5239 42.6225C49.625 42.2293 49.6639 41.8197 49.7166 41.4177Z" fill="#AD5C4C"/>
<path d="M50.4916 47.9938L50.6035 47.9956C50.6615 48.1104 50.6767 48.1639 50.6386 48.2908C50.6207 48.3502 50.5845 48.4011 50.5627 48.4584C50.5586 48.469 50.5595 48.481 50.5579 48.4922L50.6809 48.569C50.8723 48.3505 50.8615 48.2807 50.8595 47.9905C50.8783 48.1505 50.875 48.3777 50.972 48.51C52.0019 48.7455 53.1553 48.6318 54.2104 48.7295C53.015 49.4304 51.6338 49.7987 50.4371 50.4795C49.8305 50.5231 48.9783 50.4257 48.3867 50.2846C48.8089 50.0785 48.6124 48.5877 48.9212 48.2969C49.0369 48.2822 49.0947 48.2175 49.1808 48.1453C49.3392 48.1894 49.5086 48.2688 49.6676 48.2247L49.7591 48.0952C49.7661 48.1496 49.7709 48.2014 49.7875 48.2545C49.8307 48.391 49.914 48.4387 50.0278 48.5083C50.1525 48.5096 50.2354 48.4979 50.3364 48.4161C50.499 48.2846 50.4713 48.1878 50.4916 47.9938Z" fill="#E89B7C"/>
<path d="M50.4921 47.9938C50.3236 47.7742 50.4267 47.1741 50.4629 46.9105C50.5144 46.5359 50.5822 46.1626 50.6465 45.79C50.7645 46.5162 50.812 47.2567 50.86 47.9905C50.862 48.2807 50.8727 48.3505 50.6814 48.569L50.5584 48.4922C50.56 48.481 50.5591 48.469 50.5632 48.4584C50.585 48.4011 50.6212 48.3502 50.6391 48.2908C50.6771 48.1639 50.662 48.1104 50.604 47.9956L50.4921 47.9938Z" fill="url(#paint0_linear_593_1476)"/>
<path d="M56.4707 46.9478C57.0603 46.9127 57.6535 46.9439 58.2459 46.9026C59.8753 46.7892 61.4624 46.4712 63.0409 46.0625C63.0306 46.2964 63.0171 46.5273 62.9903 46.7602C62.9683 46.7672 62.9461 46.7736 62.9244 46.7812C62.7042 46.8576 62.4724 47.1098 62.2775 47.2443C61.4735 47.7991 60.6051 48.2352 59.6426 48.4369C59.0048 48.5708 58.3478 48.5897 57.7032 48.4927C57.4777 48.461 56.8615 48.2653 56.6766 48.323L56.6986 48.3412L56.626 48.3743L56.6225 48.397L56.6238 48.1593L56.8261 47.8507C56.9434 47.7373 57.1609 47.5577 57.1938 47.3924C57.2191 47.2643 57.192 47.1905 57.1037 47.0935C56.965 46.941 56.6626 46.9599 56.4707 46.9478Z" fill="#E89B7C"/>
<path d="M54.2108 48.7294C54.558 48.5847 55.0089 48.3508 55.391 48.3883L55.4647 48.5222C55.2728 48.9317 54.8803 49.6939 54.7614 50.1047C53.6299 50.6721 53.1159 50.7987 51.8362 50.6683C51.3695 50.6205 50.8974 50.574 50.4375 50.4794C51.6342 49.7986 53.0154 49.4303 54.2108 48.7294Z" fill="#FF5A5E"/>
<path d="M55.4651 48.5223L55.5757 48.3829C55.744 48.1667 55.9621 47.9475 56.2234 47.8445C56.4312 47.7623 56.6278 47.7625 56.8263 47.8507L56.6241 48.1593C56.2332 48.4336 55.8958 49.2595 55.7637 49.7151C55.435 49.8795 55.1136 49.9982 54.7617 50.1048C54.8807 49.694 55.2732 48.9318 55.4651 48.5223Z" fill="#545ABA"/>
<path d="M55.7637 49.715C55.8957 49.2594 56.2332 48.4335 56.624 48.1592L56.6227 48.3969C56.6061 48.7729 56.5815 49.1503 56.5753 49.5265C56.306 49.5963 56.0383 49.6685 55.7637 49.715Z" fill="#FF5A5E"/>
<path d="M40.1858 53.5332C40.947 54.0454 41.8707 54.2471 42.6789 54.6711C41.8731 54.5285 41.1581 54.2489 40.3792 54.0281C40.2095 53.9864 40.0314 53.9774 39.8574 53.9611C39.9703 53.8361 40.0706 53.7142 40.1613 53.5723L40.1858 53.5332Z" fill="#3239AC"/>
<path d="M59.0072 21.4572C59.7382 21.4433 60.5797 21.3654 61.3014 21.4969C62.1412 21.5057 62.9906 21.6553 63.8137 21.8121C66.867 22.3949 69.9746 23.5458 72.1851 25.7934C73.0179 26.6319 73.6762 27.6255 74.1226 28.7177C74.5609 29.7683 74.7547 30.8507 75.0223 31.9492C75.7666 35.0043 76.4406 38.0812 76.6314 41.2269C76.655 41.6184 76.7121 42.0228 76.7073 42.4142L76.7062 42.4738C76.6286 42.1591 76.632 41.8161 76.5054 41.5165L76.3937 41.5154C76.2775 41.6902 76.2991 41.9111 76.2917 42.1144C76.1504 40.9764 75.9741 38.8366 75.5016 37.8444C75.4094 41.9061 76.1913 46.3242 74.5733 50.1874C74.4205 50.5524 74.2353 51.1043 73.9627 51.3883C73.927 51.4254 73.8939 51.4471 73.8535 51.4763L73.8241 51.4061C74.4366 50.1205 74.7809 46.8353 74.6244 45.3978L74.4782 45.5271C74.478 46.7093 73.4798 51.4572 72.6806 52.1918C71.7741 53.0247 67.6287 53.6223 66.3448 53.7884C66.297 53.0848 66.3195 52.3707 66.2983 51.6651C66.2578 50.3292 65.9178 49.1724 64.9226 48.237C64.3809 48.2401 63.8501 48.1991 63.3129 48.1293L63.257 48.0334L63.8962 47.8418C63.6587 47.6238 63.2164 47.4838 63.0571 47.2925C62.9423 47.1544 62.987 46.9306 62.9903 46.7602C63.0171 46.5272 63.0305 46.2963 63.0409 46.0624C61.4624 46.4712 59.8753 46.7892 58.2458 46.9025C57.6535 46.9439 57.0603 46.9126 56.4707 46.9477C55.7236 46.9459 55.0368 46.8077 54.366 46.4752C52.4082 45.5049 50.4112 43.4851 49.7171 41.4178C49.6644 41.8198 49.6255 42.2294 49.5244 42.6226L49.4031 42.3215C48.9164 43.1481 48.8911 47.0684 49.1676 48.0972C49.1718 48.1133 49.1766 48.1293 49.1813 48.1453C49.0952 48.2175 49.0374 48.2822 48.9217 48.2969L48.909 48.0051L48.8178 47.9357C48.5935 46.6075 48.4083 45.2203 48.4376 43.8712C48.457 42.9743 48.6028 42.0567 48.5424 41.1625L48.6211 41.149C48.6901 40.9126 48.7197 40.6633 48.7575 40.4203C48.836 39.9166 49.1995 37.6111 48.9652 37.292C49.226 36.8628 49.3358 34.728 49.3992 34.1137C49.0634 34.1351 48.7311 34.1098 48.3959 34.0892C48.2779 34.0271 48.1589 33.9671 48.0391 33.9086C48.1067 33.8449 48.1669 33.7868 48.2245 33.7137C48.2385 33.6961 48.2517 33.6777 48.2651 33.6599C48.4131 33.5541 48.4306 33.5012 48.5078 33.3419L48.574 33.4174L48.6523 33.4784L48.8056 33.431C49.5909 32.6956 49.522 30.975 49.626 29.9863C49.6884 29.3922 49.7764 28.7917 49.9241 28.2127C50.4603 26.1101 51.905 23.9951 53.7927 22.876C55.3087 21.8537 57.211 21.5256 59.0072 21.4572ZM59.2094 39.8227C58.2344 39.5332 54.7591 39.1207 53.7338 39.2095C53.8516 39.6957 54.086 39.9763 54.5197 40.2355C55.4546 40.7939 56.889 40.9416 57.9361 40.6771C58.4082 40.5579 58.9239 40.3058 59.1797 39.8756C59.19 39.8581 59.1995 39.8403 59.2094 39.8227Z" fill="#AD5C4C"/>
<path d="M55.3938 25.7358C56.3296 26.4506 57.0997 27.3497 57.9997 28.1062C60.7649 30.4303 63.9611 31.4083 67.4843 31.9451C66.8183 33.8891 65.8735 36.6658 66.8296 38.6316C67.1515 39.2937 67.6247 39.6251 68.22 40.0339C68.3221 40.0983 68.3859 40.1369 68.5079 40.1571C68.5866 39.9053 68.3345 39.4392 68.3772 39.1071C68.3798 39.0876 68.3827 39.0681 68.3855 39.0485C68.539 38.4143 68.7747 37.7002 69.3566 37.3246C69.7321 37.0821 70.1933 37.0558 70.6189 37.1664C71.1684 37.309 71.6028 37.6852 71.8717 38.1762C72.2928 38.9447 72.2919 39.8715 72.0332 40.6915C71.6907 41.762 70.9272 42.6489 69.9167 43.1501C69.0609 43.581 68.1182 43.6885 67.1803 43.5129C66.1044 45.0498 64.8069 45.5735 63.0399 46.0624C61.4614 46.4711 59.8743 46.7891 58.2448 46.9025C57.6525 46.9438 57.0592 46.9126 56.4697 46.9476C55.7225 46.9458 55.0358 46.8077 54.365 46.4752C52.4071 45.5048 50.4101 43.485 49.716 41.4177C49.6634 41.8197 49.6244 42.2293 49.5234 42.6225L49.402 42.3214L49.2949 42.2868C49.3077 41.1164 49.6167 39.9023 49.7426 38.7334C49.7707 38.4426 49.7846 38.1432 49.8708 37.8626C50.1586 36.0456 50.303 34.2214 50.4687 32.3908C50.489 32.1674 50.4733 31.6853 50.5677 31.4991C50.5828 31.4689 50.6161 31.452 50.6405 31.4285C50.6479 31.2681 50.6613 31.1092 50.6761 30.9494C50.6314 30.656 50.6948 30.3246 50.735 30.0305C50.91 28.7552 51.2516 27.5632 52.0311 26.5155C52.1824 26.3123 52.3521 26.1328 52.532 25.955C53.1441 26.3235 53.4762 26.8465 53.8689 27.4248C55.3448 29.5984 56.5698 30.4044 59.168 30.8324C56.944 29.1761 56.5576 28.0395 55.3938 25.7358ZM59.2084 39.8226C58.2334 39.5331 54.758 39.1207 53.7327 39.2094C53.8506 39.6957 54.085 39.9762 54.5186 40.2354C55.4536 40.7939 56.888 40.9416 57.9351 40.677C58.4072 40.5578 58.9229 40.3058 59.1787 39.8755C59.189 39.8581 59.1984 39.8402 59.2084 39.8226Z" fill="#FEC1A1"/>
<path d="M68.3853 39.0484L68.4345 39.4751C68.732 39.3161 68.7767 38.8621 69.2156 38.9881C69.5005 39.0701 69.8256 39.3592 69.9516 39.625C70.1278 39.9967 70.0883 40.4817 69.9337 40.8522C69.7224 41.3583 69.3114 41.7386 68.8015 41.9372C68.4686 42.0667 68.1001 42.1563 67.7607 42.009C67.6606 41.8964 67.6127 41.8475 67.6175 41.6916C67.634 41.1614 67.9819 40.4993 68.2198 40.0338C68.322 40.0983 68.3857 40.1368 68.5078 40.1571C68.5865 39.9052 68.3343 39.4391 68.377 39.107C68.3796 39.0875 68.3826 39.068 68.3853 39.0484Z" fill="#E89B7C"/>
<path d="M49.8723 37.8627L49.9309 37.9501C50.4456 37.8375 50.8754 37.554 51.3897 37.8864C51.5762 38.0069 51.7042 38.1942 51.7421 38.4127C51.7805 38.6317 51.7256 38.8567 51.5908 39.034C51.4388 39.2305 51.2003 39.3452 50.9536 39.3597C50.6739 39.376 50.3252 39.2785 50.12 39.0828C49.9983 38.9667 49.8915 38.8161 49.7441 38.7334C49.7722 38.4426 49.7861 38.1432 49.8723 37.8627Z" fill="#FA8B89"/>
<path d="M50.6763 30.9496C51.5955 30.3589 52.4675 30.0689 53.568 30.3042C53.8467 30.3639 54.2013 30.4644 54.3888 30.6859C54.398 30.8158 54.3984 30.838 54.3404 30.9536C53.8171 31.1639 53.0355 30.6795 52.4559 30.768C51.8931 30.8538 51.1072 31.501 50.6406 31.4287C50.648 31.2683 50.6615 31.1094 50.6763 30.9496Z" fill="#6F190C"/>
<path d="M54.1878 43.3142C53.7925 42.8509 53.4752 42.3463 53.2781 41.7679C53.0799 41.1862 52.903 40.1879 53.2048 39.625C53.3221 39.4066 53.4988 39.2763 53.7339 39.2095C53.8518 39.6957 54.0862 39.9763 54.5198 40.2355C55.4548 40.7939 56.8892 40.9416 57.9363 40.6771C58.4084 40.5579 58.9241 40.3058 59.1799 39.8756C59.1902 39.8581 59.1996 39.8403 59.2096 39.8227C59.4699 39.8069 59.8864 39.9259 60.0838 40.1014C60.2868 40.2814 60.3368 40.5175 60.3396 40.7789C60.3488 41.6147 59.9089 42.3646 59.3228 42.9334C58.9645 43.2811 58.5683 43.5574 58.1237 43.7841L58.0741 43.8058C57.5061 44.0499 56.9357 44.2164 56.3107 44.2079C55.5001 44.1967 54.757 43.8875 54.1878 43.3142Z" fill="#6F190C"/>
<path d="M54.1875 43.3141C54.7333 42.866 55.2942 42.5758 56.0279 42.6316C56.8984 42.6978 57.5129 43.2254 58.1235 43.784L58.0738 43.8057C57.5058 44.0498 56.9355 44.2163 56.3105 44.2078C55.4998 44.1966 54.7568 43.8874 54.1875 43.3141Z" fill="#F82C2A"/>
<path d="M61.1229 35.6105C61.9575 35.559 62.5476 35.8309 63.2406 36.2626C63.451 36.0574 63.6797 35.8732 63.9058 35.6856C63.8419 35.9377 63.6067 36.3526 63.654 36.6006C63.6695 36.6826 63.6847 36.7428 63.7617 36.7825C64.0249 36.9175 64.5954 36.7425 64.8884 36.6859C64.7798 36.8207 64.0823 37.4249 64.0785 37.4374C64.0153 37.6393 64.1424 37.8098 63.9338 37.9731C63.8206 38.0618 63.7044 38.0444 63.5746 38.0244C63.379 37.8724 63.2951 37.6347 63.1906 37.4165C63.1215 37.302 63.0504 37.19 62.9614 37.0895C62.5807 36.6631 62.0466 36.4028 61.4745 36.365C60.5364 36.3032 60.3379 36.736 59.7099 37.2344C59.5898 37.3298 59.491 37.347 59.3431 37.3384C59.2332 37.2682 59.1761 37.2188 59.1484 37.0847C59.1174 36.9346 59.163 36.7539 59.2504 36.6302C59.6778 36.0251 60.4217 35.7409 61.1229 35.6105Z" fill="#6F190C"/>
<path d="M62.9089 39.0956C63.3677 39.0751 63.7912 39.1017 64.1968 39.3475C64.4421 39.4961 64.6789 39.7351 64.7308 40.027C64.7599 40.1824 64.7223 40.3426 64.627 40.469C64.3928 40.7826 63.9439 40.8603 63.5784 40.8993C63.0799 40.9355 62.5356 40.8857 62.1071 40.6107C61.8912 40.472 61.6893 40.26 61.6409 40.0004C61.6135 39.8534 61.642 39.7085 61.7277 39.5854C61.9767 39.2274 62.5077 39.1511 62.9089 39.0956Z" fill="#FA8B89"/>
<path d="M51.1222 34.6033C51.3249 34.6681 51.4505 34.8662 51.5838 35.0232C52.0145 34.8904 52.4111 34.7719 52.868 34.8048C53.4194 34.8443 53.9088 35.1039 54.2622 35.5247C54.4711 35.7737 54.6826 36.156 54.6343 36.492C54.6153 36.6242 54.5937 36.6378 54.4955 36.7166C54.4397 36.712 54.3802 36.7234 54.3281 36.703C54.2201 36.661 53.7561 35.9309 53.5858 35.7619C53.4408 35.6462 53.2668 35.5558 53.1078 35.4599C51.3245 35.4296 51.7377 36.185 50.8962 36.505C50.7591 36.4539 50.7623 36.4455 50.6869 36.3187C50.7527 35.8306 50.413 35.5431 50.1836 35.1366C50.4093 35.2521 50.7329 35.4582 50.9902 35.4351C51.0748 35.4276 51.0969 35.3765 51.152 35.3197C51.2281 35.0906 51.1581 34.8373 51.1222 34.6033Z" fill="#6F190C"/>
<path d="M61.4724 31.1897C61.6397 31.1752 61.8076 31.1649 61.9755 31.1587C62.9939 31.1291 64.4418 31.5472 65.1775 32.2813C65.3058 32.4096 65.4043 32.562 65.3962 32.7489C65.3875 32.948 65.2563 33.0167 65.1187 33.13C64.406 32.4597 63.6243 31.8491 62.6014 31.793C62.2799 31.7754 61.9552 31.8504 61.6349 31.8165C61.4419 31.7962 61.3144 31.76 61.1973 31.6097C61.197 31.53 61.1964 31.4642 61.2308 31.3902C61.3 31.241 61.3252 31.2471 61.4724 31.1897Z" fill="#6F190C"/>
<path d="M53.792 22.876C55.308 21.8537 57.2102 21.5256 59.0065 21.4573C58.898 21.5144 58.8299 21.5649 58.7318 21.6349C58.6568 21.6886 58.5436 21.7038 58.4548 21.7255C58.8833 21.726 59.3188 21.7101 59.7462 21.7367C60.6991 21.9187 61.6754 22.0753 62.6102 22.3325C65.3879 23.0969 67.8308 24.6912 69.4567 27.0899C70.6905 28.9099 71.2777 31.5576 71.0845 33.7553C70.9369 32.9955 70.8141 32.2188 70.602 31.474C69.8761 28.926 68.3411 26.6947 66.1226 25.2108C63.1251 23.2056 58.4978 22.4102 54.9803 23.1103C54.412 23.2234 53.8736 23.3735 53.3359 23.5886C53.5456 23.3548 53.7726 23.1799 54.0265 22.996L53.792 22.876Z" fill="#312A54"/>
<path d="M53.793 22.876C55.309 21.8537 57.2112 21.5256 59.0075 21.4573C58.899 21.5144 58.8309 21.5649 58.7328 21.6349C58.6578 21.6886 58.5446 21.7038 58.4558 21.7255C56.8738 21.8791 55.3964 22.1355 54.0275 22.996L53.793 22.876Z" fill="#6F190C"/>
<path d="M74.5993 41.4041C74.6921 42.1049 74.7469 42.8103 74.7635 43.517C74.7726 43.9017 74.8559 45.1551 74.6234 45.3978L74.4771 45.5272C74.3107 44.6648 74.4835 42.3404 74.5993 41.4041Z" fill="#FEC1A1"/>
<path d="M59.0068 21.4572C59.7378 21.4433 60.5793 21.3654 61.301 21.4969C60.7347 21.5382 60.2472 21.4089 59.7465 21.7366C59.3191 21.71 58.8836 21.726 58.4551 21.7254C58.5439 21.7038 58.6571 21.6885 58.7321 21.6349C58.8302 21.5649 58.8984 21.5144 59.0068 21.4572Z" fill="#9D4734"/>
<path d="M26.1556 23.4135C26.1074 22.7959 26.1662 22.2971 26.4687 21.748C27.7564 19.4102 32.8267 16.8903 35.36 16.163C37.3051 15.6045 40.0092 15.1175 41.8634 16.1571C42.3691 16.4406 42.8273 16.9132 42.9657 17.4866C43.1797 18.375 42.5403 19.1761 42.1026 19.888C42.7407 19.7434 43.4073 19.6497 44.0591 19.5906C44.6572 19.5364 45.8093 19.439 46.2931 19.8812C46.4033 19.982 46.4658 20.1193 46.4573 20.269C46.4227 20.8833 45.5794 21.4763 45.1405 21.85C46.1167 21.8906 47.248 22.1296 47.9947 22.7992C48.3082 23.0801 48.5701 23.4511 48.5753 23.8856C48.5874 24.9322 47.6903 25.0586 47.141 25.6808C47.1213 25.703 47.1024 25.726 47.0832 25.7486C48.4201 27.7936 48.5765 31.0294 48.5736 33.4174L48.5075 33.3419C48.4303 33.5012 48.4127 33.5541 48.2648 33.6599C48.2513 33.6777 48.2382 33.6961 48.2241 33.7137C48.1665 33.7868 48.1063 33.8449 48.0387 33.9086C48.1586 33.967 48.2775 34.0271 48.3955 34.0892C48.3351 34.7276 48.7389 36.6719 48.9648 37.2919C49.1992 37.611 48.8357 39.9165 48.7572 40.4203C48.7193 40.6633 48.6898 40.9126 48.6207 41.149L48.542 41.1624C47.154 42.8992 46.1793 44.3339 43.9099 45.0289C43.1849 45.2508 42.4269 45.3616 41.7038 45.5844C40.5684 45.6006 39.4137 45.6439 38.2807 45.5534C37.8073 45.5155 36.5087 45.1279 36.1522 45.3035C36.2309 45.3928 36.3131 45.4461 36.4115 45.5113L36.3319 45.5306L36.2063 45.429C36.1304 45.5521 36.0795 45.7137 36.1219 45.8581C36.1543 45.9682 36.2023 46.0147 36.3009 46.0727C36.3489 46.101 36.4291 46.1183 36.4806 46.1335L36.3615 46.1846C36.1849 46.1677 36.0333 46.1388 35.8656 46.0813C35.8953 46.0257 35.8988 46.022 35.9258 45.9535C35.9936 45.7804 36.0891 45.4988 36.0021 45.3193C35.8436 44.9927 35.2285 44.816 34.907 44.6938C34.2847 44.4572 33.6384 44.2588 33.0775 43.8943C32.557 43.5558 31.8742 42.8547 31.3227 42.6352C30.6202 42.3554 29.8005 42.425 29.0684 42.1713C27.581 41.6557 26.999 40.5083 26.3597 39.1872C25.5088 38.0471 24.7397 37.0399 24.135 35.7359C22.8803 33.0303 22.1605 29.4885 23.2388 26.6146C23.7889 25.1486 24.7216 24.0642 26.1556 23.4135ZM45.026 37.3092C44.8302 37.2561 44.6537 37.2328 44.451 37.2445C43.807 37.2816 39.6019 37.9044 39.1601 38.0837C39.3978 38.4689 39.6837 38.7065 40.1085 38.8747C41.17 39.2952 42.7738 39.0105 43.7835 38.5604C44.3905 38.2898 44.7852 37.9332 45.026 37.3092Z" fill="#FEC1A1"/>
<path d="M26.1556 23.4135C26.1074 22.7959 26.1662 22.2971 26.4687 21.748C27.7564 19.4102 32.8267 16.8903 35.36 16.163C37.3051 15.6045 40.0092 15.1175 41.8634 16.1571C42.3691 16.4406 42.8273 16.9132 42.9657 17.4866C43.1797 18.375 42.5403 19.1761 42.1026 19.888C42.7407 19.7434 43.4073 19.6497 44.0591 19.5906C44.6572 19.5364 45.8093 19.439 46.2931 19.8812C46.4033 19.982 46.4658 20.1193 46.4573 20.269C46.4227 20.8833 45.5794 21.4763 45.1405 21.85C46.1167 21.8906 47.248 22.1296 47.9947 22.7992C48.3082 23.0801 48.5701 23.4511 48.5752 23.8856C48.5874 24.9322 47.6903 25.0586 47.141 25.6808C47.1213 25.703 47.1024 25.726 47.0832 25.7486C48.4201 27.7936 48.5765 31.0294 48.5736 33.4174L48.5075 33.3419C48.4303 33.5012 48.4127 33.5541 48.2648 33.6599C48.1048 33.1497 48.0568 32.5622 47.9744 32.0326C47.6732 30.0965 47.5782 27.7488 46.9203 25.9271L46.8176 25.8415C46.4721 25.9135 46.1492 26.0684 45.8134 26.177C45.2837 26.348 44.7377 26.4823 44.193 26.5969C40.6841 27.3345 36.8859 27.3503 33.3497 26.8047C33.5616 27.1328 33.7858 27.4993 33.6835 27.9068C33.6246 28.1406 33.4593 28.3069 33.2543 28.4255C32.4889 28.8686 31.4076 28.7658 30.5608 28.6908C31.1605 31.4673 31.4388 34.3811 30.9592 37.2015C30.3314 36.5933 29.6435 36.0831 28.728 36.0786C28.1033 36.0754 27.4733 36.313 27.0328 36.7583C26.5182 37.2783 26.3206 38.0157 26.3372 38.7305C26.3416 38.8828 26.3492 39.0351 26.3597 39.1872C25.5088 38.0471 24.7397 37.0399 24.135 35.7359C22.8803 33.0303 22.1605 29.4885 23.2388 26.6146C23.7889 25.1486 24.7216 24.0642 26.1556 23.4135Z" fill="#9D4734"/>
<path d="M45.0251 37.3091C45.2308 37.3133 45.3367 37.3546 45.4817 37.5038C45.8195 37.8516 45.7482 38.5254 45.7227 38.969C45.6708 39.8758 45.2572 40.834 44.628 41.4915C44.0585 42.118 43.2434 42.4549 42.4014 42.4931C41.7618 42.5183 41.1242 42.4034 40.5341 42.1567C39.5773 41.7167 38.7345 41.1223 38.2591 40.1565C38.0685 39.7691 37.9255 39.3113 38.089 38.8899C38.2792 38.3986 38.7118 38.2745 39.1591 38.0836C39.3968 38.4688 39.6828 38.7063 40.1076 38.8746C41.1691 39.2951 42.7728 39.0104 43.7826 38.5603C44.3895 38.2897 44.7842 37.9331 45.0251 37.3091Z" fill="#6F190C"/>
<path d="M40.5352 42.1569C40.6251 42.1032 40.5883 42.1348 40.6559 42.0566C41.2173 41.4074 41.9226 40.9266 42.8044 40.855C43.4865 40.7995 44.1182 41.0535 44.6291 41.4917C44.0596 42.1181 43.2445 42.455 42.4025 42.4933C41.7629 42.5184 41.1253 42.4036 40.5352 42.1569Z" fill="#F82C2A"/>
<path d="M29.565 37.8914C29.5916 37.907 29.6189 37.9211 29.6446 37.9382C30.3566 38.4149 30.9308 40.0506 31.1172 40.8431C30.8062 40.9157 30.5097 40.9697 30.1911 40.9956C29.7752 40.9223 29.4102 40.7645 29.1123 40.4575C28.6138 39.9439 28.5855 39.3425 28.6093 38.6712C28.8923 38.2784 29.1374 38.1026 29.565 37.8914Z" fill="#E89B7C"/>
<path d="M34.8512 37.5279C35.3187 37.493 35.7974 37.4528 36.2246 37.6888C36.4145 37.7939 36.573 37.9486 36.628 38.1633C36.672 38.3351 36.6229 38.5149 36.5253 38.6595C36.2566 39.0578 35.74 39.198 35.2985 39.3027C35.1015 39.3141 34.9031 39.3267 34.7057 39.3267C34.1397 39.3271 33.7988 39.0363 33.4238 38.6614C33.4894 38.5102 33.5594 38.3507 33.6482 38.2116C33.9314 37.7687 34.3641 37.6293 34.8512 37.5279Z" fill="#FA8B89"/>
<path d="M36.4375 34.2659C37.2101 34.2185 37.73 34.3079 38.3896 34.7273C38.6953 34.9215 38.9986 35.1462 39.0813 35.5145C39.0568 35.6716 39.0315 35.7135 38.9238 35.8209C38.503 35.8749 38.0527 35.3881 37.6914 35.1855C37.2561 34.9412 36.8376 34.9112 36.3658 35.0455L36.2977 35.0655C35.1692 35.4915 35.5016 35.7241 34.9326 36.454C34.8193 36.5993 34.736 36.6278 34.5569 36.6531C34.3993 36.5857 34.3825 36.5734 34.2856 36.4327C34.224 36.1483 34.4558 35.7767 34.6012 35.5362C35.0471 34.7984 35.6115 34.4665 36.4375 34.2659Z" fill="#6F190C"/>
<path d="M35.0211 29.1028C35.5405 28.9612 36.305 28.8357 36.7987 29.1025C36.8994 29.1567 36.9694 29.2079 36.9993 29.3215C36.9079 29.4769 36.7714 29.557 36.5939 29.5956C36.3667 29.645 36.0898 29.617 35.8569 29.6123C35.1445 29.6527 34.3285 29.8779 33.748 30.3043C33.3457 30.5997 33.0415 31.1172 32.5183 31.1839C32.4496 31.1383 32.3984 31.1352 32.3893 31.0459C32.367 30.8253 32.4915 30.5911 32.6169 30.4175C33.1322 29.7032 34.1686 29.2294 35.0211 29.1028Z" fill="#6F190C"/>
<path d="M45.4672 33.0255C45.7877 33.0062 46.1497 32.9803 46.4517 33.1095C46.9349 33.316 47.578 33.7585 47.7928 34.2461C47.7847 34.3208 47.7998 34.3829 47.74 34.4356C47.7017 34.4693 47.581 34.5371 47.529 34.5268C47.0981 34.4413 46.7267 33.6953 45.8106 33.6385L45.7459 33.6352C44.4975 33.8777 44.8452 34.4491 44.2619 35.0628L44.1352 35.0419C44.0352 34.9629 43.9721 34.9318 43.9307 34.8073C43.8476 34.5562 44.0127 34.2169 44.135 34.0021C44.4503 33.4493 44.8636 33.1885 45.4672 33.0255Z" fill="#6F190C"/>
<path d="M47.1702 35.4919C47.3802 35.4702 47.6106 35.4384 47.8184 35.4868C48.0143 35.5321 48.2012 35.7232 48.2938 35.8939C48.398 36.0858 48.4186 36.2949 48.3444 36.5014C48.2445 36.7797 47.9981 36.9606 47.7363 37.0758C47.5553 37.098 47.3666 37.1287 47.1872 37.0822C46.9471 37.0203 46.712 36.8697 46.5862 36.6526C46.4856 36.4788 46.4663 36.2697 46.5339 36.0805C46.6479 35.7704 46.8834 35.6253 47.1702 35.4919Z" fill="#FA8B89"/>
<path d="M44.6006 27.8045C45.3795 27.7272 46.3251 27.7909 46.9542 28.3121C47.0948 28.4286 47.1907 28.5364 47.2089 28.7229L47.1146 28.8131C46.7003 28.886 46.4158 28.6724 46.0631 28.4828C44.7524 28.0617 44.0858 28.7905 43.4122 28.6597C43.3274 28.6432 43.3116 28.5803 43.2657 28.5149C43.2683 28.4251 43.2534 28.3733 43.3058 28.2961C43.5219 27.9776 44.2502 27.8765 44.6006 27.8045Z" fill="#6F190C"/>
<path d="M31.3976 82.3442C31.9031 82.3881 35.3805 82.5944 35.6014 82.7653C35.5973 83.0901 35.5964 83.3807 35.7481 83.6787C36.0737 83.9697 36.2172 84.4638 36.4983 84.8079L36.8622 85.1538L37.0786 85.3519L37.342 85.6151L37.6544 85.8293L37.861 86.0681C38.8198 86.6334 39.6057 87.4075 40.1486 88.3814C40.1633 88.4383 40.1772 88.4956 40.1896 88.5533C40.2302 88.7429 40.243 88.9191 40.1246 89.085C39.911 89.3839 39.4731 89.4889 39.1288 89.5439C36.8184 89.9124 34.6345 89.2569 32.5302 88.385C31.9236 88.1337 31.2447 87.889 30.71 87.5022C30.6209 86.897 30.6449 86.2693 30.6961 85.6618C30.6972 85.2306 30.6651 84.6773 30.8394 84.2757C31.0971 83.6416 31.2526 83.0104 31.3976 82.3442Z" fill="#312A54"/>
<path d="M31.398 82.3442C31.9035 82.3881 35.3809 82.5944 35.6018 82.7653C35.5978 83.0901 35.5968 83.3807 35.7485 83.6787C34.892 83.6623 34.0597 83.7283 33.2367 83.9787L33.1977 84.7732C32.4168 84.6874 31.5775 84.5584 30.8398 84.2757C31.0975 83.6416 31.253 83.0104 31.398 82.3442Z" fill="#FDFDE7"/>
<path d="M30.71 87.502C30.6209 86.8969 30.6449 86.2691 30.6961 85.6616C30.7166 86.0419 30.7125 86.4183 30.7035 86.7989C33.4094 87.9412 35.7599 89.3085 38.8209 88.9757C39.1961 88.9349 39.6713 88.9369 40.0208 88.7945C40.0873 88.7675 40.0954 88.7321 40.134 88.6742L40.1486 88.3812C40.1633 88.4382 40.1772 88.4955 40.1896 88.5532C40.2302 88.7427 40.243 88.9189 40.1246 89.0848C39.911 89.3837 39.4731 89.4888 39.1288 89.5437C36.8184 89.9122 34.6345 89.2567 32.5302 88.3849C31.9236 88.1336 31.2447 87.8889 30.71 87.502Z" fill="#1F5C76"/>
<path d="M36.8631 85.1538C36.4339 85.1595 35.9681 85.1336 35.5578 85.2763C35.1661 85.4128 34.8423 85.9266 34.4315 85.9443L34.416 85.8778C34.4648 85.7826 34.5211 85.704 34.5915 85.6228C35.0641 85.0768 35.8026 84.8591 36.4993 84.8079L36.8631 85.1538Z" fill="#A6E1F0"/>
<path d="M37.0784 85.3518L37.3417 85.6151C36.2334 85.7624 36.1358 85.6937 35.2007 86.383L35.1024 86.3611L35.0664 86.2619C35.0952 86.1901 35.1275 86.1349 35.1813 86.0784C35.7138 85.5193 36.3264 85.3524 37.0784 85.3518Z" fill="#A6E1F0"/>
<path d="M37.8609 86.0682C37.4608 86.1385 37.0561 86.1404 36.6664 86.2789C36.3517 86.3907 36.0715 86.8091 35.7438 86.7971L35.7109 86.7069C35.732 86.6022 35.7512 86.5307 35.8284 86.4525C36.2658 86.0094 37.0582 85.8409 37.6542 85.8293L37.8609 86.0682Z" fill="#A6E1F0"/>
<path d="M67.355 82.1919C67.5198 81.9551 70.4815 80.5156 71.0849 80.1821C71.4659 80.5997 71.8329 81.0138 72.1694 81.4686C72.5691 81.9914 72.9746 82.5106 73.3512 83.0501C73.5128 83.2809 73.764 83.5601 73.7049 83.8623C73.5652 84.5758 70.6178 88.0277 69.9065 88.5562C69.4676 88.8323 69.1086 88.9618 68.5992 89.0584C67.7652 89.203 66.2681 89.3695 65.51 88.9484C65.2249 88.79 65.163 88.5815 65.0893 88.2814C65.0507 86.9451 65.8176 86.8744 66.4858 85.9986C66.5041 85.9746 66.5218 85.9499 66.5399 85.9257L66.6786 85.749L66.8853 85.3397C66.9324 85.2206 67.0002 85.1141 67.0656 85.0044L67.2385 84.6646L67.3718 84.2464C67.6046 83.737 67.3654 83.3816 67.4313 82.8736C67.4383 82.6493 67.3868 82.414 67.355 82.1919Z" fill="#FF5A5E"/>
<path d="M67.3555 82.1919C67.5202 81.9551 70.4819 80.5156 71.0853 80.1821C71.4664 80.5997 71.8334 81.0138 72.1699 81.4686C72.012 82.1665 71.6601 82.7333 71.0464 83.1244C70.8138 83.2726 70.5599 83.3571 70.2983 83.4367C70.2385 83.1277 70.1805 82.8181 70.1247 82.5084C69.2158 82.5259 68.3122 82.6484 67.4317 82.8736C67.4388 82.6493 67.3872 82.414 67.3555 82.1919Z" fill="#FDFDE7"/>
<path d="M73.3517 83.05C73.5133 83.2808 73.7645 83.56 73.7054 83.8622C73.5658 84.5757 70.6183 88.0276 69.907 88.5561C69.4682 88.8322 69.1091 88.9617 68.5997 89.0583C67.7658 89.2029 66.2686 89.3694 65.5106 88.9483C65.2254 88.7899 65.1635 88.5814 65.0898 88.2813C65.2395 88.4324 65.3852 88.5948 65.5461 88.7337C66.2019 88.8673 66.8288 88.7809 67.4839 88.8265C68.1382 88.7323 68.8369 88.6285 69.4353 88.3369C69.8162 87.9309 70.2173 87.5543 70.5736 87.1237C71.2949 86.2526 71.9413 85.3157 72.7394 84.5114C72.9513 84.2958 73.2206 84.0117 73.3401 83.7321C73.3488 83.7118 73.3558 83.6908 73.3641 83.6702C73.4481 83.4581 73.3938 83.2661 73.3517 83.05Z" fill="#B4224F"/>
<path d="M72.7397 84.5115C72.7443 84.6845 72.7472 84.8374 72.659 84.9917C72.2942 85.6291 71.6861 86.2117 71.2188 86.7841C70.8627 87.2206 70.5138 87.737 70.1237 88.1369C70.0628 88.1994 69.9913 88.2528 69.9204 88.3035L69.4355 88.337C69.8164 87.931 70.2176 87.5544 70.5739 87.1238C71.2951 86.2526 71.9416 85.3157 72.7397 84.5115Z" fill="#C73660"/>
<path d="M67.065 85.0045C67.6875 84.7225 68.2689 84.6668 68.918 84.9089C69.1751 85.0047 69.3928 85.1241 69.5735 85.3331L69.5929 85.4147C69.5419 85.4816 69.5145 85.4863 69.4309 85.4928C69.1354 85.5154 68.7811 85.2396 68.4592 85.2119C67.9712 85.17 67.3162 85.4652 66.8848 85.3397C66.9319 85.2207 66.9996 85.1141 67.065 85.0045Z" fill="#F2A0D0"/>
<path d="M67.3716 84.2463C68.1485 84.0538 69.0803 84.0512 69.792 84.4675C69.9479 84.5586 70.0897 84.6825 70.2286 84.7973C69.0284 84.616 68.4634 84.4345 67.2383 84.6645L67.3716 84.2463Z" fill="#F2A0D0"/>
<path d="M66.6778 85.749C67.2297 85.5106 67.7104 85.341 68.3089 85.5701C68.5769 85.6726 68.7902 85.824 68.9688 86.0463L68.9921 86.1715C68.7557 86.22 68.3881 85.9865 68.1288 85.9335C67.5992 85.8251 67.0233 86.1293 66.5391 85.9257L66.6778 85.749Z" fill="#F2A0D0"/>
<path d="M56.0944 82.7787C57.4725 82.7111 58.853 82.7102 60.231 82.7759C60.3596 83.3037 60.4783 83.9168 60.7212 84.4014C60.8167 85.0717 60.7884 85.878 60.7282 86.5529C60.7317 86.886 60.7389 87.2178 60.7123 87.5501C59.8825 87.6726 59.0635 87.853 58.229 87.9451C56.95 88.2287 55.5396 88.3222 54.2345 88.406C53.05 88.482 50.8886 88.6465 49.8015 88.1991C49.6053 88.1185 49.4542 87.9866 49.2969 87.849L49.462 87.6998L49.5588 87.5159L49.7437 87.4088C50.196 86.9944 50.7134 86.638 51.2176 86.2901C51.6649 86.0858 52.0901 85.8424 52.5471 85.6572C52.7188 85.5563 52.8834 85.479 53.0707 85.4114L53.1355 85.3612C53.3474 85.2602 53.5581 85.1654 53.7772 85.0804L54.0629 84.9753C54.2382 84.9104 54.4102 84.8206 54.5806 84.7432C54.7153 84.6457 54.8815 84.061 55.0577 83.8431C55.2498 83.7781 55.4179 83.7281 55.6214 83.7185C55.6344 83.7099 55.6477 83.7018 55.66 83.6926C56.0108 83.4353 56.0305 83.1823 56.0944 82.7787Z" fill="#FF5A5E"/>
<path d="M56.0941 82.7787C57.4722 82.7111 58.8526 82.7102 60.2307 82.7759C60.3592 83.3037 60.478 83.9168 60.7209 84.4014C59.783 84.5906 58.708 84.6297 57.752 84.6259C57.5662 84.6251 57.3948 84.6339 57.2601 84.4976C57.2476 84.3332 57.2363 84.214 57.1587 84.0668C56.8 83.7511 56.0768 83.8429 55.6211 83.7185C55.634 83.7099 55.6473 83.7018 55.6597 83.6926C56.0104 83.4353 56.0302 83.1823 56.0941 82.7787Z" fill="#FDFDE7"/>
<path d="M60.6531 87.1772C60.6658 86.966 60.6933 86.7619 60.7282 86.553C60.7317 86.886 60.7389 87.2178 60.7123 87.5501C59.8825 87.6727 59.0635 87.8531 58.229 87.9451C56.95 88.2287 55.5396 88.3223 54.2345 88.406C53.05 88.4821 50.8886 88.6465 49.8015 88.1992C49.6053 88.1185 49.4542 87.9866 49.2969 87.849L49.462 87.6999C49.4803 87.7559 49.513 87.8106 49.539 87.8634C50.8546 88.479 57.0608 87.6576 58.765 87.4432C59.3971 87.3751 60.0267 87.2863 60.6531 87.1772Z" fill="#B4224F"/>
<path d="M52.5469 85.6574C52.7186 85.5566 52.8832 85.4792 53.0705 85.4116L53.1375 85.4546C53.5267 85.7006 53.8708 85.7463 54.1329 86.1689L54.0875 86.2346C53.7533 86.2278 52.8095 85.8494 52.5469 85.6574Z" fill="#F2A0D0"/>
<path d="M54.5802 84.7434C54.8578 84.8838 55.4339 85.2034 55.5107 85.5203C55.5141 85.5341 55.5133 85.5486 55.5146 85.5629C55.2023 85.6245 54.5154 85.1573 54.2031 85.0381C54.155 85.0197 54.1087 84.9977 54.0625 84.9754C54.2378 84.9106 54.4097 84.8207 54.5802 84.7434Z" fill="#F2A0D0"/>
<path d="M54.1976 85.1877C54.4709 85.3463 54.791 85.4752 54.8815 85.801L54.859 85.9174C54.7144 85.9725 54.6455 85.9619 54.5008 85.9029C54.2798 85.8127 54.0825 85.6678 53.8594 85.5811C53.9595 85.3716 53.9927 85.2948 54.1976 85.1877Z" fill="#F2A0D0"/>
<path d="M53.1348 85.3615C53.3466 85.2604 53.5574 85.1656 53.7764 85.0806L54.1962 85.1878C53.9914 85.2949 53.9582 85.3717 53.8581 85.5812L53.1348 85.3615Z" fill="#F2A0D0"/>
<path d="M41.3325 82.0439C42.6993 82.0126 44.0724 82.0859 45.4403 82.0905C45.5404 82.4333 45.6109 82.7833 45.8821 83.0362C46.2073 83.0473 46.4537 83.1206 46.682 83.3638C46.841 83.5333 46.9798 83.8174 47.0438 84.0393C47.2958 84.1442 47.5906 84.2393 47.82 84.3834C48.0246 84.4495 48.1964 84.5423 48.3813 84.6505L48.6543 84.7317L49.1847 85.0276C49.8432 85.3467 50.7309 85.7411 51.2166 86.29C50.7124 86.638 50.195 86.9944 49.7427 87.4088L49.5578 87.5159L49.461 87.6998L49.2959 87.849C48.5004 87.5995 47.1628 87.8203 46.2075 87.5989C45.2449 87.5898 41.8264 87.1244 40.935 86.8527C40.8427 86.7267 40.8602 86.6536 40.8536 86.5002C40.858 85.6111 40.6589 84.5944 40.9031 83.7316C41.2204 83.2418 41.2697 82.6082 41.3325 82.0439Z" fill="#312A54"/>
<path d="M41.3337 82.0439C42.7005 82.0126 44.0736 82.0859 45.4415 82.0905C45.5416 82.4333 45.6122 82.7833 45.8833 83.0362C45.6001 83.1369 44.5662 83.1308 44.4415 83.375C44.3759 83.5032 44.3885 83.6726 44.3835 83.814C44.0294 84.0857 41.4715 83.7953 40.9043 83.7316C41.2216 83.2418 41.2709 82.6082 41.3337 82.0439Z" fill="#FDFDE7"/>
<path d="M40.8555 86.5003C41.4774 86.4459 42.1931 86.6265 42.8148 86.7064C44.3147 86.9123 45.8178 87.0947 47.3235 87.2535C48.1301 87.3378 48.9332 87.4783 49.7446 87.4089L49.5597 87.516L49.4629 87.6999L49.2978 87.849C48.5023 87.5996 47.1647 87.8204 46.2094 87.599C45.2467 87.5898 41.8283 87.1245 40.9369 86.8528C40.8446 86.7268 40.8621 86.6537 40.8555 86.5003Z" fill="#1F5C76"/>
<path d="M46.209 87.5992C46.7328 87.5854 47.257 87.6017 47.7802 87.5784C48.3541 87.5529 48.9919 87.4526 49.5593 87.5161L49.4625 87.7L49.2974 87.8492C48.5019 87.5997 47.1643 87.8205 46.209 87.5992Z" fill="#112536"/>
<path d="M47.0443 84.0393C47.2962 84.1442 47.591 84.2394 47.8204 84.3834C48.0251 84.4495 48.1968 84.5423 48.3817 84.6505C48.2281 84.7403 46.9298 85.1944 46.792 85.1937L46.7491 85.1228C46.9394 84.7379 47.3577 84.6845 47.686 84.4633C47.7129 84.4451 47.7395 84.4262 47.7663 84.4075C46.7841 84.3898 47.0851 84.6209 46.3738 84.8807C46.2462 84.9272 46.2279 84.9321 46.1086 84.8735L46.0918 84.7743C46.2891 84.4503 46.7202 84.2228 47.0443 84.0393Z" fill="#A6E1F0"/>
<path d="M49.1862 85.0276C49.1442 85.0357 49.1023 85.0438 49.0607 85.0535L48.9941 85.0693C48.4802 85.1884 48.0355 85.5521 47.5414 85.6442L47.4766 85.5828C47.483 85.5637 47.4876 85.5437 47.4963 85.5255C47.6923 85.1154 48.2634 84.8877 48.6557 84.7317L49.1862 85.0276Z" fill="#A6E1F0"/>
<path d="M32.3949 73.4702C34.0046 73.7364 35.5904 73.9769 37.2162 74.1246C36.9799 75.8013 36.6423 77.4824 36.2914 79.1388C36.0357 80.3454 35.7487 81.539 35.6022 82.7652C35.3813 82.5943 31.904 82.388 31.3984 82.3441C31.5432 81.6464 31.5556 80.8771 31.6251 80.1657C31.7616 78.749 31.9073 77.3332 32.0624 75.9185C32.155 75.0995 32.2209 74.2771 32.3949 73.4702Z" fill="#FEC1A1"/>
<path d="M62.8945 74.3556C64.3117 74.3104 66.2794 73.6612 67.619 73.1909C68.0784 73.7562 68.3835 74.6438 68.7015 75.3032C69.4876 76.9326 70.2431 78.5796 71.084 80.182C70.4806 80.5155 67.5189 81.955 67.3542 82.1918C66.9652 81.2769 66.3937 80.4328 65.8782 79.5844L63.9878 76.4146C63.5946 75.7487 63.1786 75.0767 62.8945 74.3556Z" fill="#FEC1A1"/>
<path d="M55.4259 74.2346C56.7194 74.469 57.9833 74.5956 59.2976 74.6119C59.4993 74.6143 59.9515 74.5611 60.0998 74.6797L60.1388 74.8982C60.3006 76.9656 60.1685 79.0903 60.1977 81.1658C60.2051 81.6986 60.1846 82.2464 60.2302 82.776C58.8521 82.7103 57.4717 82.7112 56.0936 82.7788C56.1034 81.9099 55.9954 80.9913 55.9063 80.1261C55.7069 78.1834 55.4184 76.1881 55.4259 74.2346Z" fill="#FEC1A1"/>
<path d="M41.2653 74.02C41.814 74.0251 45.2391 73.798 45.4211 73.8932C45.463 76.6176 45.311 79.3717 45.4405 82.0907C44.0726 82.0861 42.6995 82.0128 41.3327 82.0441C41.2764 79.3845 40.745 76.7304 40.668 74.0664C40.8514 74.0117 41.0734 74.0269 41.2653 74.02Z" fill="#FEC1A1"/>
<path d="M76.2915 42.1144C76.2989 41.9111 76.2773 41.6903 76.3934 41.5154L76.5052 41.5165C76.6317 41.8161 76.6284 42.1591 76.706 42.4738C76.7204 42.5333 76.7252 42.5465 76.7326 42.616C76.8214 43.4408 76.5924 48.9213 76.1714 49.4017C76.0451 49.1954 76.3022 47.5589 76.3292 47.2068C76.4579 45.5204 76.3975 43.7996 76.2915 42.1144Z" fill="black"/>
<defs>
<linearGradient id="paint0_linear_593_1476" x1="50.9048" y1="47.364" x2="50.3256" y2="46.9503" gradientUnits="userSpaceOnUse">
<stop stop-color="#E8E3DB"/>
<stop offset="1" stop-color="#F1D7D5"/>
</linearGradient>
</defs>
</svg>
