<svg width="48" height="76" viewBox="0 0 48 76" fill="none" xmlns="http://www.w3.org/2000/svg">
<path d="M11.633 34.719C10.3094 35.4621 8.78864 36.6019 7.68042 37.9317C4.36029 41.9159 2.97852 48.0763 2.97852 53.1651C2.97852 54.9522 3.52292 59.0375 5.57775 59.8595C6.41557 60.1945 7.35495 60.3001 7.53236 59.2334C7.65153 58.5197 6.84667 57.3429 6.62186 56.6689C6.49005 56.2726 6.25396 55.6117 6.25396 55.6117C6.25396 55.6117 6.28601 55.8045 6.30226 55.9011C6.39119 56.4347 6.76767 57.0242 7.00015 57.5122C7.56847 58.7053 8.10114 59.228 9.39173 58.7978C10.6263 58.3861 9.06535 54.2322 8.90871 53.2942C8.52546 50.9929 8.50289 48.6171 9.10733 46.319C9.94741 43.1243 9.65806 44.6858 9.82598 43.9292C9.90453 43.5762 10.2124 42.9153 10.2124 42.9153C10.2124 42.9153 10.0734 43.2011 10.0192 43.35C9.83456 43.8574 9.69643 44.2881 9.5443 44.8054C8.82475 47.2556 8.6952 47.8456 8.6952 49.3949C8.6952 53.6002 10.0156 57.202 10.4756 61.341C10.5622 62.1202 10.9256 67.5033 10.55 68.0662C10.2449 68.5244 9.21251 68.9695 8.76426 69.4182C7.81178 70.3706 7.60278 72.1492 8.28125 73.28C8.60401 73.8176 9.7831 74.1255 10.3573 74.1973C11.6872 74.3634 16.185 74.2898 17.3402 73.605C18.3933 72.9802 18.9183 72.5203 19.0393 71.491C19.3029 69.2493 19.3846 65.3071 19.3846 63.046C19.3846 62.5454 19.3309 61.2503 19.1436 60.9777C18.9359 60.6757 19.5137 61.4607 19.2758 60.9853C19.2664 60.9668 21.472 61.3645 19.0537 60.7461C18.6375 60.64 18.1054 60.1502 18.1243 60.1976C18.2033 60.3958 19.0149 60.9623 19.2844 60.9885C22.9706 61.3456 19.3676 61.0051 19.9865 61.0828C20.9484 61.2029 21.7879 61.1677 22.6668 60.7768C23.0013 60.6283 23.5132 60.4617 23.7773 60.1976C23.8256 60.1493 22.7427 60.9348 22.7427 60.9348C22.7427 60.9348 23.7859 60.1407 23.729 60.1976C23.423 60.5037 22.8745 60.6179 22.619 60.8734C22.3951 61.0973 22.619 62.5869 22.619 62.9494C22.619 65.5071 22.5269 69.8321 23.3936 72.1655C24.449 75.0066 30.4718 74.9904 32.8827 73.8456C33.2895 73.6529 33.9828 73.1811 34.2076 72.7934C36.2394 69.2854 32.1668 69.0137 31.9443 68.5343C31.6016 67.7976 31.598 65.9089 31.598 65.1216C31.598 62.8095 31.3782 60.1254 32.1772 57.9288C33.3427 54.7234 33.9318 51.3215 33.3653 47.9219C33.1734 46.7717 32.9243 45.5651 32.5582 44.4673C32.4399 44.1129 32.2381 43.6186 32.1772 43.2534C32.1745 43.2372 32.0603 42.7429 32.0323 42.7704C31.8206 42.9821 32.681 44.7155 32.75 45.0257C33.1721 46.9239 33.373 47.522 33.5499 49.4671C34.5185 50.843 36.2864 51.2908 37.2169 51.7937C37.652 52.0289 40.3039 52.3105 41.5099 51.7937C42.7159 51.277 43.7617 50.0282 44.7928 48.6371C45.4358 47.7696 47.6513 42.9108 46.813 40.935C45.0737 36.8355 45.3957 42.7292 43.7826 43.2534C43.7826 42.695 42.6155 36.9934 40.7972 39.6723C39.9701 43.7075 39.7429 45.0304 39.4897 45.6068C39.2364 46.1832 39.5403 45.4805 39.1109 46.2381C38.6814 46.9957 38.9504 45.3382 38.1007 42.7704C37.2009 40.0511 35.828 36.8989 30.3426 34.6121C29.9946 34.3511 26.902 35.7027 26.386 35.7027C23.9782 35.7027 23.9222 36.3468 22.3369 36.4908C21.5126 36.5658 19.8482 36.8813 19.3535 36.8989C17.8119 36.9535 18.8425 36.9138 15.8162 36.1094C15.2194 35.9509 12.1824 34.4103 11.633 34.719Z" fill="#CEEC97" stroke="#A4C95F" stroke-width="1.5" stroke-miterlimit="10" stroke-linecap="round" stroke-linejoin="round"/>
<path d="M35.4015 17.3994C36.3248 17.2293 36.8874 17.5582 37.7283 17.9195C41.3598 19.48 41.1767 24.366 39.7846 27.4129C38.9788 29.1761 36.9289 30.5433 35.002 29.9861" fill="#BBBBBB"/>
<path d="M35.4015 17.3994C36.3248 17.2293 36.8874 17.5582 37.7283 17.9195C41.3598 19.48 41.1767 24.366 39.7846 27.4129C38.9788 29.1761 36.9289 30.5433 35.002 29.9861" stroke="#858585" stroke-width="1.5" stroke-miterlimit="10" stroke-linecap="round" stroke-linejoin="round"/>
<path d="M6.30657 17.1579C5.38369 16.9879 4.82101 17.3168 3.98015 17.6781C0.348259 19.2386 0.531316 24.1245 1.92345 27.1714C2.72922 28.9348 4.77957 30.302 6.70607 29.7448" fill="#BBBBBB"/>
<path d="M6.30657 17.1579C5.38369 16.9879 4.82101 17.3168 3.98015 17.6781C0.348259 19.2386 0.531316 24.1245 1.92345 27.1714C2.72922 28.9348 4.77957 30.302 6.70607 29.7448" stroke="#858585" stroke-width="1.5" stroke-miterlimit="10" stroke-linecap="round" stroke-linejoin="round"/>
<path d="M37.3751 17.9751C37.4229 17.8798 37.89 18.9843 37.9496 19.1509C38.2625 20.0278 38.4586 20.96 38.5512 21.8854C38.7706 24.0831 38.232 28.2203 36.582 29.8702" fill="#BBBBBB"/>
<path d="M37.3751 17.9751C37.4229 17.8798 37.89 18.9843 37.9496 19.1509C38.2625 20.0278 38.4586 20.96 38.5512 21.8854C38.7706 24.0831 38.232 28.2203 36.582 29.8702" stroke="#858585" stroke-width="1.5" stroke-miterlimit="10" stroke-linecap="round" stroke-linejoin="round"/>
<path d="M4.06858 17.7878C4.0208 17.6925 3.55366 18.797 3.49405 18.9636C3.18079 19.8405 2.98505 20.7727 2.89247 21.6982C2.67264 23.8958 3.21123 28.033 4.86124 29.6831" fill="#BBBBBB"/>
<path d="M4.06858 17.7878C4.0208 17.6925 3.55366 18.797 3.49405 18.9636C3.18079 19.8405 2.98505 20.7727 2.89247 21.6982C2.67264 23.8958 3.21123 28.033 4.86124 29.6831" stroke="#858585" stroke-width="1.5" stroke-miterlimit="10" stroke-linecap="round" stroke-linejoin="round"/>
<path d="M22.4938 8.50887C30.2374 9.29346 36.2697 15.5318 36.2697 23.1112C36.2697 31.2219 29.3986 37.1819 20.8784 37.1819C12.3578 37.1819 5.41406 31.2219 5.41406 23.1112C5.41406 15.3916 11.6717 9.06314 19.6216 8.47095" fill="#CEEC97"/>
<path d="M22.4938 8.50887C30.2374 9.29346 36.2697 15.5318 36.2697 23.1112C36.2697 31.2219 29.3986 37.1819 20.8784 37.1819C12.3578 37.1819 5.41406 31.2219 5.41406 23.1112C5.41406 15.3916 11.6717 9.06314 19.6216 8.47095" stroke="#A4C95F" stroke-width="1.5" stroke-miterlimit="10" stroke-linejoin="round"/>
<path d="M19.3965 8.47117C20.2048 8.47117 19.5115 6.68469 19.8577 5.9923C20.1477 5.41203 21.1809 5.12925 21.5872 5.73865C22.1262 6.54725 21.8189 7.60342 22.152 8.43659C22.1761 8.49645 22.3241 8.44597 22.3596 8.51729" fill="#CEEC97"/>
<path d="M19.3965 8.47117C20.2048 8.47117 19.5115 6.68469 19.8577 5.9923C20.1477 5.41203 21.1809 5.12925 21.5872 5.73865C22.1262 6.54725 21.8189 7.60342 22.152 8.43659C22.1761 8.49645 22.3241 8.44597 22.3596 8.51729" stroke="#A4C95F" stroke-width="1.5" stroke-miterlimit="10" stroke-linecap="round" stroke-linejoin="round"/>
<path d="M18.502 3.40819C18.502 2.09841 19.5385 1.03662 20.8174 1.03662C22.0962 1.03662 23.1328 2.09841 23.1328 3.40819C23.1328 4.71797 22.0962 5.77972 20.8174 5.77972C19.5385 5.77972 18.502 4.71797 18.502 3.40819Z" fill="#CEEC97" stroke="#A4C95F" stroke-width="1.5" stroke-miterlimit="10" stroke-linejoin="round"/>
<path d="M26.0548 21.826C27.5319 19.9711 29.8017 19.3212 31.1241 20.3744C32.4465 21.4276 32.3209 23.7851 30.8438 25.64C29.3667 27.4949 27.0969 28.1449 25.7745 27.0917C24.4522 26.0384 24.5777 23.6809 26.0548 21.826Z" fill="black" stroke="black" stroke-width="1.5" stroke-miterlimit="10" stroke-linejoin="round"/>
<path d="M15.7756 21.889C14.2985 20.0341 12.0287 19.3842 10.7063 20.4374C9.38396 21.4906 9.50909 23.8481 10.9866 25.703C12.4637 27.5579 14.7335 28.2078 16.0559 27.1547C17.3783 26.1015 17.2527 23.744 15.7756 21.889Z" fill="black" stroke="black" stroke-width="1.5" stroke-miterlimit="10" stroke-linejoin="round"/>
<path d="M17.5547 31.6001C17.5547 31.6001 19.9712 34.2981 23.8077 32.2727" stroke="#A4C95F" stroke-width="1.5" stroke-miterlimit="10" stroke-linecap="round" stroke-linejoin="round"/>
<path d="M10.6667 22.9664C10.3793 22.2637 10.5712 21.52 11.0958 21.3053C11.6205 21.0905 12.2787 21.4861 12.5666 22.1888C12.8541 22.8915 12.6621 23.6352 12.1375 23.85C11.6129 24.0647 10.9546 23.6691 10.6667 22.9664Z" fill="#E0E0E0"/>
<path d="M27.0704 21.8965C27.4792 21.2566 28.1975 20.9852 28.6752 21.2903C29.1529 21.5954 29.2087 22.3615 28.8003 23.0014C28.3915 23.6413 27.6728 23.9127 27.1951 23.6076C26.7174 23.3025 26.6616 22.5364 27.0704 21.8965Z" fill="#E0E0E0"/>
<path d="M20.2519 28.0374C19.8411 28.0374 19.541 28.4389 19.541 28.8721C19.541 28.9884 19.5603 29.0998 19.5945 29.2056C19.6113 29.2573 19.6313 29.3078 19.6546 29.357C19.9779 30.041 20.8792 30.4581 20.8792 30.4581C20.8792 30.4581 21.7806 30.0412 22.1038 29.357C22.1271 29.308 22.1471 29.2575 22.1639 29.2056C22.1981 29.0998 22.2174 28.9884 22.2174 28.8721C22.2174 28.4391 21.9174 28.0374 21.5065 28.0374C21.2263 28.0374 21.0172 28.18 20.8861 28.4276C20.8854 28.4288 20.8845 28.4298 20.8833 28.4305C20.882 28.4312 20.8806 28.4315 20.8792 28.4315C20.8778 28.4315 20.8764 28.4312 20.8752 28.4305C20.874 28.4298 20.873 28.4288 20.8724 28.4276C20.7412 28.1802 20.5323 28.0374 20.2519 28.0374Z" fill="#A4C95F"/>
</svg>
