<svg width="69" height="69" viewBox="0 0 69 69" fill="none" xmlns="http://www.w3.org/2000/svg">
<path fill-rule="evenodd" clip-rule="evenodd" d="M21.5625 19.0482V7.59633C21.5585 7.29473 21.4355 7.00694 21.2202 6.7957C21.0049 6.58445 20.7148 6.46687 20.4132 6.46861H14.1083C13.9572 6.46489 13.8068 6.4912 13.6659 6.54602C13.525 6.60084 13.3963 6.68308 13.2874 6.78797C13.1785 6.89286 13.0915 7.01832 13.0315 7.15708C12.9714 7.29584 12.9395 7.44514 12.9375 7.59633V26.2393L10.7812 28.0354V62.5354H58.2188V30.1917L34.6509 8.13323L21.5625 19.0482Z" fill="#F3C07B"/>
<path d="M34.3275 58.2251H17.4225C17.3362 58.2251 17.25 58.1389 17.25 58.0526V35.3473C17.25 33.7301 18.5653 32.4148 20.1825 32.4148H31.5891C33.2062 32.4148 34.5216 33.7301 34.5216 35.3473V58.0526C34.5 58.1389 34.4137 58.2251 34.3275 58.2251Z" fill="#8C5543"/>
<path d="M31.2656 45.2854C31.5516 45.2854 31.8258 45.1718 32.028 44.9696C32.2302 44.7674 32.3438 44.4932 32.3438 44.2073C32.3438 43.9213 32.2302 43.6471 32.028 43.4449C31.8258 43.2427 31.5516 43.1292 31.2656 43.1292C30.9797 43.1292 30.7055 43.2427 30.5033 43.4449C30.3011 43.6471 30.1875 43.9213 30.1875 44.2073C30.1875 44.4932 30.3011 44.7674 30.5033 44.9696C30.7055 45.1718 30.9797 45.2854 31.2656 45.2854Z" fill="#402A32"/>
<path d="M34.4137 60.3792H17.25C16.0641 60.3792 15.0938 59.4088 15.0938 58.2229C15.0938 57.037 16.0641 56.0667 17.25 56.0667H34.4137C35.5997 56.0667 36.57 57.037 36.57 58.2229C36.57 59.4088 35.5997 60.3792 34.4137 60.3792Z" fill="#D3D3D3"/>
<path d="M64.6875 62.5354H4.3125V62.3413C4.3125 60.0557 6.14531 58.2229 8.43094 58.2229H60.5691C62.8331 58.2229 64.6875 60.0557 64.6875 62.3413V62.5354Z" fill="#00F397"/>
<path d="M36.3975 5.07355L63.9112 32.1776C64.9462 33.1911 64.9462 34.8298 63.9112 35.8217C62.8978 36.8351 61.2375 36.8351 60.2025 35.8217L34.5431 10.5504L8.7975 35.9079C7.78406 36.9214 6.12375 36.9214 5.08875 35.9079C4.05375 34.8945 4.05375 33.2557 5.08875 32.2423L32.6887 5.07355C33.7022 4.06012 35.3625 4.06012 36.3975 5.07355Z" fill="#F8312F"/>
<path d="M49.8956 45.2854H40.6669C39.6319 45.2854 38.8125 44.466 38.8125 43.431V34.2023C38.8125 33.1888 39.6319 32.3479 40.6669 32.3479H49.8956C50.9091 32.3479 51.75 33.1673 51.75 34.2023V43.431C51.75 44.466 50.9306 45.2854 49.8956 45.2854Z" fill="#83CBFF"/>
</svg>
