<svg width="24" height="24" viewBox="0 0 24 24" fill="none" xmlns="http://www.w3.org/2000/svg">
<path fill-rule="evenodd" clip-rule="evenodd" d="M14.537 3.39598C15.7 2.62898 17.25 3.46398 17.25 4.85698V19.143C17.25 20.537 15.7 21.371 14.537 20.604L8.537 16.649C8.49641 16.6219 8.44879 16.6073 8.4 16.607H5.5C4.77065 16.607 4.07118 16.3173 3.55546 15.8015C3.03973 15.2858 2.75 14.5863 2.75 13.857V10.143C2.75 9.41364 3.03973 8.71417 3.55546 8.19844C4.07118 7.68271 4.77065 7.39298 5.5 7.39298H8.4C8.44902 7.39314 8.49701 7.37889 8.538 7.35198L14.537 3.39598ZM20.5 8.24998C20.6989 8.24998 20.8897 8.329 21.0303 8.46965C21.171 8.61031 21.25 8.80107 21.25 8.99998V15C21.25 15.1989 21.171 15.3897 21.0303 15.5303C20.8897 15.671 20.6989 15.75 20.5 15.75C20.3011 15.75 20.1103 15.671 19.9697 15.5303C19.829 15.3897 19.75 15.1989 19.75 15V8.99998C19.75 8.80107 19.829 8.61031 19.9697 8.46965C20.1103 8.329 20.3011 8.24998 20.5 8.24998Z" fill="#312A54"/>
</svg>
