<svg width="537" height="507" viewBox="0 0 537 507" fill="none" xmlns="http://www.w3.org/2000/svg">
<path d="M354.403 35.887C323.236 44.6124 288.564 44.1964 257.875 29.7444C231.733 17.4337 193.596 -2.33826 164.019 1.45507C118.12 7.34174 46.7654 51.2404 23.728 91.9871C12.6294 111.616 12.212 129.499 7.00002 150.215C4.03735 161.991 -3.71199 173.807 2.20001 186.159C6.24001 194.599 18.5 195.11 24.2147 202.262C31.7747 211.724 34.592 224.738 43.7826 233.251C58.9827 247.33 87.0374 222.086 104.273 222.751C120.884 223.391 137.068 235.7 154.285 231.176C163.291 228.811 187.28 210.644 196.668 220.363C210.345 234.52 202.2 254.959 209.527 271.14C215.476 284.282 232.077 291.924 235.993 306.031C243.499 333.062 238.596 356.752 241.417 383.948C244.028 409.112 258.235 427.81 270.753 448.743C277.619 460.226 282.997 506.675 299.405 506.959C324.225 507.387 392.183 461.148 407.393 442.939C415.94 432.707 418.317 415.17 425.397 403.044C434.165 388.027 455.715 372.279 458.284 354.25C462.033 327.946 448.217 302.114 462.617 276.102C480.171 244.392 539.217 219.472 536.515 180.643C534.903 157.491 488.892 167.763 475.197 158.29C439.311 133.46 432.411 101.34 406.464 69.7257C397.357 58.6284 386.444 40.9844 372.419 35.7004C366.391 33.4298 365.128 32.8844 354.403 35.887Z" fill="#CEEC97"/>
</svg>
