<svg width="302" height="193" viewBox="0 0 302 193" fill="none" xmlns="http://www.w3.org/2000/svg">
<path d="M231.309 11.456C201.364 2.51871 218.927 47.1201 207.34 43.5228C198.871 40.8934 183.013 27.6548 180.927 19.1028C179.915 14.9588 182.868 8.1494 180.043 4.81607C176.003 0.049399 133.132 -0.722561 128.713 1.72411C123.923 4.37611 122.695 11.4254 117.603 14.1041C108.409 18.9414 93.9399 10.54 82.9919 13.9974C69.4919 18.2627 66.2719 31.6054 55.8586 39.9574C40.4546 52.3134 -9.74676 52.0601 2.9519 83.7348C5.69057 90.5654 14.0212 94.3801 17.3105 101.428C25.5972 119.173 25.9866 145.76 47.0666 154.787C59.1879 159.96 69.9119 147.2 80.5119 144.013C91.8799 140.6 99.9492 149.04 110.893 148.133C121.932 147.213 131.703 140.84 143.072 144.373C184.648 157.28 203.772 214.16 251.677 184.053C260.535 178.493 267.447 171.387 274.66 163.947C322.609 114.44 294.905 115.587 275.725 67.7401C269.871 53.1361 256.819 41.2161 249.489 27.2854C248.091 24.6281 234.465 12.3974 231.309 11.456Z" fill="#CEEC97"/>
</svg>
