<svg width="380" height="262" viewBox="0 0 380 262" fill="none" xmlns="http://www.w3.org/2000/svg">
<path d="M466.307 62.3813C466.935 61.8783 466.291 62.553 464.846 62.8702C461.828 63.5323 451.879 59.9661 455.841 55.5449C456.719 54.5655 457.958 53.9113 459.195 53.4641C465.666 51.1244 472.563 53.7798 479.12 52.3407C485.875 50.8576 490.815 42.456 498.543 43.8187C510.371 45.9042 516.354 61.9043 530.443 63.0411C531.946 63.1623 542.039 63.6913 542.378 61.7657C543.31 56.484 527.495 50.6875 525.966 45.1964C523.811 37.4562 526.849 31.6998 520.735 24.9389C501.037 3.15761 442.533 15.3771 416.711 13.5912C397.445 12.2588 377.692 6.73149 358.395 7.78799C329.812 9.35281 303.286 6.64458 274.674 5.20745C264.394 4.69117 252.405 -1.16503 242.31 0.207935C233.174 1.4503 227.908 8.78614 219.614 11.6893C209.481 15.236 198.946 16.9247 189.359 21.9166C182.794 25.3341 175.287 31.8171 167.605 32.0706C133.586 33.1916 71.7989 26.9385 59.9114 71.3977C52.6459 98.5673 133.038 39.259 109.781 83.6497C105.498 91.8253 71.9438 90.0721 62.7298 92.4087C58.0779 93.588 55.4202 98.6634 51.073 100.57C42.6124 104.283 29.5747 102.55 23.9837 112.456C20.5938 118.463 22.6737 129.994 18.4808 137.422C13.8754 145.582 -3.17888 137.28 0.521203 154.14C11.4892 204.109 41.2701 140.822 60.9247 138.305C72.6224 136.806 89.7955 154.437 90.7434 154.172C98.9119 151.898 77.2483 119.253 96.8383 129.861C109.043 136.47 103.086 156.191 114.275 163.353C125.701 170.665 143.969 164.217 156.854 171.489C164.277 175.679 163.589 182.671 166.46 189.217C168.213 193.211 172.603 195.577 174.317 199.484C180.283 213.079 187.181 227.165 194.239 240.722C199.259 250.364 215.343 267.065 227.61 260.518C242.922 252.347 255.295 239.881 269.269 229.745C272.185 227.63 280.734 220.013 279.481 215.512C278.9 213.427 240.213 205.908 234.947 201.529C232.44 199.444 224.477 192.342 228.83 188.975C238.795 181.266 257.027 200.707 268.261 197.579C274.447 195.857 272.217 184.438 274.634 180.154C277.09 175.802 288.73 177.74 293.034 172.081C298.497 164.9 300.928 149.432 311.37 147.884C334.498 144.455 341.629 165.45 360.963 170.619C377.969 175.167 396.101 171.919 410.77 184.118C419.629 191.483 412.142 197.04 416.88 204.294C421.046 210.673 431.333 214.76 436.951 220.172C442.557 225.574 453.241 244.935 457.562 247.7C469.548 255.371 517.102 245.531 525.848 236.634C538.613 223.648 514.744 218.875 515.271 208.361C515.605 201.72 553.257 196.96 536.071 172.416C530.227 164.071 494.538 144.087 495.542 138.39C498.362 122.399 532.435 152.885 527.242 134.234C524.946 125.987 513.067 124.739 509.071 117.826C507.389 114.915 510.736 107.25 510.783 103.666C510.881 96.2402 506.153 81.7383 500.512 76.7833C493.268 70.4215 485.833 68.9391 477.329 65.6217C474.757 64.6187 472.069 63.9936 469.464 62.9773C468.687 62.6742 465.74 62.8364 466.307 62.3813Z" fill="#CEEC97"/>
</svg>
