<svg width="333" height="289" viewBox="0 0 333 289" fill="none" xmlns="http://www.w3.org/2000/svg">
<path d="M220.2 28.8964C222.357 29.5764 215.686 29.4396 214.353 29.5101C209.626 29.7592 202.554 30.57 201.91 36.8131C201.838 37.5003 202.073 38.1896 202.246 38.8584C202.335 39.2025 237.799 92.9582 215.277 81.8781C209.858 79.212 208.204 71.0083 203.726 66.9759C193.437 57.7103 159.499 59.7597 156.942 44.2274C154.584 29.9063 198.394 10.4203 178.306 1.83984C164.3 -4.14289 119.371 6.28579 102.238 7.37736C50.7427 10.6603 -4.40803 -5.31209 -54.3667 10.4376C-76.6016 17.4466 -103.562 34.8424 -102.991 61.5211C-102.739 73.3027 -80.6304 74.6363 -73.3287 73.7878C-56.2392 71.7997 0.464569 50.7217 11.6486 69.2315C16.8845 77.8978 17.2386 89.4476 21.3571 98.4427C24.7949 105.955 34.5911 109.207 33.8064 118.8C32.5054 134.696 30.2104 165.804 36.9831 180.601C51.4009 212.097 68.6065 196.47 86.9265 214.033C96.7686 223.469 96.188 238.224 105.709 247.351C124.921 265.771 145.321 263.382 168.439 271.323C190.696 278.967 224.031 298.19 247.823 283.796C266.159 272.703 233.353 270.54 229.579 266.495C222.1 258.483 232.041 239.672 214.195 236.818C204.005 235.19 205.464 255.361 190.842 250.123C183.016 247.319 162.882 237.056 166.025 226.903C174.955 198.051 211.788 198.345 235.932 207.324C242.907 209.919 257.329 217.876 264.247 211.41C269.569 206.436 242.099 193.033 240.508 188.363C236.748 177.323 253.081 173.328 254.631 163.626C255.518 158.061 254.056 135.149 254.857 133.126C268.794 97.9158 319.81 119.628 332.418 87.7761C335.082 81.0449 328.046 73.1843 322.574 70.4916C309.539 64.078 293.607 62.7352 280.087 56.8382C270.099 52.4822 264.599 42.657 254.124 39.4098C246.038 36.904 237.865 33.2902 230.473 29.653C228.391 28.6288 219.186 28.5757 220.2 28.8964Z" fill="#CEEC97"/>
</svg>
