<svg width="371" height="445" viewBox="0 0 371 445" fill="none" xmlns="http://www.w3.org/2000/svg">
<path d="M8.75917 59.6836C7.76744 61.5876 6.27317 46.613 6.30877 44.0197C6.42584 35.4943 12.268 17.4249 18.5106 11.3516C30.1893 -0.00972749 40.812 11.9009 53.1533 12.0703C67.964 12.2743 80.7373 1.46229 95.7186 0.538292C109.363 -0.303041 117.579 8.76101 129.977 11.6717C154.939 17.533 179.968 12.2957 204.867 19.7277C230.439 27.361 249.852 46.8557 276.916 49.3117C303.924 51.7637 345.727 37.1143 367.648 59.6463C378.06 70.349 359.187 81.8997 355.707 90.985C353.357 97.1183 354.272 106.613 354.675 113.144C358.256 171.206 337.327 164.017 310.876 205.596C299.9 222.85 300.557 244.178 290.367 260.928C273.816 288.132 249.797 316.482 240.115 346.87C232.24 371.584 231.905 394.83 230.14 420.28C229.703 426.601 232.457 440.072 225.449 444.205C214.339 450.76 186.107 409.214 183.263 401.704C169.765 366.052 159.695 327.968 145.499 292.985C137.099 272.284 139.835 247.638 127.612 227.917C116.537 210.046 95.7986 208.166 78.5706 199.254C57.7133 188.465 26.9693 168.956 11.8693 150.842C-7.28789 127.861 2.79117 108.802 10.824 85.7623C12.9786 79.5823 9.18171 73.0263 9.26504 66.961C9.28704 65.3637 8.93664 59.3436 8.75917 59.6836Z" fill="#CEEC97"/>
</svg>
