<svg width="35" height="35" viewBox="0 0 35 35" fill="none" xmlns="http://www.w3.org/2000/svg">
<path d="M5.83398 26.2498C5.83398 24.7027 6.44857 23.219 7.54253 22.125C8.63649 21.0311 10.1202 20.4165 11.6673 20.4165H23.334C24.8811 20.4165 26.3648 21.0311 27.4588 22.125C28.5527 23.219 29.1673 24.7027 29.1673 26.2498C29.1673 27.0234 28.86 27.7653 28.313 28.3122C27.7661 28.8592 27.0242 29.1665 26.2507 29.1665H8.75065C7.9771 29.1665 7.23524 28.8592 6.68826 28.3122C6.14128 27.7653 5.83398 27.0234 5.83398 26.2498Z" stroke="#312A54" stroke-width="2" stroke-linejoin="round"/>
<path d="M17.5 14.5833C19.9162 14.5833 21.875 12.6245 21.875 10.2083C21.875 7.79201 19.9162 5.83325 17.5 5.83325C15.0838 5.83325 13.125 7.79201 13.125 10.2083C13.125 12.6245 15.0838 14.5833 17.5 14.5833Z" stroke="#312A54" stroke-width="2"/>
</svg>
