<svg width="32" height="32" viewBox="0 0 32 32" fill="none" xmlns="http://www.w3.org/2000/svg">
<path d="M5.33398 26.0001V6.00008C5.33398 5.11603 5.68517 4.26818 6.3103 3.64306C6.93542 3.01794 7.78326 2.66675 8.66732 2.66675H25.334C25.6876 2.66675 26.0267 2.80722 26.2768 3.05727C26.5268 3.30732 26.6673 3.64646 26.6673 4.00008V28.0001C26.6673 28.3537 26.5268 28.6928 26.2768 28.9429C26.0267 29.1929 25.6876 29.3334 25.334 29.3334H8.66732C7.78326 29.3334 6.93542 28.9822 6.3103 28.3571C5.68517 27.732 5.33398 26.8841 5.33398 26.0001ZM5.33398 26.0001C5.33398 25.116 5.68517 24.2682 6.3103 23.6431C6.93542 23.0179 7.78326 22.6667 8.66732 22.6667H26.6673" stroke="#312A54" stroke-width="2" stroke-linecap="round" stroke-linejoin="round"/>
<path d="M10.668 17.3333L16.0013 8L21.3346 17.3333M12.1346 14.6667H19.7346" stroke="#312A54" stroke-width="2" stroke-linecap="round" stroke-linejoin="round"/>
</svg>
