<svg width="156" height="276" viewBox="0 0 156 276" fill="none" xmlns="http://www.w3.org/2000/svg">
<path d="M43.7646 131.247C39.0404 133.9 33.6119 137.968 29.6562 142.715C17.8052 156.936 12.873 178.925 12.873 197.089C12.873 203.468 14.8163 218.051 22.1508 220.985C25.1414 222.18 28.4945 222.557 29.1277 218.75C29.5531 216.202 26.6802 212.002 25.8778 209.596C25.4073 208.181 24.5645 205.822 24.5645 205.822C24.5645 205.822 24.6789 206.511 24.7369 206.855C25.0544 208.76 26.3982 210.864 27.228 212.606C29.2566 216.865 31.1579 218.731 35.7646 217.195C40.1715 215.725 34.5996 200.898 34.0405 197.55C32.6725 189.336 32.592 180.856 34.7495 172.653C37.7481 161.249 36.7153 166.823 37.3147 164.122C37.595 162.862 38.6939 160.503 38.6939 160.503C38.6939 160.503 38.1976 161.523 38.0043 162.055C37.3453 163.866 36.8522 165.403 36.3092 167.25C33.7408 175.996 33.2784 178.102 33.2784 183.632C33.2784 198.643 37.9914 211.499 39.6333 226.273C39.9427 229.054 41.2398 248.269 39.8992 250.278C38.8099 251.913 35.1249 253.502 33.5249 255.104C30.1251 258.504 29.3791 264.852 31.8008 268.888C32.9529 270.807 37.1616 271.906 39.2111 272.162C43.958 272.755 60.0128 272.493 64.1361 270.048C67.8953 267.818 69.7692 266.176 70.201 262.503C71.142 254.501 71.4336 240.43 71.4336 232.359C71.4336 230.572 71.2419 225.949 70.5732 224.976C69.832 223.898 71.8945 226.7 71.0453 225.003C71.0115 224.937 78.8842 226.357 70.2526 224.149C68.767 223.771 66.8674 222.022 66.935 222.192C67.217 222.899 70.114 224.921 71.0759 225.015C84.2337 226.289 71.3729 225.074 73.582 225.351C77.0156 225.78 80.0121 225.654 83.1493 224.259C84.3433 223.729 86.1705 223.134 87.1131 222.192C87.2855 222.019 83.42 224.823 83.42 224.823C83.42 224.823 87.1437 221.989 86.9407 222.192C85.8482 223.284 83.8905 223.692 82.9785 224.604C82.1793 225.403 82.9785 230.72 82.9785 232.014C82.9785 241.144 82.6498 256.581 85.7435 264.91C89.5107 275.051 111.008 274.993 119.614 270.907C121.066 270.219 123.541 268.535 124.343 267.151C131.596 254.63 117.059 253.66 116.264 251.949C115.041 249.319 115.029 242.578 115.029 239.767C115.029 231.514 114.244 221.934 117.096 214.093C121.256 202.651 123.359 190.509 121.337 178.374C120.652 174.269 119.763 169.962 118.456 166.043C118.034 164.778 117.313 163.014 117.096 161.71C117.086 161.652 116.679 159.888 116.579 159.986C115.823 160.742 118.894 166.929 119.141 168.036C120.647 174.812 121.364 176.947 121.996 183.89C122.545 189.942 120.401 200.541 118.818 206.338C117.929 209.603 116.474 213.465 119.842 215.991C123.944 219.067 126.667 211.81 127.434 209.129C127.862 207.626 128.507 205.98 128.507 205.98C128.507 205.98 128.802 205.431 128.641 205.995C128.135 207.764 127.357 209.404 126.917 211.164C125.942 215.063 125.036 221.466 132.081 220.116C141.37 218.336 142.962 209.39 143.345 200.976C144.662 172.153 131.432 146.529 110.548 130.865C109.305 129.934 98.2664 134.758 96.4247 134.758C87.8301 134.758 87.6303 137.058 81.9715 137.572C79.0293 137.839 73.0884 138.965 71.3225 139.028C65.8199 139.223 69.4985 139.081 58.6964 136.21C56.5663 135.645 45.7256 130.145 43.7646 131.247Z" fill="#CEEC97" stroke="#A4C95F" stroke-width="4" stroke-miterlimit="10" stroke-linecap="round" stroke-linejoin="round"/>
<path d="M133.12 64.3649C136.639 63.7169 138.784 64.9703 141.989 66.3474C155.83 72.2952 155.132 90.9173 149.826 102.53C146.755 109.251 138.942 114.462 131.598 112.338" fill="#BBBBBB"/>
<path d="M133.12 64.3649C136.639 63.7169 138.784 64.9703 141.989 66.3474C155.83 72.2952 155.132 90.9173 149.826 102.53C146.755 109.251 138.942 114.462 131.598 112.338" stroke="#858585" stroke-width="4" stroke-miterlimit="10" stroke-linecap="round" stroke-linejoin="round"/>
<path d="M22.2254 63.4437C18.708 62.7958 16.5634 64.0492 13.3585 65.4264C-0.484044 71.3741 0.213659 89.9962 5.51962 101.609C8.59074 108.33 16.4055 113.541 23.7481 111.418" fill="#BBBBBB"/>
<path d="M22.2254 63.4437C18.708 62.7958 16.5634 64.0492 13.3585 65.4264C-0.484044 71.3741 0.213659 89.9962 5.51962 101.609C8.59074 108.33 16.4055 113.541 23.7481 111.418" stroke="#858585" stroke-width="4" stroke-miterlimit="10" stroke-linecap="round" stroke-linejoin="round"/>
<path d="M140.64 66.5605C140.822 66.1975 142.603 70.407 142.83 71.0421C144.022 74.3843 144.77 77.9373 145.123 81.4644C145.959 89.8407 143.906 105.609 137.617 111.898" fill="#BBBBBB"/>
<path d="M140.64 66.5605C140.822 66.1975 142.603 70.407 142.83 71.0421C144.022 74.3843 144.77 77.9373 145.123 81.4644C145.959 89.8407 143.906 105.609 137.617 111.898" stroke="#858585" stroke-width="4" stroke-miterlimit="10" stroke-linecap="round" stroke-linejoin="round"/>
<path d="M13.6941 65.8459C13.512 65.4829 11.7315 69.6924 11.5043 70.3275C10.3103 73.6697 9.56432 77.2227 9.21145 80.7498C8.37358 89.1261 10.4264 104.894 16.7152 111.184" fill="#BBBBBB"/>
<path d="M13.6941 65.8459C13.512 65.4829 11.7315 69.6924 11.5043 70.3275C10.3103 73.6697 9.56432 77.2227 9.21145 80.7498C8.37358 89.1261 10.4264 104.894 16.7152 111.184" stroke="#858585" stroke-width="4" stroke-miterlimit="10" stroke-linecap="round" stroke-linejoin="round"/>
<path d="M83.9296 30.4785C113.444 33.4689 136.435 57.2457 136.435 86.134C136.435 117.047 110.247 139.763 77.7729 139.763C45.2974 139.763 18.832 117.047 18.832 86.134C18.832 56.7114 42.6823 32.5911 72.9825 30.334" fill="#CEEC97"/>
<path d="M83.9296 30.4785C113.444 33.4689 136.435 57.2457 136.435 86.134C136.435 117.047 110.247 139.763 77.7729 139.763C45.2974 139.763 18.832 117.047 18.832 86.134C18.832 56.7114 42.6823 32.5911 72.9825 30.334" stroke="#A4C95F" stroke-width="4" stroke-miterlimit="10" stroke-linejoin="round"/>
<path d="M72.1309 30.337C75.2116 30.337 72.5691 23.528 73.8888 20.889C74.9941 18.6774 78.9321 17.5996 80.4806 19.9222C82.5349 23.0041 81.3635 27.0296 82.6332 30.2052C82.7251 30.4333 83.289 30.2409 83.4244 30.5127" fill="#CEEC97"/>
<path d="M72.1309 30.337C75.2116 30.337 72.5691 23.528 73.8888 20.889C74.9941 18.6774 78.9321 17.5996 80.4806 19.9222C82.5349 23.0041 81.3635 27.0296 82.6332 30.2052C82.7251 30.4333 83.289 30.2409 83.4244 30.5127" stroke="#A4C95F" stroke-width="4" stroke-miterlimit="10" stroke-linecap="round" stroke-linejoin="round"/>
<path d="M68.7188 11.039C68.7188 6.04691 72.6696 2 77.5438 2C82.4179 2 86.3688 6.04691 86.3688 11.039C86.3688 16.0311 82.4179 20.0778 77.5438 20.0778C72.6696 20.0778 68.7188 16.0311 68.7188 11.039Z" fill="#CEEC97" stroke="#A4C95F" stroke-width="4" stroke-miterlimit="10" stroke-linejoin="round"/>
<path d="M97.4978 81.235C103.128 74.1653 111.779 71.6881 116.819 75.7023C121.859 79.7164 121.38 88.7017 115.75 95.7716C110.121 102.841 101.47 105.319 96.4295 101.304C91.3894 97.2902 91.8679 88.3049 97.4978 81.235Z" fill="black" stroke="black" stroke-width="4" stroke-miterlimit="10" stroke-linejoin="round"/>
<path d="M58.3174 81.4748C52.6876 74.405 44.0366 71.928 38.9965 75.942C33.9564 79.9562 34.4333 88.9416 40.0647 96.0114C45.6946 103.081 54.3456 105.558 59.3857 101.544C64.4258 97.53 63.9472 88.5447 58.3174 81.4748Z" fill="black" stroke="black" stroke-width="4" stroke-miterlimit="10" stroke-linejoin="round"/>
<path d="M65.0977 118.486C65.0977 118.486 74.3078 128.769 88.9302 121.049" stroke="#A4C95F" stroke-width="4" stroke-miterlimit="10" stroke-linecap="round" stroke-linejoin="round"/>
<path d="M38.8449 85.5837C37.7492 82.9054 38.4808 80.0707 40.4804 79.2523C42.48 78.4338 44.9887 79.9414 46.086 82.6197C47.1817 85.298 46.4502 88.1326 44.4506 88.9511C42.451 89.7697 39.9422 88.262 38.8449 85.5837Z" fill="#E0E0E0"/>
<path d="M101.377 81.5041C102.935 79.0652 105.672 78.0308 107.493 79.1938C109.314 80.3567 109.526 83.2767 107.97 85.7155C106.412 88.1543 103.673 89.1888 101.852 88.0259C100.031 86.8629 99.8184 83.9431 101.377 81.5041Z" fill="#E0E0E0"/>
<path d="M74.5229 104.26C72.7962 104.26 71.5352 105.956 71.5352 107.786C71.5352 108.278 71.6164 108.748 71.7601 109.195C71.8305 109.414 71.9147 109.627 72.0126 109.835C73.3712 112.724 77.1595 114.486 77.1595 114.486C77.1595 114.486 80.9477 112.725 82.3063 109.835C82.4042 109.628 82.4884 109.414 82.5588 109.195C82.7025 108.748 82.7838 108.278 82.7838 107.786C82.7838 105.957 81.5227 104.26 79.796 104.26C78.618 104.26 77.7394 104.863 77.1882 105.909C77.1856 105.914 77.1815 105.918 77.1764 105.921C77.1714 105.924 77.1655 105.925 77.1595 105.925C77.1534 105.925 77.1476 105.924 77.1425 105.921C77.1374 105.918 77.1333 105.914 77.1307 105.909C76.5795 104.863 75.7015 104.26 74.5229 104.26Z" fill="#A4C95F"/>
</svg>
