<svg width="136" height="147" viewBox="0 0 136 147" fill="none" xmlns="http://www.w3.org/2000/svg">
<path d="M33.4791 2.50792C28.7568 5.15992 23.3304 9.22591 19.3763 13.9709C7.52991 28.1869 2.59961 50.1669 2.59961 68.3239C2.59961 74.6999 4.54221 89.2779 11.8738 92.2109C14.8632 93.4049 18.215 93.7819 18.848 89.9769C19.2732 87.4299 16.4014 83.2309 15.5993 80.8259C15.129 79.4119 14.2865 77.0539 14.2865 77.0539C14.2865 77.0539 14.4009 77.7419 14.4589 78.0859C14.7763 79.9899 16.1195 82.0939 16.949 83.8349C18.9768 88.0919 20.8774 89.9579 25.4823 88.4219C29.8874 86.9529 24.3177 72.1309 23.7588 68.7849C22.3914 60.5739 22.3109 52.0969 24.4676 43.8979C27.465 32.4979 26.4326 38.0699 27.0318 35.3699C27.312 34.1099 28.4104 31.7519 28.4104 31.7519C28.4104 31.7519 27.9143 32.7719 27.7211 33.3039C27.0623 35.1139 26.5694 36.6499 26.0267 38.4969C23.4593 47.2389 22.997 49.3439 22.997 54.8719C22.997 69.8769 27.7082 82.7279 29.3495 97.4969C29.6587 100.276 30.9553 119.484 29.6153 121.492C28.5264 123.127 24.8428 124.715 23.2434 126.316C19.845 129.715 19.0993 136.06 21.52 140.095C22.6717 142.013 26.8787 143.112 28.9274 143.368C33.6725 143.96 49.721 143.698 53.8427 141.254C57.6004 139.025 59.4736 137.384 59.9052 133.712C60.8458 125.714 61.1373 111.648 61.1373 103.58C61.1373 101.794 60.9457 97.1729 60.2772 96.1999C59.5363 95.1219 61.598 97.9229 60.7492 96.2269C60.7154 96.1609 68.585 97.5809 59.9568 95.3729C58.4718 94.9959 56.5729 93.2469 56.6405 93.4169C56.9224 94.1239 59.8182 96.1449 60.7798 96.2389C73.9324 97.5129 61.0766 96.2979 63.2849 96.5749C66.7171 97.0039 69.7125 96.8779 72.8484 95.4829C74.042 94.9539 75.8684 94.3589 76.8107 93.4169C76.983 93.2439 73.119 96.0469 73.119 96.0469C73.119 96.0469 76.8413 93.2139 76.6383 93.4169C75.5463 94.5089 73.5893 94.9169 72.6777 95.8279C71.8788 96.6269 72.6777 101.942 72.6777 103.235C72.6777 112.362 72.3491 127.793 75.4416 136.118C79.2073 146.255 100.696 146.198 109.299 142.113C110.75 141.425 113.224 139.742 114.026 138.359C121.276 125.842 106.745 124.873 105.95 123.163C104.727 120.534 104.715 113.795 104.715 110.985C104.715 102.736 103.931 93.1589 106.782 85.3209C110.94 73.8839 113.042 61.7469 111.021 49.6159C110.336 45.5129 109.448 41.2079 108.141 37.2899C107.719 36.0259 106.999 34.2619 106.782 32.9589C106.772 32.9009 106.365 31.1379 106.265 31.2359C105.509 31.9909 108.579 38.1759 108.826 39.2819C110.331 46.0559 111.048 48.1899 111.68 55.1299C112.229 61.1799 110.085 71.7749 108.503 77.5689C107.614 80.8329 106.16 84.6939 109.527 87.2189C113.627 90.2929 116.349 83.0389 117.116 80.3589C117.543 78.8569 118.188 77.2119 118.188 77.2119C118.188 77.2119 118.483 76.6629 118.322 77.2269C117.816 78.9949 117.039 80.6339 116.599 82.3929C115.624 86.2909 114.719 92.6909 121.761 91.3419C131.046 89.5629 132.638 80.6199 133.02 72.2089C134.337 43.3979 121.112 17.7839 100.236 2.12593C98.9942 1.19493 87.9596 6.01692 86.1186 6.01692C77.5274 6.01692 77.3277 8.31592 71.6711 8.82992C68.73 9.09692 62.7915 10.2229 61.0263 10.2859C55.5258 10.4809 59.203 10.3389 48.4051 7.46892C46.2758 6.90392 35.4394 1.40592 33.4791 2.50792Z" fill="#CEEC97" stroke="#A4C95F" stroke-width="3.99844" stroke-miterlimit="10" stroke-linecap="round" stroke-linejoin="round"/>
</svg>
