<svg width="52" height="29" viewBox="0 0 52 29" fill="none" xmlns="http://www.w3.org/2000/svg">
<path d="M22.7569 9.32958C17.8048 4.90298 9.94195 1.61768 4.46635 6.52488C3.55485 7.34178 2.18015 8.34438 1.99445 9.64808C1.36515 14.0681 9.78705 13.9475 11.3821 15.3732C11.5942 15.5628 10.6476 16.1515 10.4749 16.2687C9.38495 17.0086 7.99915 17.9499 7.36975 19.1459C6.21725 21.3357 7.53255 23.8245 9.61185 24.9897C13.2264 27.0151 17.8342 26.3896 20.9204 23.7929C22.126 22.7785 23.2838 21.7456 24.3435 20.5601C24.5455 20.3341 25.6724 18.8682 25.7744 18.9594C30.0312 22.7646 42.5311 29.9342 46.8694 22.5644C49.3956 18.2726 41.7675 14.9308 41.7286 14.2361C41.6543 12.9097 44.3064 13.516 45.4832 12.8995C47.7708 11.7009 49.8685 8.57798 49.4315 5.97668C48.7481 1.91348 44.9515 1.68048 41.5639 2.25018C36.9594 3.02458 27.4319 6.48608 24.2076 10.0931" fill="#FBBDE0"/>
<path d="M22.7569 9.32958C17.8048 4.90298 9.94195 1.61768 4.46635 6.52488C3.55485 7.34178 2.18015 8.34438 1.99445 9.64808C1.36515 14.0681 9.78705 13.9475 11.3821 15.3732C11.5942 15.5628 10.6476 16.1515 10.4749 16.2687C9.38495 17.0086 7.99915 17.9499 7.36975 19.1459C6.21725 21.3357 7.53255 23.8245 9.61185 24.9897C13.2264 27.0151 17.8342 26.3896 20.9204 23.7929C22.126 22.7785 23.2838 21.7456 24.3435 20.5601C24.5455 20.3341 25.6724 18.8682 25.7744 18.9594C30.0312 22.7646 42.5311 29.9342 46.8694 22.5644C49.3956 18.2726 41.7675 14.9308 41.7286 14.2361C41.6543 12.9097 44.3064 13.516 45.4832 12.8995C47.7708 11.7009 49.8685 8.57798 49.4315 5.97668C48.7481 1.91348 44.9515 1.68048 41.5639 2.25018C36.9594 3.02458 27.4319 6.48608 24.2076 10.0931" stroke="#DC9DC0" stroke-width="3.79508" stroke-miterlimit="10" stroke-linecap="round" stroke-linejoin="round"/>
</svg>
