<svg width="137" height="54" viewBox="0 0 137 54" fill="none" xmlns="http://www.w3.org/2000/svg">
<path d="M60.024 2.36882C58.8744 2.53442 57.6708 3.12552 56.6791 4.27162C56.318 4.68892 53.9832 8.44432 54.7854 8.89922L62.0357 9.22492C66.4548 5.24522 63.4726 1.87192 60.024 2.36882ZM48.7479 5.24312C47.7118 5.36672 46.7207 5.81232 46.0687 6.47282C43.4174 9.15872 48.1179 13.0952 50.6578 13.2281L53.823 8.94062C53.8024 9.33372 53.284 8.23992 53.1979 8.08452C52.7847 7.33952 52.3795 6.36822 51.6602 5.86452C50.8669 5.30912 49.7841 5.11942 48.7479 5.24312ZM90.1568 3.39922C89.0078 3.56492 87.8038 4.15592 86.812 5.30202C86.4509 5.71932 84.1162 9.47472 84.9183 9.92972L92.1688 10.2553C96.5878 6.27572 93.6058 2.90242 90.1568 3.39922ZM78.8809 6.27352C77.8447 6.39712 76.8513 6.81172 76.1993 7.47232C73.548 10.1582 78.2509 14.1256 80.7908 14.2585L83.9536 9.94012C83.933 10.3332 83.4146 9.23932 83.3285 9.08402C82.9153 8.33902 82.5124 7.39862 81.7931 6.89502C80.9999 6.33952 79.9171 6.14992 78.8809 6.27352ZM65.3909 8.28682C64.5411 8.30762 61.8753 8.72252 61.8106 9.95822L65.3279 13.6486C65.7537 13.8901 66.6191 13.5809 67.0955 13.5465C72.1822 13.1792 69.8117 8.17852 65.3909 8.28682ZM36.9496 13.1711C35.8 13.3367 34.5964 13.9278 33.6047 15.0739C33.2436 15.4912 30.9088 19.2466 31.711 19.7015L38.9613 20.0272C43.3804 16.0476 40.3982 12.6742 36.9496 13.1711ZM95.5238 9.31732C94.6738 9.33812 92.0078 9.75292 91.9438 10.9886L95.4608 14.679C95.8868 14.9205 96.7498 14.5804 97.2258 14.546C102.313 14.1787 99.9448 9.20902 95.5238 9.31732ZM50.7671 13.4378C49.8778 14.2387 49.0866 14.9414 48.4359 15.9806C44.342 22.5196 56.3362 24.0193 56.6654 17.7274L50.7671 13.4378ZM25.6736 16.0454C24.6374 16.169 23.6463 16.6146 22.9943 17.2751C20.343 19.961 25.0435 23.8975 27.5835 24.0304L30.7486 19.7429C30.728 20.136 30.1786 19.0445 30.0925 18.8892C29.6793 18.1441 29.3051 17.1705 28.5858 16.6668C27.7926 16.1114 26.7097 15.9217 25.6736 16.0454ZM65.1711 14.8751L57.9415 18.1296C57.4655 18.9689 60.3996 20.252 61.037 20.3568C65.0028 21.0087 72.4708 15.257 65.1711 14.8751ZM80.9 14.4683C80.0108 15.2691 79.2195 15.9718 78.5689 17.011C74.475 23.55 86.4691 25.0498 86.7983 18.7579L80.9 14.4683ZM42.3166 19.0891C41.4667 19.1099 38.7699 19.5271 38.7053 20.7628L42.2225 24.4532C42.6483 24.6947 43.5447 24.3832 44.0211 24.3488C49.1078 23.9815 46.7373 18.9808 42.3166 19.0891ZM111.614 14.5206C110.464 14.6863 109.26 15.2773 108.269 16.4234C107.908 16.8407 105.573 20.5961 106.375 21.0511L113.625 21.3767C118.044 17.3971 115.062 14.0238 111.614 14.5206ZM95.3038 15.9055L88.0745 19.16C87.5984 19.9994 90.5638 21.2801 91.2008 21.3849C93.1438 21.7043 95.8758 20.4538 97.3498 19.0839C95.6108 21.7361 99.8518 25.2546 102.247 25.3799L105.41 21.0615C105.39 21.4546 104.871 20.3607 104.785 20.2054C104.372 19.4604 103.969 18.52 103.25 18.0164C101.763 16.9757 99.3288 17.2593 97.9518 18.3845C98.7698 17.1906 98.3968 16.0673 95.3038 15.9055ZM27.6927 24.2401C26.8034 25.041 26.0122 25.7437 25.3616 26.7829C21.2676 33.3219 33.2618 34.8216 33.591 28.5297L27.6927 24.2401ZM42.0967 25.6774L34.8671 28.9319C34.3911 29.7712 37.3253 31.0543 37.9626 31.1591C41.9284 31.811 49.3964 26.0593 42.0967 25.6774ZM116.98 20.4387C116.131 20.4595 113.465 20.8743 113.4 22.11L116.917 25.8004C117.343 26.0419 118.206 25.7018 118.683 25.6674C123.769 25.3001 121.401 20.3304 116.98 20.4387ZM16.8446 30.7262C15.695 30.8918 14.4914 31.4829 13.4997 32.629C13.1386 33.0463 10.8062 36.8326 11.6084 37.2876L18.8873 37.5799C23.3063 33.6003 20.2933 30.2293 16.8446 30.7262ZM102.357 25.5897C101.467 26.3905 100.676 27.0932 100.025 28.1324C95.9318 34.6714 107.926 36.1712 108.255 29.8793L102.357 25.5897ZM5.57093 33.6314C4.53473 33.755 3.54133 34.1696 2.88933 34.8302C0.238025 37.5161 4.93853 41.4525 7.47853 41.5854L10.6436 37.298C10.6231 37.6911 10.1046 36.5972 10.0185 36.4419C9.60533 35.6969 9.20013 34.7256 8.48083 34.2219C7.68763 33.6665 6.60713 33.5078 5.57093 33.6314ZM116.761 27.0269L112.571 28.9131L109.531 30.2814C109.055 31.1208 112.02 32.4015 112.658 32.5063C116.623 33.1582 124.06 27.4089 116.761 27.0269ZM22.2139 36.6752C21.3641 36.696 18.6959 37.0799 18.6312 38.3156L22.1485 42.006C22.5743 42.2475 23.4707 41.9359 23.9471 41.9016C29.0338 41.5343 26.6346 36.5669 22.2139 36.6752ZM124.848 32.6776C123.699 32.8432 122.495 33.4343 121.503 34.5804C121.142 34.9977 118.81 38.7841 119.612 39.239L126.86 39.5337C131.279 35.5541 128.297 32.1807 124.848 32.6776ZM7.61873 41.7929C6.72943 42.5937 5.94053 43.3274 5.28993 44.3666C1.19593 50.9056 13.1568 52.3767 13.486 46.0848L7.61873 41.7929ZM113.575 35.5828C112.538 35.7065 111.545 36.1211 110.893 36.7816C108.242 39.4675 112.942 43.404 115.482 43.5369L118.647 39.2494C118.627 39.6425 118.108 38.5487 118.022 38.3933C117.609 37.6483 117.204 36.677 116.484 36.1733C115.691 35.6179 114.611 35.4592 113.575 35.5828ZM22.0227 43.2301L14.7621 46.4869C14.2861 47.3263 17.2512 48.607 17.8886 48.7118C21.8544 49.3637 29.3224 43.612 22.0227 43.2301ZM130.218 38.6266C129.368 38.6474 126.7 39.0313 126.635 40.267L130.121 43.9597C130.547 44.2012 131.443 43.8897 131.92 43.8553C137.007 43.4881 134.638 38.5183 130.218 38.6266ZM115.591 43.7467C114.702 44.5475 113.913 45.2812 113.263 46.3204C109.169 52.8594 121.161 54.3281 121.49 48.0362L115.591 43.7467ZM129.995 45.1839L122.766 48.4384C122.29 49.2777 125.224 50.5608 125.861 50.6656C129.827 51.3175 137.295 45.5658 129.995 45.1839Z" fill="#FBBDE0" stroke="#DC9DC0" stroke-width="3.79508" stroke-miterlimit="10" stroke-linecap="round" stroke-linejoin="round"/>
</svg>
