<svg width="128" height="39" viewBox="0 0 128 39" fill="none" xmlns="http://www.w3.org/2000/svg">
<path d="M16.8932 14.1423L12.9688 26.96C12.9688 26.96 49.9301 38.249 53.1017 32.866C56.2732 27.482 53.9368 20.168 53.9368 20.168L16.8932 14.1423Z" fill="#312A54" stroke="#658BF5" stroke-width="3.79508" stroke-miterlimit="10" stroke-linejoin="round"/>
<path d="M72.1425 20.3283C72.1425 20.3283 68.6214 32.851 73.0042 34.978C77.387 37.105 107.473 36.165 110.386 33.039C113.299 29.913 108.894 19.8953 108.894 19.8953L72.1425 20.3283Z" fill="#312A54" stroke="#658BF5" stroke-width="3.79508" stroke-miterlimit="10" stroke-linejoin="round"/>
<path d="M54.8301 21.1334C53.2139 19.3218 58.1876 18.5859 59.1887 18.3606C63.0955 17.4816 66.872 18.6637 70.5111 20.1119" fill="#312A54"/>
<path d="M54.8301 21.1334C53.2139 19.3218 58.1876 18.5859 59.1887 18.3606C63.0955 17.4816 66.872 18.6637 70.5111 20.1119" stroke="#658BF5" stroke-width="3.79508" stroke-miterlimit="10" stroke-linecap="round" stroke-linejoin="round"/>
<path d="M2.88693 2.05623C2.57533 1.69033 4.04583 3.22253 4.23573 3.41373C4.92263 4.10503 5.69903 4.68963 6.40503 5.35763C8.75583 7.58163 11.4608 9.39553 13.9738 11.3783C14.5435 11.8278 18.1429 14.7819 16.7528 13.5099" fill="#312A54"/>
<path d="M2.88693 2.05623C2.57533 1.69033 4.04583 3.22253 4.23573 3.41373C4.92263 4.10503 5.69903 4.68963 6.40503 5.35763C8.75583 7.58163 11.4608 9.39553 13.9738 11.3783C14.5435 11.8278 18.1429 14.7819 16.7528 13.5099" stroke="#658BF5" stroke-width="3.79508" stroke-miterlimit="10" stroke-linecap="round" stroke-linejoin="round"/>
<path d="M107.295 20.3404C106.797 20.591 108.705 19.3677 109.127 19.0116C110.137 18.1595 111.128 17.2766 112.118 16.4021C115.413 13.4892 118.519 10.435 121.935 7.65361C122.535 7.16501 126.454 2.60781 125.351 3.34701" fill="#312A54"/>
<path d="M107.295 20.3404C106.797 20.591 108.705 19.3677 109.127 19.0116C110.137 18.1595 111.128 17.2766 112.118 16.4021C115.413 13.4892 118.519 10.435 121.935 7.65361C122.535 7.16501 126.454 2.60781 125.351 3.34701" stroke="#658BF5" stroke-width="3.79508" stroke-miterlimit="10" stroke-linecap="round" stroke-linejoin="round"/>
</svg>
