<svg width="157" height="143" viewBox="0 0 157 143" fill="none" xmlns="http://www.w3.org/2000/svg">
<path d="M133.8 64.6517C137.318 64.004 139.462 65.2569 142.666 66.6334C156.501 72.5789 155.804 91.1937 150.5 102.802C147.43 109.52 139.62 114.729 132.279 112.606" fill="#BBBBBB"/>
<path d="M133.8 64.6517C137.318 64.004 139.462 65.2569 142.666 66.6334C156.501 72.5789 155.804 91.1937 150.5 102.802C147.43 109.52 139.62 114.729 132.279 112.606" stroke="#858585" stroke-width="3.99844" stroke-miterlimit="10" stroke-linecap="round" stroke-linejoin="round"/>
<path d="M22.9499 63.731C19.4338 63.0833 17.2901 64.3362 14.0864 65.7129C0.249354 71.6583 0.946784 90.2731 6.25067 101.881C9.32059 108.6 17.1322 113.809 24.472 111.687" fill="#BBBBBB"/>
<path d="M22.9499 63.731C19.4338 63.0833 17.2901 64.3362 14.0864 65.7129C0.249354 71.6583 0.946784 90.2731 6.25067 101.881C9.32059 108.6 17.1322 113.809 24.472 111.687" stroke="#858585" stroke-width="3.99844" stroke-miterlimit="10" stroke-linecap="round" stroke-linejoin="round"/>
<path d="M141.32 66.8466C141.502 66.4837 143.282 70.6915 143.51 71.3264C144.701 74.6673 145.449 78.2189 145.802 81.7446C146.637 90.1176 144.585 105.88 138.299 112.166" fill="#BBBBBB"/>
<path d="M141.32 66.8466C141.502 66.4837 143.282 70.6915 143.51 71.3264C144.701 74.6673 145.449 78.2189 145.802 81.7446C146.637 90.1176 144.585 105.88 138.299 112.166" stroke="#858585" stroke-width="3.99844" stroke-miterlimit="10" stroke-linecap="round" stroke-linejoin="round"/>
<path d="M14.4227 66.1322C14.2407 65.7694 12.4609 69.9772 12.2338 70.6121C11.0402 73.953 10.2946 77.5046 9.94185 81.0303C9.1043 89.4033 11.1563 105.165 17.4426 111.453" fill="#BBBBBB"/>
<path d="M14.4227 66.1322C14.2407 65.7694 12.4609 69.9772 12.2338 70.6121C11.0402 73.953 10.2946 77.5046 9.94185 81.0303C9.1043 89.4033 11.1563 105.165 17.4426 111.453" stroke="#858585" stroke-width="3.99844" stroke-miterlimit="10" stroke-linecap="round" stroke-linejoin="round"/>
<path d="M84.6307 30.7788C114.133 33.768 137.115 57.5355 137.115 86.4125C137.115 117.313 110.938 140.02 78.4764 140.02C46.0136 140.02 19.5586 117.313 19.5586 86.4125C19.5586 57.0014 43.3996 32.8905 73.6879 30.6343" fill="#CEEC97"/>
<path d="M84.6307 30.7788C114.133 33.768 137.115 57.5355 137.115 86.4125C137.115 117.313 110.937 140.02 78.4764 140.02C46.0136 140.02 19.5586 117.313 19.5586 86.4125C19.5586 57.0014 43.3996 32.8905 73.6879 30.6343" stroke="#A4C95F" stroke-width="3.99844" stroke-miterlimit="10" stroke-linejoin="round"/>
<path d="M72.8359 30.6371C75.9154 30.6371 73.274 23.8308 74.5932 21.1928C75.698 18.9821 79.6345 17.9047 81.1824 20.2264C83.2359 23.3071 82.0649 27.331 83.3341 30.5054C83.426 30.7334 83.9897 30.5411 84.125 30.8128" fill="#CEEC97"/>
<path d="M72.8359 30.6371C75.9154 30.6371 73.274 23.8308 74.5932 21.1928C75.698 18.9821 79.6345 17.9047 81.1824 20.2264C83.2359 23.3071 82.0649 27.331 83.3341 30.5054C83.426 30.7334 83.9897 30.5411 84.125 30.8128" stroke="#A4C95F" stroke-width="3.99844" stroke-miterlimit="10" stroke-linecap="round" stroke-linejoin="round"/>
<path d="M69.4258 11.3468C69.4258 6.35661 73.375 2.31128 78.2473 2.31128C83.1195 2.31128 87.0689 6.35661 87.0689 11.3468C87.0689 16.3369 83.1195 20.382 78.2473 20.382C73.375 20.382 69.4258 16.3369 69.4258 11.3468Z" fill="#CEEC97" stroke="#A4C95F" stroke-width="3.99844" stroke-miterlimit="10" stroke-linejoin="round"/>
<path d="M98.1952 81.5153C103.823 74.4484 112.471 71.9721 117.509 75.9848C122.547 79.9973 122.068 88.9791 116.44 96.0462C110.813 103.113 102.166 105.59 97.1273 101.576C92.0892 97.5642 92.5676 88.5824 98.1952 81.5153Z" fill="black" stroke="black" stroke-width="3.99844" stroke-miterlimit="10" stroke-linejoin="round"/>
<path d="M59.0292 81.755C53.4015 74.688 44.7539 72.212 39.7158 76.2244C34.6777 80.237 35.1545 89.2189 40.7837 96.2859C46.4113 103.353 55.0589 105.829 60.097 101.816C65.1352 97.8039 64.6568 88.8222 59.0292 81.755Z" fill="black" stroke="black" stroke-width="3.99844" stroke-miterlimit="10" stroke-linejoin="round"/>
<path d="M65.8066 118.752C65.8066 118.752 75.0131 129.031 89.6298 121.314" stroke="#A4C95F" stroke-width="3.99844" stroke-miterlimit="10" stroke-linecap="round" stroke-linejoin="round"/>
<path d="M39.5635 85.8624C38.4682 83.1852 39.1995 80.3516 41.1983 79.5335C43.1971 78.7153 45.7049 80.2223 46.8017 82.8996C47.897 85.5768 47.1658 88.4103 45.167 89.2285C43.1682 90.0468 40.6603 88.5397 39.5635 85.8624Z" fill="#E0E0E0"/>
<path d="M102.07 81.7843C103.627 79.3464 106.363 78.3124 108.183 79.4749C110.004 80.6374 110.216 83.5562 108.66 85.9941C107.103 88.4319 104.365 89.4659 102.545 88.3035C100.724 87.1409 100.512 84.2224 102.07 81.7843Z" fill="#E0E0E0"/>
<path d="M75.2267 104.531C73.5007 104.531 72.2402 106.227 72.2402 108.056C72.2402 108.548 72.3213 109.018 72.465 109.464C72.5354 109.683 72.6195 109.896 72.7174 110.104C74.0755 112.992 77.8623 114.753 77.8623 114.753C77.8623 114.753 81.649 112.993 83.0071 110.104C83.1049 109.897 83.1891 109.683 83.2595 109.464C83.4031 109.018 83.4844 108.548 83.4844 108.056C83.4844 106.228 82.2238 104.531 80.4977 104.531C79.3202 104.531 78.4419 105.134 77.891 106.18C77.8884 106.185 77.8843 106.189 77.8792 106.192C77.8742 106.195 77.8683 106.196 77.8623 106.196C77.8562 106.196 77.8504 106.195 77.8453 106.192C77.8402 106.189 77.8361 106.185 77.8335 106.18C77.2825 105.134 76.4048 104.531 75.2267 104.531Z" fill="#A4C95F"/>
</svg>
