<svg width="96" height="67" viewBox="0 0 96 67" fill="none" xmlns="http://www.w3.org/2000/svg">
<path d="M2.375 2L93.8841 4.815L89.4841 61.261C89.4841 61.261 55.516 65.931 52.3782 64.064C49.2404 62.196 51.6708 34.977 51.6708 34.977L43.1993 36.395C43.1993 36.395 45.7286 60.721 43.4045 63.961C41.0805 67.201 9.0432 60.799 6.9378 59.171C4.8323 57.543 2.375 2 2.375 2Z" fill="#4167D1" stroke="#658BF5" stroke-width="3.44439" stroke-miterlimit="10" stroke-linecap="round" stroke-linejoin="round"/>
<path d="M69.6844 3.35693L68.2031 27.9619L92.7411 27.7869L69.6844 3.35693Z" fill="#4167D1" stroke="#658BF5" stroke-width="3.44439" stroke-miterlimit="10" stroke-linecap="round" stroke-linejoin="round"/>
<path d="M2.90039 3.772L4.46999 29.309L26.2556 29.097L27.1455 3.323L4.95879 27.233" fill="#4167D1"/>
<path d="M2.90039 3.772L4.46999 29.309L26.2556 29.097L27.1455 3.323L4.95879 27.233" stroke="#658BF5" stroke-width="3.44439" stroke-miterlimit="10" stroke-linecap="round" stroke-linejoin="round"/>
</svg>
