<svg width="240" height="324" viewBox="0 0 240 324" fill="none" xmlns="http://www.w3.org/2000/svg">
<rect x="0.84375" y="41" width="239" height="283" fill="#312A54"/>
<path d="M120.344 2C153.178 2 182.819 6.68088 204.18 14.1885C214.869 17.9455 223.378 22.3734 229.175 27.1904C234.984 32.0173 237.844 37.0315 237.844 42C237.844 46.9685 234.983 51.9827 229.175 56.8096C223.378 61.6266 214.869 66.0545 204.18 69.8115C182.819 77.3191 153.178 82 120.344 82C87.5091 82 57.8688 77.3191 36.5078 69.8115C25.8182 66.0545 17.3096 61.6266 11.5127 56.8096C5.704 51.9827 2.84375 46.9685 2.84375 42C2.84375 37.0315 5.704 32.0173 11.5127 27.1904C17.3096 22.3734 25.8182 17.9455 36.5078 14.1885C57.8688 6.68088 87.5091 2 120.344 2Z" fill="#312A54" stroke="#FF5A5E" stroke-width="4"/>
</svg>
