<svg width="34" height="32" viewBox="0 0 34 32" fill="none" xmlns="http://www.w3.org/2000/svg">
<path d="M16.8506 0.5C17.0652 0.500074 17.2758 0.561906 17.459 0.678711C17.5966 0.766527 17.715 0.882933 17.8057 1.02051L17.8867 1.16406L17.8887 1.16895L22.0889 9.78809L22.2041 10.0244L22.4648 10.0635L31.8906 11.4609H31.8916C32.1033 11.4916 32.3034 11.5823 32.4688 11.7236C32.6326 11.8636 32.756 12.0479 32.8242 12.2568C32.8856 12.463 32.8912 12.6825 32.8398 12.8916C32.7883 13.1012 32.6818 13.2912 32.5332 13.4424L25.7256 20.1719L25.5391 20.3564L25.584 20.6133L27.2383 30.0908L27.2393 30.0977C27.281 30.3211 27.2585 30.552 27.1758 30.7627C27.1137 30.9206 27.02 31.062 26.9014 31.1777L26.7783 31.2812C26.5696 31.4301 26.3198 31.504 26.0674 31.4922L26.0547 31.4912L26.042 31.4922C25.9049 31.4927 25.769 31.4672 25.6406 31.4189L25.5146 31.3633L17.085 26.8711L16.8506 26.7451L16.6152 26.8711L8.18164 31.3652V31.3662C7.99126 31.4681 7.77686 31.5131 7.56348 31.4971C7.35017 31.4811 7.14488 31.404 6.9707 31.2744C6.79644 31.1447 6.65958 30.9671 6.57812 30.7607C6.51699 30.6058 6.48921 30.4395 6.49512 30.2734L6.51172 30.1084L8.16602 20.6309L8.21094 20.373L8.02441 20.1885L1.21582 13.459C1.06749 13.3079 0.961576 13.1176 0.910156 12.9082C0.8589 12.6994 0.863677 12.4803 0.924805 12.2744C0.992962 12.0651 1.11719 11.8805 1.28125 11.7402C1.40534 11.6342 1.54877 11.5567 1.70215 11.5117L1.8584 11.4775H1.85938L11.2852 10.0801L11.5479 10.041L11.6621 9.80176L15.8125 1.16602L15.8135 1.16406C15.909 0.963368 16.0579 0.795679 16.2412 0.678711C16.4245 0.561778 16.6358 0.5 16.8506 0.5Z" fill="#FF5A5E" stroke="black"/>
</svg>
