<svg width="15" height="12" viewBox="0 0 15 12" fill="none" xmlns="http://www.w3.org/2000/svg">
<path d="M11.0305 11.9969C10.9219 11.9973 10.8148 11.9735 10.7182 11.9275L7.25469 10.2419L3.79122 11.9275C3.67876 11.9824 3.55196 12.007 3.42524 11.9983C3.29851 11.9896 3.17695 11.9481 3.07437 11.8783C2.9718 11.8086 2.89231 11.7136 2.84496 11.604C2.79761 11.4944 2.78429 11.3746 2.80651 11.2583L3.48562 7.7042L0.687688 5.17909C0.600394 5.09811 0.538468 4.99656 0.508558 4.88535C0.478647 4.77413 0.48188 4.65744 0.517911 4.54781C0.557272 4.43561 0.629676 4.33592 0.726907 4.26004C0.824138 4.18417 0.942302 4.13514 1.06799 4.11854L4.93892 3.59457L6.64349 0.356111C6.6991 0.24938 6.78592 0.159368 6.89402 0.0963861C7.00212 0.0334043 7.12711 0 7.25469 0C7.38227 0 7.50726 0.0334043 7.61536 0.0963861C7.72345 0.159368 7.81028 0.24938 7.86589 0.356111L9.59083 3.58826L13.4618 4.11222C13.5875 4.12883 13.7056 4.17785 13.8028 4.25373C13.9001 4.32961 13.9725 4.4293 14.0118 4.54149C14.0479 4.65113 14.0511 4.76782 14.0212 4.87903C13.9913 4.99025 13.9294 5.09179 13.8421 5.17277L11.0441 7.69789L11.7232 11.252C11.7475 11.3703 11.7348 11.4927 11.6867 11.6045C11.6385 11.7164 11.557 11.8131 11.4516 11.8833C11.3286 11.9634 11.1806 12.0033 11.0305 11.9969Z" fill="#FF5A5E"/>
</svg>
