<svg width="139" height="107" viewBox="0 0 139 107" fill="none" xmlns="http://www.w3.org/2000/svg">
<path d="M37.4151 2.45898C37.4151 2.45898 25.8353 5.18798 15.995 18.653C8.4364 28.995 1.9041 45.671 2.4345 72.308C2.4345 72.308 21.2377 77.697 25.4709 71.653C25.4709 71.653 26.208 60.471 27.2287 50.341C27.9953 42.734 27.2287 39.811 30.0538 32.675C30.0538 32.675 21.8934 38.857 27.2287 98.425C27.2287 98.425 73.7664 110.995 111.994 98.577C111.994 98.577 115.334 53.647 107.983 34.207C107.983 34.207 111.994 57.942 111.994 66.346C111.994 75.414 112.229 71.131 111.994 72.484C111.925 72.885 112.932 69.421 112.484 72.389C112.484 72.389 133.645 77.746 136.533 73.046C136.533 73.046 134.51 21.245 105.011 6.07799L37.4151 2.45898Z" fill="white" stroke="#CBCBCB" stroke-width="3.99844" stroke-miterlimit="10" stroke-linejoin="round"/>
<path d="M26.957 86.1359C26.957 86.1359 70.5983 101.702 111.577 86.0869L26.957 86.1359Z" fill="white"/>
<path d="M26.957 86.1359C26.957 86.1359 70.5983 101.702 111.577 86.0869" stroke="#CBCBCB" stroke-width="3.99844" stroke-miterlimit="10" stroke-linejoin="round"/>
<path d="M25.1152 76.926C25.1152 76.926 98.304 91.884 112.328 74.748L25.1152 76.926Z" fill="white"/>
<path d="M25.1152 76.926C25.1152 76.926 98.304 91.884 112.328 74.748" stroke="#CBCBCB" stroke-width="3.99844" stroke-miterlimit="10" stroke-linejoin="round"/>
<path d="M15.168 18.3049C15.168 18.3049 50.993 47.6029 118.975 20.2649L15.168 18.3049Z" fill="white"/>
<path d="M15.168 18.3049C15.168 18.3049 50.993 47.6029 118.975 20.2649" stroke="#CBCBCB" stroke-width="3.99844" stroke-miterlimit="10" stroke-linejoin="round"/>
<path d="M23.5098 11.3179C23.5098 11.3179 69.7647 36.2699 111.602 9.05688L23.5098 11.3179Z" fill="white"/>
<path d="M23.5098 11.3179C23.5098 11.3179 69.7647 36.2699 111.602 9.05688" stroke="#CBCBCB" stroke-width="3.99844" stroke-miterlimit="10" stroke-linejoin="round"/>
<path d="M9.07227 30.0359C9.07227 30.0359 62.8998 55.0549 126.04 27.8369" stroke="#CBCBCB" stroke-width="3.99844" stroke-miterlimit="10" stroke-linejoin="round"/>
<path d="M7.06836 43.05C7.06836 43.05 88.6291 65.12 130.657 40.532" stroke="#CBCBCB" stroke-width="3.99844" stroke-miterlimit="10" stroke-linejoin="round"/>
<path d="M5.10352 52.5199C5.10352 52.5199 81.7272 75.2629 133.865 50.0459" stroke="#CBCBCB" stroke-width="3.99844" stroke-miterlimit="10" stroke-linejoin="round"/>
<path d="M26.9941 67.7661C26.9941 67.7661 82.0683 80.4321 110.774 68.1291" stroke="#CBCBCB" stroke-width="3.99844" stroke-miterlimit="10" stroke-linejoin="round"/>
</svg>
