<svg width="131" height="103" viewBox="0 0 131 103" fill="none" xmlns="http://www.w3.org/2000/svg">
<path d="M27.5716 3.8921C27.5716 3.8921 10.5709 11.2601 2.79688 35.2311C2.79688 35.2311 19.3785 46.3461 21.5841 43.5421L24.8438 32.9531L20.1046 47.2671C20.1046 47.2671 13.2185 81.5501 18.4296 94.1141C18.4296 94.1141 45.0238 107.891 110.652 94.8431C110.652 94.8431 113.557 75.4321 102.238 33.4961L108.324 46.7221C108.324 46.7221 108.422 47.2491 113.005 45.9051C117.307 44.6441 125.015 44.0481 127.494 41.6871C130.797 38.5401 118.074 20.2241 110.728 12.7091C105.432 7.2901 100.16 5.5081 98.2971 4.3161C95.8311 2.7381 80.0823 2.5491 64.0708 2.7921C57.6266 2.8901 51.14 3.05711 45.4595 3.23311C35.2007 3.55011 27.5716 3.8921 27.5716 3.8921Z" fill="#C5E1FF" stroke="#61ADD5" stroke-width="3.99844" stroke-miterlimit="10" stroke-linejoin="round"/>
<path d="M47.4026 35.25C45.7611 37.934 45.0305 46.359 49.3518 47.358C53.8317 48.394 55.5166 38.656 54.8892 36.052" stroke="#61ADD5" stroke-width="3.44439" stroke-miterlimit="10" stroke-linecap="round" stroke-linejoin="round"/>
<path d="M58.8126 36.8931C58.2524 39.3151 58.3243 41.8381 58.1787 44.3021C58.1429 44.9071 57.9762 48.5641 57.8789 47.5371" stroke="#61ADD5" stroke-width="3.44439" stroke-miterlimit="10" stroke-linecap="round" stroke-linejoin="round"/>
<path d="M59.3711 36.274C59.3953 35.992 61.8275 36.311 62.0996 36.324C62.3745 36.338 63.4348 36.3 63.3365 36.361" stroke="#61ADD5" stroke-width="3.44439" stroke-miterlimit="10" stroke-linecap="round" stroke-linejoin="round"/>
<path d="M58.916 41.333C60.1445 41.617 61.5608 41.514 62.8182 41.621" stroke="#61ADD5" stroke-width="3.44439" stroke-miterlimit="10" stroke-linecap="round" stroke-linejoin="round"/>
<path d="M66.4624 36.4031C65.6888 38.8541 66.1891 41.7811 66.2296 44.3041C66.2415 45.0451 66.3486 47.8281 66.3678 47.5131" stroke="#61ADD5" stroke-width="3.44439" stroke-miterlimit="10" stroke-linecap="round" stroke-linejoin="round"/>
<path d="M66.791 36.0141C67.8455 35.8461 69.08 35.9231 70.1492 35.9231C70.385 35.9231 71.6458 35.9651 71.601 36.0111" stroke="#61ADD5" stroke-width="3.44439" stroke-miterlimit="10" stroke-linecap="round" stroke-linejoin="round"/>
<path d="M66.834 41.7402C67.9496 41.8082 69.7542 41.3882 70.7509 41.7022" stroke="#61ADD5" stroke-width="3.44439" stroke-miterlimit="10" stroke-linecap="round" stroke-linejoin="round"/>
<path d="M74.9308 35.7471C74.6611 37.8791 74.7093 39.9981 76.3383 41.5761C78.427 43.5981 80.622 40.3051 80.9138 38.5391" stroke="#61ADD5" stroke-width="3.44439" stroke-miterlimit="10" stroke-linecap="round" stroke-linejoin="round"/>
<path d="M81.2856 35.4091C81.2904 35.2351 81.3793 34.7221 81.3268 34.8881C80.6607 36.9991 80.9428 39.6461 80.8558 41.8501C80.6558 46.9131 78.9688 49.0651 73.9043 47.4661" stroke="#61ADD5" stroke-width="3.44439" stroke-miterlimit="10" stroke-linecap="round" stroke-linejoin="round"/>
</svg>
