<svg width="96" height="82" viewBox="0 0 96 82" fill="none" xmlns="http://www.w3.org/2000/svg">
<path d="M13.8314 3.64105L8.98508 31.948C8.98508 31.948 -1.86672 54.4991 4.29598 70.0441C4.29598 70.0441 53.1529 92.498 91.1844 68.224C91.1844 68.224 99.1984 66.6861 87.7484 32.4361L82.2874 6.39105V2.51904L64.7739 7.08104L63.6388 16.077C63.6388 16.077 62.0827 20.427 56.4935 22.987C54.4987 23.901 51.9902 24.5871 48.8553 24.7661C45.2794 24.9701 42.8345 23.669 41.3518 22.235C40.3337 21.251 40.1272 21.637 37.3749 18.385L36.2736 9.27304L13.8314 3.64105Z" fill="#545ABA" stroke="#272D8C" stroke-width="3.99844" stroke-miterlimit="10" stroke-linejoin="round"/>
<path d="M36.7748 60.7301L48.5749 34.8701L61.2286 61.4831L29.7168 43.1971L65.7186 40.2581L36.7748 60.7301Z" stroke="#272D8C" stroke-width="3.99844" stroke-miterlimit="10" stroke-linejoin="round"/>
</svg>
